<svg width="16" height="17" viewBox="0 0 16 17" fill="none" xmlns="http://www.w3.org/2000/svg">
<path fill-rule="evenodd" clip-rule="evenodd" d="M8.73617 3.3239L9.95445 5.75773C10.0738 5.99666 10.3043 6.16234 10.5716 6.20068L13.2969 6.59297C13.9702 6.69019 14.2382 7.50626 13.7509 7.97385L11.7801 9.86752C11.5864 10.0537 11.4983 10.3214 11.5441 10.5843L12.0092 13.2578C12.1237 13.9191 11.4198 14.4237 10.818 14.1108L8.38214 12.8477C8.14335 12.7238 7.85735 12.7238 7.61786 12.8477L5.182 14.1108C4.58015 14.4237 3.87626 13.9191 3.9915 13.2578L4.4559 10.5843C4.50171 10.3214 4.41355 10.0537 4.21988 9.86752L2.24912 7.97385C1.76181 7.50626 2.02976 6.69019 2.70311 6.59297L5.42843 6.20068C5.69569 6.16234 5.92685 5.99666 6.04625 5.75773L7.26383 3.3239C7.5651 2.72211 8.4349 2.72211 8.73617 3.3239Z" stroke="#2B71F7" stroke-linecap="round" stroke-linejoin="round"/>
</svg>
