<svg width="24" height="25" viewBox="0 0 24 25" fill="none" xmlns="http://www.w3.org/2000/svg">
<path fill-rule="evenodd" clip-rule="evenodd" d="M3.4533 4.00033C3.69945 4.25404 4.50505 5.0769 5.24352 5.82892L6.58619 7.19622L12.0816 7.19748C15.1041 7.19819 17.5769 7.19073 17.5766 7.18094C17.5755 7.14258 17.4544 6.75031 17.395 6.59277C17.3605 6.50128 17.2708 6.30344 17.1958 6.15313C16.4984 4.7567 15.1563 3.79163 13.612 3.57623C13.3768 3.54343 12.7363 3.53906 8.17557 3.53906H3.00575L3.4533 4.00033ZM3.25126 9.59586C3.38633 9.73793 4.19196 10.5612 5.04152 11.4253L6.58619 12.9965L13.7931 12.9969L21 12.9972L20.9845 12.9319C20.9326 12.7128 20.765 12.259 20.645 12.0128C20.2702 11.2436 19.7252 10.6172 19.0177 10.1423C18.5447 9.82476 18.0764 9.61502 17.533 9.47726C16.9515 9.32985 17.3738 9.33755 9.8624 9.33755H3.00565L3.25126 9.59586ZM6.31007 17.8511C4.84269 19.3444 3.49764 20.7132 3.32105 20.8929L3 21.2197H5.56602H8.13204L9.31965 20.0079L10.5073 18.7961L13.5847 18.7957C15.4846 18.7955 16.744 18.7862 16.876 18.7715C18.5863 18.5806 20.0545 17.4975 20.7304 15.928C20.827 15.7037 20.9991 15.2021 20.9991 15.1448C20.9991 15.14 18.2944 15.136 14.9886 15.136H8.97804L6.31007 17.8511Z" fill="#2B71F7"/>
</svg>
