<svg width="16" height="17" viewBox="0 0 16 17" fill="none" xmlns="http://www.w3.org/2000/svg">
<path opacity="0.4" d="M10.794 1.87231H5.20667C3.18 1.87231 2 3.05898 2 5.09231V11.979C2 14.0456 3.18 15.2056 5.20667 15.2056H10.794C12.8533 15.2056 14 14.0456 14 11.979V5.09231C14 3.05898 12.8533 1.87231 10.794 1.87231Z" fill="#00B8B8"/>
<path fill-rule="evenodd" clip-rule="evenodd" d="M5.38667 4.97241V4.97908C5.09934 4.97908 4.86667 5.21241 4.86667 5.49908C4.86667 5.78575 5.09934 6.01908 5.38667 6.01908H7.37934C7.66667 6.01908 7.9 5.78575 7.9 5.49175C7.9 5.20575 7.66667 4.97241 7.37934 4.97241H5.38667ZM10.6133 9.03241H5.38667C5.09934 9.03241 4.86667 8.79908 4.86667 8.51241C4.86667 8.22575 5.09934 7.99175 5.38667 7.99175H10.6133C10.9 7.99175 11.1333 8.22575 11.1333 8.51241C11.1333 8.79908 10.9 9.03241 10.6133 9.03241ZM10.6133 12.0791H5.38667C5.18667 12.1057 4.99334 12.0057 4.88667 11.8391C4.78 11.6657 4.78 11.4457 4.88667 11.2791C4.99334 11.1057 5.18667 11.0124 5.38667 11.0324H10.6133C10.8793 11.0591 11.08 11.2857 11.08 11.5591C11.08 11.8251 10.8793 12.0524 10.6133 12.0791Z" fill="#00B8B8"/>
</svg>
