<svg width="16" height="17" viewBox="0 0 16 17" fill="none" xmlns="http://www.w3.org/2000/svg">
<path d="M11.9457 10.0856C11.773 10.2529 11.6937 10.4949 11.733 10.7322L12.3257 14.0122C12.3757 14.2902 12.2583 14.5716 12.0257 14.7322C11.7977 14.8989 11.4943 14.9189 11.2457 14.7856L8.293 13.2456C8.19033 13.1909 8.07633 13.1616 7.95967 13.1582H7.779C7.71633 13.1676 7.655 13.1876 7.599 13.2182L4.64567 14.7656C4.49967 14.8389 4.33433 14.8649 4.17233 14.8389C3.77767 14.7642 3.51433 14.3882 3.579 13.9916L4.17233 10.7116C4.21167 10.4722 4.13233 10.2289 3.95967 10.0589L1.55233 7.72557C1.351 7.53023 1.281 7.2369 1.373 6.97223C1.46233 6.70823 1.69033 6.51557 1.96567 6.47223L5.279 5.99157C5.531 5.96557 5.75233 5.81223 5.86567 5.58557L7.32567 2.59223C7.36033 2.52557 7.405 2.46423 7.459 2.41223L7.519 2.36557C7.55033 2.3309 7.58633 2.30223 7.62633 2.2789L7.699 2.25223L7.81234 2.20557H8.093C8.34367 2.23157 8.56433 2.38157 8.67967 2.60557L10.159 5.58557C10.2657 5.80357 10.473 5.9549 10.7123 5.99157L14.0257 6.47223C14.3057 6.51223 14.5397 6.70557 14.6323 6.97223C14.7197 7.23957 14.6443 7.5329 14.439 7.72557L11.9457 10.0856Z" fill="#FBCB33"/>
</svg>
