<svg width="20" height="20" viewBox="0 0 20 20" fill="none" xmlns="http://www.w3.org/2000/svg">
<g clip-path="url(#clip0_1202_15926)">
<path d="M6.6665 12.5C6.94428 13.0556 7.99984 14.1667 9.99984 14.1667C11.9998 14.1667 13.0554 13.0556 13.3332 12.5M6.92682 7.76041H7.23932M6.92682 8.07291H7.23932M12.7602 7.76041H13.0727M12.7602 8.07291H13.0727M18.3332 10C18.3332 14.6024 14.6022 18.3334 9.99984 18.3334C5.39746 18.3334 1.6665 14.6024 1.6665 10C1.6665 5.39765 5.39746 1.66669 9.99984 1.66669C14.6022 1.66669 18.3332 5.39765 18.3332 10ZM7.49984 7.91669C7.49984 8.14681 7.31329 8.33335 7.08317 8.33335C6.85305 8.33335 6.6665 8.14681 6.6665 7.91669C6.6665 7.68657 6.85305 7.50002 7.08317 7.50002C7.31329 7.50002 7.49984 7.68657 7.49984 7.91669ZM13.3332 7.91669C13.3332 8.14681 13.1466 8.33335 12.9165 8.33335C12.6864 8.33335 12.4998 8.14681 12.4998 7.91669C12.4998 7.68657 12.6864 7.50002 12.9165 7.50002C13.1466 7.50002 13.3332 7.68657 13.3332 7.91669Z" stroke="#A3A3A3" stroke-width="2" stroke-linecap="round"/>
</g>
<defs>
<clipPath id="clip0_1202_15926">
<rect width="20" height="20" fill="white"/>
</clipPath>
</defs>
</svg>
