<svg width="20" height="20" viewBox="0 0 20 20" fill="none" xmlns="http://www.w3.org/2000/svg">
<path d="M11.6668 5.00002H15.8335M11.6668 8.33335H15.8335M3.3335 12.5H15.8335M3.3335 15.8334H15.8335M5.8335 9.16669C5.05693 9.16669 4.66864 9.16669 4.36236 9.03982C3.95398 8.87066 3.62952 8.54621 3.46036 8.13783C3.3335 7.83154 3.3335 7.44326 3.3335 6.66669C3.3335 5.89012 3.3335 5.50183 3.46036 5.19555C3.62952 4.78717 3.95398 4.46271 4.36236 4.29355C4.66864 4.16669 5.05693 4.16669 5.8335 4.16669C6.61007 4.16669 6.99835 4.16669 7.30464 4.29355C7.71302 4.46271 8.03747 4.78717 8.20663 5.19555C8.3335 5.50183 8.3335 5.89012 8.3335 6.66669C8.3335 7.44326 8.3335 7.83154 8.20663 8.13783C8.03747 8.54621 7.71302 8.87066 7.30464 9.03982C6.99835 9.16669 6.61007 9.16669 5.8335 9.16669Z" stroke="#A3A3A3" stroke-width="2" stroke-linecap="round"/>
</svg>
