<svg width="22" height="22" viewBox="0 0 22 22" fill="none" xmlns="http://www.w3.org/2000/svg">
<path d="M1.8335 9.33331L12.0776 19.5774C12.403 19.9028 12.9306 19.9028 13.2561 19.5774L20.1668 12.6666M6.8335 13.5L10.4109 9.92257C10.7363 9.59713 11.264 9.59713 11.5894 9.92257L16.8335 15.1666M15.6875 5.68743H16.3125M15.6875 6.31243H16.3125M8.50016 20.1666H13.5002C15.8337 20.1666 17.0005 20.1666 17.8918 19.7125C18.6758 19.313 19.3132 18.6756 19.7127 17.8916C20.1668 17.0003 20.1668 15.8335 20.1668 13.5V8.49998C20.1668 6.16643 20.1668 4.99965 19.7127 4.10835C19.3132 3.32434 18.6758 2.68692 17.8918 2.28745C17.0005 1.83331 15.8337 1.83331 13.5002 1.83331H8.50016C6.16661 1.83331 4.99983 1.83331 4.10854 2.28745C3.32453 2.68692 2.68711 3.32434 2.28764 4.10835C1.8335 4.99965 1.8335 6.16643 1.8335 8.49998V13.5C1.8335 15.8335 1.8335 17.0003 2.28764 17.8916C2.68711 18.6756 3.32453 19.313 4.10854 19.7125C4.99983 20.1666 6.16661 20.1666 8.50016 20.1666ZM16.8335 5.99998C16.8335 6.46022 16.4604 6.83331 16.0002 6.83331C15.5399 6.83331 15.1668 6.46022 15.1668 5.99998C15.1668 5.53974 15.5399 5.16665 16.0002 5.16665C16.4604 5.16665 16.8335 5.53974 16.8335 5.99998Z" stroke="#A3A3A3" stroke-width="2" stroke-linecap="round"/>
</svg>
