<svg width="20" height="20" viewBox="0 0 20 20" fill="none" xmlns="http://www.w3.org/2000/svg">
<path d="M9.99967 16.6673C9.0792 16.6673 8.33301 15.9211 8.33301 15.0007C8.33301 14.0802 9.0792 13.334 9.99967 13.334C10.9201 13.334 11.6663 14.0802 11.6663 15.0007C11.6663 15.9211 10.9201 16.6673 9.99967 16.6673ZM9.99967 11.6673C9.0792 11.6673 8.33301 10.9211 8.33301 10.0007C8.33301 9.08018 9.0792 8.33398 9.99967 8.33398C10.9201 8.33398 11.6663 9.08018 11.6663 10.0007C11.6663 10.4427 11.4907 10.8666 11.1782 11.1792C10.8656 11.4917 10.4417 11.6673 9.99967 11.6673ZM9.99967 6.66732C9.0792 6.66732 8.33301 5.92113 8.33301 5.00065C8.33301 4.08018 9.0792 3.33398 9.99967 3.33398C10.9201 3.33398 11.6663 4.08018 11.6663 5.00065C11.6663 5.44268 11.4907 5.8666 11.1782 6.17916C10.8656 6.49172 10.4417 6.66732 9.99967 6.66732Z" fill="#242428"/>
</svg>
