<svg width="17" height="17" viewBox="0 0 17 17" fill="none" xmlns="http://www.w3.org/2000/svg">
<path d="M8.42208 13.9962C7.6766 13.9962 7.07227 13.3919 7.07227 12.6464C7.07227 11.9009 7.6766 11.2966 8.42208 11.2966C9.16756 11.2966 9.77189 11.9009 9.77189 12.6464C9.77189 13.3919 9.16756 13.9962 8.42208 13.9962ZM8.42208 9.94677C7.6766 9.94677 7.07227 9.34244 7.07227 8.59696C7.07227 7.85148 7.6766 7.24715 8.42208 7.24715C9.16756 7.24715 9.77189 7.85148 9.77189 8.59696C9.77189 8.95495 9.62967 9.29828 9.37654 9.55142C9.1234 9.80456 8.78007 9.94677 8.42208 9.94677ZM8.42208 5.89734C7.6766 5.89734 7.07227 5.29301 7.07227 4.54753C7.07227 3.80205 7.6766 3.19772 8.42208 3.19772C9.16756 3.19772 9.77189 3.80205 9.77189 4.54753C9.77189 4.90553 9.62967 5.24885 9.37654 5.50199C9.1234 5.75513 8.78007 5.89734 8.42208 5.89734Z" fill="#242428"/>
</svg>
