<svg width="36" height="37" viewBox="0 0 36 37" fill="none" xmlns="http://www.w3.org/2000/svg">
<path d="M8.19789 2.5V8.69789H2V34.5H27.8021V28.3021H34V2.5H8.19789ZM21.6379 26.3821L19.6842 28.3358L14.9011 23.5526L10.1179 28.3358L8.16421 26.3821L12.9474 21.5989L8.16421 16.8158L10.1179 14.8621L14.9011 19.6453L19.6842 14.8621L21.6379 16.8158L16.8547 21.5989L21.6379 26.3821ZM31.2379 25.54H27.8023V8.69789H10.9602V5.26229H31.2718V25.5402L31.2379 25.54Z" fill="#FF3B30"/>
<path d="M8.19789 1.5H7.19789V2.5V7.6979H2H1V8.6979V34.5V35.5H2H27.8021H28.8021V34.5V29.3021H34H35V28.3021V2.5V1.5H34H8.19789ZM14.1939 22.8455L10.1179 26.9216L9.57842 26.3821L13.6545 22.3061L14.3616 21.5989L13.6545 20.8918L9.57842 16.8158L10.1179 16.2763L14.1939 20.3524L14.9011 21.0595L15.6082 20.3524L19.6842 16.2763L20.2237 16.8158L16.1476 20.8918L15.4405 21.5989L16.1476 22.3061L20.2237 26.3821L19.6842 26.9216L15.6082 22.8455L14.9011 22.1384L14.1939 22.8455ZM30.2718 6.26229V24.54H28.8023V8.6979V7.6979H27.8023H11.9602V6.26229H30.2718Z" stroke="#FF3B30" stroke-opacity="0.05" stroke-width="2"/>
</svg>
