<svg width="60" height="60" viewBox="0 0 60 60" fill="none" xmlns="http://www.w3.org/2000/svg">
<circle cx="30" cy="30" r="30" fill="#FBCB33"/>
<path d="M37.7932 27.7184H31.2032L33.483 14.5532C33.5194 14.3159 33.3848 14.086 33.1605 14.0013C32.9361 13.917 32.6829 14.0008 32.5537 14.2027L21.8326 31.5926V31.5931C21.7374 31.7491 21.7334 31.9441 21.8222 32.1041C21.9109 32.2636 22.0789 32.3633 22.2614 32.3648H28.8514L26.593 45.5301C26.5566 45.7674 26.6912 45.9973 26.9155 46.082C27.1399 46.1663 27.3932 46.0825 27.5223 45.8806L38.2434 28.4907V28.4902C38.3406 28.3312 38.3426 28.1313 38.2489 27.9697C38.1546 27.8087 37.9796 27.712 37.7932 27.7184Z" fill="white"/>
</svg>
