<svg width="24" height="24" viewBox="0 0 24 24" fill="none" xmlns="http://www.w3.org/2000/svg">
<path opacity="0.4" d="M15.7772 2.38785H7.85829C4.98589 2.38785 3.31348 4.06971 3.31348 6.95155V16.712C3.31348 19.6411 4.98589 21.2852 7.85829 21.2852H15.7772C18.6959 21.2852 20.3211 19.6411 20.3211 16.712V6.95155C20.3211 4.06971 18.6959 2.38785 15.7772 2.38785Z" fill="#2B71F7"/>
<path fill-rule="evenodd" clip-rule="evenodd" d="M8.11352 6.78146V6.79091C7.70628 6.79091 7.37653 7.12162 7.37653 7.52791C7.37653 7.9342 7.70628 8.2649 8.11352 8.2649H10.9377C11.345 8.2649 11.6757 7.9342 11.6757 7.51752C11.6757 7.11217 11.345 6.78146 10.9377 6.78146H8.11352ZM15.5213 12.5357H8.11352C7.70628 12.5357 7.37653 12.205 7.37653 11.7987C7.37653 11.3924 7.70628 11.0608 8.11352 11.0608H15.5213C15.9276 11.0608 16.2583 11.3924 16.2583 11.7987C16.2583 12.205 15.9276 12.5357 15.5213 12.5357ZM15.5213 16.8537H8.11354C7.83008 16.8915 7.55607 16.7498 7.40489 16.5136C7.25371 16.2679 7.25371 15.9561 7.40489 15.7199C7.55607 15.4742 7.83008 15.3419 8.11354 15.3703H15.5213C15.8983 15.4081 16.1827 15.7293 16.1827 16.1167C16.1827 16.4937 15.8983 16.8159 15.5213 16.8537Z" fill="#2B71F7"/>
</svg>
