<svg width="24" height="24" viewBox="0 0 24 24" fill="none" xmlns="http://www.w3.org/2000/svg">
<path fill-rule="evenodd" clip-rule="evenodd" d="M9.04589 21.4189L9.33711 19.1946L8.68838 19.1764H5.5906L7.74345 2.76251C7.75016 2.71281 7.77184 2.66667 7.8035 2.63384C7.83532 2.60102 7.87588 2.58302 7.91831 2.58302H13.1416C14.8758 2.58302 16.0725 3.01684 16.6972 3.87324C16.9902 4.27499 17.1767 4.69493 17.267 5.15689C17.3617 5.64173 17.3633 6.22092 17.2709 6.92745L17.2642 6.97885V7.43161L17.5572 7.63118C17.8038 7.78854 17.9998 7.9686 18.1502 8.17472C18.4007 8.51833 18.5628 8.95497 18.6312 9.47245C18.7021 10.0047 18.6787 10.6383 18.5628 11.3555C18.4291 12.1804 18.2131 12.899 17.9212 13.4868C17.6529 14.0285 17.311 14.4778 16.905 14.826C16.5174 15.1568 16.0569 15.408 15.5363 15.5687C15.0317 15.7266 14.4564 15.8063 13.8255 15.8063H13.419C13.1284 15.8063 12.8461 15.9322 12.6244 16.1578C12.4021 16.3881 12.2552 16.7029 12.2101 17.047L12.1794 17.2473L11.6648 21.1679L11.6416 21.3118C11.6353 21.3573 11.6247 21.38 11.6091 21.3954C11.5952 21.4095 11.5753 21.4189 11.5558 21.4189H9.04589Z" fill="#28356A"/>
<path fill-rule="evenodd" clip-rule="evenodd" d="M17.8347 7.03113C17.8193 7.15098 17.8013 7.27346 17.7814 7.39931C17.0926 11.652 14.7358 13.1212 11.726 13.1212H10.1935C9.8254 13.1212 9.51515 13.4425 9.45791 13.8791L8.45105 21.5587C8.41377 21.8455 8.59752 22.1038 8.83804 22.1038H11.5562C11.878 22.1038 12.1514 21.8226 12.2021 21.4409L12.2288 21.2749L12.7405 17.3698L12.7734 17.1556C12.8235 16.7726 13.0976 16.4912 13.4194 16.4912H13.8258C16.4593 16.4912 18.5209 15.2057 19.1234 11.4853C19.375 9.93117 19.2448 8.63345 18.5787 7.72079C18.3772 7.44564 18.1272 7.21719 17.8347 7.03113Z" fill="#298FC2"/>
<path fill-rule="evenodd" clip-rule="evenodd" d="M17.1138 6.68569C17.0085 6.64874 16.9 6.61536 16.7886 6.58516C16.6766 6.55571 16.562 6.52964 16.4439 6.50676C16.0307 6.42649 15.5779 6.38841 15.0929 6.38841H10.9989C10.898 6.38841 10.8022 6.41579 10.7166 6.46531C10.5277 6.57447 10.3875 6.78941 10.3535 7.05256L9.48246 13.6858L9.45791 13.8791C9.51515 13.4425 9.8254 13.1212 10.1935 13.1212H11.726C14.7358 13.1212 17.0926 11.652 17.7814 7.39931C17.8013 7.27346 17.8193 7.15098 17.8347 7.03113C17.6605 6.91991 17.4713 6.82486 17.2681 6.74384C17.2179 6.72377 17.1661 6.70445 17.1138 6.68569Z" fill="#22284F"/>
<path fill-rule="evenodd" clip-rule="evenodd" d="M10.3535 7.05256C10.3875 6.78941 10.5277 6.57447 10.7166 6.46531C10.8022 6.41579 10.898 6.38841 10.9989 6.38841H15.0929C15.5779 6.38841 16.0307 6.42649 16.4439 6.50676C16.562 6.52964 16.6766 6.55571 16.7886 6.58516C16.9 6.61536 17.0085 6.64874 17.1138 6.68569C17.1661 6.70445 17.2179 6.72377 17.2681 6.74384C17.4713 6.82486 17.6605 6.91991 17.8347 7.03113C18.0397 5.45957 17.8334 4.38961 17.1268 3.42068C16.3477 2.35384 14.9417 1.89732 13.1425 1.89732H7.91898C7.55149 1.89732 7.23797 2.21861 7.18119 2.656L5.00557 19.2387C4.96267 19.5667 5.17309 19.8627 5.44824 19.8627H8.67299L10.3535 7.05256Z" fill="#28356A"/>
</svg>
