<svg width="36" height="36" viewBox="0 0 36 36" fill="none" xmlns="http://www.w3.org/2000/svg">
<rect width="36" height="36" rx="18" fill="#5865F2"/>
<path d="M24.4033 12.1219C23.2316 11.5757 21.963 11.1793 20.6416 10.9502C20.63 10.9499 20.6185 10.952 20.6078 10.9566C20.5971 10.9612 20.5876 10.968 20.5799 10.9767C20.4213 11.2674 20.2363 11.6462 20.113 11.9369C18.7113 11.7255 17.2859 11.7255 15.8843 11.9369C15.761 11.6374 15.576 11.2674 15.4086 10.9767C15.3998 10.959 15.3733 10.9502 15.3469 10.9502C14.0254 11.1793 12.7656 11.5757 11.5851 12.1219C11.5763 12.1219 11.5675 12.1307 11.5587 12.1396C9.16244 15.7251 8.50171 19.2138 8.82767 22.6672C8.82767 22.6848 8.83648 22.7025 8.8541 22.7113C10.4399 23.8742 11.9639 24.5789 13.4704 25.0459C13.4968 25.0547 13.5233 25.0459 13.5321 25.0282C13.8845 24.5437 14.2016 24.0327 14.4747 23.4953C14.4923 23.4601 14.4747 23.4249 14.4395 23.4161C13.9373 23.2222 13.4616 22.9932 12.9947 22.7289C12.9595 22.7113 12.9595 22.6584 12.9859 22.632C13.0828 22.5615 13.1797 22.4822 13.2766 22.4117C13.2942 22.3941 13.3207 22.3941 13.3383 22.4029C16.3688 23.7861 19.6373 23.7861 22.6326 22.4029C22.6502 22.3941 22.6766 22.3941 22.6942 22.4117C22.7911 22.491 22.8881 22.5615 22.985 22.6408C23.0202 22.6672 23.0202 22.7201 22.9762 22.7377C22.518 23.0108 22.0335 23.231 21.5314 23.4249C21.4961 23.4337 21.4873 23.4777 21.4961 23.5042C21.778 24.0415 22.0952 24.5525 22.4388 25.0371C22.4652 25.0459 22.4916 25.0547 22.518 25.0459C24.0333 24.5789 25.5574 23.8742 27.1432 22.7113C27.1608 22.7025 27.1696 22.6848 27.1696 22.6672C27.5572 18.6764 26.5265 15.2142 24.4386 12.1396C24.4298 12.1307 24.421 12.1219 24.4033 12.1219ZM14.9328 20.5617C14.0254 20.5617 13.2678 19.7248 13.2678 18.694C13.2678 17.6633 14.0078 16.8263 14.9328 16.8263C15.8667 16.8263 16.6067 17.6721 16.5979 18.694C16.5979 19.7248 15.8579 20.5617 14.9328 20.5617ZM21.0732 20.5617C20.1658 20.5617 19.4082 19.7248 19.4082 18.694C19.4082 17.6633 20.1482 16.8263 21.0732 16.8263C22.0071 16.8263 22.7471 17.6721 22.7383 18.694C22.7383 19.7248 22.0071 20.5617 21.0732 20.5617Z" fill="white"/>
</svg>
