<svg width="36" height="36" viewBox="0 0 36 36" fill="none" xmlns="http://www.w3.org/2000/svg">
<rect width="36" height="36" rx="18" fill="#0A66C2"/>
<path d="M14.0866 10.7786C14.0864 11.25 13.8989 11.7021 13.5653 12.0353C13.2318 12.3685 12.7795 12.5556 12.308 12.5554C11.8366 12.5551 11.3845 12.3676 11.0513 12.0341C10.7181 11.7005 10.531 11.2483 10.5313 10.7768C10.5315 10.3053 10.719 9.85325 11.0525 9.52004C11.3861 9.18683 11.8383 8.99976 12.3098 9C12.7813 9.00024 13.2334 9.18775 13.5666 9.5213C13.8998 9.85484 14.0868 10.3071 14.0866 10.7786ZM14.1399 13.8717H10.5846V25H14.1399V13.8717ZM19.7574 13.8717H16.2198V25H19.7219V19.1603C19.7219 15.9072 23.9616 15.605 23.9616 19.1603V25H27.4725V17.9515C27.4725 12.4674 21.1973 12.6718 19.7219 15.365L19.7574 13.8717Z" fill="white"/>
</svg>
