<svg width="36" height="36" viewBox="0 0 36 36" fill="none" xmlns="http://www.w3.org/2000/svg">
<rect width="36" height="36" rx="18" fill="#1D9BF0"/>
<path d="M23.5492 14.9062C24.0961 14.4961 24.5883 14.0039 24.9711 13.4297C24.4789 13.6484 23.9047 13.8125 23.3305 13.8672C23.932 13.5117 24.3695 12.9648 24.5883 12.2812C24.0414 12.6094 23.4125 12.8555 22.7836 12.9922C22.2367 12.418 21.4984 12.0898 20.6781 12.0898C19.0922 12.0898 17.807 13.375 17.807 14.9609C17.807 15.1797 17.8344 15.3984 17.8891 15.6172C15.5102 15.4805 13.3773 14.332 11.9555 12.6094C11.7094 13.0195 11.5727 13.5117 11.5727 14.0586C11.5727 15.043 12.0648 15.918 12.8578 16.4375C12.393 16.4102 11.9281 16.3008 11.5453 16.082V16.1094C11.5453 17.5039 12.5297 18.6523 13.8422 18.9258C13.6234 18.9805 13.35 19.0352 13.1039 19.0352C12.9125 19.0352 12.7484 19.0078 12.557 18.9805C12.9125 20.1289 13.9789 20.9492 15.2367 20.9766C14.2523 21.7422 13.0219 22.207 11.682 22.207C11.4359 22.207 11.2172 22.1797 10.9984 22.1523C12.2563 22.9727 13.7602 23.4375 15.4008 23.4375C20.6781 23.4375 23.5492 19.0898 23.5492 15.2891C23.5492 15.1523 23.5492 15.043 23.5492 14.9062Z" fill="white"/>
</svg>
