<svg width="25" height="22" viewBox="0 0 25 22" fill="none" xmlns="http://www.w3.org/2000/svg">
<path d="M11.2773 5.33586C11.2774 4.25133 11.65 3.1999 12.3324 2.35834C13.0149 1.51679 13.9655 0.936431 15.0246 0.714838C16.0837 0.493244 17.1866 0.64393 18.1478 1.14156C19.1091 1.63919 19.8702 2.45342 20.303 3.44736L24.4619 3.44741L20.664 7.25461C20.4167 11.0839 18.7248 14.6753 15.932 17.2996C13.1392 19.9239 9.45475 21.3844 5.62679 21.3845C1.85977 21.3845 0.918014 19.9684 0.918014 19.9684C0.918014 19.9684 4.68503 18.5523 6.56854 15.7201C6.56854 15.7201 -0.965495 11.9439 0.918014 1.55929C0.918014 1.55929 5.62679 6.27957 11.2757 7.22363L11.2773 5.33586Z" fill="#606266"/>
</svg>
