<svg width="792" height="810" viewBox="0 0 792 810" fill="none" xmlns="http://www.w3.org/2000/svg">
<g clip-path="url(#clip0_653_13083)">
<path d="M0 0H792V810H0V0Z" fill="#2B71F7"/>
<rect x="584" y="530.141" width="94.795" height="115.543" transform="rotate(-20.8728 584 530.141)" fill="white" fill-opacity="0.1"/>
<rect x="605.271" y="545.766" width="45.0724" height="13.5933" transform="rotate(-20.8728 605.271 545.766)" fill="white" fill-opacity="0.2"/>
<rect x="624.389" y="595.903" width="27.9019" height="11.1374" transform="rotate(-20.8728 624.389 595.903)" fill="white" fill-opacity="0.25"/>
<rect x="613.173" y="566.489" width="57.2347" height="9.30065" transform="rotate(-20.8728 613.173 566.489)" fill="white" fill-opacity="0.16"/>
<rect x="618.016" y="579.19" width="64.7468" height="9.30065" transform="rotate(-20.8728 618.016 579.19)" fill="white" fill-opacity="0.16"/>
<rect x="112" y="107" width="58" height="70.6943" fill="white" fill-opacity="0.1"/>
<rect x="120.755" y="120.569" width="27.5774" height="8.31698" fill="white" fill-opacity="0.2"/>
<rect x="120.755" y="153.4" width="17.0717" height="6.5166" fill="white" fill-opacity="0.25"/>
<rect x="120.755" y="134.14" width="35.0189" height="5.69057" fill="white" fill-opacity="0.16"/>
<rect x="120.755" y="142.456" width="39.6151" height="5.69057" fill="white" fill-opacity="0.16"/>
<rect x="447" y="722" width="58" height="70.6943" fill="white" fill-opacity="0.1"/>
<rect x="455.755" y="735.569" width="27.5774" height="8.31698" fill="white" fill-opacity="0.2"/>
<rect x="455.755" y="768.4" width="17.0717" height="6.5166" fill="white" fill-opacity="0.25"/>
<rect x="455.755" y="749.14" width="35.0189" height="5.69057" fill="white" fill-opacity="0.16"/>
<rect x="455.755" y="757.456" width="39.6151" height="5.69057" fill="white" fill-opacity="0.16"/>
<rect x="477" y="111.057" width="101.425" height="123.624" transform="rotate(-27.6427 477 111.057)" fill="white" fill-opacity="0.1"/>
<rect x="501.569" y="124.975" width="48.2247" height="14.544" transform="rotate(-27.6427 501.569 124.975)" fill="white" fill-opacity="0.2"/>
<rect x="528.209" y="175.831" width="29.8534" height="14.544" transform="rotate(-27.6427 528.209 175.831)" fill="white" fill-opacity="0.25"/>
<rect x="512.583" y="145.997" width="61.2377" height="9.95113" transform="rotate(-27.6427 512.583 145.997)" fill="white" fill-opacity="0.16"/>
<rect x="519.328" y="158.88" width="69.2752" height="9.95113" transform="rotate(-27.6427 519.328 158.88)" fill="white" fill-opacity="0.16"/>
<rect x="91.1455" y="517" width="281.748" height="343.414" transform="rotate(18.3555 91.1455 517)" fill="white" fill-opacity="0.06"/>
<rect x="110.751" y="592.956" width="133.963" height="40.4016" transform="rotate(18.3555 110.751 592.956)" fill="white" fill-opacity="0.12"/>
<rect x="60.5283" y="744.323" width="82.9297" height="40.4016" transform="rotate(18.3555 60.5283 744.323)" fill="white" fill-opacity="0.15"/>
<rect x="89.9922" y="655.521" width="170.112" height="27.6432" transform="rotate(18.3555 89.9922 655.521)" fill="white" fill-opacity="0.1"/>
<rect x="77.2686" y="693.867" width="192.439" height="27.6432" transform="rotate(18.3555 77.2686 693.867)" fill="white" fill-opacity="0.1"/>
</g>
<defs>
<clipPath id="clip0_653_13083">
<path d="M0 0H792V810H0V0Z" fill="white"/>
</clipPath>
</defs>
</svg>
