<svg width="108" height="108" viewBox="0 0 108 108" fill="none" xmlns="http://www.w3.org/2000/svg">
<path d="M102.029 92.4944C102.031 93.1765 101.899 93.8524 101.639 94.4834C101.38 95.1143 100.998 95.6878 100.517 96.1711C100.036 96.6544 99.4635 97.0379 98.8335 97.2996C98.2036 97.5614 97.5282 97.6962 96.846 97.6965L13.7178 97.8653C13.0358 97.8671 12.3602 97.7343 11.7295 97.4748C11.0988 97.2152 10.5255 96.8338 10.0424 96.3525C9.55923 95.8711 9.17571 95.2992 8.91375 94.6696C8.6518 94.0399 8.51655 93.3647 8.51575 92.6827L8.39893 34.2332L54.4117 5.34604C54.6176 5.21615 54.8558 5.14667 55.0992 5.14552C55.3426 5.14437 55.5815 5.2116 55.7885 5.33954L100.834 33.3756L101.912 34.0446V34.9798L102.029 92.4944Z" fill="#FBCB33"/>
<path d="M95.2461 10.377H14.5698C14.3774 10.377 14.2214 10.5329 14.2214 10.7253V97.0535C14.2214 97.2459 14.3774 97.4018 14.5698 97.4018H95.2461C95.4385 97.4018 95.5944 97.2459 95.5944 97.0535V10.7253C95.5944 10.5329 95.4385 10.377 95.2461 10.377Z" fill="#00B8B8"/>
<path d="M96.7632 97.6136L55.5026 66.1541C55.4694 66.1287 55.4426 66.0959 55.4246 66.0582C55.4065 66.0205 55.3977 65.9791 55.3988 65.9373C55.3998 65.8955 55.4108 65.8546 55.4308 65.8179C55.4508 65.7812 55.4792 65.7498 55.5136 65.7262L101.497 34.2979C101.536 34.2709 101.582 34.2551 101.63 34.2524C101.678 34.2496 101.726 34.26 101.768 34.2824C101.811 34.3047 101.846 34.3383 101.871 34.3793C101.896 34.4204 101.909 34.4674 101.909 34.5154L102.026 92.4659C102.028 93.8272 101.497 95.1353 100.545 96.1086C99.5932 97.0819 98.2974 97.6429 96.9364 97.6707C96.8739 97.6716 96.8129 97.6515 96.7632 97.6136Z" fill="#EC3981"/>
<path d="M13.7872 97.7799L54.9216 66.1561C54.9547 66.1306 54.9813 66.0977 54.9992 66.0599C55.0171 66.0221 55.0258 65.9807 55.0246 65.9389C55.0233 65.8971 55.0122 65.8563 54.9921 65.8196C54.9719 65.783 54.9434 65.7517 54.9088 65.7282L8.80127 34.4839C8.76153 34.457 8.71522 34.4414 8.6673 34.4389C8.61938 34.4363 8.57168 34.4468 8.5293 34.4694C8.48693 34.4919 8.45149 34.5255 8.4268 34.5667C8.40211 34.6078 8.3891 34.6549 8.38916 34.7029L8.50528 92.6534C8.50801 94.0146 9.04483 95.3204 10.0003 96.2899C10.9557 97.2594 12.2535 97.8152 13.6145 97.8379C13.6769 97.8384 13.7377 97.818 13.7872 97.7799Z" fill="#EC3981"/>
<path d="M8.39582 34.5713V34.5713C8.55348 34.5713 8.70763 34.6178 8.83894 34.7051L46.1101 59.4724" stroke="white" stroke-width="0.483516"/>
<path d="M96.8397 97.6724L13.7117 97.8387C12.4541 97.8376 11.2394 97.3816 10.2918 96.5549C9.34418 95.7282 8.72766 94.5865 8.55606 93.3407C8.5278 93.1283 8.55236 92.9122 8.62759 92.7115C8.70282 92.5109 8.82638 92.3319 8.98732 92.1904L54.3257 52.079C54.5625 51.8695 54.8676 51.7536 55.1837 51.7529C55.4999 51.7523 55.8055 51.867 56.0431 52.0756L101.541 92.0053C101.703 92.1461 101.827 92.3246 101.903 92.525C101.979 92.7253 102.004 92.9413 101.977 93.1539C101.81 94.4003 101.198 95.5443 100.254 96.3749C99.31 97.2054 98.0972 97.6662 96.8397 97.6724Z" fill="#FBCB33"/>
<path d="M101.956 34.3291V34.3291C101.798 34.3291 101.644 34.376 101.513 34.4638L64.2417 59.472" stroke="white" stroke-width="0.483516"/>
</svg>
