<svg width="23" height="22" viewBox="0 0 23 22" fill="none" xmlns="http://www.w3.org/2000/svg">
<g clip-path="url(#clip0_1202_17264)">
<path d="M22.2833 11.253C22.2833 10.5052 22.2227 9.75345 22.0933 9.01782H11.7178V13.2537H17.6594C17.4128 14.6199 16.6206 15.8284 15.4606 16.5964V19.3448H19.0053C21.0869 17.429 22.2833 14.5997 22.2833 11.253Z" fill="#4285F4"/>
<path d="M11.7176 22.0002C14.6843 22.0002 17.1862 21.0261 19.0091 19.3447L15.4644 16.5962C14.4782 17.2671 13.205 17.6471 11.7216 17.6471C8.85187 17.6471 6.41865 15.711 5.5456 13.108H1.8877V15.9414C3.75505 19.6559 7.55847 22.0002 11.7176 22.0002Z" fill="#34A853"/>
<path d="M5.54177 13.1085C5.08099 11.7423 5.08099 10.263 5.54177 8.89684V6.06348H1.8879C0.327731 9.17169 0.327731 12.8336 1.8879 15.9418L5.54177 13.1085Z" fill="#FBBC04"/>
<path d="M11.7176 4.35373C13.2858 4.32948 14.8015 4.9196 15.9373 6.00282L19.0778 2.86228C17.0892 0.994924 14.4499 -0.0317159 11.7176 0.000619207C7.55847 0.000619207 3.75505 2.34491 1.8877 6.06345L5.54156 8.89682C6.41057 6.2898 8.84783 4.35373 11.7176 4.35373Z" fill="#EA4335"/>
</g>
<defs>
<clipPath id="clip0_1202_17264">
<rect width="22" height="22" fill="white" transform="translate(0.5)"/>
</clipPath>
</defs>
</svg>
