<svg width="121" height="122" viewBox="0 0 121 122" fill="none" xmlns="http://www.w3.org/2000/svg">
<g clip-path="url(#clip0_1574_35966)">
<path fill-rule="evenodd" clip-rule="evenodd" d="M43.7389 54.441C40.8956 53.0333 37.6603 52.7045 34.0906 53.9045C23.0482 57.6171 18.8758 66.5451 18.6771 76.9402C18.3874 92.1189 26.6973 110.454 33.8315 119.448C34.1689 119.875 34.7879 119.944 35.2118 119.607C35.6381 119.27 35.7104 118.651 35.373 118.224C28.448 109.496 20.3636 91.7077 20.6437 76.9765C20.8265 67.4317 24.576 59.1788 34.7187 55.7702C37.7366 54.7536 40.4659 55.0403 42.8731 56.2243C42.1236 57.8093 41.4287 59.3946 40.7909 60.9776C39.0314 65.3479 36.6196 77.3836 38.044 86.1069C39.0674 92.3642 42.0577 96.9138 48.183 96.5068C51.5875 96.2798 53.9688 94.0587 55.3429 90.6204C57.2349 85.8946 57.1858 78.7713 55.4543 72.0128C54.0137 66.3857 51.4159 61.0206 47.8921 57.491C47.1161 56.7168 46.2986 56.0263 45.438 55.4393C56.2504 33.6545 77.1165 12.857 99.023 3.56576C99.5213 3.35221 99.7568 2.77646 99.5431 2.27563C99.332 1.77471 98.7538 1.54175 98.2553 1.75282C75.9923 11.1974 54.7781 32.2993 43.7389 54.441ZM44.5679 57.2403C43.8668 58.7314 43.2155 60.223 42.6163 61.7126C40.9316 65.901 38.6214 77.4309 39.9865 85.7889C40.8235 90.9182 43.0328 94.8777 48.053 94.5443C50.6893 94.3677 52.4507 92.5513 53.5178 89.8904C54.6885 86.962 55.025 83.0457 54.6543 78.899C54.0915 72.6036 51.8904 65.7793 48.343 61.0283C47.22 59.5226 45.9586 58.2285 44.5679 57.2403Z" fill="#2B71F7"/>
<path fill-rule="evenodd" clip-rule="evenodd" d="M82.7247 36.4405C84.2456 24.8029 91.3128 12.1949 99.1181 3.34883C99.4771 2.94205 99.4375 2.32001 99.0308 1.96101C98.624 1.602 98.0018 1.63914 97.6428 2.04592C89.5926 11.1675 82.3429 24.1877 80.7743 36.185C80.7037 36.7219 81.0836 37.2162 81.623 37.2867C82.1599 37.3573 82.6541 36.9774 82.7247 36.4405Z" fill="#2B71F7"/>
<path fill-rule="evenodd" clip-rule="evenodd" d="M97.5089 1.84235C89.2227 7.02065 76.244 8.2064 66.6662 6.12934C66.135 6.01377 65.6092 6.35018 65.4961 6.88135C65.3805 7.41263 65.7168 7.93588 66.248 8.05144C76.2819 10.2272 89.87 8.93532 98.5513 3.51029C99.012 3.22369 99.1519 2.6144 98.8653 2.15373C98.5763 1.69317 97.9694 1.55328 97.5089 1.84235Z" fill="#2B71F7"/>
</g>
<defs>
<clipPath id="clip0_1574_35966">
<rect width="115.695" height="115.695" fill="white" transform="translate(0 5.58105) rotate(-2.27206)"/>
</clipPath>
</defs>
</svg>
