<svg width="67" height="67" viewBox="0 0 67 67" fill="none" xmlns="http://www.w3.org/2000/svg">
<circle cx="33.5" cy="33.5" r="33.5" fill="#2B71F7"/>
<path d="M48 46H36.8609C35.7726 42.4082 35.2285 38.6857 35.2285 34.8327C35.2285 30.9143 36.2207 27.8122 38.2053 25.5265C40.2539 23.1755 43.2627 22 47.2318 22V27.4857C44.0309 27.4857 42.4305 29.4776 42.4305 33.4612V35.3224H48V46ZM31.7715 46H20.6325C19.5442 42.4082 19 38.6857 19 34.8327C19 30.9143 19.9923 27.8122 21.9768 25.5265C24.0254 23.1755 27.0342 22 31.0033 22V27.4857C27.8024 27.4857 26.202 29.4776 26.202 33.4612V35.3224H31.7715V46Z" fill="white"/>
</svg>
