<svg width="588" height="699" viewBox="0 0 588 699" fill="none" xmlns="http://www.w3.org/2000/svg">
<rect x="0.632812" y="0.0366211" width="587" height="698" rx="20" fill="white"/>
<rect x="27.0744" y="26.4784" width="534.117" height="547.117" rx="9.55838" fill="white" stroke="#E5E5E5" stroke-width="0.883247"/>
<mask id="mask0_1404_33017" style="mask-type:alpha" maskUnits="userSpaceOnUse" x="99" y="147" width="176" height="142">
<rect x="99.5703" y="147.788" width="175.03" height="141.053" fill="#D9D9D9"/>
</mask>
<g mask="url(#mask0_1404_33017)">
<path d="M197.11 241.948L94.4258 410.332" stroke="#2B71F7" stroke-width="0.991095" stroke-linecap="round" stroke-dasharray="11.89 11.89"/>
<path d="M275.218 113.479L214.984 216.255" stroke="#2B71F7" stroke-width="0.991095" stroke-linecap="round" stroke-dasharray="11.89 11.89"/>
<path d="M303.179 113.479L242.945 216.255" stroke="#2B71F7" stroke-width="0.991095" stroke-linecap="round" stroke-dasharray="11.89 11.89"/>
<path d="M250.102 106.605L64.5664 386.652" stroke="#2B71F7" stroke-width="0.991095" stroke-linecap="round" stroke-dasharray="11.89 11.89"/>
<path d="M222.301 82.9242L36.7656 362.971" stroke="#2B71F7" stroke-width="0.991095" stroke-linecap="round" stroke-dasharray="11.89 11.89"/>
<path d="M196.563 58.2142L11.0273 338.261" stroke="#2B71F7" stroke-width="0.991095" stroke-linecap="round" stroke-dasharray="11.89 11.89"/>
<path d="M-104.289 93.2201C-104.289 104.873 -73.0942 500.608 -88.6916 512.261C40.4991 508.843 309.468 504.058 351.817 512.261" stroke="#D4D4D4" stroke-width="3.39852" stroke-linecap="round"/>
</g>
<path d="M285.069 533.905C285.069 534.146 285.041 534.331 284.985 534.46C284.936 534.581 284.868 534.665 284.779 534.713C284.699 534.762 284.603 534.79 284.49 534.798C284.385 534.798 284.281 534.798 284.176 534.798C283.903 534.798 283.653 534.798 283.428 534.798C283.211 534.79 282.99 534.782 282.765 534.774C282.547 534.766 282.314 534.762 282.065 534.762C281.823 534.754 281.542 534.75 281.22 534.75C280.882 534.75 280.48 534.782 280.014 534.846C279.547 534.903 279.085 534.975 278.626 535.063C278.176 535.152 277.765 535.248 277.395 535.353C277.025 535.449 276.772 535.538 276.635 535.618C276.571 535.659 276.511 535.719 276.454 535.799C276.398 535.872 276.35 535.956 276.31 536.053C276.269 536.141 276.233 536.234 276.201 536.33C276.177 536.427 276.165 536.511 276.165 536.584C276.084 537.436 275.992 538.281 275.887 539.117C275.791 539.954 275.698 540.786 275.61 541.615C275.529 542.435 275.457 543.252 275.393 544.064C275.336 544.869 275.308 545.669 275.308 546.465C275.308 546.602 275.324 546.807 275.356 547.081C275.397 547.346 275.437 547.62 275.477 547.901C275.525 548.175 275.565 548.42 275.598 548.637C275.638 548.854 275.658 548.979 275.658 549.011C275.658 549.172 275.634 549.337 275.586 549.506C275.537 549.667 275.469 549.815 275.38 549.952C275.3 550.081 275.195 550.185 275.067 550.266C274.946 550.354 274.813 550.399 274.669 550.399C274.572 550.399 274.468 550.37 274.355 550.314C274.242 550.258 274.13 550.181 274.017 550.085C273.913 549.988 273.816 549.876 273.728 549.747C273.639 549.61 273.571 549.466 273.522 549.313C273.458 549.112 273.406 548.882 273.366 548.625C273.325 548.36 273.293 548.086 273.269 547.805C273.245 547.523 273.229 547.245 273.221 546.972C273.213 546.69 273.209 546.437 273.209 546.212C273.209 545.979 273.209 545.782 273.209 545.621C273.217 545.46 273.221 545.355 273.221 545.307C273.221 545.066 273.245 544.684 273.293 544.161C273.341 543.638 273.402 543.055 273.474 542.411C273.547 541.76 273.623 541.092 273.703 540.408C273.792 539.717 273.872 539.085 273.945 538.514C274.017 537.943 274.077 537.472 274.126 537.102C274.174 536.732 274.198 536.543 274.198 536.535C274.198 536.407 274.17 536.314 274.114 536.258C274.057 536.202 273.993 536.165 273.921 536.149C273.848 536.133 273.78 536.129 273.715 536.137C273.659 536.145 273.627 536.149 273.619 536.149C273.313 536.149 272.919 536.177 272.437 536.234C271.954 536.29 271.439 536.354 270.892 536.427C270.345 536.491 269.786 536.551 269.215 536.608C268.652 536.664 268.129 536.692 267.647 536.692C267.534 536.692 267.421 536.692 267.309 536.692C267.196 536.692 267.079 536.68 266.959 536.656C266.846 536.632 266.73 536.588 266.609 536.523C266.496 536.459 266.38 536.366 266.259 536.246C266.251 536.165 266.243 536.061 266.235 535.932C266.235 535.803 266.247 535.675 266.271 535.546C266.303 535.409 266.36 535.289 266.44 535.184C266.528 535.071 266.657 534.995 266.826 534.955C267.188 534.874 267.598 534.81 268.057 534.762C268.523 534.713 268.994 534.673 269.468 534.641C269.951 534.609 270.418 534.577 270.868 534.545C271.327 534.512 271.733 534.472 272.087 534.424C272.336 534.392 272.646 534.352 273.016 534.303C273.386 534.255 273.764 534.203 274.15 534.146C274.544 534.09 274.922 534.034 275.284 533.978C275.654 533.921 275.956 533.869 276.189 533.821C276.671 533.724 277.182 533.612 277.721 533.483C278.268 533.354 278.819 533.233 279.374 533.121C279.929 533 280.48 532.904 281.027 532.831C281.574 532.751 282.097 532.711 282.596 532.711C282.652 532.711 282.748 532.715 282.885 532.723C283.03 532.723 283.191 532.731 283.368 532.747C283.545 532.763 283.734 532.787 283.935 532.819C284.136 532.851 284.325 532.896 284.502 532.952C284.59 532.976 284.667 533.028 284.731 533.109C284.804 533.189 284.864 533.278 284.912 533.374C284.96 533.471 284.997 533.567 285.021 533.664C285.053 533.76 285.069 533.841 285.069 533.905ZM290.511 532.373C290.511 532.896 290.374 533.342 290.1 533.712C289.835 534.082 289.445 534.267 288.93 534.267C288.608 534.267 288.25 534.219 287.856 534.122C287.47 534.026 287.277 533.869 287.277 533.652C287.277 533.258 287.398 532.884 287.639 532.53C287.888 532.168 288.186 531.874 288.532 531.649C288.813 531.488 288.994 531.408 289.075 531.408C289.533 531.408 289.887 531.472 290.137 531.601C290.386 531.721 290.511 531.979 290.511 532.373ZM298.413 542.182V542.206C298.413 542.383 298.333 542.616 298.172 542.906C298.011 543.196 297.794 543.521 297.521 543.883C297.255 544.245 296.945 544.631 296.592 545.042C296.238 545.452 295.868 545.866 295.482 546.284C295.023 546.767 294.544 547.233 294.046 547.684C293.555 548.126 293.02 548.557 292.441 548.975C291.315 549.811 290.309 550.23 289.425 550.23C288.451 550.23 287.695 549.904 287.156 549.252C286.617 548.593 286.251 547.796 286.058 546.863C285.865 545.938 285.769 544.985 285.769 544.004C285.769 543.594 285.817 542.954 285.914 542.085C285.962 541.651 286.01 541.277 286.058 540.963C286.107 540.65 286.159 540.396 286.215 540.203C286.328 539.825 286.565 539.495 286.927 539.214C287.297 538.916 287.683 538.767 288.085 538.767C288.303 538.767 288.411 538.973 288.411 539.383C288.411 539.656 288.383 539.966 288.327 540.312C288.278 540.658 288.226 541 288.17 541.337C288.065 541.973 287.989 542.544 287.941 543.051C287.892 543.549 287.868 543.984 287.868 544.354C287.868 545.174 287.981 545.995 288.206 546.815C288.431 547.66 288.837 548.082 289.425 548.082C290.02 548.082 290.712 547.865 291.5 547.43C291.894 547.205 292.288 546.956 292.682 546.682C293.076 546.409 293.471 546.103 293.865 545.765C294.275 545.428 294.661 545.09 295.023 544.752C295.385 544.406 295.747 544.052 296.109 543.69C296.471 543.328 296.789 542.99 297.062 542.677C297.344 542.363 297.589 542.073 297.798 541.808C297.814 541.776 297.846 541.715 297.895 541.627C297.943 541.539 297.987 541.494 298.027 541.494L298.051 541.506C298.116 541.506 298.164 541.53 298.196 541.579C298.228 541.619 298.265 541.683 298.305 541.772C298.385 541.949 298.421 542.085 298.413 542.182ZM322.786 545.054C322.786 545.126 322.745 545.227 322.665 545.355C322.593 545.476 322.5 545.605 322.387 545.741C322.283 545.87 322.162 545.995 322.026 546.115C321.897 546.236 321.78 546.329 321.676 546.393C320.847 546.892 320.075 547.278 319.359 547.551C318.651 547.817 317.919 547.949 317.163 547.949C316.753 547.949 316.387 547.869 316.065 547.708C315.751 547.547 315.474 547.31 315.233 546.996C314.991 546.682 314.778 546.296 314.593 545.838C314.416 545.379 314.259 544.852 314.123 544.257C314.05 543.936 313.982 543.606 313.918 543.268C313.853 542.93 313.785 542.624 313.712 542.351C313.64 542.069 313.556 541.84 313.459 541.663C313.363 541.478 313.242 541.386 313.097 541.386C312.759 541.386 312.381 541.679 311.963 542.266C311.545 542.854 311.006 543.726 310.346 544.885C309.695 546.043 309.144 546.924 308.693 547.527C308.243 548.13 307.833 548.432 307.463 548.432C306.908 548.432 306.533 548.17 306.34 547.648C306.163 547.117 306.055 546.228 306.015 544.981C306.007 544.491 305.978 544.06 305.93 543.69C305.882 543.312 305.822 542.99 305.749 542.725C305.677 542.46 305.588 542.242 305.484 542.073C305.387 541.896 305.287 541.76 305.182 541.663C304.772 541.913 304.378 542.238 304 542.64C303.63 543.043 303.28 543.473 302.95 543.932C302.62 544.39 302.311 544.852 302.021 545.319C301.739 545.786 301.486 546.212 301.261 546.598C301.148 546.791 301.02 547.012 300.875 547.262C300.73 547.511 300.581 547.764 300.428 548.022C300.284 548.271 300.139 548.508 299.994 548.734C299.857 548.959 299.737 549.144 299.632 549.289C299.399 549.626 299.117 549.795 298.787 549.795C298.176 549.795 297.774 549.482 297.581 548.854C297.533 548.693 297.492 548.549 297.46 548.42C297.428 548.291 297.4 548.162 297.376 548.034C297.36 547.905 297.344 547.768 297.328 547.624C297.32 547.471 297.315 547.298 297.315 547.105C297.315 546.783 297.332 546.441 297.364 546.079C297.396 545.717 297.436 545.351 297.484 544.981C297.541 544.611 297.601 544.241 297.665 543.871C297.738 543.493 297.806 543.127 297.87 542.773C298.007 542.081 298.116 541.454 298.196 540.891C298.277 540.328 298.317 539.793 298.317 539.286C298.317 539.093 298.373 538.932 298.486 538.804C298.598 538.667 298.755 538.599 298.956 538.599C299.761 538.599 300.163 539.15 300.163 540.252C300.163 540.541 300.139 540.855 300.091 541.193C300.05 541.53 299.994 541.884 299.922 542.254C299.857 542.616 299.785 542.986 299.704 543.364C299.624 543.734 299.548 544.1 299.475 544.462C299.435 544.68 299.395 544.913 299.355 545.162C299.314 545.403 299.274 545.637 299.234 545.862C299.202 546.079 299.174 546.276 299.149 546.453C299.125 546.622 299.113 546.747 299.113 546.827C299.218 546.723 299.347 546.57 299.499 546.369C299.66 546.168 299.833 545.93 300.018 545.657C300.203 545.383 300.4 545.082 300.609 544.752C300.827 544.422 301.044 544.08 301.261 543.726C301.711 543.019 302.13 542.395 302.516 541.856C302.91 541.309 303.276 540.843 303.614 540.457C304.289 539.693 305.017 539.31 305.797 539.31C305.991 539.31 306.159 539.367 306.304 539.479C306.449 539.592 306.574 539.741 306.678 539.926C306.783 540.111 306.871 540.32 306.944 540.553C307.016 540.786 307.076 541.024 307.125 541.265C307.205 541.675 307.282 542.13 307.354 542.628C307.434 543.127 307.511 543.594 307.583 544.028C307.664 544.462 307.744 544.828 307.824 545.126C307.913 545.416 308.014 545.56 308.126 545.56C308.215 545.56 308.319 545.496 308.44 545.367C308.569 545.231 308.697 545.062 308.826 544.861C308.963 544.651 309.099 544.418 309.236 544.161C309.381 543.903 309.518 543.654 309.646 543.413C309.775 543.163 309.892 542.934 309.996 542.725C310.109 542.516 310.197 542.351 310.262 542.23C310.439 541.917 310.644 541.575 310.877 541.205C311.11 540.827 311.36 540.477 311.625 540.155C311.899 539.825 312.192 539.552 312.506 539.335C312.82 539.117 313.149 539.009 313.495 539.009C313.857 539.009 314.139 539.093 314.34 539.262C314.541 539.423 314.706 539.668 314.835 539.998C314.971 540.32 315.088 540.726 315.184 541.217C315.289 541.707 315.418 542.279 315.571 542.93C315.82 543.992 316.089 544.784 316.379 545.307C316.668 545.83 317.051 546.091 317.525 546.091C317.823 546.091 318.124 546.071 318.43 546.031C318.744 545.991 319.069 545.926 319.407 545.838C319.745 545.741 320.099 545.617 320.469 545.464C320.847 545.303 321.249 545.102 321.676 544.861C321.708 544.844 321.756 544.82 321.82 544.788C321.893 544.748 321.965 544.712 322.038 544.68C322.118 544.639 322.19 544.607 322.255 544.583C322.319 544.559 322.363 544.547 322.387 544.547C322.42 544.547 322.456 544.563 322.496 544.595C322.544 544.627 322.589 544.672 322.629 544.728C322.669 544.776 322.705 544.832 322.737 544.897C322.77 544.953 322.786 545.005 322.786 545.054ZM328.275 538.888C328.275 538.8 328.251 538.719 328.203 538.647C328.155 538.574 328.094 538.514 328.022 538.466C327.958 538.418 327.885 538.381 327.805 538.357C327.732 538.325 327.668 538.309 327.612 538.309C327.258 538.309 326.896 538.438 326.526 538.695C326.156 538.944 325.81 539.294 325.488 539.745C325.167 540.195 324.885 540.73 324.644 541.349C324.402 541.969 324.238 542.64 324.149 543.364C324.262 543.292 324.41 543.187 324.595 543.051C324.78 542.914 324.978 542.765 325.187 542.604C325.404 542.435 325.617 542.266 325.826 542.098C326.043 541.929 326.236 541.772 326.405 541.627C326.775 541.313 327.081 541.036 327.322 540.794C327.564 540.545 327.753 540.32 327.889 540.119C328.034 539.91 328.135 539.709 328.191 539.516C328.247 539.314 328.275 539.105 328.275 538.888ZM333.874 544.04C333.874 544.322 333.769 544.627 333.56 544.957C333.351 545.287 333.053 545.657 332.667 546.067C332.225 546.534 331.738 546.968 331.207 547.37C330.676 547.764 330.129 548.11 329.566 548.408C329.003 548.697 328.432 548.927 327.853 549.096C327.274 549.264 326.715 549.349 326.176 549.349C324.913 549.349 323.936 548.943 323.244 548.13C322.552 547.318 322.207 546.127 322.207 544.559C322.207 544.06 322.251 543.553 322.339 543.039C322.428 542.516 322.556 542.001 322.725 541.494C322.902 540.988 323.119 540.497 323.377 540.022C323.642 539.548 323.948 539.105 324.294 538.695C324.511 538.446 324.752 538.192 325.018 537.935C325.283 537.678 325.577 537.448 325.899 537.247C326.22 537.038 326.57 536.869 326.948 536.74C327.334 536.612 327.753 536.547 328.203 536.547C328.525 536.547 328.814 536.612 329.072 536.74C329.329 536.861 329.546 537.018 329.723 537.211C329.9 537.404 330.033 537.621 330.121 537.863C330.218 538.104 330.266 538.341 330.266 538.574C330.266 539.065 330.134 539.564 329.868 540.071C329.603 540.569 329.229 541.076 328.746 541.591C328.263 542.098 327.684 542.608 327.009 543.123C326.333 543.63 325.581 544.137 324.752 544.643C324.64 544.708 324.527 544.78 324.414 544.861C324.302 544.933 324.246 545.025 324.246 545.138C324.246 545.379 324.278 545.633 324.342 545.898C324.406 546.164 324.523 546.409 324.692 546.634C324.861 546.851 325.086 547.032 325.368 547.177C325.657 547.322 326.023 547.394 326.466 547.394C327.029 547.394 327.6 547.306 328.179 547.129C328.766 546.944 329.337 546.69 329.892 546.369C330.455 546.047 330.998 545.665 331.521 545.223C332.052 544.78 332.547 544.302 333.005 543.787C333.262 543.505 333.468 543.364 333.62 543.364C333.709 543.364 333.773 543.417 333.813 543.521C333.854 543.626 333.874 543.799 333.874 544.04Z" fill="#242428"/>
<path d="M107.114 287.812C130.279 291.93 166.659 289.356 194.629 287.812L197.202 497.332C168.202 497.675 109.585 498.156 107.114 497.332C104.643 496.509 106.085 357.309 107.114 287.812Z" fill="#F9F9F9" stroke="#A3A3A3" stroke-width="1.84327" stroke-linecap="round"/>
<path d="M274.083 216.771C267.082 219.242 220.03 217.8 197.379 216.771V287.297C224.148 287.64 276.966 288.121 274.083 287.297C271.2 286.474 272.882 239.936 274.083 216.771Z" fill="#F9F9F9" stroke="#A3A3A3" stroke-width="1.84327" stroke-linecap="round"/>
<path d="M254.308 261.968C254.308 262.199 254.278 262.531 254.217 262.963C254.157 263.406 254.112 263.662 254.082 263.733C253.951 264.255 253.715 264.828 253.373 265.452C253.031 266.065 252.634 266.658 252.181 267.232C251.749 267.785 251.311 268.282 250.869 268.725C250.427 269.157 250.05 269.479 249.738 269.69C249.416 269.921 249.009 270.147 248.516 270.369C248.034 270.6 247.461 270.816 246.797 271.017C245.48 271.429 244.329 271.635 243.343 271.635C242.499 271.635 241.724 271.485 241.021 271.183C240.317 270.901 239.965 270.353 239.965 269.539C239.965 269.046 240.091 268.689 240.342 268.468C240.603 268.237 241.066 268.121 241.73 268.121C242.463 268.121 243.102 268.247 243.645 268.498C244.198 268.74 244.67 268.86 245.063 268.86C245.284 268.86 245.726 268.785 246.39 268.634C247.043 268.473 247.561 268.262 247.943 268.001C248.366 267.719 248.803 267.357 249.255 266.915C249.708 266.462 250.12 265.98 250.492 265.467C250.874 264.944 251.181 264.416 251.412 263.883C251.643 263.35 251.754 262.848 251.744 262.375C251.744 261.691 251.472 261.083 250.929 260.55C250.386 260.007 249.748 259.585 249.014 259.283C248.27 258.982 247.637 258.831 247.114 258.831C246.309 258.831 245.696 258.891 245.274 259.012C244.841 259.123 244.429 259.273 244.037 259.464C243.645 259.655 243.308 259.751 243.027 259.751C242.705 259.751 242.373 259.645 242.031 259.434C241.689 259.223 241.518 258.957 241.518 258.635C241.518 258.353 241.559 258.112 241.639 257.911C241.73 257.7 241.845 257.524 241.986 257.383C242.127 257.232 242.288 257.117 242.469 257.036C242.649 256.946 242.841 256.88 243.042 256.84C243.243 256.79 243.459 256.75 243.69 256.72C243.921 256.679 244.168 256.649 244.429 256.629C244.952 256.589 245.269 256.539 245.379 256.478C246.073 256.076 246.787 255.598 247.521 255.045C247.903 254.764 248.255 254.477 248.577 254.186C248.908 253.884 249.22 253.577 249.512 253.266C250.095 252.652 250.386 252.15 250.386 251.758C250.386 251.225 250.165 250.823 249.723 250.551C249.28 250.28 248.552 250.144 247.536 250.144C247.204 250.144 246.847 250.159 246.465 250.189C246.083 250.219 245.691 250.27 245.289 250.34C244.887 250.4 244.479 250.481 244.067 250.581C243.665 250.672 243.268 250.777 242.876 250.898C242.484 251.019 242.107 251.154 241.745 251.305C241.383 251.456 241.046 251.622 240.734 251.803C240.422 251.984 240.146 252.18 239.905 252.391C239.663 252.592 239.467 252.803 239.316 253.024C239.236 253.145 239.176 253.351 239.135 253.643C239.105 253.924 239.075 254.377 239.045 255C239.035 255.312 239.025 255.654 239.015 256.026C239.005 256.388 238.99 256.795 238.97 257.247C238.949 257.7 238.929 258.092 238.909 258.424C238.899 258.745 238.884 259.022 238.864 259.253C238.844 259.444 238.814 259.681 238.773 259.962C238.743 260.234 238.703 260.555 238.653 260.927C238.552 261.651 238.472 262.28 238.412 262.813C238.361 263.345 238.336 263.848 238.336 264.321C238.336 264.482 238.341 264.678 238.351 264.909C238.361 265.13 238.376 265.387 238.396 265.678C238.417 265.97 238.432 266.231 238.442 266.462C238.452 266.684 238.457 266.865 238.457 267.005C238.457 267.88 238.341 268.524 238.11 268.936C237.879 269.338 237.492 269.539 236.949 269.539C235.752 269.539 235.154 268.519 235.154 266.477C235.154 266.236 235.274 265.427 235.516 264.049C235.757 262.682 235.893 261.827 235.923 261.485C235.973 261.023 236.013 260.585 236.044 260.173C236.084 259.761 236.124 259.369 236.164 258.997C236.205 258.625 236.25 258.187 236.3 257.685C236.35 257.182 236.411 256.604 236.481 255.95C236.531 255.548 236.566 255.221 236.587 254.97C236.617 254.719 236.632 254.543 236.632 254.442C236.632 254.201 236.597 253.934 236.526 253.643C236.486 253.482 236.456 253.346 236.436 253.236C236.426 253.115 236.421 253.019 236.421 252.949C236.421 252.205 236.556 251.567 236.828 251.034C237.18 250.33 237.466 249.973 237.688 249.963C238.039 249.913 238.371 249.852 238.683 249.782C238.995 249.701 239.291 249.616 239.573 249.525C240.88 249.083 241.91 248.736 242.665 248.485C243.429 248.233 243.926 248.073 244.158 248.002C244.62 247.851 245.103 247.746 245.606 247.685C245.867 247.645 246.179 247.62 246.541 247.61C246.903 247.59 247.325 247.58 247.807 247.58H248.652C248.863 247.57 249.14 247.62 249.482 247.731C249.833 247.841 250.185 247.987 250.537 248.168C250.899 248.349 251.231 248.555 251.533 248.786C251.834 249.008 252.045 249.234 252.166 249.465C252.307 249.676 252.428 249.998 252.528 250.43C252.578 250.652 252.619 250.853 252.649 251.034C252.679 251.205 252.694 251.36 252.694 251.501C252.694 252.316 252.342 253.15 251.638 254.005C250.944 254.859 249.929 255.83 248.592 256.916C249.336 257.066 250.05 257.313 250.733 257.655C251.427 257.986 252.035 258.384 252.558 258.846C253.091 259.298 253.513 259.796 253.825 260.339C254.147 260.872 254.308 261.415 254.308 261.968Z" fill="#242428"/>
<path d="M61.1631 364.858C61.6618 364.858 62.2771 365.2 63.0091 365.883C63.1941 366.052 63.3992 366.261 63.6244 366.511C63.8497 366.752 64.0789 367.009 64.3122 367.283C64.5374 367.556 64.7626 367.834 64.9878 368.115C65.2131 368.389 65.4182 368.646 65.6032 368.888C66.1984 369.66 66.7615 370.468 67.2923 371.313C67.8232 372.157 68.2898 373.01 68.6919 373.871C69.0941 374.731 69.4118 375.592 69.6451 376.453C69.8784 377.305 69.995 378.13 69.995 378.926C69.995 379.795 69.8703 380.551 69.621 381.194C69.3716 381.838 69.0177 382.373 68.5592 382.799C68.1007 383.217 67.5497 383.531 66.9063 383.74C66.2547 383.949 65.5308 384.054 64.7345 384.054C64.0105 384.062 63.2746 383.989 62.5265 383.837C61.7784 383.676 61.0424 383.455 60.3185 383.173C59.5946 382.892 58.8988 382.554 58.2312 382.16C57.5555 381.765 56.9321 381.335 56.361 380.869C56.0152 380.587 55.6653 380.269 55.3114 379.915C54.9494 379.561 54.5995 379.191 54.2617 378.805C53.9238 378.411 53.6101 378.013 53.3206 377.611C53.0229 377.209 52.7615 376.815 52.5363 376.428C52.3915 376.179 52.2226 375.861 52.0296 375.475C51.8365 375.089 51.6555 374.683 51.4866 374.257C51.3177 373.83 51.1769 373.408 51.0643 372.99C50.9437 372.572 50.8833 372.21 50.8833 371.904C50.8833 371.413 50.9195 371.023 50.9919 370.734C51.0563 370.436 51.1689 370.175 51.3298 369.949C51.4102 369.845 51.5349 369.724 51.7038 369.587C51.8647 369.443 52.0456 369.31 52.2467 369.189C52.4398 369.06 52.6368 368.956 52.8379 368.875C53.031 368.787 53.1959 368.743 53.3326 368.743C53.4694 368.743 53.6745 368.807 53.948 368.936C54.2214 369.064 54.507 369.213 54.8046 369.382C55.0942 369.551 55.3677 369.72 55.6251 369.889C55.8744 370.058 56.0473 370.187 56.1439 370.275C56.5058 370.605 56.6868 370.959 56.6868 371.337C56.6868 371.659 56.5903 371.912 56.3972 372.097C56.1962 372.274 55.9468 372.362 55.6492 372.362C55.5446 372.362 55.3837 372.302 55.1666 372.181C54.9413 372.061 54.688 371.86 54.4064 371.578C54.1249 371.297 53.8675 371.079 53.6343 370.927C53.3929 370.766 53.2321 370.665 53.1516 370.625C53.039 370.786 52.9505 370.983 52.8862 371.216C52.8218 371.449 52.7897 371.667 52.7897 371.868C52.7897 372.157 52.858 372.515 52.9948 372.942C53.1235 373.368 53.2924 373.806 53.5015 374.257C53.7107 374.699 53.9439 375.133 54.2013 375.56C54.4507 375.978 54.692 376.332 54.9253 376.621C55.609 377.45 56.345 378.214 57.1332 378.914C57.9215 379.614 58.7942 380.193 59.7514 380.651C60.1456 380.836 60.5598 381.013 60.9942 381.182C61.4205 381.343 61.8548 381.484 62.2972 381.605C62.7396 381.725 63.182 381.822 63.6244 381.894C64.0588 381.958 64.4771 381.991 64.8793 381.991C65.3538 381.991 65.7962 381.938 66.2065 381.834C66.6167 381.721 66.9706 381.54 67.2682 381.291C67.5658 381.041 67.7991 380.716 67.968 380.314C68.1369 379.903 68.2214 379.401 68.2214 378.805C68.2214 378.162 68.1329 377.502 67.9559 376.827C67.779 376.151 67.5417 375.479 67.2441 374.812C66.9384 374.136 66.5925 373.468 66.2065 372.809C65.8123 372.149 65.4021 371.518 64.9758 370.915C64.5495 370.303 64.1232 369.724 63.6968 369.177C63.2705 368.63 62.8683 368.131 62.4903 367.681C62.3375 367.496 62.1686 367.303 61.9835 367.102C61.7985 366.893 61.6135 366.688 61.4285 366.487C61.2435 366.285 61.0585 366.092 60.8735 365.907C60.6885 365.714 60.5196 365.545 60.3668 365.401C60.5518 365.039 60.8172 364.858 61.1631 364.858ZM58.8345 348.521C58.9712 348.521 59.112 348.553 59.2568 348.618C59.3935 348.674 59.5302 348.75 59.667 348.847C59.7957 348.943 59.9204 349.052 60.041 349.173C60.1536 349.285 60.2461 349.402 60.3185 349.522C60.5035 349.804 60.6684 350.206 60.8132 350.729C60.9499 351.244 61.0183 351.883 61.0183 352.647C61.0183 353.259 60.9419 353.874 60.7891 354.493C60.6282 355.113 60.3668 355.708 60.0048 356.279C60.2863 356.094 60.5558 355.978 60.8132 355.929C61.0706 355.873 61.3763 355.845 61.7302 355.845C62.3656 355.845 63.0413 356.006 63.7572 356.327C64.4811 356.641 65.1527 357.047 65.7721 357.546C66.3915 358.045 66.9063 358.572 67.3165 359.127C67.5497 359.44 67.7549 359.786 67.9318 360.164C68.1007 360.534 68.2415 360.924 68.3541 361.335C68.4587 361.745 68.5391 362.171 68.5954 362.613C68.6437 363.056 68.6678 363.502 68.6678 363.953C68.6678 364.266 68.5673 364.572 68.3662 364.87C68.1651 365.167 67.9197 365.433 67.6302 365.666C67.3406 365.899 67.0309 366.088 66.7011 366.233C66.3713 366.37 66.0737 366.438 65.8083 366.438C65.1568 366.438 64.5334 366.354 63.9381 366.185C63.3349 366.008 62.7557 365.775 62.2007 365.485C61.6377 365.187 61.0907 364.846 60.5598 364.46C60.0209 364.073 59.486 363.663 58.9551 363.229C58.6575 362.988 58.3679 362.714 58.0864 362.408C57.7968 362.095 57.5394 361.769 57.3142 361.431C57.089 361.093 56.908 360.751 56.7713 360.406C56.6265 360.06 56.5541 359.73 56.5541 359.416C56.5541 359.159 56.5903 358.938 56.6627 358.753C56.7351 358.568 56.8396 358.395 56.9764 358.234C57.1051 358.065 57.27 357.896 57.4711 357.727C57.6722 357.55 57.8974 357.349 58.1467 357.124C58.2191 357.051 58.3277 356.854 58.4725 356.533C58.6092 356.203 58.746 355.817 58.8827 355.374C59.0114 354.924 59.1281 354.453 59.2326 353.963C59.3291 353.472 59.3774 353.025 59.3774 352.623C59.3774 352.221 59.3653 351.851 59.3412 351.513C59.309 351.175 59.2608 350.85 59.1964 350.536C59.1321 350.214 59.0436 349.897 58.931 349.583C58.8184 349.269 58.6816 348.931 58.5208 348.569C58.6414 348.537 58.746 348.521 58.8345 348.521ZM61.7302 357.534C61.505 357.526 61.2516 357.542 60.97 357.582C60.6805 357.622 60.411 357.695 60.1617 357.799C59.9043 357.896 59.6951 358.029 59.5343 358.198C59.3734 358.358 59.309 358.56 59.3412 358.801C59.1964 359.171 59.0436 359.476 58.8827 359.718C58.7219 359.959 58.6414 360.144 58.6414 360.273C58.6414 360.369 58.6736 360.474 58.7379 360.587C58.7942 360.699 58.8747 360.816 58.9792 360.936C59.0838 361.057 59.2085 361.182 59.3533 361.31C59.49 361.431 59.6348 361.552 59.7876 361.672C60.1013 361.914 60.3869 362.139 60.6443 362.348C60.9017 362.549 61.1591 362.742 61.4165 362.927C61.6658 363.104 61.9313 363.277 62.2128 363.446C62.4863 363.615 62.796 363.784 63.1418 363.953C63.2866 364.025 63.4596 364.09 63.6606 364.146C63.8617 364.202 64.0709 364.25 64.288 364.291C64.4972 364.331 64.7103 364.363 64.9275 364.387C65.1367 364.403 65.3257 364.411 65.4946 364.411C65.5992 364.411 65.7279 364.375 65.8807 364.303C66.0255 364.23 66.1703 364.138 66.315 364.025C66.4518 363.905 66.5684 363.772 66.6649 363.627C66.7615 363.474 66.8097 363.325 66.8097 363.181C66.8097 362.77 66.7936 362.42 66.7615 362.131C66.7212 361.841 66.6569 361.576 66.5684 361.335C66.4719 361.085 66.3432 360.836 66.1823 360.587C66.0215 360.337 65.8123 360.048 65.5549 359.718C65.4343 359.557 65.2935 359.4 65.1326 359.247C64.9718 359.086 64.8028 358.93 64.6259 358.777C64.4409 358.624 64.2559 358.479 64.0709 358.342C63.8778 358.206 63.6888 358.077 63.5038 357.956C63.3831 357.876 63.2343 357.807 63.0574 357.751C62.8804 357.695 62.7035 357.651 62.5265 357.618C62.3495 357.586 62.1887 357.566 62.0439 357.558C61.8991 357.542 61.7945 357.534 61.7302 357.534ZM60.222 338.579C60.3507 338.579 60.4955 338.615 60.6563 338.688C60.8092 338.76 60.97 338.857 61.139 338.977C61.3079 339.098 61.4808 339.235 61.6578 339.388C61.8267 339.54 61.9956 339.693 62.1645 339.846C62.3013 339.967 62.442 340.095 62.5868 340.232C62.7236 340.369 62.8804 340.526 63.0574 340.703C63.2263 340.872 63.4274 341.073 63.6606 341.306C63.8859 341.539 64.1513 341.813 64.457 342.126C64.7304 342.408 65.02 342.722 65.3257 343.067C65.6233 343.405 65.9169 343.751 66.2065 344.105C66.496 344.451 66.7735 344.789 67.039 345.119C67.3044 345.448 67.5377 345.734 67.7388 345.975C68.2133 346.554 68.6598 347.105 69.078 347.628C69.5043 348.151 69.8864 348.666 70.2242 349.173C70.8999 350.178 71.2377 350.974 71.2377 351.562C71.2377 351.763 71.1855 351.996 71.0809 352.261C70.9763 352.535 70.8315 352.672 70.6465 352.672C70.1237 352.672 69.7135 352.474 69.4159 352.08C69.1343 351.694 68.8287 351.091 68.4989 350.271C68.1771 349.466 67.8634 348.863 67.5578 348.461C67.2521 348.059 66.8339 347.857 66.303 347.857C66.0375 347.857 65.4986 348.135 64.6862 348.69C64.276 348.963 63.902 349.209 63.5641 349.426C63.2182 349.635 62.9086 349.816 62.6351 349.969C62.072 350.275 61.4808 350.427 60.8615 350.427C60.3225 350.427 59.7555 350.327 59.1602 350.126C58.8224 350.029 58.4846 349.876 58.1467 349.667C57.8009 349.45 57.4952 349.217 57.2298 348.967C56.9563 348.718 56.7391 348.465 56.5782 348.207C56.4174 347.95 56.3409 347.725 56.349 347.532C56.349 346.824 56.7672 346.47 57.6038 346.47C57.9255 346.47 58.2392 346.587 58.5449 346.82C58.6897 346.932 58.8425 347.069 59.0034 347.23C59.1562 347.391 59.3211 347.576 59.4981 347.785C59.667 347.986 59.8158 348.159 59.9445 348.304C60.0732 348.441 60.1818 348.553 60.2703 348.642C60.6885 348.642 61.1792 348.513 61.7422 348.256C62.0157 348.119 62.3133 347.962 62.6351 347.785C62.9568 347.608 63.3027 347.403 63.6727 347.17C64.0427 346.936 64.3765 346.739 64.6741 346.579C64.9637 346.418 65.1769 346.297 65.3136 346.217C65.3458 346.209 65.3619 346.164 65.3619 346.084C65.3619 345.971 65.2814 345.778 65.1206 345.505C64.9516 345.223 64.7304 344.893 64.457 344.515C64.1754 344.129 63.8537 343.711 63.4917 343.261C63.1217 342.81 62.7316 342.36 62.3214 341.909C61.9031 341.443 61.5371 341.057 61.2234 340.751C60.9097 340.445 60.6161 340.156 60.3426 339.882C60.0692 339.609 59.86 339.408 59.7152 339.279C59.5624 339.142 59.486 339.066 59.486 339.05C59.486 338.985 59.5101 338.925 59.5584 338.869C59.6067 338.812 59.671 338.764 59.7514 338.724C59.8238 338.676 59.9043 338.639 59.9927 338.615C60.0732 338.591 60.1496 338.579 60.222 338.579ZM57.8692 330.013C58.1025 330.013 58.2835 330.061 58.4122 330.157C58.5409 330.246 58.6374 330.359 58.7017 330.495C58.7661 330.624 58.8063 330.765 58.8224 330.918C58.8385 331.07 58.8505 331.207 58.8586 331.328C58.9069 332.003 58.9632 332.695 59.0275 333.403C59.0838 334.103 59.1441 334.742 59.2085 335.321C59.2648 335.901 59.3211 336.379 59.3774 336.757C59.4337 337.127 59.478 337.316 59.5101 337.324C59.7434 337.381 60.033 337.453 60.3788 337.541C60.7247 337.63 61.0987 337.722 61.5009 337.819C61.8951 337.916 62.3053 338.012 62.7316 338.109C63.1499 338.205 63.5521 338.294 63.9381 338.374C64.3162 338.446 64.6621 338.507 64.9758 338.555C65.2814 338.603 65.5268 338.627 65.7118 338.627C65.8807 338.627 66.0858 338.615 66.3271 338.591C66.5684 338.567 66.8017 338.511 67.0269 338.422C67.2441 338.326 67.4291 338.189 67.5819 338.012C67.7347 337.835 67.8112 337.594 67.8112 337.288C67.8112 337.119 67.7589 336.914 67.6543 336.673C67.5497 336.423 67.405 336.154 67.22 335.864C67.0349 335.575 66.8137 335.273 66.5564 334.959C66.299 334.646 66.0174 334.336 65.7118 334.03C65.5589 333.878 65.4142 333.713 65.2774 333.536C65.1326 333.351 65.0602 333.154 65.0602 332.945C65.0602 332.647 65.201 332.498 65.4825 332.498C65.6273 332.498 65.7681 332.526 65.9048 332.583C66.0335 332.631 66.1662 332.699 66.303 332.788C66.4317 332.868 66.5644 332.965 66.7011 333.077C66.8298 333.182 66.9666 333.294 67.1114 333.415C67.2159 333.496 67.3527 333.616 67.5216 333.777C67.6825 333.93 67.8594 334.119 68.0525 334.344C68.2455 334.561 68.4426 334.807 68.6437 335.08C68.8367 335.346 69.0097 335.631 69.1625 335.937C69.3234 336.234 69.4521 336.548 69.5486 336.878C69.6532 337.2 69.7054 337.525 69.7054 337.855C69.7054 338.33 69.6371 338.728 69.5003 339.05C69.3636 339.363 69.1826 339.621 68.9574 339.822C68.7322 340.023 68.4788 340.18 68.1973 340.292C67.9077 340.397 67.6181 340.473 67.3285 340.522C67.039 340.57 66.7574 340.598 66.484 340.606C66.2024 340.606 65.9611 340.606 65.76 340.606C65.5107 340.606 65.2171 340.582 64.8793 340.534C64.5334 340.477 64.1674 340.413 63.7813 340.341C63.3952 340.268 63.0051 340.188 62.6109 340.099C62.2088 340.003 61.8267 339.918 61.4647 339.846C61.1028 339.774 60.773 339.713 60.4754 339.665C60.1697 339.609 59.9284 339.581 59.7514 339.581C59.6469 339.581 59.5906 339.633 59.5825 339.737C59.5664 339.834 59.5705 339.967 59.5946 340.136C59.6187 340.304 59.6428 340.498 59.667 340.715C59.6911 340.924 59.6831 341.141 59.6428 341.366C59.6187 341.511 59.5825 341.648 59.5343 341.776C59.486 341.905 59.4216 342.022 59.3412 342.126C59.2527 342.223 59.1441 342.303 59.0154 342.368C58.8787 342.424 58.7098 342.452 58.5087 342.452C58.2593 342.452 58.0864 342.388 57.9899 342.259C57.8934 342.122 57.8451 341.961 57.8451 341.776L57.8451 338.941C57.821 338.893 57.7405 338.832 57.6038 338.76C57.459 338.68 57.278 338.595 57.0608 338.507C56.8356 338.41 56.5863 338.31 56.3128 338.205C56.0313 338.101 55.7417 337.996 55.4441 337.891C55.1384 337.779 54.8328 337.674 54.5271 337.578C54.2214 337.473 53.9359 337.377 53.6704 337.288C53.2361 337.151 52.9264 336.991 52.7414 336.805C52.5564 336.62 52.4639 336.387 52.4639 336.106C52.4639 335.921 52.5001 335.768 52.5725 335.647C52.6368 335.519 52.7213 335.418 52.8259 335.346C52.9224 335.273 53.027 335.221 53.1396 335.189C53.2522 335.157 53.3567 335.14 53.4533 335.14C53.4854 335.14 53.582 335.169 53.7428 335.225C53.8957 335.273 54.0887 335.338 54.322 335.418C54.5552 335.498 54.8167 335.591 55.1062 335.695C55.3958 335.8 55.6854 335.909 55.975 336.021C56.2645 336.126 56.546 336.226 56.8195 336.323C57.093 336.419 57.3303 336.504 57.5314 336.576C57.4831 335.828 57.4349 335.197 57.3866 334.682C57.3383 334.159 57.2981 333.713 57.266 333.343C57.2257 332.973 57.1936 332.659 57.1694 332.402C57.1453 332.136 57.1332 331.887 57.1332 331.654C57.1332 331.3 57.1493 331.018 57.1815 330.809C57.2137 330.592 57.2619 330.427 57.3263 330.314C57.3826 330.194 57.459 330.113 57.5555 330.073C57.644 330.033 57.7486 330.013 57.8692 330.013ZM59.9445 296.519C60.0169 296.519 60.1013 296.555 60.1979 296.628C60.2863 296.7 60.3748 296.784 60.4633 296.881C60.5437 296.977 60.6201 297.078 60.6925 297.183C60.7569 297.279 60.8052 297.36 60.8373 297.424C60.8454 297.44 60.8615 297.512 60.8856 297.641C60.9097 297.762 60.9338 297.906 60.958 298.075C60.9821 298.236 61.0062 298.397 61.0304 298.558C61.0545 298.719 61.0706 298.84 61.0786 298.92C61.1028 299.169 61.1269 299.435 61.151 299.716C61.1752 299.99 61.2033 300.255 61.2355 300.513C61.2596 300.762 61.2878 300.991 61.3199 301.2C61.3521 301.409 61.3883 301.566 61.4285 301.671C61.5009 301.679 61.6457 301.695 61.8629 301.719C62.0801 301.743 62.3334 301.775 62.623 301.816C62.9126 301.848 63.2182 301.884 63.54 301.924C63.8537 301.956 64.1553 301.993 64.4449 302.033C64.7264 302.065 64.9758 302.093 65.193 302.117C65.4021 302.141 65.5388 302.158 65.6032 302.166C65.9491 302.206 66.3874 302.262 66.9183 302.335C67.4411 302.399 67.9921 302.479 68.5713 302.576C69.1504 302.664 69.7215 302.769 70.2846 302.89C70.8476 303.01 71.3383 303.143 71.7566 303.288C72.2311 303.457 72.6816 303.65 73.1079 303.867C73.5342 304.076 73.9082 304.317 74.23 304.591C74.5517 304.864 74.8051 305.17 74.9901 305.508C75.1751 305.846 75.2676 306.224 75.2676 306.642C75.2676 306.851 75.2193 307.052 75.1228 307.245C75.0343 307.438 74.9177 307.611 74.7729 307.764C74.6281 307.917 74.4713 308.041 74.3024 308.138C74.1335 308.226 73.9686 308.271 73.8077 308.271C73.7031 308.271 73.6146 308.271 73.5422 308.271C73.4699 308.271 73.4135 308.263 73.3733 308.247C73.3331 308.222 73.3009 308.186 73.2768 308.138C73.2607 308.09 73.2527 308.013 73.2527 307.909C73.2527 307.877 73.2607 307.812 73.2768 307.716C73.3009 307.611 73.321 307.503 73.3371 307.39C73.3613 307.269 73.3814 307.153 73.3975 307.04C73.4216 306.927 73.4337 306.839 73.4337 306.775C73.4337 306.557 73.3693 306.34 73.2406 306.123C73.1119 305.906 72.9229 305.701 72.6735 305.508C72.4322 305.315 72.1306 305.146 71.7686 305.001C71.4147 304.848 71.0085 304.732 70.55 304.651C69.3917 304.426 68.3179 304.249 67.3285 304.12C66.3392 303.991 65.3739 303.879 64.4328 303.782C64.3041 303.766 64.1071 303.746 63.8416 303.722C63.5681 303.69 63.2866 303.662 62.997 303.638C62.6994 303.613 62.4179 303.593 62.1525 303.577C61.887 303.553 61.6859 303.541 61.5492 303.541C61.4527 303.541 61.3722 303.626 61.3079 303.794C61.2757 304.374 61.2355 304.925 61.1872 305.447C61.139 305.962 61.0827 306.461 61.0183 306.944C60.9861 307.249 60.9379 307.567 60.8735 307.897C60.8011 308.218 60.7207 308.54 60.6322 308.862C60.5357 309.176 60.4351 309.481 60.3306 309.779C60.226 310.068 60.1174 310.334 60.0048 310.575C60.2863 310.39 60.5558 310.274 60.8132 310.225C61.0706 310.169 61.3762 310.141 61.7302 310.141C62.3656 310.141 63.0413 310.302 63.7572 310.623C64.4811 310.937 65.1527 311.343 65.7721 311.842C66.3915 312.341 66.9062 312.868 67.3165 313.423C67.5497 313.736 67.7549 314.082 67.9318 314.46C68.1007 314.83 68.2415 315.22 68.3541 315.631C68.4587 316.041 68.5391 316.467 68.5954 316.91C68.6437 317.352 68.6678 317.798 68.6678 318.249C68.6678 318.563 68.5673 318.868 68.3662 319.166C68.1651 319.463 67.9197 319.729 67.6302 319.962C67.3406 320.195 67.0309 320.384 66.7011 320.529C66.3713 320.666 66.0737 320.734 65.8083 320.734C65.1568 320.734 64.5334 320.65 63.9381 320.481C63.3349 320.304 62.7557 320.071 62.2007 319.781C61.6377 319.484 61.0907 319.142 60.5598 318.756C60.0209 318.369 59.486 317.959 58.9551 317.525C58.6575 317.284 58.3679 317.01 58.0864 316.704C57.7968 316.391 57.5394 316.065 57.3142 315.727C57.089 315.389 56.908 315.047 56.7713 314.702C56.6265 314.356 56.5541 314.026 56.5541 313.712C56.5541 313.455 56.5903 313.234 56.6627 313.049C56.7351 312.864 56.8396 312.691 56.9764 312.53C57.1051 312.361 57.27 312.192 57.4711 312.023C57.6722 311.846 57.8974 311.645 58.1467 311.42C58.195 311.372 58.2674 311.255 58.3639 311.07C58.4604 310.885 58.565 310.652 58.6776 310.37C58.7902 310.089 58.9069 309.767 59.0275 309.405C59.1482 309.043 59.2568 308.665 59.3533 308.271C59.4498 307.869 59.5302 307.462 59.5946 307.052C59.6509 306.642 59.679 306.244 59.679 305.858C59.679 305.439 59.675 305.081 59.667 304.784C59.6589 304.478 59.6428 304.221 59.6187 304.012C59.5946 303.802 59.5624 303.638 59.5222 303.517C59.482 303.396 59.4297 303.304 59.3653 303.239C59.2769 303.159 59.1884 303.111 59.0999 303.095C59.0034 303.071 58.9149 303.05 58.8345 303.034C58.6736 303.002 58.4685 302.97 58.2191 302.938C57.9617 302.898 57.6641 302.849 57.3263 302.793C56.9161 302.729 56.53 302.664 56.168 302.6C55.798 302.528 55.44 302.443 55.0942 302.347C54.7403 302.25 54.3904 302.133 54.0445 301.997C53.6906 301.86 53.3286 301.695 52.9586 301.502C51.3418 300.649 50.5334 299.475 50.5334 297.979C50.5334 297.657 50.5897 297.356 50.7023 297.074C50.815 296.792 50.9718 296.547 51.1729 296.338C51.374 296.129 51.6153 295.964 51.8968 295.843C52.1784 295.723 52.488 295.662 52.8259 295.662C53.22 295.662 53.6101 295.711 53.9962 295.807C54.3743 295.904 54.7845 296.101 55.2269 296.398C55.7417 296.736 55.9991 297.05 55.9991 297.339L55.9991 297.388C55.436 297.243 54.8408 297.17 54.2134 297.17C53.4734 297.17 52.9385 297.287 52.6087 297.52C52.2789 297.754 52.114 298.027 52.114 298.341C52.114 298.542 52.1784 298.743 52.3071 298.944C52.4277 299.137 52.5805 299.322 52.7655 299.499C52.9425 299.668 53.1355 299.821 53.3447 299.958C53.5538 300.094 53.7388 300.199 53.8997 300.271C54.1973 300.408 54.5512 300.545 54.9615 300.682C55.3636 300.81 55.7819 300.931 56.2163 301.044C56.6506 301.156 57.0809 301.253 57.5073 301.333C57.9255 301.405 58.3036 301.454 58.6414 301.478C58.8505 301.478 59.0235 301.466 59.1602 301.442C59.2889 301.409 59.3895 301.365 59.4619 301.309C59.5343 301.253 59.5865 301.18 59.6187 301.092C59.6428 301.003 59.6549 300.903 59.6549 300.79C59.6549 300.645 59.6549 300.416 59.6549 300.102C59.6469 299.781 59.6428 299.439 59.6428 299.077C59.6348 298.707 59.6308 298.345 59.6308 297.991C59.6308 297.629 59.6348 297.331 59.6428 297.098C59.6509 297.066 59.6589 297.018 59.667 296.953C59.675 296.889 59.6911 296.825 59.7152 296.76C59.7313 296.696 59.7595 296.64 59.7997 296.591C59.8319 296.543 59.8801 296.519 59.9445 296.519ZM61.7302 311.83C61.5049 311.822 61.2516 311.838 60.97 311.878C60.6805 311.918 60.411 311.991 60.1617 312.095C59.9043 312.192 59.6951 312.325 59.5343 312.494C59.3734 312.654 59.309 312.856 59.3412 313.097C59.1964 313.467 59.0436 313.773 58.8827 314.014C58.7219 314.255 58.6414 314.44 58.6414 314.569C58.6414 314.665 58.6736 314.77 58.7379 314.883C58.7942 314.995 58.8747 315.112 58.9792 315.232C59.0838 315.353 59.2085 315.478 59.3533 315.607C59.49 315.727 59.6348 315.848 59.7876 315.968C60.1013 316.21 60.3869 316.435 60.6443 316.644C60.9017 316.845 61.1591 317.038 61.4165 317.223C61.6658 317.4 61.9313 317.573 62.2128 317.742C62.4863 317.911 62.796 318.08 63.1418 318.249C63.2866 318.321 63.4596 318.386 63.6606 318.442C63.8617 318.498 64.0709 318.546 64.288 318.587C64.4972 318.627 64.7103 318.659 64.9275 318.683C65.1366 318.699 65.3257 318.707 65.4946 318.707C65.5992 318.707 65.7279 318.671 65.8807 318.599C66.0255 318.526 66.1703 318.434 66.315 318.321C66.4518 318.201 66.5684 318.068 66.6649 317.923C66.7615 317.77 66.8097 317.621 66.8097 317.477C66.8097 317.066 66.7936 316.717 66.7615 316.427C66.7212 316.137 66.6569 315.872 66.5684 315.631C66.4719 315.381 66.3432 315.132 66.1823 314.883C66.0214 314.633 65.8123 314.344 65.5549 314.014C65.4343 313.853 65.2935 313.696 65.1326 313.543C64.9718 313.382 64.8028 313.226 64.6259 313.073C64.4409 312.92 64.2559 312.775 64.0709 312.638C63.8778 312.502 63.6888 312.373 63.5038 312.252C63.3831 312.172 63.2343 312.104 63.0574 312.047C62.8804 311.991 62.7034 311.947 62.5265 311.914C62.3495 311.882 62.1887 311.862 62.0439 311.854C61.8991 311.838 61.7945 311.83 61.7302 311.83ZM58.0019 267.502C59.0235 267.502 60.0129 267.884 60.97 268.648C61.9353 269.42 62.812 270.389 63.6003 271.556C63.9945 272.143 64.3645 272.742 64.7103 273.353C65.0482 273.957 65.3578 274.576 65.6394 275.211C65.9209 275.847 66.1703 276.446 66.3874 277.009C66.5966 277.564 66.7735 278.087 66.9183 278.578C67.1033 279.173 67.3929 279.897 67.787 280.749C67.8192 280.814 67.8634 280.894 67.9197 280.991C67.968 281.087 68.0283 281.204 68.1007 281.341C68.2536 281.606 68.3461 281.819 68.3782 281.98C68.5391 282.696 68.6195 283.158 68.6195 283.368C68.6195 283.754 68.5029 284.084 68.2696 284.357C68.0364 284.63 67.7267 284.811 67.3406 284.9C67.0028 284.98 66.7212 285.041 66.496 285.081C66.2708 285.113 66.0979 285.129 65.9772 285.129C65.8646 285.129 65.6997 285.105 65.4825 285.057C65.2653 285 65.0763 284.972 64.9154 284.972C64.7948 284.972 64.6581 284.964 64.5052 284.948C64.3443 284.932 64.1634 284.908 63.9623 284.876C63.7612 284.844 63.6003 284.819 63.4797 284.803C63.351 284.779 63.2544 284.763 63.1901 284.755C62.989 284.723 62.6109 284.663 62.0559 284.574C61.4929 284.486 60.7488 284.373 59.8238 284.236C59.3332 284.156 58.8144 284.063 58.2674 283.959C57.7204 283.854 57.1373 283.734 56.5179 283.597C56.4616 283.581 56.3892 283.565 56.3007 283.549C56.2122 283.524 56.1077 283.496 55.987 283.464C55.7457 283.4 55.5406 283.352 55.3717 283.319C55.2028 283.287 55.0419 283.271 54.8891 283.271C54.7282 283.271 54.5914 283.319 54.4788 283.416C54.3662 283.512 54.2496 283.649 54.1289 283.826C54.0002 283.995 53.8957 284.116 53.8152 284.188C53.7268 284.252 53.5981 284.285 53.4291 284.285C53.1074 284.285 52.7856 284.148 52.4639 283.874C52.1341 283.593 51.9692 283.299 51.9692 282.994C51.9692 282.624 52.0054 282.129 52.0778 281.51C52.1502 280.898 52.1864 280.472 52.1864 280.231C52.1864 279.82 52.1623 279.197 52.114 278.36C52.0657 277.532 52.0416 276.913 52.0416 276.502C52.0416 275.336 52.1341 274.238 52.3191 273.209C52.5041 272.179 52.8339 271.25 53.3085 270.421C53.4372 270.196 53.6664 269.866 53.9962 269.432C54.3019 268.998 54.9051 268.567 55.806 268.141C56.7069 267.715 57.4389 267.502 58.0019 267.502ZM58.0019 269.601C56.8839 269.601 56.0272 270.011 55.432 270.832C54.8448 271.644 54.4587 272.609 54.2737 273.727C54.1852 274.282 54.1169 274.849 54.0686 275.429C54.0203 276 53.9962 276.587 53.9962 277.19C53.9962 277.375 54.0043 277.568 54.0203 277.769C54.0284 277.97 54.0405 278.184 54.0565 278.409C54.0968 278.851 54.137 279.269 54.1772 279.664C54.2174 280.058 54.2456 280.484 54.2617 280.942C54.7925 281.055 55.3475 281.168 55.9267 281.28C56.4978 281.393 57.097 281.506 57.7244 281.618C57.8773 281.642 58.0784 281.678 58.3277 281.727C58.569 281.775 58.8707 281.835 59.2326 281.908C59.5946 281.972 59.9244 282.036 60.222 282.101C60.5196 282.157 60.7971 282.205 61.0545 282.246C61.3119 282.286 61.5814 282.326 61.8629 282.366C62.1364 282.406 62.4179 282.443 62.7075 282.475C62.989 282.507 63.2705 282.535 63.5521 282.559C63.8255 282.575 64.0829 282.583 64.3242 282.583C64.9114 282.583 65.39 282.491 65.76 282.306C65.6796 281.703 65.5469 281.087 65.3619 280.46C65.2734 280.146 65.1728 279.82 65.0602 279.483C64.9476 279.137 64.8229 278.779 64.6862 278.409C64.5495 278.031 64.4328 277.701 64.3363 277.419C64.2317 277.13 64.1473 276.88 64.0829 276.671C63.2705 274.202 62.5104 272.589 61.8026 271.833C61.6899 271.712 61.5452 271.576 61.3682 271.423C61.1912 271.27 60.9781 271.101 60.7287 270.916C60.23 270.546 59.7273 270.232 59.2206 269.975C58.7299 269.726 58.3237 269.601 58.0019 269.601ZM57.5193 257.958C57.4308 257.958 57.3464 257.986 57.266 258.042C57.1855 258.09 57.1131 258.155 57.0488 258.235C56.9844 258.308 56.9321 258.388 56.8919 258.477C56.8517 258.557 56.8316 258.625 56.8316 258.682C56.8316 258.995 56.9643 259.345 57.2298 259.731C57.4872 260.109 57.8491 260.475 58.3156 260.829C58.7822 261.175 59.3412 261.485 59.9927 261.758C60.6443 262.032 61.3602 262.217 62.1404 262.313C62.068 262.201 61.9272 262.012 61.7181 261.746C61.509 261.481 61.2757 261.195 61.0183 260.89C60.7609 260.576 60.4995 260.27 60.2341 259.973C59.9686 259.667 59.7394 259.422 59.5463 259.237C59.3131 259.011 59.1039 258.818 58.9189 258.658C58.7339 258.489 58.565 258.356 58.4122 258.259C58.2513 258.155 58.0985 258.078 57.9537 258.03C57.8089 257.982 57.6641 257.958 57.5193 257.958ZM57.9175 249.271C58.1025 249.271 58.4001 249.351 58.8103 249.512C59.2125 249.673 59.675 249.894 60.1979 250.176C60.7126 250.457 61.2556 250.787 61.8267 251.165C62.3978 251.543 62.9367 251.953 63.4435 252.396C63.9904 252.846 64.5213 253.353 65.0361 253.916C65.5509 254.479 66.0094 255.086 66.4116 255.738C66.8137 256.381 67.1355 257.061 67.3768 257.777C67.6181 258.493 67.7388 259.229 67.7388 259.985C67.7388 260.757 67.6101 261.417 67.3527 261.964C67.0872 262.502 66.7414 262.945 66.315 263.291C65.8887 263.629 65.4061 263.878 64.8672 264.039C64.3283 264.192 63.7773 264.268 63.2142 264.268C62.7075 264.268 62.1967 264.22 61.6819 264.123C61.1591 264.027 60.6523 263.89 60.1617 263.713C59.663 263.528 59.1884 263.311 58.7379 263.061C58.2875 262.812 57.8692 262.535 57.4831 262.229C57.2338 262.036 56.9724 261.803 56.6989 261.529C56.4173 261.248 56.16 260.934 55.9267 260.588C55.6934 260.234 55.5004 259.852 55.3475 259.442C55.1867 259.032 55.1062 258.601 55.1062 258.151C55.1062 257.829 55.1666 257.548 55.2872 257.306C55.3998 257.057 55.5527 256.852 55.7457 256.691C55.9307 256.522 56.1398 256.397 56.3731 256.317C56.6064 256.228 56.8396 256.184 57.0729 256.184C57.5475 256.184 58.006 256.273 58.4484 256.45C58.8908 256.627 59.3493 256.916 59.8238 257.318C60.2904 257.72 60.785 258.247 61.3079 258.899C61.8227 259.542 62.3938 260.335 63.0212 261.276C63.0614 261.332 63.1137 261.413 63.178 261.517C63.2424 261.622 63.3148 261.726 63.3952 261.831C63.4676 261.935 63.544 262.028 63.6244 262.108C63.6968 262.181 63.7612 262.217 63.8175 262.217C64.0347 262.217 64.272 262.181 64.5294 262.108C64.7787 262.036 65.012 261.907 65.2291 261.722C65.4383 261.529 65.6152 261.268 65.76 260.938C65.9048 260.608 65.9772 260.186 65.9772 259.671C65.9772 259.309 65.933 258.935 65.8445 258.549C65.748 258.155 65.6193 257.765 65.4584 257.379C65.2895 256.984 65.0924 256.598 64.8672 256.22C64.6339 255.842 64.3765 255.484 64.095 255.147C63.733 254.696 63.3148 254.242 62.8402 253.783C62.3576 253.325 61.8388 252.878 61.2837 252.444C60.7287 252.01 60.1456 251.595 59.5343 251.201C58.9149 250.807 58.2875 250.449 57.652 250.127C57.4751 250.039 57.3544 249.942 57.2901 249.838C57.2257 249.725 57.1936 249.633 57.1936 249.56C57.1936 249.464 57.2579 249.391 57.3866 249.343C57.5073 249.295 57.6842 249.271 57.9175 249.271ZM61.6336 239.727C62.0117 239.727 62.6029 239.956 63.4073 240.415C63.5601 240.503 63.7451 240.628 63.9623 240.789C64.1714 240.941 64.3926 241.114 64.6259 241.307C64.8511 241.501 65.0844 241.702 65.3257 241.911C65.5589 242.12 65.7761 242.325 65.9772 242.526C66.2829 242.832 66.5805 243.17 66.87 243.54C67.1596 243.902 67.421 244.288 67.6543 244.698C67.8876 245.1 68.0766 245.518 68.2214 245.953C68.3581 246.379 68.4265 246.801 68.4265 247.22C68.4265 247.775 68.3259 248.293 68.1249 248.776C67.9238 249.259 67.6141 249.681 67.1958 250.043C66.7775 250.397 66.2547 250.678 65.6273 250.887C64.9919 251.089 64.2438 251.189 63.3831 251.189C62.7959 251.189 62.1846 251.161 61.5492 251.105C60.9057 251.048 60.2622 250.976 59.6187 250.887C58.9752 250.799 58.3398 250.702 57.7124 250.598C57.0769 250.485 56.4656 250.373 55.8784 250.26C55.4762 250.188 55.1465 250.127 54.8891 250.079C54.6317 250.023 54.3944 249.974 54.1772 249.934C53.96 249.894 53.7428 249.858 53.5257 249.826C53.3004 249.793 53.0229 249.753 52.6931 249.705C52.4679 249.673 52.2709 249.645 52.1019 249.621C51.925 249.588 51.7802 249.564 51.6676 249.548C51.4745 249.516 51.2895 249.464 51.1126 249.391C50.9356 249.311 50.7788 249.214 50.642 249.102C50.5053 248.981 50.3967 248.844 50.3163 248.692C50.2358 248.539 50.1956 248.37 50.1956 248.185C50.1956 247.799 50.3766 247.513 50.7385 247.328C50.9879 247.376 51.2292 247.429 51.4625 247.485C51.6877 247.533 51.929 247.577 52.1864 247.618C53.1999 247.819 54.0203 247.984 54.6477 248.112C55.2752 248.241 55.7176 248.334 55.9749 248.39C56.4817 248.486 57.0287 248.591 57.6158 248.704C58.203 248.808 58.8023 248.909 59.4136 249.005C60.0249 249.094 60.6282 249.166 61.2234 249.222C61.8186 249.279 62.3737 249.307 62.8885 249.307C63.4435 249.307 63.9502 249.263 64.4087 249.174C64.8591 249.086 65.2452 248.945 65.567 248.752C65.8887 248.551 66.1381 248.297 66.315 247.992C66.492 247.678 66.5805 247.3 66.5805 246.858C66.5805 246.375 66.4759 245.9 66.2668 245.434C66.0496 244.967 65.7761 244.521 65.4463 244.095C65.1165 243.66 64.7546 243.25 64.3604 242.864C63.9583 242.478 63.5722 242.124 63.2022 241.802C62.8965 241.545 62.6351 241.32 62.4179 241.126C62.1927 240.933 62.0037 240.773 61.8508 240.644C61.7302 240.539 61.6055 240.423 61.4768 240.294C61.3481 240.157 61.2837 240.033 61.2837 239.92C61.2837 239.791 61.4004 239.727 61.6336 239.727ZM57.9295 233.356C57.9135 233.356 57.8692 233.368 57.7968 233.393C57.7244 233.417 57.652 233.453 57.5797 233.501C57.4992 233.549 57.4308 233.61 57.3745 233.682C57.3102 233.746 57.278 233.819 57.278 233.899L57.278 233.923C57.3102 234.221 57.4107 234.539 57.5797 234.877C57.7405 235.214 57.9939 235.572 58.3398 235.95C58.6776 236.328 59.116 236.727 59.6549 237.145C60.1938 237.563 60.8494 237.998 61.6216 238.448C61.8548 238.585 62.1122 238.738 62.3938 238.906C62.6672 239.067 62.9729 239.224 63.3107 239.377C63.6405 239.522 63.9944 239.646 64.3725 239.751C64.7506 239.848 65.1487 239.896 65.567 239.896C65.8163 239.896 66.0054 239.807 66.1341 239.63C66.2628 239.445 66.3271 239.256 66.3271 239.063C66.3271 238.862 66.2185 238.601 66.0013 238.279C65.7761 237.957 65.4825 237.611 65.1206 237.241C64.7506 236.863 64.3323 236.481 63.8658 236.095C63.3912 235.701 62.9045 235.339 62.4058 235.009C61.9071 234.671 61.4165 234.382 60.9338 234.141C60.4512 233.891 60.0129 233.722 59.6187 233.634C59.4981 233.61 59.3573 233.582 59.1964 233.549C59.0275 233.517 58.8626 233.489 58.7017 233.465C58.5328 233.433 58.38 233.409 58.2433 233.393C58.0985 233.368 57.9939 233.356 57.9295 233.356ZM59.3171 223.921C59.5906 223.921 59.8842 224.002 60.1979 224.162C60.5035 224.315 60.785 224.488 61.0424 224.681C61.7261 225.188 62.3535 225.719 62.9246 226.274C63.4877 226.821 64.0226 227.376 64.5294 227.939C65.0602 228.526 65.4745 229.113 65.7721 229.701C66.0697 230.28 66.2185 230.802 66.2185 231.269C66.2185 231.47 66.1703 231.671 66.0737 231.872C65.9772 232.065 65.8525 232.25 65.6997 232.427C65.5388 232.596 65.3538 232.749 65.1447 232.886C64.9356 233.014 64.7184 233.115 64.4932 233.187C64.3725 233.228 64.2358 233.264 64.0829 233.296C63.9221 233.328 63.7773 233.36 63.6486 233.393C63.5118 233.425 63.3992 233.461 63.3107 233.501C63.2142 233.541 63.166 233.586 63.166 233.634C63.166 233.666 63.2182 233.734 63.3228 233.839C63.4274 233.944 63.5641 234.068 63.733 234.213C63.8939 234.35 64.0789 234.499 64.288 234.659C64.4891 234.82 64.6862 234.981 64.8792 235.142C65.0723 235.295 65.2493 235.436 65.4101 235.564C65.571 235.685 65.6917 235.781 65.7721 235.854C66.0536 236.103 66.3432 236.401 66.6408 236.747C66.9304 237.085 67.1958 237.426 67.4371 237.772C67.6784 238.11 67.8755 238.424 68.0283 238.713C68.1812 238.995 68.2576 239.204 68.2576 239.341C68.2576 239.646 68.2093 239.944 68.1128 240.234C68.0082 240.515 67.8594 240.765 67.6664 240.982C67.4733 241.199 67.236 241.376 66.9545 241.513C66.673 241.641 66.3512 241.706 65.9893 241.706C65.394 241.706 64.7144 241.589 63.9502 241.356C63.1861 241.114 62.4099 240.801 61.6216 240.415C60.8333 240.02 60.0772 239.57 59.3533 239.063C58.6213 238.557 57.9939 238.03 57.4711 237.483C56.8678 236.847 56.4254 236.184 56.1439 235.492C55.8543 234.792 55.7095 234.076 55.7095 233.344C55.7095 233.208 55.7377 233.091 55.794 232.994C55.8503 232.89 55.9227 232.801 56.0111 232.729C56.0996 232.657 56.2002 232.592 56.3128 232.536C56.4173 232.48 56.5259 232.423 56.6385 232.367C56.7109 232.335 56.7914 232.266 56.8799 232.162C56.9683 232.057 57.0608 231.949 57.1574 231.836C57.2458 231.723 57.3343 231.627 57.4228 231.547C57.5113 231.458 57.5957 231.414 57.6762 231.414C57.8451 231.414 58.0341 231.45 58.2433 231.522C58.4443 231.587 58.6816 231.659 58.9551 231.74C59.2206 231.82 59.5262 231.896 59.8721 231.969C60.2099 232.033 60.6 232.065 61.0424 232.065C61.332 232.065 61.6618 232.041 62.0318 231.993C62.4018 231.937 62.7557 231.856 63.0936 231.752C63.4234 231.639 63.7009 231.498 63.9261 231.329C64.1513 231.16 64.2639 230.963 64.2639 230.738C64.2639 230.465 64.1875 230.191 64.0347 229.918C63.8738 229.644 63.6526 229.33 63.3711 228.977C62.7437 228.188 62.0559 227.44 61.3079 226.732C60.5598 226.025 59.8158 225.301 59.0758 224.561C58.9471 224.432 58.8827 224.311 58.8827 224.199C58.8827 224.014 59.0275 223.921 59.3171 223.921ZM58.4725 213.678C58.5288 213.678 58.6253 213.694 58.7621 213.726C58.8908 213.75 59.0355 213.782 59.1964 213.822C59.3492 213.863 59.5021 213.907 59.6549 213.955C59.8077 214.003 59.9324 214.044 60.0289 214.076C60.2381 214.156 60.4955 214.257 60.8011 214.377C61.1068 214.49 61.4446 214.615 61.8146 214.751C62.1766 214.88 62.5546 215.017 62.9488 215.162C63.3429 215.298 63.733 215.431 64.1191 215.56C64.4972 215.68 64.8551 215.797 65.1929 215.91C65.5308 216.014 65.8244 216.103 66.0737 216.175C66.3231 216.248 66.6247 216.34 66.9786 216.453C67.3245 216.557 67.6985 216.674 68.1007 216.803C68.5029 216.931 68.9212 217.064 69.3555 217.201C69.7979 217.337 70.2363 217.474 70.6707 217.611C71.105 217.748 71.5273 217.88 71.9375 218.009C72.3478 218.13 72.7258 218.242 73.0717 218.347C73.305 218.419 73.5543 218.484 73.8197 218.54C74.0932 218.588 74.3466 218.661 74.5799 218.757C74.8131 218.846 75.0062 218.974 75.159 219.143C75.3199 219.312 75.4003 219.557 75.4003 219.879C75.4003 220.008 75.3681 220.125 75.3038 220.229C75.2394 220.334 75.159 220.422 75.0625 220.495C74.966 220.567 74.8574 220.623 74.7367 220.663C74.6161 220.704 74.4994 220.724 74.3868 220.724C74.2018 220.724 73.9645 220.68 73.675 220.591C73.3854 220.495 73.0636 220.378 72.7097 220.241C72.3558 220.104 71.9818 219.96 71.5876 219.807C71.1935 219.646 70.7994 219.497 70.4052 219.36C69.802 219.159 69.2309 218.966 68.6919 218.781C68.153 218.588 67.6744 218.423 67.2561 218.287C66.8298 218.15 66.484 218.041 66.2185 217.961C65.945 217.872 65.7761 217.828 65.7118 217.828C65.6313 217.828 65.567 217.84 65.5187 217.864C65.4624 217.888 65.4343 217.933 65.4343 217.997C65.4343 218.053 65.4986 218.174 65.6273 218.359C65.748 218.544 65.9008 218.777 66.0858 219.059C66.2708 219.332 66.4719 219.642 66.6891 219.988C66.8982 220.326 67.0953 220.68 67.2803 221.05C67.4653 221.412 67.6221 221.773 67.7508 222.135C67.8715 222.497 67.9318 222.839 67.9318 223.161C67.9318 223.66 67.8473 224.102 67.6784 224.488C67.5095 224.866 67.2964 225.188 67.039 225.453C66.7735 225.711 66.484 225.908 66.1703 226.045C65.8485 226.181 65.5388 226.25 65.2412 226.25C64.9999 226.25 64.7023 226.226 64.3484 226.177C63.9864 226.121 63.6003 226.049 63.1901 225.96C62.7718 225.864 62.3415 225.751 61.8991 225.622C61.4567 225.494 61.0304 225.357 60.6201 225.212C60.2099 225.067 59.8278 224.919 59.4739 224.766C59.12 224.605 58.8264 224.444 58.5931 224.283C58.2714 224.066 58.0462 223.869 57.9175 223.692C57.7888 223.515 57.7244 223.338 57.7244 223.161C57.7244 223 57.7526 222.871 57.8089 222.775C57.8652 222.67 57.9416 222.59 58.0381 222.534C58.1347 222.469 58.2473 222.429 58.376 222.413C58.5047 222.389 58.6414 222.377 58.7862 222.377C58.8988 222.377 59.0919 222.441 59.3653 222.57C59.6308 222.699 59.9565 222.855 60.3426 223.04C60.7207 223.217 61.147 223.406 61.6216 223.607C62.0962 223.8 62.5949 223.965 63.1177 224.102C63.3751 224.183 63.6606 224.239 63.9743 224.271C64.28 224.295 64.5615 224.307 64.8189 224.307C65.0522 224.307 65.2452 224.247 65.3981 224.126C65.5509 224.006 65.6756 223.861 65.7721 223.692C65.8606 223.523 65.9249 223.354 65.9651 223.185C66.0054 223.008 66.0255 222.863 66.0255 222.751C66.0255 222.397 65.9651 222.047 65.8445 221.701C65.7158 221.355 65.5589 221.017 65.3739 220.688C65.1889 220.35 64.9919 220.024 64.7827 219.71C64.5655 219.389 64.3725 219.075 64.2036 218.769C64.0427 218.496 63.8456 218.214 63.6124 217.925C63.3791 217.635 63.1137 217.382 62.8161 217.164C62.6874 217.068 62.4581 216.955 62.1283 216.827C61.7905 216.698 61.4124 216.565 60.9942 216.428C60.5759 216.292 60.1456 216.155 59.7032 216.018C59.2527 215.882 58.8505 215.761 58.4966 215.656C58.0703 215.528 57.7566 215.367 57.5555 215.174C57.3544 214.973 57.2539 214.78 57.2539 214.595C57.2539 214.377 57.2901 214.208 57.3625 214.088C57.4349 213.967 57.5274 213.879 57.64 213.822C57.7526 213.758 57.8813 213.718 58.0261 213.702C58.1709 213.686 58.3197 213.678 58.4725 213.678Z" fill="#242428"/>
<path d="M104.727 52.0365C97.5193 200.817 87.4291 498.583 104.727 499.406C122.024 500.23 406.748 499.75 546.948 499.406" stroke="#D4D4D4" stroke-width="3.30086" stroke-linecap="round"/>
<path d="M453.964 148.818C430.49 154.172 326.124 151.049 276.876 148.818C275.16 172.841 272.757 220.271 276.876 217.8C280.994 215.329 399.053 216.77 457.568 217.8L453.964 148.818Z" fill="#F9F9F9" stroke="#A3A3A3" stroke-width="1.84327" stroke-linecap="round"/>
<path d="M379.835 184.475C379.835 185.098 379.407 185.867 378.553 186.782C378.342 187.013 378.08 187.27 377.768 187.551C377.467 187.833 377.145 188.119 376.803 188.411C376.461 188.693 376.115 188.974 375.763 189.256C375.421 189.537 375.099 189.793 374.797 190.025C373.832 190.769 372.822 191.473 371.766 192.136C370.71 192.8 369.644 193.383 368.569 193.886C367.493 194.388 366.417 194.786 365.341 195.077C364.275 195.369 363.245 195.515 362.249 195.515C361.163 195.515 360.218 195.359 359.414 195.047C358.61 194.735 357.941 194.293 357.408 193.72C356.885 193.147 356.493 192.458 356.232 191.654C355.97 190.839 355.84 189.934 355.84 188.939C355.829 188.034 355.92 187.114 356.111 186.179C356.312 185.244 356.589 184.324 356.941 183.419C357.292 182.514 357.715 181.644 358.207 180.81C358.7 179.965 359.238 179.186 359.821 178.472C360.173 178.04 360.57 177.602 361.013 177.16C361.455 176.707 361.918 176.27 362.4 175.848C362.893 175.426 363.391 175.033 363.893 174.671C364.396 174.299 364.889 173.973 365.371 173.691C365.683 173.51 366.08 173.299 366.563 173.058C367.045 172.816 367.553 172.59 368.086 172.379C368.619 172.168 369.147 171.992 369.67 171.851C370.192 171.7 370.645 171.625 371.027 171.625C371.64 171.625 372.128 171.67 372.49 171.761C372.862 171.841 373.189 171.982 373.47 172.183C373.601 172.283 373.752 172.439 373.923 172.65C374.104 172.852 374.27 173.078 374.42 173.329C374.581 173.57 374.712 173.817 374.812 174.068C374.923 174.309 374.978 174.516 374.978 174.687C374.978 174.857 374.898 175.114 374.737 175.456C374.576 175.798 374.39 176.154 374.179 176.527C373.968 176.888 373.757 177.23 373.546 177.552C373.334 177.864 373.174 178.08 373.063 178.201C372.651 178.653 372.208 178.879 371.736 178.879C371.334 178.879 371.017 178.759 370.786 178.517C370.564 178.266 370.454 177.954 370.454 177.582C370.454 177.452 370.529 177.25 370.68 176.979C370.831 176.697 371.082 176.381 371.434 176.029C371.786 175.677 372.058 175.355 372.249 175.064C372.45 174.762 372.575 174.561 372.626 174.46C372.425 174.32 372.178 174.209 371.887 174.128C371.595 174.048 371.324 174.008 371.072 174.008C370.71 174.008 370.263 174.093 369.73 174.264C369.197 174.425 368.649 174.636 368.086 174.898C367.533 175.159 366.99 175.451 366.457 175.772C365.934 176.084 365.492 176.386 365.13 176.677C364.094 177.532 363.139 178.452 362.264 179.437C361.39 180.423 360.666 181.514 360.093 182.71C359.861 183.203 359.64 183.721 359.429 184.263C359.228 184.796 359.052 185.339 358.901 185.892C358.75 186.445 358.63 186.998 358.539 187.551C358.459 188.094 358.419 188.617 358.419 189.12C358.419 189.713 358.484 190.266 358.615 190.779C358.755 191.292 358.982 191.734 359.293 192.106C359.605 192.478 360.012 192.77 360.515 192.981C361.028 193.192 361.656 193.297 362.4 193.297C363.204 193.297 364.029 193.187 364.874 192.966C365.718 192.744 366.558 192.448 367.392 192.076C368.237 191.694 369.071 191.261 369.896 190.779C370.72 190.286 371.51 189.773 372.264 189.24C373.028 188.708 373.752 188.175 374.435 187.642C375.119 187.109 375.743 186.606 376.306 186.134C376.537 185.943 376.778 185.731 377.029 185.5C377.291 185.269 377.547 185.038 377.799 184.806C378.05 184.575 378.291 184.344 378.523 184.113C378.764 183.881 378.975 183.67 379.156 183.479C379.608 183.71 379.835 184.042 379.835 184.475Z" fill="#242428"/>
<path d="M473.04 116.872C485.747 116.851 496.401 113.318 500.525 106.371" stroke="#47B5FF" stroke-width="6" stroke-linecap="round"/>
<path d="M504.44 135.516C498.374 124.35 496.374 113.303 500.498 106.356" stroke="#47B5FF" stroke-width="6" stroke-linecap="round"/>
<path d="M274.602 148.818L103.176 145.729" stroke="#2B71F7" stroke-width="0.991095" stroke-linecap="round" stroke-dasharray="11.89 11.89"/>
<path d="M163.841 400.153C163.841 400.556 163.71 400.897 163.448 401.179C163.197 401.471 162.865 401.616 162.453 401.616C162.272 401.616 162.126 401.576 162.016 401.496C161.875 401.385 161.719 401.239 161.548 401.058C161.377 400.867 161.196 400.631 161.005 400.349C160.633 399.776 160.291 399.178 159.98 398.555C159.678 397.921 159.432 397.363 159.241 396.881C159.19 396.74 159.135 396.614 159.075 396.504C159.024 396.383 158.969 396.262 158.909 396.142C158.859 396.011 158.803 395.875 158.743 395.734C158.683 395.584 158.617 395.403 158.547 395.191C158.255 394.327 158.044 393.759 157.913 393.487C157.773 393.628 157.637 393.739 157.506 393.819C157.376 393.889 157.235 393.945 157.084 393.985C156.943 394.015 156.792 394.035 156.631 394.045C156.481 394.045 156.315 394.045 156.134 394.045C156.033 394.045 155.908 394.065 155.757 394.106C155.606 394.146 155.44 394.191 155.259 394.241C155.088 394.292 154.917 394.347 154.746 394.407C154.575 394.468 154.414 394.518 154.264 394.558C153.761 394.699 153.253 394.824 152.74 394.935C152.228 395.046 151.7 395.156 151.157 395.267C150.614 395.367 150.046 395.468 149.453 395.569C148.859 395.659 148.231 395.76 147.567 395.87C147.266 395.92 146.979 396.117 146.708 396.458C146.446 396.81 145.903 397.564 145.079 398.721C144.274 399.867 143.591 400.706 143.028 401.239C142.475 401.772 141.937 402.039 141.414 402.039C140.75 402.039 140.197 401.908 139.755 401.647C139.252 401.325 139.001 400.983 139.001 400.621C139.001 400.43 139.106 400.294 139.318 400.214C139.539 400.123 139.835 400.043 140.207 399.972C140.328 399.962 140.605 399.716 141.037 399.233C141.449 398.771 141.761 398.389 141.972 398.087C142.394 397.534 142.822 396.946 143.254 396.323C143.696 395.689 144.189 394.98 144.732 394.196C144.993 393.794 145.225 393.447 145.426 393.155C145.627 392.864 145.793 392.618 145.923 392.416C146.064 392.215 146.22 391.989 146.391 391.738C146.572 391.486 146.778 391.205 147.009 390.893C147.11 390.752 147.23 390.581 147.371 390.38C147.512 390.179 147.678 389.953 147.869 389.702C148.06 389.44 148.231 389.209 148.382 389.008C148.543 388.807 148.678 388.626 148.789 388.465C148.91 388.304 149.06 388.103 149.241 387.862C149.432 387.62 149.654 387.334 149.905 387.002C149.985 386.902 150.141 386.665 150.373 386.293C150.614 385.921 150.936 385.408 151.338 384.755C151.901 383.82 152.268 383.136 152.439 382.704C153.615 379.848 154.5 378.421 155.093 378.421C155.355 378.421 155.566 378.446 155.727 378.496C155.887 378.536 156.013 378.612 156.104 378.722C156.194 378.823 156.254 378.963 156.285 379.144C156.315 379.315 156.33 379.527 156.33 379.778C156.33 379.949 156.33 380.1 156.33 380.23C156.33 380.361 156.325 380.467 156.315 380.547C156.305 380.708 156.295 380.914 156.285 381.165C156.275 381.417 156.259 381.713 156.239 382.055C156.742 383.111 157.22 384.247 157.672 385.464C157.903 386.077 158.145 386.751 158.396 387.485C158.657 388.209 158.934 389.008 159.226 389.883C159.517 390.747 159.774 391.486 159.995 392.1C160.216 392.713 160.397 393.211 160.538 393.593C160.678 393.975 160.844 394.412 161.035 394.905C161.236 395.398 161.473 395.956 161.744 396.579C161.845 396.81 162.222 397.368 162.875 398.253C163.519 399.138 163.841 399.771 163.841 400.153ZM157.159 391.24C156.978 390.687 156.782 390.094 156.571 389.46C156.36 388.817 156.139 388.178 155.908 387.545C155.686 386.902 155.455 386.283 155.214 385.69C154.983 385.097 154.751 384.569 154.52 384.106C153.957 384.87 153.424 385.604 152.921 386.308C152.419 387.012 151.931 387.721 151.458 388.435C150.996 389.139 150.533 389.863 150.071 390.607C149.618 391.351 149.156 392.145 148.683 392.99C148.794 393.03 148.895 393.05 148.985 393.05C149.136 393.05 149.327 393.04 149.558 393.02C149.799 392.99 150.041 392.959 150.282 392.929C150.533 392.889 150.77 392.849 150.991 392.809C151.222 392.768 151.408 392.733 151.549 392.703C151.79 392.643 151.996 392.592 152.167 392.552C152.348 392.512 152.519 392.472 152.68 392.432C152.841 392.391 153.012 392.351 153.193 392.311C153.384 392.261 153.61 392.205 153.872 392.145C154.455 391.994 155.033 391.843 155.606 391.693C156.179 391.532 156.697 391.381 157.159 391.24Z" fill="#242428"/>
<path d="M102.945 493.687C118.046 392.273 209.61 180.694 455.064 145.688C462.614 142.771 480.288 134.156 490.584 123.037" stroke="#47B5FF" stroke-width="6" stroke-linecap="round"/>
<rect width="21.5979" height="14.1625" transform="translate(185.945 281.037)" fill="white"/>
<path d="M191.761 288.218C195.734 286.072 201.768 286.747 201.825 289.671C201.892 293.046 196.935 295.199 192.613 295.199C187.49 295.199 184.127 291.019 187.002 286.809C190.036 282.365 196.598 280.594 201.322 281.13C206.67 281.737 210.423 287.52 204.618 293.943" stroke="#FBCB33" stroke-width="4" stroke-linecap="round"/>
<rect x="276.023" y="200.38" width="21.5979" height="14.1625" rx="7.08127" transform="rotate(28.815 276.023 200.38)" fill="white"/>
<path d="M277.658 209.475C282.174 209.51 287.135 213.009 285.776 215.599C284.207 218.588 278.826 218.086 275.039 216.002C270.551 213.533 269.619 208.25 274.167 205.947C278.968 203.515 285.571 205.126 289.451 207.872C293.845 210.982 294.346 217.858 286.164 220.688" stroke="#FBCB33" stroke-width="4" stroke-linecap="round"/>
<rect x="451.934" y="130.45" width="25.1563" height="19.4483" rx="9.72415" transform="rotate(48.9994 451.934 130.45)" fill="white"/>
<path d="M457.085 149.291C452.427 148.672 447.789 144.403 449.55 141.895C451.582 138.999 457.067 140.215 460.69 142.863C464.982 146.002 465.214 151.599 460.201 153.399C454.909 155.3 448.315 152.777 444.688 149.429C440.581 145.638 441.014 138.446 449.852 136.57" stroke="#00B8B8" stroke-width="4" stroke-linecap="round"/>
<path d="M274.633 148.037H102.633L98.6328 291.037L198.633 286.951V216.983H274.633V148.037Z" fill="#2B71F7" fill-opacity="0.06"/>
<path fill-rule="evenodd" clip-rule="evenodd" d="M183.464 625.882C183.915 626.347 185.392 627.856 186.746 629.235L189.207 631.741L199.282 631.744C204.824 631.745 209.357 631.731 209.357 631.713C209.355 631.643 209.133 630.924 209.024 630.635C208.96 630.467 208.796 630.105 208.658 629.829C207.38 627.269 204.919 625.5 202.088 625.105C201.657 625.045 200.483 625.037 192.121 625.037H182.643L183.464 625.882ZM183.093 636.141C183.341 636.401 184.818 637.91 186.376 639.495L189.207 642.375L202.42 642.376L215.633 642.376L215.604 642.257C215.509 641.855 215.202 641.023 214.982 640.572C214.295 639.161 213.296 638.013 211.999 637.142C211.132 636.56 210.273 636.176 209.277 635.923C208.21 635.653 208.985 635.667 195.214 635.667H182.643L183.093 636.141ZM188.701 651.275C186.011 654.013 183.545 656.522 183.221 656.852L182.633 657.451H187.337H192.042L194.219 655.229L196.396 653.008L202.038 653.007C205.521 653.006 207.83 652.989 208.072 652.962C211.208 652.613 213.899 650.627 215.139 647.749C215.316 647.338 215.631 646.419 215.631 646.314C215.631 646.305 210.672 646.298 204.612 646.298H193.593L188.701 651.275Z" fill="#47B5FF"/>
<path d="M255.681 634.285L251.001 651.037H247.041L243.897 639.109L240.609 651.037L236.673 651.061L232.161 634.285H235.761L238.713 647.293L242.121 634.285H245.865L249.081 647.221L252.057 634.285H255.681ZM259.579 636.157C258.987 636.157 258.491 635.973 258.091 635.605C257.707 635.221 257.515 634.749 257.515 634.189C257.515 633.629 257.707 633.165 258.091 632.797C258.491 632.413 258.987 632.221 259.579 632.221C260.171 632.221 260.659 632.413 261.043 632.797C261.443 633.165 261.643 633.629 261.643 634.189C261.643 634.749 261.443 635.221 261.043 635.605C260.659 635.973 260.171 636.157 259.579 636.157ZM261.235 637.741V651.037H257.875V637.741H261.235ZM268.466 640.501V646.933C268.466 647.381 268.57 647.709 268.778 647.917C269.002 648.109 269.37 648.205 269.882 648.205H271.442V651.037H269.33C266.498 651.037 265.082 649.661 265.082 646.909V640.501H263.498V637.741H265.082V634.453H268.466V637.741H271.442V640.501H268.466ZM281.347 637.549C282.355 637.549 283.251 637.773 284.035 638.221C284.819 638.653 285.427 639.301 285.859 640.165C286.307 641.013 286.531 642.037 286.531 643.237V651.037H283.171V643.693C283.171 642.637 282.907 641.829 282.379 641.269C281.851 640.693 281.131 640.405 280.219 640.405C279.291 640.405 278.555 640.693 278.011 641.269C277.483 641.829 277.219 642.637 277.219 643.693V651.037H273.859V633.277H277.219V639.397C277.651 638.821 278.227 638.373 278.947 638.053C279.667 637.717 280.467 637.549 281.347 637.549ZM307.661 639.469C307.661 640.365 307.445 641.205 307.013 641.989C306.597 642.773 305.933 643.405 305.021 643.885C304.125 644.365 302.989 644.605 301.613 644.605H298.805V651.037H295.445V634.285H301.613C302.909 634.285 304.013 634.509 304.925 634.957C305.837 635.405 306.517 636.021 306.965 636.805C307.429 637.589 307.661 638.477 307.661 639.469ZM301.469 641.893C302.397 641.893 303.085 641.685 303.533 641.269C303.981 640.837 304.205 640.237 304.205 639.469C304.205 637.837 303.293 637.021 301.469 637.021H298.805V641.893H301.469ZM313.407 633.277V651.037H310.047V633.277H313.407ZM315.862 644.341C315.862 642.997 316.126 641.805 316.654 640.765C317.198 639.725 317.926 638.925 318.838 638.365C319.766 637.805 320.798 637.525 321.934 637.525C322.926 637.525 323.79 637.725 324.526 638.125C325.278 638.525 325.878 639.029 326.326 639.637V637.741H329.71V651.037H326.326V649.093C325.894 649.717 325.294 650.237 324.526 650.653C323.774 651.053 322.902 651.253 321.91 651.253C320.79 651.253 319.766 650.965 318.838 650.389C317.926 649.813 317.198 649.005 316.654 647.965C316.126 646.909 315.862 645.701 315.862 644.341ZM326.326 644.389C326.326 643.573 326.166 642.877 325.846 642.301C325.526 641.709 325.094 641.261 324.55 640.957C324.006 640.637 323.422 640.477 322.798 640.477C322.174 640.477 321.598 640.629 321.07 640.933C320.542 641.237 320.11 641.685 319.774 642.277C319.454 642.853 319.294 643.541 319.294 644.341C319.294 645.141 319.454 645.845 319.774 646.453C320.11 647.045 320.542 647.501 321.07 647.821C321.614 648.141 322.19 648.301 322.798 648.301C323.422 648.301 324.006 648.149 324.55 647.845C325.094 647.525 325.526 647.077 325.846 646.501C326.166 645.909 326.326 645.205 326.326 644.389ZM345.712 637.741L337.48 657.325H333.904L336.784 650.701L331.456 637.741H335.224L338.656 647.029L342.136 637.741H345.712ZM350.883 639.685C351.315 639.045 351.907 638.525 352.659 638.125C353.427 637.725 354.299 637.525 355.275 637.525C356.411 637.525 357.435 637.805 358.347 638.365C359.275 638.925 360.003 639.725 360.531 640.765C361.075 641.789 361.347 642.981 361.347 644.341C361.347 645.701 361.075 646.909 360.531 647.965C360.003 649.005 359.275 649.813 358.347 650.389C357.435 650.965 356.411 651.253 355.275 651.253C354.283 651.253 353.411 651.061 352.659 650.677C351.923 650.277 351.331 649.765 350.883 649.141V651.037H347.523V633.277H350.883V639.685ZM357.915 644.341C357.915 643.541 357.747 642.853 357.411 642.277C357.091 641.685 356.659 641.237 356.115 640.933C355.587 640.629 355.011 640.477 354.387 640.477C353.779 640.477 353.203 640.637 352.659 640.957C352.131 641.261 351.699 641.709 351.363 642.301C351.043 642.893 350.883 643.589 350.883 644.389C350.883 645.189 351.043 645.885 351.363 646.477C351.699 647.069 352.131 647.525 352.659 647.845C353.203 648.149 353.779 648.301 354.387 648.301C355.011 648.301 355.587 648.141 356.115 647.821C356.659 647.501 357.091 647.045 357.411 646.453C357.747 645.861 357.915 645.157 357.915 644.341ZM369.693 651.253C368.413 651.253 367.261 650.973 366.237 650.413C365.213 649.837 364.405 649.029 363.813 647.989C363.237 646.949 362.949 645.749 362.949 644.389C362.949 643.029 363.245 641.829 363.837 640.789C364.445 639.749 365.269 638.949 366.309 638.389C367.349 637.813 368.509 637.525 369.789 637.525C371.069 637.525 372.229 637.813 373.269 638.389C374.309 638.949 375.125 639.749 375.717 640.789C376.325 641.829 376.629 643.029 376.629 644.389C376.629 645.749 376.317 646.949 375.693 647.989C375.085 649.029 374.253 649.837 373.197 650.413C372.157 650.973 370.989 651.253 369.693 651.253ZM369.693 648.325C370.301 648.325 370.869 648.181 371.397 647.893C371.941 647.589 372.373 647.141 372.693 646.549C373.013 645.957 373.173 645.237 373.173 644.389C373.173 643.125 372.837 642.157 372.165 641.485C371.509 640.797 370.701 640.453 369.741 640.453C368.781 640.453 367.973 640.797 367.317 641.485C366.677 642.157 366.357 643.125 366.357 644.389C366.357 645.653 366.669 646.629 367.293 647.317C367.933 647.989 368.733 648.325 369.693 648.325ZM384.998 651.253C383.718 651.253 382.566 650.973 381.542 650.413C380.518 649.837 379.71 649.029 379.118 647.989C378.542 646.949 378.254 645.749 378.254 644.389C378.254 643.029 378.55 641.829 379.142 640.789C379.75 639.749 380.574 638.949 381.614 638.389C382.654 637.813 383.814 637.525 385.094 637.525C386.374 637.525 387.534 637.813 388.574 638.389C389.614 638.949 390.43 639.749 391.022 640.789C391.63 641.829 391.934 643.029 391.934 644.389C391.934 645.749 391.622 646.949 390.997 647.989C390.39 649.029 389.558 649.837 388.502 650.413C387.462 650.973 386.294 651.253 384.998 651.253ZM384.998 648.325C385.606 648.325 386.174 648.181 386.702 647.893C387.246 647.589 387.678 647.141 387.998 646.549C388.318 645.957 388.478 645.237 388.478 644.389C388.478 643.125 388.142 642.157 387.47 641.485C386.814 640.797 386.006 640.453 385.046 640.453C384.086 640.453 383.278 640.797 382.622 641.485C381.982 642.157 381.662 643.125 381.662 644.389C381.662 645.653 381.974 646.629 382.598 647.317C383.238 647.989 384.038 648.325 384.998 648.325ZM402.27 651.037L397.758 645.373V651.037H394.398V633.277H397.758V643.381L402.222 637.741H406.59L400.734 644.413L406.638 651.037H402.27Z" fill="#242428"/>
</svg>
