<svg width="1074" height="986" viewBox="0 0 1074 986" fill="none" xmlns="http://www.w3.org/2000/svg">
<path d="M820.941 261.59C828.34 248.768 846.313 219.886 859.012 206.94" stroke="#E5E5E5" stroke-width="4" stroke-linecap="round"/>
<path d="M859.012 206.94C869.1 217.775 893.097 241.885 908.378 251.65" stroke="#E5E5E5" stroke-width="4" stroke-linecap="round"/>
<path d="M129.146 650.871C390.146 659.871 373.77 541.297 428.189 534.832C441.973 533.194 456.416 535.389 469.746 540.622M469.746 540.622C490.049 548.592 507.771 563.609 516.653 582.864C530.548 612.988 531.947 649.325 505.407 672.408C491.574 684.439 474.217 688.867 458.739 676.861C435.092 658.52 436.243 616.149 444.868 590.905C450.832 573.452 459.291 556.53 469.746 540.622ZM859.794 222.97C902.294 288.469 659.294 337.47 634.847 393.447C628.42 405.75 625.34 420.03 625.496 434.35M625.496 434.35C625.733 456.16 633.473 478.061 648.317 493.204C671.539 516.895 705.008 531.113 736.014 514.505C752.175 505.849 762.481 491.197 756.757 472.464C748.014 443.843 707.998 429.866 681.337 428.96C662.904 428.334 644.08 430.229 625.496 434.35ZM625.496 434.35C560.195 448.832 501.125 484.118 469.113 540.808" stroke="#E5E5E5" stroke-width="4" stroke-linecap="round"/>
</svg>
