<svg width="587" height="698" viewBox="0 0 587 698" fill="none" xmlns="http://www.w3.org/2000/svg">
<rect x="0.5" y="0.5" width="586" height="697" rx="19.5" fill="#F8F8F8" stroke="#E5E5E5"/>
<path d="M210.048 634.248L205.368 651H201.408L198.264 639.072L194.976 651L191.04 651.024L186.528 634.248H190.128L193.08 647.256L196.488 634.248H200.232L203.448 647.184L206.424 634.248H210.048ZM213.946 636.12C213.354 636.12 212.858 635.936 212.458 635.568C212.074 635.184 211.882 634.712 211.882 634.152C211.882 633.592 212.074 633.128 212.458 632.76C212.858 632.376 213.354 632.184 213.946 632.184C214.538 632.184 215.026 632.376 215.41 632.76C215.81 633.128 216.01 633.592 216.01 634.152C216.01 634.712 215.81 635.184 215.41 635.568C215.026 635.936 214.538 636.12 213.946 636.12ZM215.602 637.704V651H212.242V637.704H215.602ZM222.834 640.464V646.896C222.834 647.344 222.938 647.672 223.146 647.88C223.37 648.072 223.738 648.168 224.25 648.168H225.81V651H223.698C220.866 651 219.45 649.624 219.45 646.872V640.464H217.866V637.704H219.45V634.416H222.834V637.704H225.81V640.464H222.834ZM235.714 637.512C236.722 637.512 237.618 637.736 238.402 638.184C239.186 638.616 239.794 639.264 240.226 640.128C240.674 640.976 240.898 642 240.898 643.2V651H237.538V643.656C237.538 642.6 237.274 641.792 236.746 641.232C236.218 640.656 235.498 640.368 234.586 640.368C233.658 640.368 232.922 640.656 232.378 641.232C231.85 641.792 231.586 642.6 231.586 643.656V651H228.226V633.24H231.586V639.36C232.018 638.784 232.594 638.336 233.314 638.016C234.034 637.68 234.834 637.512 235.714 637.512ZM249.998 651.216C248.718 651.216 247.566 650.936 246.542 650.376C245.518 649.8 244.71 648.992 244.118 647.952C243.542 646.912 243.254 645.712 243.254 644.352C243.254 642.992 243.55 641.792 244.142 640.752C244.75 639.712 245.574 638.912 246.614 638.352C247.654 637.776 248.814 637.488 250.094 637.488C251.374 637.488 252.534 637.776 253.574 638.352C254.614 638.912 255.43 639.712 256.022 640.752C256.63 641.792 256.934 642.992 256.934 644.352C256.934 645.712 256.622 646.912 255.997 647.952C255.39 648.992 254.558 649.8 253.502 650.376C252.462 650.936 251.294 651.216 249.998 651.216ZM249.998 648.288C250.606 648.288 251.174 648.144 251.702 647.856C252.246 647.552 252.678 647.104 252.998 646.512C253.318 645.92 253.478 645.2 253.478 644.352C253.478 643.088 253.142 642.12 252.47 641.448C251.814 640.76 251.006 640.416 250.046 640.416C249.086 640.416 248.278 640.76 247.622 641.448C246.982 642.12 246.662 643.088 246.662 644.352C246.662 645.616 246.974 646.592 247.598 647.28C248.238 647.952 249.038 648.288 249.998 648.288ZM271.95 637.704V651H268.566V649.32C268.134 649.896 267.566 650.352 266.862 650.688C266.174 651.008 265.422 651.168 264.606 651.168C263.566 651.168 262.646 650.952 261.846 650.52C261.046 650.072 260.414 649.424 259.95 648.576C259.502 647.712 259.278 646.688 259.278 645.504V637.704H262.638V645.024C262.638 646.08 262.902 646.896 263.43 647.472C263.958 648.032 264.678 648.312 265.59 648.312C266.518 648.312 267.246 648.032 267.774 647.472C268.302 646.896 268.566 646.08 268.566 645.024V637.704H271.95ZM279.177 640.464V646.896C279.177 647.344 279.281 647.672 279.489 647.88C279.713 648.072 280.081 648.168 280.593 648.168H282.153V651H280.041C277.209 651 275.793 649.624 275.793 646.872V640.464H274.209V637.704H275.793V634.416H279.177V637.704H282.153V640.464H279.177ZM302.505 639.432C302.505 640.328 302.289 641.168 301.857 641.952C301.441 642.736 300.777 643.368 299.865 643.848C298.969 644.328 297.833 644.568 296.457 644.568H293.649V651H290.289V634.248H296.457C297.753 634.248 298.857 634.472 299.769 634.92C300.681 635.368 301.361 635.984 301.809 636.768C302.273 637.552 302.505 638.44 302.505 639.432ZM296.313 641.856C297.241 641.856 297.929 641.648 298.377 641.232C298.825 640.8 299.049 640.2 299.049 639.432C299.049 637.8 298.137 636.984 296.313 636.984H293.649V641.856H296.313ZM308.25 633.24V651H304.89V633.24H308.25ZM310.706 644.304C310.706 642.96 310.97 641.768 311.498 640.728C312.042 639.688 312.77 638.888 313.682 638.328C314.61 637.768 315.642 637.488 316.778 637.488C317.77 637.488 318.634 637.688 319.37 638.088C320.122 638.488 320.722 638.992 321.17 639.6V637.704H324.554V651H321.17V649.056C320.738 649.68 320.138 650.2 319.37 650.616C318.618 651.016 317.746 651.216 316.754 651.216C315.634 651.216 314.61 650.928 313.682 650.352C312.77 649.776 312.042 648.968 311.498 647.928C310.97 646.872 310.706 645.664 310.706 644.304ZM321.17 644.352C321.17 643.536 321.01 642.84 320.69 642.264C320.37 641.672 319.938 641.224 319.394 640.92C318.85 640.6 318.266 640.44 317.642 640.44C317.018 640.44 316.442 640.592 315.914 640.896C315.386 641.2 314.954 641.648 314.618 642.24C314.298 642.816 314.138 643.504 314.138 644.304C314.138 645.104 314.298 645.808 314.618 646.416C314.954 647.008 315.386 647.464 315.914 647.784C316.458 648.104 317.034 648.264 317.642 648.264C318.266 648.264 318.85 648.112 319.394 647.808C319.938 647.488 320.37 647.04 320.69 646.464C321.01 645.872 321.17 645.168 321.17 644.352ZM340.556 637.704L332.324 657.288H328.748L331.628 650.664L326.3 637.704H330.068L333.5 646.992L336.98 637.704H340.556ZM345.727 639.648C346.159 639.008 346.751 638.488 347.503 638.088C348.271 637.688 349.143 637.488 350.119 637.488C351.255 637.488 352.279 637.768 353.191 638.328C354.119 638.888 354.847 639.688 355.375 640.728C355.919 641.752 356.191 642.944 356.191 644.304C356.191 645.664 355.919 646.872 355.375 647.928C354.847 648.968 354.119 649.776 353.191 650.352C352.279 650.928 351.255 651.216 350.119 651.216C349.127 651.216 348.255 651.024 347.503 650.64C346.767 650.24 346.175 649.728 345.727 649.104V651H342.367V633.24H345.727V639.648ZM352.759 644.304C352.759 643.504 352.591 642.816 352.255 642.24C351.935 641.648 351.503 641.2 350.959 640.896C350.431 640.592 349.855 640.44 349.231 640.44C348.623 640.44 348.047 640.6 347.503 640.92C346.975 641.224 346.543 641.672 346.207 642.264C345.887 642.856 345.727 643.552 345.727 644.352C345.727 645.152 345.887 645.848 346.207 646.44C346.543 647.032 346.975 647.488 347.503 647.808C348.047 648.112 348.623 648.264 349.231 648.264C349.855 648.264 350.431 648.104 350.959 647.784C351.503 647.464 351.935 647.008 352.255 646.416C352.591 645.824 352.759 645.12 352.759 644.304ZM364.537 651.216C363.257 651.216 362.105 650.936 361.081 650.376C360.057 649.8 359.249 648.992 358.657 647.952C358.081 646.912 357.793 645.712 357.793 644.352C357.793 642.992 358.089 641.792 358.681 640.752C359.289 639.712 360.113 638.912 361.153 638.352C362.193 637.776 363.353 637.488 364.633 637.488C365.913 637.488 367.073 637.776 368.113 638.352C369.153 638.912 369.969 639.712 370.561 640.752C371.169 641.792 371.473 642.992 371.473 644.352C371.473 645.712 371.161 646.912 370.537 647.952C369.929 648.992 369.097 649.8 368.041 650.376C367.001 650.936 365.833 651.216 364.537 651.216ZM364.537 648.288C365.145 648.288 365.713 648.144 366.241 647.856C366.785 647.552 367.217 647.104 367.537 646.512C367.857 645.92 368.017 645.2 368.017 644.352C368.017 643.088 367.681 642.12 367.009 641.448C366.353 640.76 365.545 640.416 364.585 640.416C363.625 640.416 362.817 640.76 362.161 641.448C361.521 642.12 361.201 643.088 361.201 644.352C361.201 645.616 361.513 646.592 362.137 647.28C362.777 647.952 363.577 648.288 364.537 648.288ZM379.841 651.216C378.561 651.216 377.409 650.936 376.385 650.376C375.361 649.8 374.553 648.992 373.961 647.952C373.385 646.912 373.097 645.712 373.097 644.352C373.097 642.992 373.393 641.792 373.985 640.752C374.593 639.712 375.417 638.912 376.457 638.352C377.497 637.776 378.657 637.488 379.937 637.488C381.217 637.488 382.377 637.776 383.417 638.352C384.457 638.912 385.273 639.712 385.865 640.752C386.473 641.792 386.777 642.992 386.777 644.352C386.777 645.712 386.465 646.912 385.841 647.952C385.233 648.992 384.401 649.8 383.345 650.376C382.305 650.936 381.137 651.216 379.841 651.216ZM379.841 648.288C380.449 648.288 381.017 648.144 381.545 647.856C382.089 647.552 382.521 647.104 382.841 646.512C383.161 645.92 383.321 645.2 383.321 644.352C383.321 643.088 382.985 642.12 382.313 641.448C381.657 640.76 380.849 640.416 379.889 640.416C378.929 640.416 378.121 640.76 377.465 641.448C376.825 642.12 376.505 643.088 376.505 644.352C376.505 645.616 376.817 646.592 377.441 647.28C378.081 647.952 378.881 648.288 379.841 648.288ZM397.114 651L392.602 645.336V651H389.242V633.24H392.602V643.344L397.066 637.704H401.434L395.578 644.376L401.482 651H397.114Z" fill="#242428"/>
<rect x="26.4416" y="26.4416" width="534.117" height="547.117" rx="9.55838" fill="white" stroke="#E5E5E5" stroke-width="0.883247"/>
<path d="M352.5 157H102.5V428.5H280.5V359.5H352.5V157Z" fill="#FF3B30" fill-opacity="0.04"/>
<path d="M280.574 534.332C280.574 534.566 280.547 534.746 280.492 534.871C280.445 534.988 280.379 535.07 280.293 535.117C280.215 535.164 280.121 535.191 280.012 535.199C279.91 535.199 279.809 535.199 279.707 535.199C279.441 535.199 279.199 535.199 278.98 535.199C278.77 535.191 278.555 535.184 278.336 535.176C278.125 535.168 277.898 535.164 277.656 535.164C277.422 535.156 277.148 535.152 276.836 535.152C276.508 535.152 276.117 535.184 275.664 535.246C275.211 535.301 274.762 535.371 274.316 535.457C273.879 535.543 273.48 535.637 273.121 535.738C272.762 535.832 272.516 535.918 272.383 535.996C272.32 536.035 272.262 536.094 272.207 536.172C272.152 536.242 272.105 536.324 272.066 536.418C272.027 536.504 271.992 536.594 271.961 536.688C271.938 536.781 271.926 536.863 271.926 536.934C271.848 537.762 271.758 538.582 271.656 539.395C271.562 540.207 271.473 541.016 271.387 541.82C271.309 542.617 271.238 543.41 271.176 544.199C271.121 544.98 271.094 545.758 271.094 546.531C271.094 546.664 271.109 546.863 271.141 547.129C271.18 547.387 271.219 547.652 271.258 547.926C271.305 548.191 271.344 548.43 271.375 548.641C271.414 548.852 271.434 548.973 271.434 549.004C271.434 549.16 271.41 549.32 271.363 549.484C271.316 549.641 271.25 549.785 271.164 549.918C271.086 550.043 270.984 550.145 270.859 550.223C270.742 550.309 270.613 550.352 270.473 550.352C270.379 550.352 270.277 550.324 270.168 550.27C270.059 550.215 269.949 550.141 269.84 550.047C269.738 549.953 269.645 549.844 269.559 549.719C269.473 549.586 269.406 549.445 269.359 549.297C269.297 549.102 269.246 548.879 269.207 548.629C269.168 548.371 269.137 548.105 269.113 547.832C269.09 547.559 269.074 547.289 269.066 547.023C269.059 546.75 269.055 546.504 269.055 546.285C269.055 546.059 269.055 545.867 269.055 545.711C269.062 545.555 269.066 545.453 269.066 545.406C269.066 545.172 269.09 544.801 269.137 544.293C269.184 543.785 269.242 543.219 269.312 542.594C269.383 541.961 269.457 541.312 269.535 540.648C269.621 539.977 269.699 539.363 269.77 538.809C269.84 538.254 269.898 537.797 269.945 537.438C269.992 537.078 270.016 536.895 270.016 536.887C270.016 536.762 269.988 536.672 269.934 536.617C269.879 536.562 269.816 536.527 269.746 536.512C269.676 536.496 269.609 536.492 269.547 536.5C269.492 536.508 269.461 536.512 269.453 536.512C269.156 536.512 268.773 536.539 268.305 536.594C267.836 536.648 267.336 536.711 266.805 536.781C266.273 536.844 265.73 536.902 265.176 536.957C264.629 537.012 264.121 537.039 263.652 537.039C263.543 537.039 263.434 537.039 263.324 537.039C263.215 537.039 263.102 537.027 262.984 537.004C262.875 536.98 262.762 536.938 262.645 536.875C262.535 536.812 262.422 536.723 262.305 536.605C262.297 536.527 262.289 536.426 262.281 536.301C262.281 536.176 262.293 536.051 262.316 535.926C262.348 535.793 262.402 535.676 262.48 535.574C262.566 535.465 262.691 535.391 262.855 535.352C263.207 535.273 263.605 535.211 264.051 535.164C264.504 535.117 264.961 535.078 265.422 535.047C265.891 535.016 266.344 534.984 266.781 534.953C267.227 534.922 267.621 534.883 267.965 534.836C268.207 534.805 268.508 534.766 268.867 534.719C269.227 534.672 269.594 534.621 269.969 534.566C270.352 534.512 270.719 534.457 271.07 534.402C271.43 534.348 271.723 534.297 271.949 534.25C272.418 534.156 272.914 534.047 273.438 533.922C273.969 533.797 274.504 533.68 275.043 533.57C275.582 533.453 276.117 533.359 276.648 533.289C277.18 533.211 277.688 533.172 278.172 533.172C278.227 533.172 278.32 533.176 278.453 533.184C278.594 533.184 278.75 533.191 278.922 533.207C279.094 533.223 279.277 533.246 279.473 533.277C279.668 533.309 279.852 533.352 280.023 533.406C280.109 533.43 280.184 533.48 280.246 533.559C280.316 533.637 280.375 533.723 280.422 533.816C280.469 533.91 280.504 534.004 280.527 534.098C280.559 534.191 280.574 534.27 280.574 534.332ZM285.859 532.844C285.859 533.352 285.727 533.785 285.461 534.145C285.203 534.504 284.824 534.684 284.324 534.684C284.012 534.684 283.664 534.637 283.281 534.543C282.906 534.449 282.719 534.297 282.719 534.086C282.719 533.703 282.836 533.34 283.07 532.996C283.312 532.645 283.602 532.359 283.938 532.141C284.211 531.984 284.387 531.906 284.465 531.906C284.91 531.906 285.254 531.969 285.496 532.094C285.738 532.211 285.859 532.461 285.859 532.844ZM293.535 542.371V542.395C293.535 542.566 293.457 542.793 293.301 543.074C293.145 543.355 292.934 543.672 292.668 544.023C292.41 544.375 292.109 544.75 291.766 545.148C291.422 545.547 291.062 545.949 290.688 546.355C290.242 546.824 289.777 547.277 289.293 547.715C288.816 548.145 288.297 548.562 287.734 548.969C286.641 549.781 285.664 550.188 284.805 550.188C283.859 550.188 283.125 549.871 282.602 549.238C282.078 548.598 281.723 547.824 281.535 546.918C281.348 546.02 281.254 545.094 281.254 544.141C281.254 543.742 281.301 543.121 281.395 542.277C281.441 541.855 281.488 541.492 281.535 541.188C281.582 540.883 281.633 540.637 281.688 540.449C281.797 540.082 282.027 539.762 282.379 539.488C282.738 539.199 283.113 539.055 283.504 539.055C283.715 539.055 283.82 539.254 283.82 539.652C283.82 539.918 283.793 540.219 283.738 540.555C283.691 540.891 283.641 541.223 283.586 541.551C283.484 542.168 283.41 542.723 283.363 543.215C283.316 543.699 283.293 544.121 283.293 544.48C283.293 545.277 283.402 546.074 283.621 546.871C283.84 547.691 284.234 548.102 284.805 548.102C285.383 548.102 286.055 547.891 286.82 547.469C287.203 547.25 287.586 547.008 287.969 546.742C288.352 546.477 288.734 546.18 289.117 545.852C289.516 545.523 289.891 545.195 290.242 544.867C290.594 544.531 290.945 544.188 291.297 543.836C291.648 543.484 291.957 543.156 292.223 542.852C292.496 542.547 292.734 542.266 292.938 542.008C292.953 541.977 292.984 541.918 293.031 541.832C293.078 541.746 293.121 541.703 293.16 541.703L293.184 541.715C293.246 541.715 293.293 541.738 293.324 541.785C293.355 541.824 293.391 541.887 293.43 541.973C293.508 542.145 293.543 542.277 293.535 542.371ZM317.207 545.16C317.207 545.23 317.168 545.328 317.09 545.453C317.02 545.57 316.93 545.695 316.82 545.828C316.719 545.953 316.602 546.074 316.469 546.191C316.344 546.309 316.23 546.398 316.129 546.461C315.324 546.945 314.574 547.32 313.879 547.586C313.191 547.844 312.48 547.973 311.746 547.973C311.348 547.973 310.992 547.895 310.68 547.738C310.375 547.582 310.105 547.352 309.871 547.047C309.637 546.742 309.43 546.367 309.25 545.922C309.078 545.477 308.926 544.965 308.793 544.387C308.723 544.074 308.656 543.754 308.594 543.426C308.531 543.098 308.465 542.801 308.395 542.535C308.324 542.262 308.242 542.039 308.148 541.867C308.055 541.688 307.938 541.598 307.797 541.598C307.469 541.598 307.102 541.883 306.695 542.453C306.289 543.023 305.766 543.871 305.125 544.996C304.492 546.121 303.957 546.977 303.52 547.562C303.082 548.148 302.684 548.441 302.324 548.441C301.785 548.441 301.422 548.188 301.234 547.68C301.062 547.164 300.957 546.301 300.918 545.09C300.91 544.613 300.883 544.195 300.836 543.836C300.789 543.469 300.73 543.156 300.66 542.898C300.59 542.641 300.504 542.43 300.402 542.266C300.309 542.094 300.211 541.961 300.109 541.867C299.711 542.109 299.328 542.426 298.961 542.816C298.602 543.207 298.262 543.625 297.941 544.07C297.621 544.516 297.32 544.965 297.039 545.418C296.766 545.871 296.52 546.285 296.301 546.66C296.191 546.848 296.066 547.062 295.926 547.305C295.785 547.547 295.641 547.793 295.492 548.043C295.352 548.285 295.211 548.516 295.07 548.734C294.938 548.953 294.82 549.133 294.719 549.273C294.492 549.602 294.219 549.766 293.898 549.766C293.305 549.766 292.914 549.461 292.727 548.852C292.68 548.695 292.641 548.555 292.609 548.43C292.578 548.305 292.551 548.18 292.527 548.055C292.512 547.93 292.496 547.797 292.48 547.656C292.473 547.508 292.469 547.34 292.469 547.152C292.469 546.84 292.484 546.508 292.516 546.156C292.547 545.805 292.586 545.449 292.633 545.09C292.688 544.73 292.746 544.371 292.809 544.012C292.879 543.645 292.945 543.289 293.008 542.945C293.141 542.273 293.246 541.664 293.324 541.117C293.402 540.57 293.441 540.051 293.441 539.559C293.441 539.371 293.496 539.215 293.605 539.09C293.715 538.957 293.867 538.891 294.062 538.891C294.844 538.891 295.234 539.426 295.234 540.496C295.234 540.777 295.211 541.082 295.164 541.41C295.125 541.738 295.07 542.082 295 542.441C294.938 542.793 294.867 543.152 294.789 543.52C294.711 543.879 294.637 544.234 294.566 544.586C294.527 544.797 294.488 545.023 294.449 545.266C294.41 545.5 294.371 545.727 294.332 545.945C294.301 546.156 294.273 546.348 294.25 546.52C294.227 546.684 294.215 546.805 294.215 546.883C294.316 546.781 294.441 546.633 294.59 546.438C294.746 546.242 294.914 546.012 295.094 545.746C295.273 545.48 295.465 545.188 295.668 544.867C295.879 544.547 296.09 544.215 296.301 543.871C296.738 543.184 297.145 542.578 297.52 542.055C297.902 541.523 298.258 541.07 298.586 540.695C299.242 539.953 299.949 539.582 300.707 539.582C300.895 539.582 301.059 539.637 301.199 539.746C301.34 539.855 301.461 540 301.562 540.18C301.664 540.359 301.75 540.562 301.82 540.789C301.891 541.016 301.949 541.246 301.996 541.48C302.074 541.879 302.148 542.32 302.219 542.805C302.297 543.289 302.371 543.742 302.441 544.164C302.52 544.586 302.598 544.941 302.676 545.23C302.762 545.512 302.859 545.652 302.969 545.652C303.055 545.652 303.156 545.59 303.273 545.465C303.398 545.332 303.523 545.168 303.648 544.973C303.781 544.77 303.914 544.543 304.047 544.293C304.188 544.043 304.32 543.801 304.445 543.566C304.57 543.324 304.684 543.102 304.785 542.898C304.895 542.695 304.98 542.535 305.043 542.418C305.215 542.113 305.414 541.781 305.641 541.422C305.867 541.055 306.109 540.715 306.367 540.402C306.633 540.082 306.918 539.816 307.223 539.605C307.527 539.395 307.848 539.289 308.184 539.289C308.535 539.289 308.809 539.371 309.004 539.535C309.199 539.691 309.359 539.93 309.484 540.25C309.617 540.562 309.73 540.957 309.824 541.434C309.926 541.91 310.051 542.465 310.199 543.098C310.441 544.129 310.703 544.898 310.984 545.406C311.266 545.914 311.637 546.168 312.098 546.168C312.387 546.168 312.68 546.148 312.977 546.109C313.281 546.07 313.598 546.008 313.926 545.922C314.254 545.828 314.598 545.707 314.957 545.559C315.324 545.402 315.715 545.207 316.129 544.973C316.16 544.957 316.207 544.934 316.27 544.902C316.34 544.863 316.41 544.828 316.48 544.797C316.559 544.758 316.629 544.727 316.691 544.703C316.754 544.68 316.797 544.668 316.82 544.668C316.852 544.668 316.887 544.684 316.926 544.715C316.973 544.746 317.016 544.789 317.055 544.844C317.094 544.891 317.129 544.945 317.16 545.008C317.191 545.062 317.207 545.113 317.207 545.16ZM322.539 539.172C322.539 539.086 322.516 539.008 322.469 538.938C322.422 538.867 322.363 538.809 322.293 538.762C322.23 538.715 322.16 538.68 322.082 538.656C322.012 538.625 321.949 538.609 321.895 538.609C321.551 538.609 321.199 538.734 320.84 538.984C320.48 539.227 320.145 539.566 319.832 540.004C319.52 540.441 319.246 540.961 319.012 541.562C318.777 542.164 318.617 542.816 318.531 543.52C318.641 543.449 318.785 543.348 318.965 543.215C319.145 543.082 319.336 542.938 319.539 542.781C319.75 542.617 319.957 542.453 320.16 542.289C320.371 542.125 320.559 541.973 320.723 541.832C321.082 541.527 321.379 541.258 321.613 541.023C321.848 540.781 322.031 540.562 322.164 540.367C322.305 540.164 322.402 539.969 322.457 539.781C322.512 539.586 322.539 539.383 322.539 539.172ZM327.977 544.176C327.977 544.449 327.875 544.746 327.672 545.066C327.469 545.387 327.18 545.746 326.805 546.145C326.375 546.598 325.902 547.02 325.387 547.41C324.871 547.793 324.34 548.129 323.793 548.418C323.246 548.699 322.691 548.922 322.129 549.086C321.566 549.25 321.023 549.332 320.5 549.332C319.273 549.332 318.324 548.938 317.652 548.148C316.98 547.359 316.645 546.203 316.645 544.68C316.645 544.195 316.688 543.703 316.773 543.203C316.859 542.695 316.984 542.195 317.148 541.703C317.32 541.211 317.531 540.734 317.781 540.273C318.039 539.812 318.336 539.383 318.672 538.984C318.883 538.742 319.117 538.496 319.375 538.246C319.633 537.996 319.918 537.773 320.23 537.578C320.543 537.375 320.883 537.211 321.25 537.086C321.625 536.961 322.031 536.898 322.469 536.898C322.781 536.898 323.062 536.961 323.312 537.086C323.562 537.203 323.773 537.355 323.945 537.543C324.117 537.73 324.246 537.941 324.332 538.176C324.426 538.41 324.473 538.641 324.473 538.867C324.473 539.344 324.344 539.828 324.086 540.32C323.828 540.805 323.465 541.297 322.996 541.797C322.527 542.289 321.965 542.785 321.309 543.285C320.652 543.777 319.922 544.27 319.117 544.762C319.008 544.824 318.898 544.895 318.789 544.973C318.68 545.043 318.625 545.133 318.625 545.242C318.625 545.477 318.656 545.723 318.719 545.98C318.781 546.238 318.895 546.477 319.059 546.695C319.223 546.906 319.441 547.082 319.715 547.223C319.996 547.363 320.352 547.434 320.781 547.434C321.328 547.434 321.883 547.348 322.445 547.176C323.016 546.996 323.57 546.75 324.109 546.438C324.656 546.125 325.184 545.754 325.691 545.324C326.207 544.895 326.688 544.43 327.133 543.93C327.383 543.656 327.582 543.52 327.73 543.52C327.816 543.52 327.879 543.57 327.918 543.672C327.957 543.773 327.977 543.941 327.977 544.176Z" fill="#242428"/>
<path d="M355.501 158.5C378 162.5 413.334 160 440.501 158.5L443 362C414.834 362.333 357.901 362.8 355.501 362C353.101 361.2 354.501 226 355.501 158.5Z" fill="#F9F9F9" stroke="#A3A3A3" stroke-width="1.84327" stroke-linecap="round"/>
<path d="M410.419 259.033C410.419 259.424 410.292 259.756 410.038 260.029C409.794 260.312 409.472 260.454 409.071 260.454C408.896 260.454 408.754 260.415 408.646 260.337C408.51 260.229 408.358 260.088 408.192 259.912C408.026 259.727 407.851 259.497 407.665 259.224C407.304 258.667 406.972 258.086 406.669 257.48C406.376 256.865 406.137 256.323 405.951 255.854C405.902 255.718 405.849 255.596 405.79 255.488C405.741 255.371 405.688 255.254 405.629 255.137C405.58 255.01 405.526 254.878 405.468 254.741C405.409 254.595 405.346 254.419 405.277 254.214C404.994 253.374 404.789 252.822 404.662 252.559C404.525 252.695 404.394 252.803 404.267 252.881C404.14 252.949 404.003 253.003 403.856 253.042C403.72 253.071 403.573 253.091 403.417 253.101C403.271 253.101 403.109 253.101 402.934 253.101C402.836 253.101 402.714 253.12 402.567 253.159C402.421 253.198 402.26 253.242 402.084 253.291C401.918 253.34 401.752 253.394 401.586 253.452C401.42 253.511 401.264 253.56 401.117 253.599C400.629 253.735 400.136 253.857 399.638 253.965C399.14 254.072 398.627 254.18 398.1 254.287C397.572 254.385 397.021 254.482 396.444 254.58C395.868 254.668 395.258 254.766 394.613 254.873C394.32 254.922 394.042 255.112 393.778 255.444C393.524 255.786 392.997 256.519 392.196 257.642C391.415 258.755 390.751 259.57 390.204 260.088C389.667 260.605 389.145 260.864 388.637 260.864C387.992 260.864 387.455 260.737 387.025 260.483C386.537 260.171 386.293 259.839 386.293 259.487C386.293 259.302 386.396 259.17 386.601 259.092C386.815 259.004 387.104 258.926 387.465 258.857C387.582 258.848 387.851 258.608 388.271 258.14C388.671 257.69 388.974 257.319 389.179 257.026C389.589 256.489 390.004 255.918 390.424 255.312C390.854 254.697 391.332 254.009 391.859 253.247C392.113 252.856 392.338 252.52 392.533 252.236C392.729 251.953 392.89 251.714 393.017 251.519C393.153 251.323 393.305 251.104 393.471 250.859C393.646 250.615 393.847 250.342 394.071 250.039C394.169 249.902 394.286 249.736 394.423 249.541C394.56 249.346 394.721 249.126 394.906 248.882C395.092 248.628 395.258 248.403 395.404 248.208C395.561 248.013 395.692 247.837 395.8 247.681C395.917 247.524 396.063 247.329 396.239 247.095C396.425 246.86 396.64 246.582 396.884 246.26C396.962 246.162 397.113 245.933 397.338 245.571C397.572 245.21 397.885 244.712 398.275 244.077C398.822 243.169 399.179 242.505 399.345 242.085C400.487 239.312 401.347 237.925 401.923 237.925C402.177 237.925 402.382 237.949 402.538 237.998C402.694 238.037 402.816 238.11 402.904 238.218C402.992 238.315 403.051 238.452 403.08 238.628C403.109 238.794 403.124 238.999 403.124 239.243C403.124 239.409 403.124 239.556 403.124 239.683C403.124 239.81 403.119 239.912 403.109 239.99C403.1 240.146 403.09 240.347 403.08 240.591C403.07 240.835 403.056 241.123 403.036 241.455C403.524 242.48 403.988 243.584 404.428 244.766C404.652 245.361 404.887 246.016 405.131 246.729C405.385 247.432 405.653 248.208 405.937 249.058C406.22 249.897 406.469 250.615 406.684 251.211C406.898 251.807 407.074 252.29 407.211 252.661C407.348 253.032 407.509 253.457 407.694 253.936C407.89 254.414 408.119 254.956 408.383 255.562C408.48 255.786 408.847 256.328 409.481 257.188C410.106 258.047 410.419 258.662 410.419 259.033ZM403.93 250.376C403.754 249.839 403.563 249.263 403.358 248.647C403.153 248.022 402.938 247.402 402.714 246.787C402.499 246.162 402.274 245.562 402.04 244.985C401.815 244.409 401.591 243.896 401.366 243.447C400.819 244.189 400.302 244.902 399.813 245.586C399.325 246.27 398.852 246.958 398.393 247.651C397.943 248.335 397.494 249.038 397.045 249.761C396.605 250.483 396.156 251.255 395.697 252.075C395.805 252.114 395.902 252.134 395.99 252.134C396.137 252.134 396.322 252.124 396.547 252.104C396.781 252.075 397.016 252.046 397.25 252.017C397.494 251.978 397.724 251.938 397.938 251.899C398.163 251.86 398.344 251.826 398.48 251.797C398.715 251.738 398.915 251.689 399.081 251.65C399.257 251.611 399.423 251.572 399.579 251.533C399.735 251.494 399.901 251.455 400.077 251.416C400.263 251.367 400.482 251.313 400.736 251.255C401.303 251.108 401.864 250.962 402.421 250.815C402.978 250.659 403.48 250.513 403.93 250.376Z" fill="#242428"/>
<path d="M64.4414 368.832C64.9258 368.832 65.5234 369.164 66.2344 369.828C66.4141 369.992 66.6133 370.195 66.832 370.437C67.0508 370.672 67.2734 370.922 67.5 371.187C67.7187 371.453 67.9375 371.723 68.1562 371.996C68.375 372.262 68.5742 372.512 68.7539 372.746C69.332 373.496 69.8789 374.281 70.3945 375.102C70.9102 375.922 71.3633 376.75 71.7539 377.586C72.1445 378.422 72.4531 379.258 72.6797 380.094C72.9062 380.922 73.0195 381.723 73.0195 382.496C73.0195 383.34 72.8984 384.074 72.6562 384.699C72.4141 385.324 72.0703 385.844 71.625 386.258C71.1797 386.664 70.6445 386.969 70.0195 387.172C69.3867 387.375 68.6836 387.477 67.9102 387.477C67.207 387.484 66.4922 387.414 65.7656 387.266C65.0391 387.109 64.3242 386.895 63.6211 386.621C62.918 386.348 62.2422 386.02 61.5937 385.637C60.9375 385.254 60.332 384.836 59.7773 384.383C59.4414 384.109 59.1016 383.801 58.7578 383.457C58.4062 383.113 58.0664 382.754 57.7383 382.379C57.4102 381.996 57.1055 381.609 56.8242 381.219C56.5352 380.828 56.2812 380.445 56.0625 380.07C55.9219 379.828 55.7578 379.52 55.5703 379.145C55.3828 378.77 55.207 378.375 55.043 377.961C54.8789 377.547 54.7422 377.137 54.6328 376.73C54.5156 376.324 54.457 375.973 54.457 375.676C54.457 375.199 54.4922 374.82 54.5625 374.539C54.625 374.25 54.7344 373.996 54.8906 373.777C54.9687 373.676 55.0898 373.559 55.2539 373.426C55.4102 373.285 55.5859 373.156 55.7812 373.039C55.9687 372.914 56.1602 372.812 56.3555 372.734C56.543 372.648 56.7031 372.605 56.8359 372.605C56.9687 372.605 57.168 372.668 57.4336 372.793C57.6992 372.918 57.9766 373.062 58.2656 373.227C58.5469 373.391 58.8125 373.555 59.0625 373.719C59.3047 373.883 59.4727 374.008 59.5664 374.094C59.918 374.414 60.0937 374.758 60.0937 375.125C60.0937 375.437 60 375.684 59.8125 375.863C59.6172 376.035 59.375 376.121 59.0859 376.121C58.9844 376.121 58.8281 376.062 58.6172 375.945C58.3984 375.828 58.1523 375.633 57.8789 375.359C57.6055 375.086 57.3555 374.875 57.1289 374.727C56.8945 374.57 56.7383 374.473 56.6602 374.434C56.5508 374.59 56.4648 374.781 56.4023 375.008C56.3398 375.234 56.3086 375.445 56.3086 375.641C56.3086 375.922 56.375 376.27 56.5078 376.684C56.6328 377.098 56.7969 377.523 57 377.961C57.2031 378.391 57.4297 378.812 57.6797 379.227C57.9219 379.633 58.1562 379.977 58.3828 380.258C59.0469 381.062 59.7617 381.805 60.5273 382.484C61.293 383.164 62.1406 383.727 63.0703 384.172C63.4531 384.352 63.8555 384.523 64.2773 384.687C64.6914 384.844 65.1133 384.98 65.543 385.098C65.9727 385.215 66.4023 385.309 66.832 385.379C67.2539 385.441 67.6602 385.473 68.0508 385.473C68.5117 385.473 68.9414 385.422 69.3398 385.32C69.7383 385.211 70.082 385.035 70.3711 384.793C70.6602 384.551 70.8867 384.234 71.0508 383.844C71.2148 383.445 71.2969 382.957 71.2969 382.379C71.2969 381.754 71.2109 381.113 71.0391 380.457C70.8672 379.801 70.6367 379.148 70.3477 378.5C70.0508 377.844 69.7148 377.195 69.3398 376.555C68.957 375.914 68.5586 375.301 68.1445 374.715C67.7305 374.121 67.3164 373.559 66.9023 373.027C66.4883 372.496 66.0977 372.012 65.7305 371.574C65.582 371.395 65.418 371.207 65.2383 371.012C65.0586 370.809 64.8789 370.609 64.6992 370.414C64.5195 370.219 64.3398 370.031 64.1602 369.852C63.9805 369.664 63.8164 369.5 63.668 369.359C63.8477 369.008 64.1055 368.832 64.4414 368.832ZM62.1797 352.965C62.3125 352.965 62.4492 352.996 62.5898 353.059C62.7227 353.113 62.8555 353.187 62.9883 353.281C63.1133 353.375 63.2344 353.48 63.3516 353.598C63.4609 353.707 63.5508 353.82 63.6211 353.937C63.8008 354.211 63.9609 354.602 64.1016 355.109C64.2344 355.609 64.3008 356.23 64.3008 356.973C64.3008 357.566 64.2266 358.164 64.0781 358.766C63.9219 359.367 63.668 359.945 63.3164 360.5C63.5898 360.32 63.8516 360.207 64.1016 360.16C64.3516 360.105 64.6484 360.078 64.9922 360.078C65.6094 360.078 66.2656 360.234 66.9609 360.547C67.6641 360.852 68.3164 361.246 68.918 361.73C69.5195 362.215 70.0195 362.727 70.418 363.266C70.6445 363.57 70.8437 363.906 71.0156 364.273C71.1797 364.633 71.3164 365.012 71.4258 365.41C71.5273 365.809 71.6055 366.223 71.6602 366.652C71.707 367.082 71.7305 367.516 71.7305 367.953C71.7305 368.258 71.6328 368.555 71.4375 368.844C71.2422 369.133 71.0039 369.391 70.7227 369.617C70.4414 369.844 70.1406 370.027 69.8203 370.168C69.5 370.301 69.2109 370.367 68.9531 370.367C68.3203 370.367 67.7148 370.285 67.1367 370.121C66.5508 369.949 65.9883 369.723 65.4492 369.441C64.9023 369.152 64.3711 368.82 63.8555 368.445C63.332 368.07 62.8125 367.672 62.2969 367.25C62.0078 367.016 61.7266 366.75 61.4531 366.453C61.1719 366.148 60.9219 365.832 60.7031 365.504C60.4844 365.176 60.3086 364.844 60.1758 364.508C60.0352 364.172 59.9648 363.852 59.9648 363.547C59.9648 363.297 60 363.082 60.0703 362.902C60.1406 362.723 60.2422 362.555 60.375 362.398C60.5 362.234 60.6602 362.07 60.8555 361.906C61.0508 361.734 61.2695 361.539 61.5117 361.32C61.582 361.25 61.6875 361.059 61.8281 360.746C61.9609 360.426 62.0937 360.051 62.2266 359.621C62.3516 359.184 62.4648 358.727 62.5664 358.25C62.6602 357.773 62.707 357.34 62.707 356.949C62.707 356.559 62.6953 356.199 62.6719 355.871C62.6406 355.543 62.5937 355.227 62.5312 354.922C62.4687 354.609 62.3828 354.301 62.2734 353.996C62.1641 353.691 62.0312 353.363 61.875 353.012C61.9922 352.98 62.0937 352.965 62.1797 352.965ZM64.9922 361.719C64.7734 361.711 64.5273 361.727 64.2539 361.766C63.9727 361.805 63.7109 361.875 63.4687 361.977C63.2187 362.07 63.0156 362.199 62.8594 362.363C62.7031 362.52 62.6406 362.715 62.6719 362.949C62.5312 363.309 62.3828 363.605 62.2266 363.84C62.0703 364.074 61.9922 364.254 61.9922 364.379C61.9922 364.473 62.0234 364.574 62.0859 364.684C62.1406 364.793 62.2187 364.906 62.3203 365.023C62.4219 365.141 62.543 365.262 62.6836 365.387C62.8164 365.504 62.957 365.621 63.1055 365.738C63.4102 365.973 63.6875 366.191 63.9375 366.395C64.1875 366.59 64.4375 366.777 64.6875 366.957C64.9297 367.129 65.1875 367.297 65.4609 367.461C65.7266 367.625 66.0273 367.789 66.3633 367.953C66.5039 368.023 66.6719 368.086 66.8672 368.141C67.0625 368.195 67.2656 368.242 67.4766 368.281C67.6797 368.32 67.8867 368.352 68.0977 368.375C68.3008 368.391 68.4844 368.398 68.6484 368.398C68.75 368.398 68.875 368.363 69.0234 368.293C69.1641 368.223 69.3047 368.133 69.4453 368.023C69.5781 367.906 69.6914 367.777 69.7852 367.637C69.8789 367.488 69.9258 367.344 69.9258 367.203C69.9258 366.805 69.9102 366.465 69.8789 366.184C69.8398 365.902 69.7773 365.645 69.6914 365.41C69.5977 365.168 69.4727 364.926 69.3164 364.684C69.1602 364.441 68.957 364.16 68.707 363.84C68.5898 363.684 68.4531 363.531 68.2969 363.383C68.1406 363.227 67.9766 363.074 67.8047 362.926C67.625 362.777 67.4453 362.637 67.2656 362.504C67.0781 362.371 66.8945 362.246 66.7148 362.129C66.5977 362.051 66.4531 361.984 66.2812 361.93C66.1094 361.875 65.9375 361.832 65.7656 361.801C65.5937 361.77 65.4375 361.75 65.2969 361.742C65.1562 361.727 65.0547 361.719 64.9922 361.719ZM63.5273 343.309C63.6523 343.309 63.793 343.344 63.9492 343.414C64.0977 343.484 64.2539 343.578 64.418 343.695C64.582 343.812 64.75 343.945 64.9219 344.094C65.0859 344.242 65.25 344.391 65.4141 344.539C65.5469 344.656 65.6836 344.781 65.8242 344.914C65.957 345.047 66.1094 345.199 66.2812 345.371C66.4453 345.535 66.6406 345.73 66.8672 345.957C67.0859 346.184 67.3437 346.449 67.6406 346.754C67.9062 347.027 68.1875 347.332 68.4844 347.668C68.7734 347.996 69.0586 348.332 69.3398 348.676C69.6211 349.012 69.8906 349.34 70.1484 349.66C70.4062 349.98 70.6328 350.258 70.8281 350.492C71.2891 351.055 71.7227 351.59 72.1289 352.098C72.543 352.605 72.9141 353.105 73.2422 353.598C73.8984 354.574 74.2266 355.348 74.2266 355.918C74.2266 356.113 74.1758 356.34 74.0742 356.598C73.9727 356.863 73.832 356.996 73.6523 356.996C73.1445 356.996 72.7461 356.805 72.457 356.422C72.1836 356.047 71.8867 355.461 71.5664 354.664C71.2539 353.883 70.9492 353.297 70.6523 352.906C70.3555 352.516 69.9492 352.32 69.4336 352.32C69.1758 352.32 68.6523 352.59 67.8633 353.129C67.4648 353.395 67.1016 353.633 66.7734 353.844C66.4375 354.047 66.1367 354.223 65.8711 354.371C65.3242 354.668 64.75 354.816 64.1484 354.816C63.625 354.816 63.0742 354.719 62.4961 354.523C62.168 354.43 61.8398 354.281 61.5117 354.078C61.1758 353.867 60.8789 353.641 60.6211 353.398C60.3555 353.156 60.1445 352.91 59.9883 352.66C59.832 352.41 59.7578 352.191 59.7656 352.004C59.7656 351.316 60.1719 350.973 60.9844 350.973C61.2969 350.973 61.6016 351.086 61.8984 351.312C62.0391 351.422 62.1875 351.555 62.3437 351.711C62.4922 351.867 62.6523 352.047 62.8242 352.25C62.9883 352.445 63.1328 352.613 63.2578 352.754C63.3828 352.887 63.4883 352.996 63.5742 353.082C63.9805 353.082 64.457 352.957 65.0039 352.707C65.2695 352.574 65.5586 352.422 65.8711 352.25C66.1836 352.078 66.5195 351.879 66.8789 351.652C67.2383 351.426 67.5625 351.234 67.8516 351.078C68.1328 350.922 68.3398 350.805 68.4727 350.727C68.5039 350.719 68.5195 350.676 68.5195 350.598C68.5195 350.488 68.4414 350.301 68.2852 350.035C68.1211 349.762 67.9062 349.441 67.6406 349.074C67.3672 348.699 67.0547 348.293 66.7031 347.855C66.3437 347.418 65.9648 346.98 65.5664 346.543C65.1602 346.09 64.8047 345.715 64.5 345.418C64.1953 345.121 63.9102 344.84 63.6445 344.574C63.3789 344.309 63.1758 344.113 63.0352 343.988C62.8867 343.855 62.8125 343.781 62.8125 343.766C62.8125 343.703 62.8359 343.645 62.8828 343.59C62.9297 343.535 62.9922 343.488 63.0703 343.449C63.1406 343.402 63.2187 343.367 63.3047 343.344C63.3828 343.32 63.457 343.309 63.5273 343.309ZM61.2422 334.988C61.4687 334.988 61.6445 335.035 61.7695 335.129C61.8945 335.215 61.9883 335.324 62.0508 335.457C62.1133 335.582 62.1523 335.719 62.168 335.867C62.1836 336.016 62.1953 336.148 62.2031 336.266C62.25 336.922 62.3047 337.594 62.3672 338.281C62.4219 338.961 62.4805 339.582 62.543 340.145C62.5977 340.707 62.6523 341.172 62.707 341.539C62.7617 341.898 62.8047 342.082 62.8359 342.09C63.0625 342.145 63.3437 342.215 63.6797 342.301C64.0156 342.387 64.3789 342.477 64.7695 342.57C65.1523 342.664 65.5508 342.758 65.9648 342.852C66.3711 342.945 66.7617 343.031 67.1367 343.109C67.5039 343.18 67.8398 343.238 68.1445 343.285C68.4414 343.332 68.6797 343.355 68.8594 343.355C69.0234 343.355 69.2227 343.344 69.457 343.32C69.6914 343.297 69.918 343.242 70.1367 343.156C70.3477 343.062 70.5273 342.93 70.6758 342.758C70.8242 342.586 70.8984 342.352 70.8984 342.055C70.8984 341.891 70.8477 341.691 70.7461 341.457C70.6445 341.215 70.5039 340.953 70.3242 340.672C70.1445 340.391 69.9297 340.098 69.6797 339.793C69.4297 339.488 69.1562 339.187 68.8594 338.891C68.7109 338.742 68.5703 338.582 68.4375 338.41C68.2969 338.23 68.2266 338.039 68.2266 337.836C68.2266 337.547 68.3633 337.402 68.6367 337.402C68.7773 337.402 68.9141 337.43 69.0469 337.484C69.1719 337.531 69.3008 337.598 69.4336 337.684C69.5586 337.762 69.6875 337.855 69.8203 337.965C69.9453 338.066 70.0781 338.176 70.2187 338.293C70.3203 338.371 70.4531 338.488 70.6172 338.645C70.7734 338.793 70.9453 338.977 71.1328 339.195C71.3203 339.406 71.5117 339.645 71.707 339.91C71.8945 340.168 72.0625 340.445 72.2109 340.742C72.3672 341.031 72.4922 341.336 72.5859 341.656C72.6875 341.969 72.7383 342.285 72.7383 342.605C72.7383 343.066 72.6719 343.453 72.5391 343.766C72.4062 344.07 72.2305 344.32 72.0117 344.516C71.793 344.711 71.5469 344.863 71.2734 344.973C70.9922 345.074 70.7109 345.148 70.4297 345.195C70.1484 345.242 69.875 345.27 69.6094 345.277C69.3359 345.277 69.1016 345.277 68.9062 345.277C68.6641 345.277 68.3789 345.254 68.0508 345.207C67.7148 345.152 67.3594 345.09 66.9844 345.02C66.6094 344.949 66.2305 344.871 65.8477 344.785C65.457 344.691 65.0859 344.609 64.7344 344.539C64.3828 344.469 64.0625 344.41 63.7734 344.363C63.4766 344.309 63.2422 344.281 63.0703 344.281C62.9687 344.281 62.9141 344.332 62.9062 344.434C62.8906 344.527 62.8945 344.656 62.918 344.82C62.9414 344.984 62.9648 345.172 62.9883 345.383C63.0117 345.586 63.0039 345.797 62.9648 346.016C62.9414 346.156 62.9062 346.289 62.8594 346.414C62.8125 346.539 62.75 346.652 62.6719 346.754C62.5859 346.848 62.4805 346.926 62.3555 346.988C62.2227 347.043 62.0586 347.07 61.8633 347.07C61.6211 347.07 61.4531 347.008 61.3594 346.883C61.2656 346.75 61.2187 346.594 61.2187 346.414L61.2187 343.66C61.1953 343.613 61.1172 343.555 60.9844 343.484C60.8437 343.406 60.668 343.324 60.457 343.238C60.2383 343.145 59.9961 343.047 59.7305 342.945C59.457 342.844 59.1758 342.742 58.8867 342.641C58.5898 342.531 58.293 342.43 57.9961 342.336C57.6992 342.234 57.4219 342.141 57.1641 342.055C56.7422 341.922 56.4414 341.766 56.2617 341.586C56.082 341.406 55.9922 341.18 55.9922 340.906C55.9922 340.727 56.0273 340.578 56.0977 340.461C56.1602 340.336 56.2422 340.238 56.3437 340.168C56.4375 340.098 56.5391 340.047 56.6484 340.016C56.7578 339.984 56.8594 339.969 56.9531 339.969C56.9844 339.969 57.0781 339.996 57.2344 340.051C57.3828 340.098 57.5703 340.16 57.7969 340.238C58.0234 340.316 58.2773 340.406 58.5586 340.508C58.8398 340.609 59.1211 340.715 59.4023 340.824C59.6836 340.926 59.957 341.023 60.2227 341.117C60.4883 341.211 60.7187 341.293 60.9141 341.363C60.8672 340.637 60.8203 340.023 60.7734 339.523C60.7266 339.016 60.6875 338.582 60.6562 338.223C60.6172 337.863 60.5859 337.559 60.5625 337.309C60.5391 337.051 60.5273 336.809 60.5273 336.582C60.5273 336.238 60.543 335.965 60.5742 335.762C60.6055 335.551 60.6523 335.391 60.7148 335.281C60.7695 335.164 60.8437 335.086 60.9375 335.047C61.0234 335.008 61.125 334.988 61.2422 334.988ZM63.2578 302.457C63.3281 302.457 63.4102 302.492 63.5039 302.562C63.5898 302.633 63.6758 302.715 63.7617 302.809C63.8398 302.902 63.9141 303 63.9844 303.102C64.0469 303.195 64.0937 303.273 64.125 303.336C64.1328 303.352 64.1484 303.422 64.1719 303.547C64.1953 303.664 64.2187 303.805 64.2422 303.969C64.2656 304.125 64.2891 304.281 64.3125 304.437C64.3359 304.594 64.3516 304.711 64.3594 304.789C64.3828 305.031 64.4062 305.289 64.4297 305.562C64.4531 305.828 64.4805 306.086 64.5117 306.336C64.5352 306.578 64.5625 306.801 64.5937 307.004C64.625 307.207 64.6602 307.359 64.6992 307.461C64.7695 307.469 64.9102 307.484 65.1211 307.508C65.332 307.531 65.5781 307.562 65.8594 307.602C66.1406 307.633 66.4375 307.668 66.75 307.707C67.0547 307.738 67.3477 307.773 67.6289 307.812C67.9023 307.844 68.1445 307.871 68.3555 307.895C68.5586 307.918 68.6914 307.934 68.7539 307.941C69.0898 307.98 69.5156 308.035 70.0312 308.105C70.5391 308.168 71.0742 308.246 71.6367 308.34C72.1992 308.426 72.7539 308.527 73.3008 308.645C73.8477 308.762 74.3242 308.891 74.7305 309.031C75.1914 309.195 75.6289 309.383 76.043 309.594C76.457 309.797 76.8203 310.031 77.1328 310.297C77.4453 310.562 77.6914 310.859 77.8711 311.187C78.0508 311.516 78.1406 311.883 78.1406 312.289C78.1406 312.492 78.0937 312.687 78 312.875C77.9141 313.062 77.8008 313.23 77.6602 313.379C77.5195 313.527 77.3672 313.648 77.2031 313.742C77.0391 313.828 76.8789 313.871 76.7227 313.871C76.6211 313.871 76.5352 313.871 76.4648 313.871C76.3945 313.871 76.3398 313.863 76.3008 313.848C76.2617 313.824 76.2305 313.789 76.207 313.742C76.1914 313.695 76.1836 313.621 76.1836 313.52C76.1836 313.488 76.1914 313.426 76.207 313.332C76.2305 313.23 76.25 313.125 76.2656 313.016C76.2891 312.898 76.3086 312.785 76.3242 312.676C76.3477 312.566 76.3594 312.48 76.3594 312.418C76.3594 312.207 76.2969 311.996 76.1719 311.785C76.0469 311.574 75.8633 311.375 75.6211 311.187C75.3867 311 75.0937 310.836 74.7422 310.695C74.3984 310.547 74.0039 310.434 73.5586 310.355C72.4336 310.137 71.3906 309.965 70.4297 309.84C69.4687 309.715 68.5312 309.605 67.6172 309.512C67.4922 309.496 67.3008 309.477 67.043 309.453C66.7773 309.422 66.5039 309.395 66.2227 309.371C65.9336 309.348 65.6602 309.328 65.4023 309.312C65.1445 309.289 64.9492 309.277 64.8164 309.277C64.7227 309.277 64.6445 309.359 64.582 309.523C64.5508 310.086 64.5117 310.621 64.4648 311.129C64.418 311.629 64.3633 312.113 64.3008 312.582C64.2695 312.879 64.2227 313.187 64.1602 313.508C64.0898 313.82 64.0117 314.133 63.9258 314.445C63.832 314.75 63.7344 315.047 63.6328 315.336C63.5312 315.617 63.4258 315.875 63.3164 316.109C63.5898 315.93 63.8516 315.816 64.1016 315.77C64.3516 315.715 64.6484 315.687 64.9922 315.687C65.6094 315.687 66.2656 315.844 66.9609 316.156C67.6641 316.461 68.3164 316.855 68.918 317.34C69.5195 317.824 70.0195 318.336 70.418 318.875C70.6445 319.18 70.8437 319.516 71.0156 319.883C71.1797 320.242 71.3164 320.621 71.4258 321.02C71.5273 321.418 71.6055 321.832 71.6602 322.262C71.707 322.691 71.7305 323.125 71.7305 323.562C71.7305 323.867 71.6328 324.164 71.4375 324.453C71.2422 324.742 71.0039 325 70.7227 325.227C70.4414 325.453 70.1406 325.637 69.8203 325.777C69.5 325.91 69.2109 325.977 68.9531 325.977C68.3203 325.977 67.7148 325.895 67.1367 325.73C66.5508 325.559 65.9883 325.332 65.4492 325.051C64.9023 324.762 64.3711 324.43 63.8555 324.055C63.332 323.68 62.8125 323.281 62.2969 322.859C62.0078 322.625 61.7266 322.359 61.4531 322.062C61.1719 321.758 60.9219 321.441 60.7031 321.113C60.4844 320.785 60.3086 320.453 60.1758 320.117C60.0352 319.781 59.9648 319.461 59.9648 319.156C59.9648 318.906 60 318.691 60.0703 318.512C60.1406 318.332 60.2422 318.164 60.375 318.008C60.5 317.844 60.6602 317.68 60.8555 317.516C61.0508 317.344 61.2695 317.148 61.5117 316.93C61.5586 316.883 61.6289 316.77 61.7227 316.59C61.8164 316.41 61.918 316.184 62.0273 315.91C62.1367 315.637 62.25 315.324 62.3672 314.973C62.4844 314.621 62.5898 314.254 62.6836 313.871C62.7773 313.48 62.8555 313.086 62.918 312.687C62.9727 312.289 63 311.902 63 311.527C63 311.121 62.9961 310.773 62.9883 310.484C62.9805 310.187 62.9648 309.937 62.9414 309.734C62.918 309.531 62.8867 309.371 62.8477 309.254C62.8086 309.137 62.7578 309.047 62.6953 308.984C62.6094 308.906 62.5234 308.859 62.4375 308.844C62.3437 308.82 62.2578 308.801 62.1797 308.785C62.0234 308.754 61.8242 308.723 61.582 308.691C61.332 308.652 61.043 308.605 60.7148 308.551C60.3164 308.488 59.9414 308.426 59.5898 308.363C59.2305 308.293 58.8828 308.211 58.5469 308.117C58.2031 308.023 57.8633 307.91 57.5273 307.777C57.1836 307.645 56.832 307.484 56.4727 307.297C54.9023 306.469 54.1172 305.328 54.1172 303.875C54.1172 303.562 54.1719 303.27 54.2812 302.996C54.3906 302.723 54.543 302.484 54.7383 302.281C54.9336 302.078 55.168 301.918 55.4414 301.801C55.7148 301.684 56.0156 301.625 56.3437 301.625C56.7266 301.625 57.1055 301.672 57.4805 301.766C57.8477 301.859 58.2461 302.051 58.6758 302.34C59.1758 302.668 59.4258 302.973 59.4258 303.254L59.4258 303.301C58.8789 303.16 58.3008 303.09 57.6914 303.09C56.9727 303.09 56.4531 303.203 56.1328 303.43C55.8125 303.656 55.6523 303.922 55.6523 304.227C55.6523 304.422 55.7148 304.617 55.8398 304.812C55.957 305 56.1055 305.18 56.2852 305.352C56.457 305.516 56.6445 305.664 56.8477 305.797C57.0508 305.93 57.2305 306.031 57.3867 306.102C57.6758 306.234 58.0195 306.367 58.418 306.5C58.8086 306.625 59.2148 306.742 59.6367 306.852C60.0586 306.961 60.4766 307.055 60.8906 307.133C61.2969 307.203 61.6641 307.25 61.9922 307.273C62.1953 307.273 62.3633 307.262 62.4961 307.238C62.6211 307.207 62.7187 307.164 62.7891 307.109C62.8594 307.055 62.9102 306.984 62.9414 306.898C62.9648 306.812 62.9766 306.715 62.9766 306.605C62.9766 306.465 62.9766 306.242 62.9766 305.937C62.9687 305.625 62.9648 305.293 62.9648 304.941C62.957 304.582 62.9531 304.23 62.9531 303.887C62.9531 303.535 62.957 303.246 62.9648 303.02C62.9727 302.988 62.9805 302.941 62.9883 302.879C62.9961 302.816 63.0117 302.754 63.0352 302.691C63.0508 302.629 63.0781 302.574 63.1172 302.527C63.1484 302.48 63.1953 302.457 63.2578 302.457ZM64.9922 317.328C64.7734 317.32 64.5273 317.336 64.2539 317.375C63.9727 317.414 63.7109 317.484 63.4687 317.586C63.2187 317.68 63.0156 317.809 62.8594 317.973C62.7031 318.129 62.6406 318.324 62.6719 318.559C62.5312 318.918 62.3828 319.215 62.2266 319.449C62.0703 319.684 61.9922 319.863 61.9922 319.988C61.9922 320.082 62.0234 320.184 62.0859 320.293C62.1406 320.402 62.2187 320.516 62.3203 320.633C62.4219 320.75 62.543 320.871 62.6836 320.996C62.8164 321.113 62.957 321.23 63.1055 321.348C63.4102 321.582 63.6875 321.801 63.9375 322.004C64.1875 322.199 64.4375 322.387 64.6875 322.566C64.9297 322.738 65.1875 322.906 65.4609 323.07C65.7266 323.234 66.0273 323.398 66.3633 323.562C66.5039 323.633 66.6719 323.695 66.8672 323.75C67.0625 323.805 67.2656 323.852 67.4766 323.891C67.6797 323.93 67.8867 323.961 68.0977 323.984C68.3008 324 68.4844 324.008 68.6484 324.008C68.75 324.008 68.875 323.973 69.0234 323.902C69.1641 323.832 69.3047 323.742 69.4453 323.633C69.5781 323.516 69.6914 323.387 69.7852 323.246C69.8789 323.098 69.9258 322.953 69.9258 322.812C69.9258 322.414 69.9102 322.074 69.8789 321.793C69.8398 321.512 69.7773 321.254 69.6914 321.02C69.5977 320.777 69.4727 320.535 69.3164 320.293C69.1602 320.051 68.957 319.77 68.707 319.449C68.5898 319.293 68.4531 319.141 68.2969 318.992C68.1406 318.836 67.9766 318.684 67.8047 318.535C67.625 318.387 67.4453 318.246 67.2656 318.113C67.0781 317.98 66.8945 317.855 66.7148 317.738C66.5977 317.66 66.4531 317.594 66.2812 317.539C66.1094 317.484 65.9375 317.441 65.7656 317.41C65.5937 317.379 65.4375 317.359 65.2969 317.352C65.1562 317.336 65.0547 317.328 64.9922 317.328ZM61.3711 274.273C62.3633 274.273 63.3242 274.645 64.2539 275.387C65.1914 276.137 66.043 277.078 66.8086 278.211C67.1914 278.781 67.5508 279.363 67.8867 279.957C68.2148 280.543 68.5156 281.145 68.7891 281.762C69.0625 282.379 69.3047 282.961 69.5156 283.508C69.7187 284.047 69.8906 284.555 70.0312 285.031C70.2109 285.609 70.4922 286.312 70.875 287.141C70.9062 287.203 70.9492 287.281 71.0039 287.375C71.0508 287.469 71.1094 287.582 71.1797 287.715C71.3281 287.973 71.418 288.18 71.4492 288.336C71.6055 289.031 71.6836 289.48 71.6836 289.684C71.6836 290.059 71.5703 290.379 71.3437 290.645C71.1172 290.91 70.8164 291.086 70.4414 291.172C70.1133 291.25 69.8398 291.309 69.6211 291.348C69.4023 291.379 69.2344 291.395 69.1172 291.395C69.0078 291.395 68.8477 291.371 68.6367 291.324C68.4258 291.27 68.2422 291.242 68.0859 291.242C67.9687 291.242 67.8359 291.234 67.6875 291.219C67.5312 291.203 67.3555 291.18 67.1602 291.148C66.9648 291.117 66.8086 291.094 66.6914 291.078C66.5664 291.055 66.4727 291.039 66.4102 291.031C66.2148 291 65.8477 290.941 65.3086 290.855C64.7617 290.77 64.0391 290.66 63.1406 290.527C62.6641 290.449 62.1602 290.359 61.6289 290.258C61.0977 290.156 60.5312 290.039 59.9297 289.906C59.875 289.891 59.8047 289.875 59.7187 289.859C59.6328 289.836 59.5312 289.809 59.4141 289.777C59.1797 289.715 58.9805 289.668 58.8164 289.637C58.6523 289.605 58.4961 289.59 58.3477 289.59C58.1914 289.59 58.0586 289.637 57.9492 289.73C57.8398 289.824 57.7266 289.957 57.6094 290.129C57.4844 290.293 57.3828 290.41 57.3047 290.48C57.2187 290.543 57.0937 290.574 56.9297 290.574C56.6172 290.574 56.3047 290.441 55.9922 290.176C55.6719 289.902 55.5117 289.617 55.5117 289.32C55.5117 288.961 55.5469 288.48 55.6172 287.879C55.6875 287.285 55.7227 286.871 55.7227 286.637C55.7227 286.238 55.6992 285.633 55.6523 284.82C55.6055 284.016 55.582 283.414 55.582 283.016C55.582 281.883 55.6719 280.816 55.8516 279.816C56.0312 278.816 56.3516 277.914 56.8125 277.109C56.9375 276.891 57.1602 276.57 57.4805 276.148C57.7773 275.727 58.3633 275.309 59.2383 274.895C60.1133 274.48 60.8242 274.273 61.3711 274.273ZM61.3711 276.312C60.2852 276.312 59.4531 276.711 58.875 277.508C58.3047 278.297 57.9297 279.234 57.75 280.32C57.6641 280.859 57.5977 281.41 57.5508 281.973C57.5039 282.527 57.4805 283.098 57.4805 283.684C57.4805 283.863 57.4883 284.051 57.5039 284.246C57.5117 284.441 57.5234 284.648 57.5391 284.867C57.5781 285.297 57.6172 285.703 57.6562 286.086C57.6953 286.469 57.7227 286.883 57.7383 287.328C58.2539 287.437 58.793 287.547 59.3555 287.656C59.9102 287.766 60.4922 287.875 61.1016 287.984C61.25 288.008 61.4453 288.043 61.6875 288.09C61.9219 288.137 62.2148 288.195 62.5664 288.266C62.918 288.328 63.2383 288.391 63.5273 288.453C63.8164 288.508 64.0859 288.555 64.3359 288.594C64.5859 288.633 64.8477 288.672 65.1211 288.711C65.3867 288.75 65.6602 288.785 65.9414 288.816C66.2148 288.848 66.4883 288.875 66.7617 288.898C67.0273 288.914 67.2773 288.922 67.5117 288.922C68.082 288.922 68.5469 288.832 68.9062 288.652C68.8281 288.066 68.6992 287.469 68.5195 286.859C68.4336 286.555 68.3359 286.238 68.2266 285.91C68.1172 285.574 67.9961 285.227 67.8633 284.867C67.7305 284.5 67.6172 284.18 67.5234 283.906C67.4219 283.625 67.3398 283.383 67.2773 283.18C66.4883 280.781 65.75 279.215 65.0625 278.48C64.9531 278.363 64.8125 278.23 64.6406 278.082C64.4687 277.934 64.2617 277.77 64.0195 277.59C63.5352 277.23 63.0469 276.926 62.5547 276.676C62.0781 276.434 61.6836 276.312 61.3711 276.312ZM60.9023 265.004C60.8164 265.004 60.7344 265.031 60.6562 265.086C60.5781 265.133 60.5078 265.195 60.4453 265.273C60.3828 265.344 60.332 265.422 60.293 265.508C60.2539 265.586 60.2344 265.652 60.2344 265.707C60.2344 266.012 60.3633 266.352 60.6211 266.727C60.8711 267.094 61.2227 267.449 61.6758 267.793C62.1289 268.129 62.6719 268.43 63.3047 268.695C63.9375 268.961 64.6328 269.141 65.3906 269.234C65.3203 269.125 65.1836 268.941 64.9805 268.684C64.7773 268.426 64.5508 268.148 64.3008 267.852C64.0508 267.547 63.7969 267.25 63.5391 266.961C63.2812 266.664 63.0586 266.426 62.8711 266.246C62.6445 266.027 62.4414 265.84 62.2617 265.684C62.082 265.52 61.918 265.391 61.7695 265.297C61.6133 265.195 61.4648 265.121 61.3242 265.074C61.1836 265.027 61.043 265.004 60.9023 265.004ZM61.2891 256.566C61.4687 256.566 61.7578 256.645 62.1562 256.801C62.5469 256.957 62.9961 257.172 63.5039 257.445C64.0039 257.719 64.5312 258.039 65.0859 258.406C65.6406 258.773 66.1641 259.172 66.6562 259.602C67.1875 260.039 67.7031 260.531 68.2031 261.078C68.7031 261.625 69.1484 262.215 69.5391 262.848C69.9297 263.473 70.2422 264.133 70.4766 264.828C70.7109 265.523 70.8281 266.238 70.8281 266.973C70.8281 267.723 70.7031 268.363 70.4531 268.895C70.1953 269.418 69.8594 269.848 69.4453 270.184C69.0312 270.512 68.5625 270.754 68.0391 270.91C67.5156 271.059 66.9805 271.133 66.4336 271.133C65.9414 271.133 65.4453 271.086 64.9453 270.992C64.4375 270.898 63.9453 270.766 63.4687 270.594C62.9844 270.414 62.5234 270.203 62.0859 269.961C61.6484 269.719 61.2422 269.449 60.8672 269.152C60.625 268.965 60.3711 268.738 60.1055 268.473C59.832 268.199 59.582 267.895 59.3555 267.559C59.1289 267.215 58.9414 266.844 58.793 266.445C58.6367 266.047 58.5586 265.629 58.5586 265.191C58.5586 264.879 58.6172 264.605 58.7344 264.371C58.8437 264.129 58.9922 263.93 59.1797 263.773C59.3594 263.609 59.5625 263.488 59.7891 263.41C60.0156 263.324 60.2422 263.281 60.4687 263.281C60.9297 263.281 61.375 263.367 61.8047 263.539C62.2344 263.711 62.6797 263.992 63.1406 264.383C63.5937 264.773 64.0742 265.285 64.582 265.918C65.082 266.543 65.6367 267.312 66.2461 268.227C66.2852 268.281 66.3359 268.359 66.3984 268.461C66.4609 268.562 66.5312 268.664 66.6094 268.766C66.6797 268.867 66.7539 268.957 66.832 269.035C66.9023 269.105 66.9648 269.141 67.0195 269.141C67.2305 269.141 67.4609 269.105 67.7109 269.035C67.9531 268.965 68.1797 268.84 68.3906 268.66C68.5937 268.473 68.7656 268.219 68.9062 267.898C69.0469 267.578 69.1172 267.168 69.1172 266.668C69.1172 266.316 69.0742 265.953 68.9883 265.578C68.8945 265.195 68.7695 264.816 68.6133 264.441C68.4492 264.059 68.2578 263.684 68.0391 263.316C67.8125 262.949 67.5625 262.602 67.2891 262.273C66.9375 261.836 66.5312 261.395 66.0703 260.949C65.6016 260.504 65.0977 260.07 64.5586 259.648C64.0195 259.227 63.4531 258.824 62.8594 258.441C62.2578 258.059 61.6484 257.711 61.0312 257.398C60.8594 257.312 60.7422 257.219 60.6797 257.117C60.6172 257.008 60.5859 256.918 60.5859 256.848C60.5859 256.754 60.6484 256.684 60.7734 256.637C60.8906 256.59 61.0625 256.566 61.2891 256.566ZM64.8984 247.297C65.2656 247.297 65.8398 247.52 66.6211 247.965C66.7695 248.051 66.9492 248.172 67.1602 248.328C67.3633 248.477 67.5781 248.645 67.8047 248.832C68.0234 249.02 68.25 249.215 68.4844 249.418C68.7109 249.621 68.9219 249.82 69.1172 250.016C69.4141 250.312 69.7031 250.641 69.9844 251C70.2656 251.352 70.5195 251.727 70.7461 252.125C70.9727 252.516 71.1562 252.922 71.2969 253.344C71.4297 253.758 71.4961 254.168 71.4961 254.574C71.4961 255.113 71.3984 255.617 71.2031 256.086C71.0078 256.555 70.707 256.965 70.3008 257.316C69.8945 257.66 69.3867 257.934 68.7773 258.137C68.1602 258.332 67.4336 258.43 66.5977 258.43C66.0273 258.43 65.4336 258.402 64.8164 258.348C64.1914 258.293 63.5664 258.223 62.9414 258.137C62.3164 258.051 61.6992 257.957 61.0898 257.855C60.4727 257.746 59.8789 257.637 59.3086 257.527C58.918 257.457 58.5977 257.398 58.3477 257.352C58.0977 257.297 57.8672 257.25 57.6562 257.211C57.4453 257.172 57.2344 257.137 57.0234 257.105C56.8047 257.074 56.5352 257.035 56.2148 256.988C55.9961 256.957 55.8047 256.93 55.6406 256.906C55.4687 256.875 55.3281 256.852 55.2187 256.836C55.0312 256.805 54.8516 256.754 54.6797 256.684C54.5078 256.605 54.3555 256.512 54.2227 256.402C54.0898 256.285 53.9844 256.152 53.9062 256.004C53.8281 255.855 53.7891 255.691 53.7891 255.512C53.7891 255.137 53.9648 254.859 54.3164 254.68C54.5586 254.727 54.793 254.777 55.0195 254.832C55.2383 254.879 55.4727 254.922 55.7227 254.961C56.707 255.156 57.5039 255.316 58.1133 255.441C58.7227 255.566 59.1523 255.656 59.4023 255.711C59.8945 255.805 60.4258 255.906 60.9961 256.016C61.5664 256.117 62.1484 256.215 62.7422 256.309C63.3359 256.395 63.9219 256.465 64.5 256.52C65.0781 256.574 65.6172 256.602 66.1172 256.602C66.6562 256.602 67.1484 256.559 67.5937 256.473C68.0312 256.387 68.4062 256.25 68.7187 256.062C69.0312 255.867 69.2734 255.621 69.4453 255.324C69.6172 255.02 69.7031 254.652 69.7031 254.223C69.7031 253.754 69.6016 253.293 69.3984 252.84C69.1875 252.387 68.9219 251.953 68.6016 251.539C68.2812 251.117 67.9297 250.719 67.5469 250.344C67.1562 249.969 66.7812 249.625 66.4219 249.312C66.125 249.062 65.8711 248.844 65.6602 248.656C65.4414 248.469 65.2578 248.312 65.1094 248.187C64.9922 248.086 64.8711 247.973 64.7461 247.848C64.6211 247.715 64.5586 247.594 64.5586 247.484C64.5586 247.359 64.6719 247.297 64.8984 247.297ZM61.3008 241.109C61.2851 241.109 61.2422 241.121 61.1719 241.145C61.1016 241.168 61.0312 241.203 60.9609 241.25C60.8828 241.297 60.8164 241.355 60.7617 241.426C60.6992 241.488 60.668 241.559 60.668 241.637L60.668 241.66C60.6992 241.949 60.7969 242.258 60.9609 242.586C61.1172 242.914 61.3633 243.262 61.6992 243.629C62.0273 243.996 62.4531 244.383 62.9766 244.789C63.5 245.195 64.1367 245.617 64.8867 246.055C65.1133 246.187 65.3633 246.336 65.6367 246.5C65.9023 246.656 66.1992 246.809 66.5273 246.957C66.8477 247.098 67.1914 247.219 67.5586 247.32C67.9258 247.414 68.3125 247.461 68.7187 247.461C68.9609 247.461 69.1445 247.375 69.2695 247.203C69.3945 247.023 69.457 246.84 69.457 246.652C69.457 246.457 69.3516 246.203 69.1406 245.891C68.9219 245.578 68.6367 245.242 68.2852 244.883C67.9258 244.516 67.5195 244.145 67.0664 243.77C66.6055 243.387 66.1328 243.035 65.6484 242.715C65.1641 242.387 64.6875 242.105 64.2187 241.871C63.75 241.629 63.3242 241.465 62.9414 241.379C62.8242 241.355 62.6875 241.328 62.5312 241.297C62.3672 241.266 62.207 241.238 62.0508 241.215C61.8867 241.184 61.7383 241.16 61.6055 241.145C61.4648 241.121 61.3633 241.109 61.3008 241.109ZM62.6484 231.945C62.9141 231.945 63.1992 232.023 63.5039 232.18C63.8008 232.328 64.0742 232.496 64.3242 232.684C64.9883 233.176 65.5976 233.691 66.1523 234.23C66.6992 234.762 67.2187 235.301 67.7109 235.848C68.2266 236.418 68.6289 236.988 68.918 237.559C69.207 238.121 69.3516 238.629 69.3516 239.082C69.3516 239.277 69.3047 239.473 69.2109 239.668C69.1172 239.855 68.9961 240.035 68.8476 240.207C68.6914 240.371 68.5117 240.52 68.3086 240.652C68.1055 240.777 67.8945 240.875 67.6758 240.945C67.5586 240.984 67.4258 241.02 67.2773 241.051C67.1211 241.082 66.9805 241.113 66.8555 241.145C66.7226 241.176 66.6133 241.211 66.5273 241.25C66.4336 241.289 66.3867 241.332 66.3867 241.379C66.3867 241.41 66.4375 241.477 66.5391 241.578C66.6406 241.68 66.7734 241.801 66.9375 241.941C67.0937 242.074 67.2734 242.219 67.4766 242.375C67.6719 242.531 67.8633 242.687 68.0508 242.844C68.2383 242.992 68.4102 243.129 68.5664 243.254C68.7227 243.371 68.8398 243.465 68.918 243.535C69.1914 243.777 69.4727 244.066 69.7617 244.402C70.043 244.73 70.3008 245.062 70.5352 245.398C70.7695 245.727 70.9609 246.031 71.1094 246.312C71.2578 246.586 71.332 246.789 71.332 246.922C71.332 247.219 71.2852 247.508 71.1914 247.789C71.0898 248.062 70.9453 248.305 70.7578 248.516C70.5703 248.727 70.3398 248.898 70.0664 249.031C69.793 249.156 69.4805 249.219 69.1289 249.219C68.5508 249.219 67.8906 249.105 67.1484 248.879C66.4062 248.645 65.6523 248.34 64.8867 247.965C64.1211 247.582 63.3867 247.145 62.6836 246.652C61.9727 246.16 61.3633 245.648 60.8555 245.117C60.2695 244.5 59.8398 243.855 59.5664 243.184C59.2851 242.504 59.1445 241.809 59.1445 241.098C59.1445 240.965 59.1719 240.852 59.2266 240.758C59.2812 240.656 59.3516 240.57 59.4375 240.5C59.5234 240.43 59.6211 240.367 59.7305 240.312C59.832 240.258 59.9375 240.203 60.0469 240.148C60.1172 240.117 60.1953 240.051 60.2812 239.949C60.3672 239.848 60.457 239.742 60.5508 239.633C60.6367 239.523 60.7226 239.43 60.8086 239.352C60.8945 239.266 60.9766 239.223 61.0547 239.223C61.2187 239.223 61.4023 239.258 61.6055 239.328C61.8008 239.391 62.0312 239.461 62.2969 239.539C62.5547 239.617 62.8516 239.691 63.1875 239.762C63.5156 239.824 63.8945 239.855 64.3242 239.855C64.6055 239.855 64.9258 239.832 65.2851 239.785C65.6445 239.73 65.9883 239.652 66.3164 239.551C66.6367 239.441 66.9062 239.305 67.125 239.141C67.3437 238.977 67.4531 238.785 67.4531 238.566C67.4531 238.301 67.3789 238.035 67.2305 237.77C67.0742 237.504 66.8594 237.199 66.5859 236.855C65.9766 236.09 65.3086 235.363 64.582 234.676C63.8555 233.988 63.1328 233.285 62.4141 232.566C62.2891 232.441 62.2266 232.324 62.2266 232.215C62.2266 232.035 62.3672 231.945 62.6484 231.945ZM61.8281 221.996C61.8828 221.996 61.9766 222.012 62.1094 222.043C62.2344 222.066 62.375 222.098 62.5312 222.137C62.6797 222.176 62.8281 222.219 62.9766 222.266C63.125 222.312 63.2461 222.352 63.3398 222.383C63.543 222.461 63.793 222.559 64.0898 222.676C64.3867 222.785 64.7148 222.906 65.0742 223.039C65.4258 223.164 65.793 223.297 66.1758 223.437C66.5586 223.57 66.9375 223.699 67.3125 223.824C67.6797 223.941 68.0273 224.055 68.3555 224.164C68.6836 224.266 68.9687 224.352 69.2109 224.422C69.4531 224.492 69.7461 224.582 70.0898 224.691C70.4258 224.793 70.7891 224.906 71.1797 225.031C71.5703 225.156 71.9766 225.285 72.3984 225.418C72.8281 225.551 73.2539 225.684 73.6758 225.816C74.0976 225.949 74.5078 226.078 74.9062 226.203C75.3047 226.32 75.6719 226.43 76.0078 226.531C76.2344 226.602 76.4766 226.664 76.7344 226.719C77 226.766 77.2461 226.836 77.4726 226.93C77.6992 227.016 77.8867 227.141 78.0351 227.305C78.1914 227.469 78.2695 227.707 78.2695 228.02C78.2695 228.145 78.2383 228.258 78.1758 228.359C78.1133 228.461 78.0351 228.547 77.9414 228.617C77.8476 228.687 77.7422 228.742 77.625 228.781C77.5078 228.82 77.3945 228.84 77.2851 228.84C77.1055 228.84 76.875 228.797 76.5937 228.711C76.3125 228.617 76 228.504 75.6562 228.371C75.3125 228.238 74.9492 228.098 74.5664 227.949C74.1836 227.793 73.8008 227.648 73.418 227.516C72.832 227.32 72.2773 227.133 71.7539 226.953C71.2305 226.766 70.7656 226.605 70.3594 226.473C69.9453 226.34 69.6094 226.234 69.3516 226.156C69.0859 226.07 68.9219 226.027 68.8594 226.027C68.7812 226.027 68.7187 226.039 68.6719 226.062C68.6172 226.086 68.5898 226.129 68.5898 226.191C68.5898 226.246 68.6523 226.363 68.7773 226.543C68.8945 226.723 69.043 226.949 69.2226 227.223C69.4023 227.488 69.5976 227.789 69.8086 228.125C70.0117 228.453 70.2031 228.797 70.3828 229.156C70.5625 229.508 70.7148 229.859 70.8398 230.211C70.957 230.562 71.0156 230.895 71.0156 231.207C71.0156 231.691 70.9336 232.121 70.7695 232.496C70.6055 232.863 70.3984 233.176 70.1484 233.434C69.8906 233.684 69.6094 233.875 69.3047 234.008C68.9922 234.141 68.6914 234.207 68.4023 234.207C68.168 234.207 67.8789 234.184 67.5351 234.137C67.1836 234.082 66.8086 234.012 66.4101 233.926C66.0039 233.832 65.5859 233.723 65.1562 233.598C64.7266 233.473 64.3125 233.34 63.9141 233.199C63.5156 233.059 63.1445 232.914 62.8008 232.766C62.457 232.609 62.1719 232.453 61.9453 232.297C61.6328 232.086 61.4141 231.895 61.2891 231.723C61.1641 231.551 61.1016 231.379 61.1016 231.207C61.1016 231.051 61.1289 230.926 61.1836 230.832C61.2383 230.73 61.3125 230.652 61.4062 230.598C61.5 230.535 61.6094 230.496 61.7344 230.48C61.8594 230.457 61.9922 230.445 62.1328 230.445C62.2422 230.445 62.4297 230.508 62.6953 230.633C62.9531 230.758 63.2695 230.91 63.6445 231.09C64.0117 231.262 64.4258 231.445 64.8867 231.641C65.3476 231.828 65.832 231.988 66.3398 232.121C66.5898 232.199 66.8672 232.254 67.1719 232.285C67.4687 232.309 67.7422 232.32 67.9922 232.32C68.2187 232.32 68.4062 232.262 68.5547 232.145C68.7031 232.027 68.8242 231.887 68.918 231.723C69.0039 231.559 69.0664 231.395 69.1055 231.23C69.1445 231.059 69.1641 230.918 69.1641 230.809C69.1641 230.465 69.1055 230.125 68.9883 229.789C68.8633 229.453 68.7109 229.125 68.5312 228.805C68.3516 228.477 68.1601 228.16 67.957 227.855C67.7461 227.543 67.5586 227.238 67.3945 226.941C67.2383 226.676 67.0469 226.402 66.8203 226.121C66.5937 225.84 66.3359 225.594 66.0469 225.383C65.9219 225.289 65.6992 225.18 65.3789 225.055C65.0508 224.93 64.6836 224.801 64.2773 224.668C63.8711 224.535 63.4531 224.402 63.0234 224.27C62.5859 224.137 62.1953 224.02 61.8516 223.918C61.4375 223.793 61.1328 223.637 60.9375 223.449C60.7422 223.254 60.6445 223.066 60.6445 222.887C60.6445 222.676 60.6797 222.512 60.75 222.395C60.8203 222.277 60.9101 222.191 61.0195 222.137C61.1289 222.074 61.2539 222.035 61.3945 222.02C61.5351 222.004 61.6797 221.996 61.8281 221.996Z" fill="#242428"/>
<path d="M107.003 65C100.003 209.5 90.2027 498.7 107.003 499.5C123.803 500.3 400.336 499.833 536.502 499.5" stroke="#D4D4D4" stroke-width="3.30086" stroke-linecap="round"/>
<path d="M277.002 429C254.202 434.2 152.835 431.167 105.002 429C103.335 452.333 101.002 498.4 105.002 496C109.002 493.6 223.668 495 280.502 496L277.002 429Z" fill="#F9F9F9" stroke="#A3A3A3" stroke-width="1.84327" stroke-linecap="round"/>
<path d="M353.5 362.5C346.7 364.9 301 363.5 279 362.5V431C305 431.333 356.3 431.8 353.5 431C350.7 430.2 352.333 385 353.5 362.5Z" fill="#F9F9F9" stroke="#A3A3A3" stroke-width="1.84327" stroke-linecap="round"/>
<path d="M443.005 87.2212C455.357 87.2411 465.703 83.8437 469.69 77.1093" stroke="#47B5FF" stroke-width="6" stroke-linecap="round"/>
<path d="M473.545 105.379C467.615 94.5149 465.636 83.7802 469.624 77.0459" stroke="#47B5FF" stroke-width="6" stroke-linecap="round"/>
<path d="M352 156H106" stroke="#FF3B30" stroke-width="0.991095" stroke-linecap="round" stroke-dasharray="11.89 11.89"/>
<path d="M313.724 391.163C313.724 391.388 313.694 391.71 313.636 392.13C313.577 392.56 313.533 392.809 313.504 392.877C313.377 393.385 313.147 393.941 312.815 394.547C312.483 395.143 312.098 395.719 311.658 396.275C311.238 396.812 310.813 397.296 310.384 397.726C309.954 398.146 309.588 398.458 309.285 398.663C308.973 398.888 308.577 399.107 308.099 399.322C307.63 399.547 307.073 399.757 306.429 399.952C305.149 400.353 304.031 400.553 303.074 400.553C302.254 400.553 301.502 400.406 300.818 400.113C300.135 399.84 299.793 399.308 299.793 398.517C299.793 398.038 299.915 397.691 300.159 397.477C300.413 397.252 300.862 397.14 301.507 397.14C302.22 397.14 302.84 397.262 303.367 397.506C303.904 397.74 304.363 397.857 304.744 397.857C304.959 397.857 305.389 397.784 306.033 397.638C306.668 397.481 307.171 397.276 307.542 397.022C307.952 396.749 308.377 396.397 308.816 395.968C309.256 395.528 309.656 395.06 310.018 394.562C310.389 394.054 310.687 393.541 310.911 393.023C311.136 392.506 311.243 392.018 311.233 391.559C311.233 390.895 310.97 390.304 310.442 389.786C309.915 389.259 309.295 388.849 308.582 388.556C307.859 388.263 307.244 388.116 306.736 388.116C305.955 388.116 305.359 388.175 304.949 388.292C304.529 388.399 304.129 388.546 303.748 388.731C303.367 388.917 303.04 389.01 302.767 389.01C302.454 389.01 302.132 388.907 301.8 388.702C301.468 388.497 301.302 388.238 301.302 387.926C301.302 387.652 301.341 387.418 301.419 387.223C301.507 387.018 301.619 386.847 301.756 386.71C301.893 386.563 302.049 386.451 302.225 386.373C302.4 386.285 302.586 386.222 302.781 386.183C302.977 386.134 303.187 386.095 303.411 386.065C303.636 386.026 303.875 385.997 304.129 385.978C304.637 385.938 304.944 385.89 305.052 385.831C305.726 385.44 306.419 384.977 307.132 384.439C307.503 384.166 307.845 383.888 308.157 383.604C308.479 383.312 308.782 383.014 309.065 382.711C309.632 382.115 309.915 381.627 309.915 381.246C309.915 380.729 309.7 380.338 309.271 380.074C308.841 379.811 308.133 379.679 307.146 379.679C306.824 379.679 306.478 379.693 306.106 379.723C305.735 379.752 305.354 379.801 304.964 379.869C304.573 379.928 304.178 380.006 303.777 380.104C303.387 380.191 303.001 380.294 302.62 380.411C302.239 380.528 301.873 380.66 301.521 380.807C301.17 380.953 300.843 381.114 300.54 381.29C300.237 381.466 299.969 381.656 299.734 381.861C299.5 382.057 299.31 382.262 299.163 382.477C299.085 382.594 299.026 382.794 298.987 383.077C298.958 383.351 298.929 383.79 298.899 384.396C298.89 384.698 298.88 385.03 298.87 385.392C298.86 385.743 298.846 386.139 298.826 386.578C298.807 387.018 298.787 387.398 298.768 387.721C298.758 388.033 298.743 388.302 298.724 388.526C298.704 388.712 298.675 388.941 298.636 389.215C298.606 389.479 298.567 389.791 298.519 390.152C298.421 390.855 298.343 391.466 298.284 391.983C298.235 392.501 298.211 392.989 298.211 393.448C298.211 393.604 298.216 393.795 298.226 394.02C298.235 394.234 298.25 394.483 298.27 394.767C298.289 395.05 298.304 395.304 298.313 395.528C298.323 395.743 298.328 395.919 298.328 396.056C298.328 396.905 298.216 397.53 297.991 397.931C297.767 398.321 297.391 398.517 296.863 398.517C295.701 398.517 295.12 397.525 295.12 395.543C295.12 395.309 295.237 394.522 295.472 393.185C295.706 391.856 295.838 391.026 295.867 390.694C295.916 390.245 295.955 389.82 295.984 389.42C296.023 389.02 296.062 388.639 296.102 388.277C296.141 387.916 296.185 387.491 296.233 387.003C296.282 386.515 296.341 385.953 296.409 385.318C296.458 384.928 296.492 384.61 296.512 384.366C296.541 384.122 296.556 383.951 296.556 383.854C296.556 383.619 296.521 383.36 296.453 383.077C296.414 382.921 296.385 382.789 296.365 382.682C296.355 382.564 296.351 382.472 296.351 382.403C296.351 381.681 296.482 381.061 296.746 380.543C297.088 379.859 297.366 379.513 297.581 379.503C297.923 379.454 298.245 379.396 298.548 379.327C298.851 379.249 299.139 379.166 299.412 379.078C300.682 378.648 301.683 378.312 302.415 378.067C303.157 377.823 303.641 377.667 303.865 377.599C304.314 377.452 304.783 377.35 305.271 377.291C305.525 377.252 305.828 377.228 306.18 377.218C306.531 377.198 306.941 377.188 307.41 377.188H308.23C308.436 377.179 308.704 377.228 309.036 377.335C309.378 377.442 309.72 377.584 310.062 377.76C310.413 377.936 310.735 378.136 311.028 378.36C311.321 378.575 311.526 378.795 311.644 379.02C311.78 379.225 311.897 379.537 311.995 379.957C312.044 380.172 312.083 380.367 312.112 380.543C312.142 380.709 312.156 380.86 312.156 380.997C312.156 381.788 311.814 382.599 311.131 383.429C310.457 384.259 309.471 385.201 308.172 386.256C308.895 386.402 309.588 386.642 310.252 386.974C310.926 387.296 311.517 387.682 312.024 388.131C312.542 388.57 312.952 389.054 313.255 389.581C313.567 390.099 313.724 390.626 313.724 391.163Z" fill="#242428"/>
<mask id="mask0_1404_32510" style="mask-type:alpha" maskUnits="userSpaceOnUse" x="103" y="155" width="252" height="275">
<rect x="103" y="155" width="252" height="275" fill="#D9D9D9"/>
</mask>
<g mask="url(#mask0_1404_32510)">
<path d="M328.204 153L148 425" stroke="#FF3B30" stroke-width="0.991095" stroke-linecap="round" stroke-dasharray="11.89 11.89"/>
<path d="M278.204 158L98 430" stroke="#FF3B30" stroke-width="0.991095" stroke-linecap="round" stroke-dasharray="11.89 11.89"/>
<path d="M249.204 135L69 407" stroke="#FF3B30" stroke-width="0.991095" stroke-linecap="round" stroke-dasharray="11.89 11.89"/>
<path d="M222.204 112L42 384" stroke="#FF3B30" stroke-width="0.991095" stroke-linecap="round" stroke-dasharray="11.89 11.89"/>
<path d="M197.204 88L17 360" stroke="#FF3B30" stroke-width="0.991095" stroke-linecap="round" stroke-dasharray="11.89 11.89"/>
<path d="M177.204 67L-3 339" stroke="#FF3B30" stroke-width="0.991095" stroke-linecap="round" stroke-dasharray="11.89 11.89"/>
<path d="M355.204 178L175 450" stroke="#FF3B30" stroke-width="0.991095" stroke-linecap="round" stroke-dasharray="11.89 11.89"/>
<path d="M398.204 178L218 450" stroke="#FF3B30" stroke-width="0.991095" stroke-linecap="round" stroke-dasharray="11.89 11.89"/>
<path d="M445.204 175L317 360" stroke="#FF3B30" stroke-width="0.991095" stroke-linecap="round" stroke-dasharray="11.89 11.89"/>
<path d="M-95 122C-95 133.318 -64.7016 517.682 -79.8508 529C45.6276 525.68 306.868 521.032 348 529" stroke="#D4D4D4" stroke-width="3.30086" stroke-linecap="round"/>
</g>
<path d="M198.21 466.552C198.21 467.157 197.795 467.904 196.965 468.793C196.76 469.018 196.506 469.267 196.203 469.54C195.91 469.813 195.598 470.092 195.266 470.375C194.934 470.648 194.597 470.922 194.255 471.195C193.923 471.469 193.61 471.718 193.317 471.942C192.38 472.665 191.398 473.349 190.373 473.993C189.348 474.638 188.312 475.204 187.268 475.692C186.223 476.181 185.178 476.566 184.133 476.85C183.098 477.133 182.097 477.274 181.13 477.274C180.075 477.274 179.157 477.123 178.376 476.82C177.595 476.518 176.945 476.088 176.428 475.531C175.92 474.975 175.539 474.306 175.285 473.524C175.031 472.733 174.904 471.854 174.904 470.888C174.895 470.009 174.982 469.115 175.168 468.207C175.363 467.299 175.632 466.405 175.974 465.526C176.315 464.647 176.726 463.803 177.204 462.992C177.683 462.172 178.205 461.415 178.771 460.722C179.113 460.302 179.499 459.877 179.929 459.447C180.358 459.008 180.808 458.583 181.276 458.173C181.755 457.763 182.238 457.382 182.727 457.03C183.215 456.669 183.693 456.352 184.162 456.078C184.465 455.902 184.851 455.697 185.319 455.463C185.788 455.229 186.281 455.009 186.799 454.804C187.316 454.599 187.829 454.428 188.337 454.291C188.845 454.145 189.284 454.071 189.655 454.071C190.251 454.071 190.725 454.115 191.076 454.203C191.438 454.281 191.755 454.418 192.028 454.613C192.155 454.711 192.302 454.862 192.468 455.067C192.644 455.263 192.805 455.482 192.951 455.727C193.107 455.961 193.234 456.2 193.332 456.444C193.439 456.679 193.493 456.879 193.493 457.045C193.493 457.211 193.415 457.46 193.259 457.792C193.103 458.124 192.922 458.471 192.717 458.832C192.512 459.184 192.307 459.516 192.102 459.828C191.896 460.131 191.74 460.341 191.633 460.458C191.232 460.897 190.803 461.117 190.344 461.117C189.953 461.117 189.646 461 189.421 460.766C189.206 460.521 189.099 460.219 189.099 459.857C189.099 459.73 189.172 459.535 189.318 459.271C189.465 458.998 189.709 458.69 190.051 458.349C190.393 458.007 190.656 457.694 190.842 457.411C191.037 457.118 191.159 456.923 191.208 456.825C191.013 456.688 190.773 456.581 190.49 456.503C190.207 456.425 189.943 456.386 189.699 456.386C189.348 456.386 188.913 456.469 188.396 456.635C187.878 456.791 187.346 456.996 186.799 457.25C186.262 457.504 185.734 457.787 185.217 458.1C184.709 458.402 184.279 458.695 183.928 458.979C182.922 459.809 181.994 460.702 181.145 461.659C180.295 462.616 179.592 463.676 179.035 464.838C178.811 465.316 178.596 465.819 178.391 466.347C178.195 466.864 178.024 467.392 177.878 467.929C177.731 468.466 177.614 469.003 177.526 469.54C177.448 470.067 177.409 470.575 177.409 471.063C177.409 471.64 177.473 472.177 177.6 472.675C177.736 473.173 177.956 473.603 178.259 473.964C178.562 474.325 178.957 474.608 179.445 474.813C179.943 475.019 180.554 475.121 181.276 475.121C182.058 475.121 182.858 475.014 183.679 474.799C184.499 474.584 185.314 474.296 186.125 473.935C186.945 473.563 187.756 473.144 188.557 472.675C189.357 472.196 190.124 471.698 190.856 471.181C191.599 470.663 192.302 470.146 192.966 469.628C193.63 469.11 194.235 468.622 194.782 468.163C195.007 467.978 195.241 467.772 195.485 467.548C195.739 467.323 195.988 467.099 196.232 466.874C196.477 466.649 196.711 466.425 196.936 466.2C197.17 465.976 197.375 465.771 197.551 465.585C197.99 465.81 198.21 466.132 198.21 466.552Z" fill="#242428"/>
<path d="M104 493.5C201.167 487.5 405.1 411.7 443.5 156.5L461.5 91" stroke="#47B5FF" stroke-width="6" stroke-linecap="round"/>
<rect width="21.5979" height="14.1625" transform="translate(269 425)" fill="white"/>
<path d="M274.816 432.182C278.789 430.035 284.822 430.71 284.88 433.634C284.946 437.009 279.99 439.163 275.667 439.163C270.545 439.163 267.182 434.983 270.057 430.772C273.091 426.328 279.653 424.557 284.376 425.093C289.725 425.7 293.478 431.483 287.673 437.906" stroke="#FBCB33" stroke-width="4" stroke-linecap="round"/>
<rect width="21.5979" height="14.1625" transform="translate(345 355)" fill="white"/>
<path d="M350.816 362.182C354.789 360.035 360.822 360.71 360.88 363.634C360.946 367.009 355.99 369.163 351.667 369.163C346.545 369.163 343.182 364.983 346.057 360.772C349.091 356.328 355.653 354.557 360.376 355.093C365.725 355.7 369.478 361.483 363.673 367.906" stroke="#FBCB33" stroke-width="4" stroke-linecap="round"/>
<rect x="431" y="149" width="24.2398" height="18.7397" rx="9.36987" fill="white"/>
<path d="M447.956 157.165C444.562 160.16 438.526 160.835 437.815 157.969C436.993 154.661 441.345 151.44 445.561 150.48C450.557 149.343 454.774 152.712 452.914 157.496C450.95 162.546 444.947 165.746 440.22 166.267C434.867 166.857 429.911 161.996 434.133 154.383" stroke="#00B8B8" stroke-width="4" stroke-linecap="round"/>
<rect width="19.9777" height="13.1001" transform="translate(267 424)" fill="white"/>
<path d="M272.38 430.643C276.055 428.658 281.636 429.282 281.689 431.986C281.75 435.108 277.165 437.1 273.167 437.1C268.429 437.1 265.318 433.234 267.977 429.339C270.784 425.228 276.854 423.59 281.223 424.086C286.17 424.647 289.642 429.997 284.272 435.938" stroke="#FBCB33" stroke-width="4.91255" stroke-linecap="round"/>
</svg>
