<svg width="82" height="70" viewBox="0 0 82 70" fill="none" xmlns="http://www.w3.org/2000/svg">
<path d="M22.3473 55.125C21.3938 52.4273 20.875 49.5242 20.875 46.5V43.625C20.875 30.733 30.3033 20.0432 42.6409 18.0745C39.4768 14.3576 34.7637 12 29.5 12H18C8.47309 12 0.75 19.7231 0.75 29.25V55.125H22.3473Z" fill="#00B8B8"/>
<path d="M58.25 0.5C50.3109 0.5 43.875 6.93591 43.875 14.875V17.9079C44.819 17.8036 45.7782 17.75 46.75 17.75H52.5C63.7661 17.75 73.3506 24.9502 76.9027 35H81.25V14.875C81.25 6.93591 74.8141 0.5 66.875 0.5H58.25Z" fill="#3666E4"/>
<path d="M23.75 43.625C23.75 30.9225 34.0475 20.625 46.75 20.625H52.5C65.2025 20.625 75.5 30.9225 75.5 43.625V69.5H46.75C34.0475 69.5 23.75 59.2025 23.75 46.5V43.625Z" fill="#FBCB33"/>
</svg>
