<svg width="79" height="76" viewBox="0 0 79 76" fill="none" xmlns="http://www.w3.org/2000/svg">
<path d="M57.6875 62.4375C57.6875 69.5827 51.8952 75.375 44.75 75.375C37.6048 75.375 31.8125 69.5827 31.8125 62.4375C31.8125 55.2923 37.6048 49.5 44.75 49.5C51.8952 49.5 57.6875 55.2923 57.6875 62.4375Z" fill="#3666E4"/>
<path d="M43.3125 15.7188C43.3125 24.0548 36.5548 30.8125 28.2188 30.8125C19.8827 30.8125 13.125 24.0548 13.125 15.7188C13.125 7.3827 19.8827 0.625 28.2188 0.625C36.5548 0.625 43.3125 7.3827 43.3125 15.7188Z" fill="#FBCB33"/>
<path d="M0.238369 49.9056C-0.583546 46.8382 1.2368 43.6853 4.30423 42.8634L70.9531 25.0048C74.0205 24.1829 77.1735 26.0033 77.9954 29.0707C78.8173 32.1381 76.997 35.2911 73.9295 36.113L7.28065 53.9715C4.21322 54.7934 1.06028 52.9731 0.238369 49.9056Z" fill="#D4417C"/>
</svg>
