<svg width="624" height="592" viewBox="0 0 624 592" fill="none" xmlns="http://www.w3.org/2000/svg">
<g clip-path="url(#clip0_563_1640)">
<rect width="148" height="148" transform="translate(116 444)" fill="#90BFFF"/>
<rect x="103.764" y="454.198" width="31.7267" height="212.186" transform="rotate(-45 103.764 454.198)" fill="#3666E4"/>
<rect opacity="0.5" width="31.7267" height="212.186" transform="matrix(-0.707107 -0.707107 -0.707107 0.707107 276.236 454.198)" fill="#3278D9"/>
</g>
<g clip-path="url(#clip1_563_1640)">
<rect x="103.764" y="10.1982" width="31.7267" height="212.186" transform="rotate(-45 103.764 10.1982)" fill="#EC3981"/>
<rect opacity="0.5" width="31.7267" height="212.186" transform="matrix(-0.707107 -0.707107 -0.707107 0.707107 276.236 10.1982)" fill="#EC3981"/>
</g>
<g clip-path="url(#clip2_563_1640)">
<path d="M190.344 148L190.344 222.429L116 222.429C116 181.317 149.279 148 190.344 148Z" fill="#90BFFF"/>
<path d="M190.344 296.095C149.279 296.095 116 262.805 116 221.727H190.344V296.095Z" fill="#3666E4"/>
<path d="M264.687 221.428H190.344V147C231.408 147 264.687 180.331 264.687 221.428Z" fill="#3666E4"/>
</g>
<rect width="148" height="148" transform="translate(116 296)" fill="#76EADC"/>
<circle cx="190.5" cy="369.5" r="73.5" transform="rotate(180 190.5 369.5)" fill="#00B8B8"/>
<g clip-path="url(#clip3_563_1640)">
<rect width="148" height="148" transform="translate(264)" fill="#00B8B8"/>
<rect x="251.764" y="10.1982" width="31.7267" height="212.186" transform="rotate(-45 251.764 10.1982)" fill="#76EADC"/>
<rect width="31.7267" height="212.186" transform="matrix(-0.707107 -0.707107 -0.707107 0.707107 424.236 10.1982)" fill="#76EADC"/>
</g>
<g clip-path="url(#clip4_563_1640)">
<rect width="148" height="148" transform="translate(264 444)" fill="white"/>
<rect x="251.764" y="454.198" width="31.7267" height="212.186" transform="rotate(-45 251.764 454.198)" fill="#00B8B8"/>
<rect width="31.7267" height="212.186" transform="matrix(-0.707107 -0.707107 -0.707107 0.707107 424.236 454.198)" fill="#76EADC"/>
</g>
<g clip-path="url(#clip5_563_1640)">
<rect width="148" height="148" transform="translate(264 148)" fill="#FFEEC7"/>
<circle cx="338.024" cy="222.024" r="73.976" transform="rotate(180 338.024 222.024)" fill="#FBCB33"/>
</g>
<g clip-path="url(#clip6_563_1640)">
<rect width="148" height="148" transform="translate(264 296)" fill="#EC3981"/>
<path opacity="0.5" d="M338.344 443.917V369.488H412.687C412.687 410.6 379.408 443.917 338.344 443.917Z" fill="#FFC1D7"/>
<path d="M338.344 444.095C297.279 444.095 264 410.805 264 369.727H338.344V444.095Z" fill="#FFC1D7"/>
<path d="M412.687 369.428H338.344V295C379.408 295 412.687 328.331 412.687 369.428Z" fill="#FFC1D7"/>
</g>
<g clip-path="url(#clip7_563_1640)">
<rect width="148" height="148" transform="translate(412)" fill="#FBCB33"/>
<circle cx="486.001" cy="74.0006" r="73.976" transform="rotate(180 486.001 74.0006)" fill="#FFEEC7"/>
</g>
<g clip-path="url(#clip8_563_1640)">
<rect width="148" height="148" transform="translate(412 444)" fill="#FFC1D7"/>
<rect x="399.764" y="454.198" width="31.7267" height="212.186" transform="rotate(-45 399.764 454.198)" fill="#EC3981"/>
<rect opacity="0.5" width="31.7267" height="212.186" transform="matrix(-0.707107 -0.707107 -0.707107 0.707107 572.236 454.198)" fill="#EC3981"/>
</g>
<g clip-path="url(#clip9_563_1640)">
<path fill-rule="evenodd" clip-rule="evenodd" d="M451.244 421.801C527.665 361.422 524.969 263.13 489.051 179.631C488.437 178.196 489.098 176.527 490.533 175.912C491.969 175.298 493.637 175.96 494.252 177.395C531.18 263.231 533.313 364.174 454.75 426.244C453.528 427.214 451.748 427.004 450.775 425.775C449.806 424.553 450.016 422.774 451.244 421.801Z" fill="#EC649A"/>
<path fill-rule="evenodd" clip-rule="evenodd" d="M492.327 180.08C491.791 185.024 491.188 191.237 491.099 191.94C488.687 210.993 483.449 228.651 475.449 246.154C474.801 247.575 473.117 248.201 471.695 247.553C470.274 246.906 469.648 245.222 470.296 243.8C478.059 226.83 483.144 209.707 485.481 191.225C485.618 190.148 486.966 176.18 487.45 173.376C487.644 172.225 488.111 171.634 488.234 171.505C488.864 170.795 489.565 170.596 490.132 170.55C490.773 170.502 491.849 170.68 492.892 171.629C493.979 172.626 495.717 175.236 496.208 175.859C503.656 185.244 511.15 196.367 520.16 205.229C528.751 213.68 538.733 220.083 551.559 220.482C553.12 220.529 554.348 221.841 554.301 223.402C554.254 224.964 552.942 226.192 551.38 226.145C537.041 225.696 525.792 218.713 516.19 209.269C507.235 200.458 499.727 189.483 492.327 180.08Z" fill="#EC649A"/>
</g>
<path fill-rule="evenodd" clip-rule="evenodd" d="M84.2899 548.519C45.0734 513.734 23.0319 464.824 13.0829 411.501C-1.93984 330.972 10.5999 240.364 33.8251 172.407C48.4175 129.696 72.5116 105.698 95.8279 67.3403C96.7715 65.7864 96.2833 63.7589 94.7355 62.8116C93.196 61.8643 91.1682 62.3547 90.2329 63.9086C66.6434 102.715 42.3836 127.062 27.6174 170.272C4.06931 239.176 -8.59458 331.055 6.63511 412.714C16.8572 467.508 39.6437 517.706 79.9444 553.455C81.3019 554.659 83.371 554.535 84.5711 553.172C85.7713 551.809 85.6473 549.724 84.2899 548.519Z" fill="#90BFFF"/>
<path fill-rule="evenodd" clip-rule="evenodd" d="M92.4726 56.1237C92.3941 56.2387 91.8871 57.0153 91.3942 57.6193C89.3656 60.1359 85.4156 64.2128 80.1298 69.0591C62.3795 85.2949 29.6289 110.102 2.6357 112.59C1.07853 112.733 -0.0643947 114.121 0.0784645 115.689C0.221324 117.256 1.59298 118.414 3.15014 118.27C31.2362 115.681 65.4725 90.17 83.937 73.2727C86.4085 71.0078 88.6083 68.901 90.4654 67.0244C88.8654 74.9553 87.0656 82.8287 85.1727 90.7021C79.7155 113.366 79.6584 134.11 84.3085 157.134C84.6156 158.673 86.1156 159.672 87.6442 159.356C89.1728 159.046 90.1655 157.536 89.8512 155.998C85.3798 133.837 85.4225 113.862 90.6726 92.0468C93.1441 81.7574 95.4585 71.4536 97.3942 61.0491C97.5871 60.0137 98.0585 57.3173 98.0656 56.9291C98.1085 54.7144 96.3228 54.168 95.9228 54.0673C95.7299 54.017 93.3012 53.5351 92.4726 56.1237ZM97.7943 58.0652C97.8157 57.9933 97.8444 57.9214 97.8658 57.8423C97.8515 57.907 97.8229 57.9789 97.7943 58.0652Z" fill="#90BFFF"/>
<defs>
<clipPath id="clip0_563_1640">
<rect width="148" height="148" fill="white" transform="translate(116 444)"/>
</clipPath>
<clipPath id="clip1_563_1640">
<rect width="148" height="148" fill="white" transform="translate(116)"/>
</clipPath>
<clipPath id="clip2_563_1640">
<rect width="148" height="148" fill="white" transform="translate(116 148)"/>
</clipPath>
<clipPath id="clip3_563_1640">
<rect width="148" height="148" fill="white" transform="translate(264)"/>
</clipPath>
<clipPath id="clip4_563_1640">
<rect width="148" height="148" fill="white" transform="translate(264 444)"/>
</clipPath>
<clipPath id="clip5_563_1640">
<rect width="148" height="148" fill="white" transform="translate(264 148)"/>
</clipPath>
<clipPath id="clip6_563_1640">
<rect width="148" height="148" fill="white" transform="translate(264 296)"/>
</clipPath>
<clipPath id="clip7_563_1640">
<rect width="148" height="148" fill="white" transform="translate(412)"/>
</clipPath>
<clipPath id="clip8_563_1640">
<rect width="148" height="148" fill="white" transform="translate(412 444)"/>
</clipPath>
<clipPath id="clip9_563_1640">
<rect width="204.962" height="204.962" fill="white" transform="matrix(0.5 0.866025 0.866025 -0.5 344 254.481)"/>
</clipPath>
</defs>
</svg>
