<svg width="263" height="249" viewBox="0 0 263 249" fill="none" xmlns="http://www.w3.org/2000/svg">
<g clip-path="url(#clip0_784_18058)">
<rect width="62.2501" height="62.2501" transform="translate(48.79 186.75)" fill="#90BFFF"/>
<rect x="43.6426" y="191.039" width="13.3445" height="89.2472" transform="rotate(-45 43.6426 191.039)" fill="#3666E4"/>
<rect opacity="0.5" width="13.3445" height="89.2472" transform="matrix(-0.707107 -0.707107 -0.707107 0.707107 116.186 191.039)" fill="#3278D9"/>
</g>
<g clip-path="url(#clip1_784_18058)">
<rect x="43.6426" y="4.28931" width="13.3445" height="89.2472" transform="rotate(-45 43.6426 4.28931)" fill="#EC3981"/>
<rect opacity="0.5" width="13.3445" height="89.2472" transform="matrix(-0.707107 -0.707107 -0.707107 0.707107 116.186 4.28931)" fill="#EC3981"/>
</g>
<g clip-path="url(#clip2_784_18058)">
<path d="M80.0586 62.2507L80.0586 93.5559L48.789 93.5559C48.789 76.2641 62.7865 62.2507 80.0586 62.2507Z" fill="#90BFFF"/>
<path d="M80.0586 124.541C62.7865 124.541 48.7891 110.539 48.7891 93.261H80.0586V124.541Z" fill="#3666E4"/>
<path d="M111.328 93.1348H80.0586V61.8296C97.3307 61.8296 111.328 75.8489 111.328 93.1348Z" fill="#3666E4"/>
</g>
<g clip-path="url(#clip3_784_18058)">
<rect width="62.2501" height="62.2501" transform="translate(48.79 124.5)" fill="#76EADC"/>
<circle cx="80.1253" cy="155.415" r="30.9147" transform="rotate(180 80.1253 155.415)" fill="#00B8B8"/>
</g>
<g clip-path="url(#clip4_784_18058)">
<rect width="62.2501" height="62.2501" transform="translate(111.04)" fill="#00B8B8"/>
<rect x="105.894" y="4.28931" width="13.3445" height="89.2472" transform="rotate(-45 105.894 4.28931)" fill="#76EADC"/>
<rect width="13.3445" height="89.2472" transform="matrix(-0.707107 -0.707107 -0.707107 0.707107 178.437 4.28931)" fill="#76EADC"/>
</g>
<g clip-path="url(#clip5_784_18058)">
<rect width="62.2501" height="62.2501" transform="translate(111.04 186.75)" fill="white"/>
<rect x="105.893" y="191.039" width="13.3445" height="89.2472" transform="rotate(-45 105.893 191.039)" fill="#00B8B8"/>
<rect width="13.3445" height="89.2472" transform="matrix(-0.707107 -0.707107 -0.707107 0.707107 178.436 191.039)" fill="#76EADC"/>
</g>
<g clip-path="url(#clip6_784_18058)">
<rect width="62.2501" height="62.2501" transform="translate(111.039 62.25)" fill="#FFEEC7"/>
<circle cx="142.175" cy="93.3853" r="31.115" transform="rotate(180 142.175 93.3853)" fill="#FBCB33"/>
</g>
<g clip-path="url(#clip7_784_18058)">
<rect width="62.2501" height="62.2501" transform="translate(111.04 124.5)" fill="#EC3981"/>
<path opacity="0.5" d="M142.309 186.717V155.411H173.578C173.578 172.703 159.581 186.717 142.309 186.717Z" fill="#FFC1D7"/>
<path d="M142.309 186.791C125.037 186.791 111.039 172.789 111.039 155.511H142.309V186.791Z" fill="#FFC1D7"/>
<path d="M173.578 155.386H142.309V124.08C159.581 124.08 173.578 138.1 173.578 155.386Z" fill="#FFC1D7"/>
</g>
<g clip-path="url(#clip8_784_18058)">
<rect width="62.2501" height="62.2501" transform="translate(173.29)" fill="#FBCB33"/>
<circle cx="204.415" cy="31.1253" r="31.115" transform="rotate(180 204.415 31.1253)" fill="#FFEEC7"/>
</g>
<g clip-path="url(#clip9_784_18058)">
<rect width="62.2501" height="62.2501" transform="translate(173.29 186.75)" fill="#FFC1D7"/>
<rect x="168.143" y="191.039" width="13.3445" height="89.2472" transform="rotate(-45 168.143 191.039)" fill="#EC3981"/>
<rect opacity="0.5" width="13.3445" height="89.2472" transform="matrix(-0.707107 -0.707107 -0.707107 0.707107 240.686 191.039)" fill="#EC3981"/>
</g>
<g clip-path="url(#clip10_784_18058)">
<path fill-rule="evenodd" clip-rule="evenodd" d="M189.796 177.413C221.939 152.017 220.805 110.675 205.698 75.5541C205.44 74.9504 205.718 74.2484 206.321 73.9901C206.925 73.7317 207.627 74.01 207.885 74.6137C223.418 110.717 224.315 153.175 191.271 179.282C190.757 179.69 190.008 179.601 189.599 179.085C189.191 178.571 189.28 177.822 189.796 177.413Z" fill="#EC649A"/>
<path fill-rule="evenodd" clip-rule="evenodd" d="M207.076 75.743C206.851 77.8228 206.597 80.436 206.56 80.7317C205.545 88.7454 203.342 96.1723 199.977 103.534C199.704 104.132 198.996 104.395 198.398 104.123C197.8 103.851 197.537 103.142 197.809 102.544C201.075 95.4064 203.214 88.2043 204.197 80.4307C204.254 79.9776 204.821 74.1028 205.025 72.9235C205.106 72.4394 205.303 72.1907 205.355 72.1365C205.619 71.8379 205.914 71.7542 206.153 71.7345C206.422 71.7143 206.875 71.7894 207.314 72.1884C207.771 72.6079 208.502 73.7055 208.709 73.9677C211.841 77.915 214.993 82.5933 218.783 86.3208C222.396 89.8757 226.595 92.5689 231.989 92.7364C232.646 92.7562 233.163 93.3081 233.143 93.9648C233.123 94.6216 232.571 95.138 231.914 95.1182C225.883 94.9297 221.152 91.9924 217.113 88.0201C213.346 84.3142 210.189 79.6981 207.076 75.743Z" fill="#EC649A"/>
</g>
<path fill-rule="evenodd" clip-rule="evenodd" d="M35.4536 230.712C18.9588 216.082 9.68798 195.51 5.50336 173.082C-0.815354 139.211 4.45895 101.1 14.2277 72.5169C20.3654 54.552 30.4996 44.4581 40.3066 28.3247C40.7035 27.6711 40.4981 26.8184 39.8471 26.4199C39.1996 26.0215 38.3467 26.2277 37.9533 26.8813C28.0313 43.2034 17.8275 53.4441 11.6167 71.6187C1.71214 100.6 -3.6144 139.246 2.79135 173.592C7.09085 196.639 16.675 217.753 33.6259 232.789C34.1968 233.295 35.0671 233.243 35.5719 232.67C36.0767 232.097 36.0246 231.219 35.4536 230.712Z" fill="#90BFFF"/>
<path fill-rule="evenodd" clip-rule="evenodd" d="M38.8953 23.6067C38.8622 23.6551 38.649 23.9817 38.4417 24.2358C37.5884 25.2943 35.927 27.009 33.7037 29.0474C26.2378 35.8764 12.4626 46.3103 1.10906 47.3567C0.454104 47.4172 -0.0266206 48.0009 0.0334648 48.6602C0.0935539 49.3195 0.670485 49.8064 1.32544 49.746C13.1387 48.6572 27.5388 37.9269 35.3051 30.8197C36.3446 29.8671 37.2699 28.9809 38.051 28.1916C37.378 31.5274 36.621 34.839 35.8249 38.1507C33.5295 47.6833 33.5055 56.4086 35.4613 66.0924C35.5905 66.7397 36.2214 67.16 36.8644 67.0269C37.5073 66.8969 37.9249 66.2618 37.7927 65.6146C35.9119 56.2936 35.9299 47.8921 38.1382 38.7163C39.1777 34.3885 40.1511 30.0546 40.9653 25.6784C41.0464 25.2429 41.2447 24.1087 41.2477 23.9454C41.2658 23.0139 40.5147 22.7841 40.3464 22.7418C40.2653 22.7206 39.2438 22.5179 38.8953 23.6067ZM41.1336 24.4233C41.1426 24.3931 41.1547 24.3628 41.1637 24.3295C41.1577 24.3567 41.1456 24.387 41.1336 24.4233Z" fill="#90BFFF"/>
<defs>
<clipPath id="clip0_784_18058">
<rect width="62.2501" height="62.2501" fill="white" transform="translate(48.79 186.75)"/>
</clipPath>
<clipPath id="clip1_784_18058">
<rect width="62.2501" height="62.2501" fill="white" transform="translate(48.79)"/>
</clipPath>
<clipPath id="clip2_784_18058">
<rect width="62.2501" height="62.2501" fill="white" transform="translate(48.79 62.25)"/>
</clipPath>
<clipPath id="clip3_784_18058">
<rect width="62.2501" height="62.2501" fill="white" transform="translate(48.79 124.5)"/>
</clipPath>
<clipPath id="clip4_784_18058">
<rect width="62.2501" height="62.2501" fill="white" transform="translate(111.04)"/>
</clipPath>
<clipPath id="clip5_784_18058">
<rect width="62.2501" height="62.2501" fill="white" transform="translate(111.04 186.75)"/>
</clipPath>
<clipPath id="clip6_784_18058">
<rect width="62.2501" height="62.2501" fill="white" transform="translate(111.039 62.25)"/>
</clipPath>
<clipPath id="clip7_784_18058">
<rect width="62.2501" height="62.2501" fill="white" transform="translate(111.04 124.5)"/>
</clipPath>
<clipPath id="clip8_784_18058">
<rect width="62.2501" height="62.2501" fill="white" transform="translate(173.29)"/>
</clipPath>
<clipPath id="clip9_784_18058">
<rect width="62.2501" height="62.2501" fill="white" transform="translate(173.29 186.75)"/>
</clipPath>
<clipPath id="clip10_784_18058">
<rect width="86.2089" height="86.2089" fill="white" transform="matrix(0.5 0.866025 0.866025 -0.5 144.688 107.037)"/>
</clipPath>
</defs>
</svg>
