<svg width="335" height="353" viewBox="0 0 335 353" fill="none" xmlns="http://www.w3.org/2000/svg">
<g clip-path="url(#clip0_784_17956)">
<g clip-path="url(#clip1_784_17956)">
<rect width="88.25" height="88.25" transform="translate(70.415 264.75)" fill="#90BFFF"/>
<rect x="63.1191" y="270.832" width="18.9181" height="126.523" transform="rotate(-45 63.1191 270.832)" fill="#3666E4"/>
<rect opacity="0.5" width="18.9181" height="126.523" transform="matrix(-0.707107 -0.707107 -0.707107 0.707107 165.962 270.832)" fill="#3278D9"/>
</g>
<g clip-path="url(#clip2_784_17956)">
<rect x="63.1191" y="6.08203" width="18.9181" height="126.523" transform="rotate(-45 63.1191 6.08203)" fill="#EC3981"/>
<rect opacity="0.5" width="18.9181" height="126.523" transform="matrix(-0.707107 -0.707107 -0.707107 0.707107 165.962 6.08203)" fill="#EC3981"/>
</g>
<g clip-path="url(#clip3_784_17956)">
<path d="M114.744 88.2511L114.744 132.632L70.4142 132.632C70.4142 108.118 90.258 88.2511 114.744 88.2511Z" fill="#90BFFF"/>
<path d="M114.744 176.559C90.2578 176.559 70.4141 156.708 70.4141 132.214H114.744V176.559Z" fill="#3666E4"/>
<path d="M159.074 132.036H114.744V87.6553C139.23 87.6553 159.074 107.53 159.074 132.036Z" fill="#3666E4"/>
</g>
<g clip-path="url(#clip4_784_17956)">
<rect width="88.25" height="88.25" transform="translate(70.415 176.5)" fill="#76EADC"/>
<circle cx="114.838" cy="220.327" r="43.8269" transform="rotate(180 114.838 220.327)" fill="#00B8B8"/>
</g>
<g clip-path="url(#clip5_784_17956)">
<rect width="88.25" height="88.25" transform="translate(158.665)" fill="#00B8B8"/>
<rect x="151.369" y="6.08203" width="18.9181" height="126.523" transform="rotate(-45 151.369 6.08203)" fill="#76EADC"/>
<rect width="18.9181" height="126.523" transform="matrix(-0.707107 -0.707107 -0.707107 0.707107 254.212 6.08203)" fill="#76EADC"/>
</g>
<g clip-path="url(#clip6_784_17956)">
<rect width="88.25" height="88.25" transform="translate(158.665 264.75)" fill="white"/>
<rect x="151.369" y="270.832" width="18.9181" height="126.523" transform="rotate(-45 151.369 270.832)" fill="#00B8B8"/>
<rect width="18.9181" height="126.523" transform="matrix(-0.707107 -0.707107 -0.707107 0.707107 254.212 270.832)" fill="#76EADC"/>
</g>
<g clip-path="url(#clip7_784_17956)">
<rect width="88.25" height="88.25" transform="translate(158.665 88.25)" fill="#FFEEC7"/>
<circle cx="202.804" cy="132.389" r="44.1107" transform="rotate(180 202.804 132.389)" fill="#FBCB33"/>
</g>
<g clip-path="url(#clip8_784_17956)">
<rect width="88.25" height="88.25" transform="translate(158.665 176.5)" fill="#EC3981"/>
<path opacity="0.5" d="M202.994 264.702V220.321H247.324C247.324 244.835 227.48 264.702 202.994 264.702Z" fill="#FFC1D7"/>
<path d="M202.994 264.809C178.508 264.809 158.664 244.958 158.664 220.464H202.994V264.809Z" fill="#FFC1D7"/>
<path d="M247.324 220.286H202.994V175.905C227.48 175.905 247.324 195.78 247.324 220.286Z" fill="#FFC1D7"/>
</g>
<g clip-path="url(#clip9_784_17956)">
<rect width="88.25" height="88.25" transform="translate(246.915)" fill="#FBCB33"/>
<circle cx="291.041" cy="44.1256" r="44.1107" transform="rotate(180 291.041 44.1256)" fill="#FFEEC7"/>
</g>
<g clip-path="url(#clip10_784_17956)">
<rect width="88.25" height="88.25" transform="translate(246.915 264.75)" fill="#FFC1D7"/>
<rect x="239.619" y="270.832" width="18.9181" height="126.523" transform="rotate(-45 239.619 270.832)" fill="#EC3981"/>
<rect opacity="0.5" width="18.9181" height="126.523" transform="matrix(-0.707107 -0.707107 -0.707107 0.707107 342.462 270.832)" fill="#EC3981"/>
</g>
<g clip-path="url(#clip11_784_17956)">
<path fill-rule="evenodd" clip-rule="evenodd" d="M270.317 251.512C315.885 215.509 314.277 156.899 292.86 107.11C292.494 106.254 292.888 105.259 293.744 104.893C294.6 104.527 295.595 104.921 295.961 105.777C317.981 156.959 319.253 217.15 272.407 254.162C271.678 254.74 270.617 254.614 270.037 253.882C269.459 253.153 269.584 252.093 270.317 251.512Z" fill="#EC649A"/>
<path fill-rule="evenodd" clip-rule="evenodd" d="M294.814 107.377C294.495 110.326 294.136 114.03 294.083 114.45C292.644 125.81 289.521 136.339 284.75 146.776C284.364 147.624 283.36 147.997 282.512 147.611C281.665 147.224 281.292 146.22 281.678 145.373C286.307 135.253 289.339 125.043 290.733 114.023C290.814 113.381 291.618 105.052 291.907 103.38C292.022 102.694 292.3 102.341 292.374 102.264C292.749 101.841 293.168 101.722 293.506 101.695C293.888 101.666 294.53 101.772 295.151 102.338C295.8 102.933 296.836 104.489 297.129 104.86C301.57 110.456 306.038 117.089 311.411 122.373C316.534 127.413 322.486 131.231 330.134 131.468C331.065 131.496 331.797 132.279 331.769 133.21C331.74 134.141 330.958 134.873 330.027 134.845C321.477 134.578 314.769 130.413 309.044 124.782C303.704 119.528 299.227 112.984 294.814 107.377Z" fill="#EC649A"/>
</g>
<path fill-rule="evenodd" clip-rule="evenodd" d="M51.5073 327.073C28.1231 306.332 14.9801 277.167 9.04772 245.372C0.0898818 197.354 7.5671 143.325 21.416 102.804C30.1171 77.3358 44.4841 63.0261 58.3872 40.1542C58.9498 39.2276 58.6587 38.0187 57.7358 37.4538C56.8178 36.8889 55.6087 37.1813 55.051 38.1079C40.9849 61.2473 26.5192 75.7652 17.7144 101.531C3.67304 142.617 -3.87823 197.403 5.20299 246.095C11.2983 278.768 24.8855 308.7 48.9161 330.016C49.7256 330.735 50.9593 330.66 51.675 329.848C52.3906 329.035 52.3167 327.791 51.5073 327.073Z" fill="#90BFFF"/>
<path fill-rule="evenodd" clip-rule="evenodd" d="M56.3862 33.4662C56.3394 33.5348 56.0371 33.9979 55.7432 34.3581C54.5335 35.8587 52.1782 38.2897 49.0264 41.1794C38.4422 50.8606 18.9135 65.6524 2.8179 67.1359C1.88939 67.2217 1.20788 68.0492 1.29307 68.9839C1.37825 69.9185 2.19615 70.6089 3.12466 70.5231C19.8719 68.9796 40.2865 53.7676 51.2966 43.692C52.7703 42.3414 54.0819 41.0852 55.1893 39.9661C54.2353 44.6953 53.1621 49.39 52.0334 54.0848C48.7794 67.599 48.7453 79.9685 51.5181 93.697C51.7012 94.6145 52.5956 95.2104 53.5071 95.0218C54.4186 94.8374 55.0105 93.9371 54.8231 93.0195C52.1568 79.8055 52.1824 67.8949 55.3129 54.8866C56.7866 48.7512 58.1666 42.6072 59.3209 36.4032C59.4359 35.7858 59.717 34.178 59.7212 33.9465C59.7468 32.6259 58.682 32.3001 58.4435 32.2401C58.3285 32.2101 56.8803 31.9228 56.3862 33.4662ZM59.5594 34.624C59.5722 34.5811 59.5893 34.5382 59.6021 34.491C59.5935 34.5296 59.5765 34.5725 59.5594 34.624Z" fill="#90BFFF"/>
</g>
<defs>
<clipPath id="clip0_784_17956">
<rect width="335" height="353" fill="white"/>
</clipPath>
<clipPath id="clip1_784_17956">
<rect width="88.25" height="88.25" fill="white" transform="translate(70.415 264.75)"/>
</clipPath>
<clipPath id="clip2_784_17956">
<rect width="88.25" height="88.25" fill="white" transform="translate(70.415)"/>
</clipPath>
<clipPath id="clip3_784_17956">
<rect width="88.25" height="88.25" fill="white" transform="translate(70.415 88.25)"/>
</clipPath>
<clipPath id="clip4_784_17956">
<rect width="88.25" height="88.25" fill="white" transform="translate(70.415 176.5)"/>
</clipPath>
<clipPath id="clip5_784_17956">
<rect width="88.25" height="88.25" fill="white" transform="translate(158.665)"/>
</clipPath>
<clipPath id="clip6_784_17956">
<rect width="88.25" height="88.25" fill="white" transform="translate(158.665 264.75)"/>
</clipPath>
<clipPath id="clip7_784_17956">
<rect width="88.25" height="88.25" fill="white" transform="translate(158.665 88.25)"/>
</clipPath>
<clipPath id="clip8_784_17956">
<rect width="88.25" height="88.25" fill="white" transform="translate(158.665 176.5)"/>
</clipPath>
<clipPath id="clip9_784_17956">
<rect width="88.25" height="88.25" fill="white" transform="translate(246.915)"/>
</clipPath>
<clipPath id="clip10_784_17956">
<rect width="88.25" height="88.25" fill="white" transform="translate(246.915 264.75)"/>
</clipPath>
<clipPath id="clip11_784_17956">
<rect width="122.216" height="122.216" fill="white" transform="matrix(0.5 0.866025 0.866025 -0.5 206.369 151.743)"/>
</clipPath>
</defs>
</svg>
