<svg width="729" height="715" viewBox="0 0 729 715" fill="none" xmlns="http://www.w3.org/2000/svg">
<g clip-path="url(#clip0_1014_17760)">
<path d="M622.032 125.683C622.032 126.446 621.933 127.542 621.733 128.97C621.534 130.431 621.385 131.277 621.285 131.51C620.854 133.236 620.073 135.129 618.944 137.188C617.815 139.213 616.504 141.172 615.01 143.064C613.582 144.891 612.138 146.534 610.677 147.995C609.216 149.423 607.971 150.485 606.941 151.183C605.879 151.946 604.534 152.693 602.907 153.424C601.313 154.188 599.421 154.901 597.229 155.565C592.88 156.927 589.078 157.607 585.824 157.607C583.035 157.607 580.479 157.109 578.154 156.113C575.83 155.184 574.668 153.374 574.668 150.685C574.668 149.058 575.083 147.879 575.913 147.148C576.776 146.385 578.304 146.003 580.495 146.003C582.919 146.003 585.027 146.418 586.82 147.248C588.646 148.045 590.207 148.443 591.502 148.443C592.232 148.443 593.693 148.194 595.885 147.696C598.043 147.165 599.753 146.468 601.015 145.604C602.409 144.675 603.854 143.479 605.348 142.019C606.842 140.524 608.203 138.931 609.432 137.237C610.693 135.511 611.706 133.768 612.47 132.008C613.233 130.248 613.599 128.588 613.565 127.027C613.565 124.77 612.669 122.761 610.876 121.001C609.083 119.208 606.975 117.813 604.551 116.817C602.094 115.821 600.002 115.323 598.275 115.323C595.619 115.323 593.594 115.522 592.199 115.921C590.771 116.286 589.41 116.784 588.115 117.415C586.82 118.046 585.708 118.361 584.778 118.361C583.716 118.361 582.62 118.013 581.491 117.315C580.362 116.618 579.798 115.738 579.798 114.676C579.798 113.746 579.931 112.949 580.196 112.285C580.495 111.588 580.877 111.007 581.342 110.542C581.807 110.044 582.338 109.662 582.936 109.396C583.533 109.098 584.164 108.882 584.828 108.749C585.492 108.583 586.206 108.45 586.97 108.351C587.733 108.218 588.547 108.118 589.41 108.052C591.137 107.919 592.183 107.753 592.548 107.554C594.839 106.226 597.196 104.648 599.62 102.822C600.882 101.893 602.044 100.946 603.106 99.9834C604.202 98.9873 605.231 97.9746 606.194 96.9453C608.12 94.9199 609.083 93.2598 609.083 91.9648C609.083 90.2051 608.353 88.877 606.892 87.9805C605.431 87.084 603.023 86.6357 599.67 86.6357C598.574 86.6357 597.396 86.6855 596.134 86.7852C594.872 86.8848 593.577 87.0508 592.249 87.2832C590.921 87.4824 589.576 87.748 588.215 88.0801C586.887 88.3789 585.575 88.7275 584.28 89.126C582.985 89.5244 581.74 89.9727 580.545 90.4707C579.35 90.9688 578.237 91.5166 577.208 92.1143C576.179 92.7119 575.266 93.3594 574.469 94.0566C573.672 94.7207 573.024 95.418 572.526 96.1484C572.261 96.5469 572.062 97.2275 571.929 98.1904C571.829 99.1201 571.729 100.614 571.63 102.673C571.597 103.702 571.563 104.831 571.53 106.06C571.497 107.255 571.447 108.6 571.381 110.094C571.314 111.588 571.248 112.883 571.182 113.979C571.148 115.041 571.099 115.954 571.032 116.718C570.966 117.349 570.866 118.129 570.733 119.059C570.634 119.955 570.501 121.018 570.335 122.246C570.003 124.637 569.737 126.712 569.538 128.472C569.372 130.231 569.289 131.892 569.289 133.452C569.289 133.983 569.306 134.631 569.339 135.395C569.372 136.125 569.422 136.972 569.488 137.935C569.555 138.897 569.604 139.761 569.638 140.524C569.671 141.255 569.688 141.853 569.688 142.317C569.688 145.206 569.306 147.331 568.542 148.692C567.778 150.021 566.5 150.685 564.707 150.685C560.756 150.685 558.78 147.314 558.78 140.574C558.78 139.777 559.179 137.104 559.976 132.556C560.772 128.04 561.221 125.218 561.32 124.089C561.486 122.562 561.619 121.117 561.719 119.756C561.852 118.395 561.984 117.1 562.117 115.871C562.25 114.643 562.399 113.198 562.565 111.538C562.731 109.878 562.931 107.969 563.163 105.811C563.329 104.482 563.445 103.403 563.512 102.573C563.611 101.743 563.661 101.162 563.661 100.83C563.661 100.033 563.545 99.1533 563.312 98.1904C563.18 97.6592 563.08 97.2109 563.014 96.8457C562.98 96.4473 562.964 96.1318 562.964 95.8994C562.964 93.4424 563.412 91.334 564.309 89.5742C565.471 87.25 566.417 86.0713 567.147 86.0381C568.31 85.8721 569.405 85.6729 570.435 85.4404C571.464 85.1748 572.443 84.8926 573.373 84.5938C577.689 83.1328 581.093 81.9873 583.583 81.1572C586.106 80.3271 587.75 79.7959 588.514 79.5635C590.041 79.0654 591.635 78.7168 593.295 78.5176C594.158 78.3848 595.188 78.3018 596.383 78.2686C597.578 78.2021 598.973 78.1689 600.566 78.1689H603.355C604.053 78.1357 604.966 78.3018 606.095 78.667C607.257 79.0322 608.419 79.5137 609.581 80.1113C610.776 80.709 611.872 81.3896 612.868 82.1533C613.864 82.8838 614.562 83.6309 614.96 84.3945C615.425 85.0918 615.823 86.1543 616.155 87.582C616.321 88.3125 616.454 88.9766 616.554 89.5742C616.653 90.1387 616.703 90.6533 616.703 91.1182C616.703 93.8076 615.541 96.5635 613.217 99.3857C610.926 102.208 607.572 105.412 603.156 108.998C605.613 109.496 607.971 110.31 610.229 111.438C612.52 112.534 614.528 113.846 616.255 115.373C618.015 116.867 619.409 118.511 620.438 120.304C621.501 122.063 622.032 123.856 622.032 125.683Z" fill="#26282F"/>
<path d="M600.155 200.779C591.517 208.402 576.156 210.119 574.346 202.825C572.256 194.406 583.331 186.209 594.06 183.767C606.775 180.873 617.507 189.447 612.773 201.621C607.775 214.473 592.498 222.618 580.467 223.943C566.845 225.444 554.232 213.073 564.977 193.699" stroke="#00B8B8" stroke-width="7.93654" stroke-linecap="round"/>
<path d="M122.42 495.311C146.381 448.886 184.523 401.827 237.903 389.421C251.423 386.279 266.02 386.874 279.844 390.61M279.844 390.61C300.9 396.301 320.164 409.279 331.108 427.442C348.229 455.857 353.613 491.82 329.77 517.679C317.342 531.158 300.577 537.466 283.874 527.234C258.355 511.601 254.843 469.36 260.642 443.322C264.652 425.32 271.2 407.57 279.844 390.61ZM549.042 126.973C499.676 144.072 447.661 175.118 427.774 226.185C422.737 239.12 421.246 253.652 422.974 267.868M422.974 267.868C425.605 289.519 435.706 310.437 452.123 323.858C477.808 344.854 512.637 355.308 541.63 335.394C556.743 325.014 565.375 309.319 557.628 291.328C545.793 263.841 504.483 254.345 477.885 256.374C459.494 257.777 440.992 261.729 422.974 267.868ZM422.974 267.868C359.66 289.437 304.824 331 279.235 390.864" stroke="#E5E5E5" stroke-width="4" stroke-linecap="round"/>
<path d="M487.516 111.932C502.178 113.976 535.694 119.792 552.461 126.702" stroke="#E5E5E5" stroke-width="4" stroke-linecap="round"/>
<path d="M552.461 126.701C546.206 140.119 532.868 171.412 529.553 189.241" stroke="#E5E5E5" stroke-width="4" stroke-linecap="round"/>
<path d="M178.024 424.713C178.024 426.041 177.593 427.17 176.729 428.1C175.899 429.062 174.804 429.544 173.442 429.544C172.845 429.544 172.363 429.411 171.998 429.146C171.533 428.78 171.019 428.299 170.454 427.701C169.89 427.07 169.292 426.29 168.661 425.36C167.433 423.468 166.304 421.492 165.274 419.434C164.278 417.342 163.465 415.499 162.834 413.905C162.668 413.44 162.485 413.025 162.286 412.66C162.12 412.262 161.938 411.863 161.738 411.465C161.572 411.033 161.39 410.585 161.19 410.12C160.991 409.622 160.775 409.024 160.543 408.327C159.58 405.472 158.883 403.596 158.451 402.699C157.986 403.164 157.538 403.529 157.106 403.795C156.675 404.027 156.21 404.21 155.712 404.343C155.247 404.442 154.749 404.509 154.218 404.542C153.72 404.542 153.172 404.542 152.574 404.542C152.242 404.542 151.827 404.608 151.329 404.741C150.831 404.874 150.283 405.023 149.686 405.189C149.121 405.355 148.557 405.538 147.992 405.737C147.428 405.937 146.896 406.103 146.398 406.235C144.738 406.7 143.062 407.115 141.368 407.48C139.675 407.846 137.932 408.211 136.139 408.576C134.346 408.908 132.47 409.24 130.511 409.572C128.552 409.871 126.477 410.203 124.285 410.568C123.289 410.734 122.343 411.382 121.446 412.511C120.583 413.673 118.79 416.163 116.067 419.981C113.411 423.767 111.153 426.539 109.294 428.299C107.468 430.059 105.691 430.938 103.965 430.938C101.773 430.938 99.9473 430.507 98.4863 429.644C96.8262 428.581 95.9961 427.452 95.9961 426.257C95.9961 425.626 96.3447 425.178 97.042 424.912C97.7725 424.613 98.752 424.348 99.9805 424.115C100.379 424.082 101.292 423.269 102.72 421.675C104.081 420.147 105.11 418.886 105.808 417.89C107.202 416.063 108.613 414.121 110.041 412.062C111.502 409.971 113.129 407.63 114.922 405.04C115.785 403.712 116.549 402.566 117.213 401.604C117.877 400.641 118.425 399.827 118.856 399.163C119.321 398.499 119.836 397.752 120.4 396.922C120.998 396.092 121.679 395.162 122.442 394.133C122.774 393.668 123.173 393.104 123.638 392.439C124.103 391.775 124.65 391.028 125.281 390.198C125.912 389.335 126.477 388.571 126.975 387.907C127.506 387.243 127.954 386.646 128.319 386.114C128.718 385.583 129.216 384.919 129.813 384.122C130.444 383.325 131.175 382.379 132.005 381.283C132.271 380.951 132.785 380.171 133.549 378.942C134.346 377.714 135.408 376.021 136.736 373.862C138.596 370.774 139.808 368.517 140.372 367.089C144.257 357.659 147.179 352.944 149.138 352.944C150.001 352.944 150.698 353.027 151.229 353.193C151.761 353.326 152.176 353.575 152.475 353.94C152.773 354.272 152.973 354.737 153.072 355.335C153.172 355.899 153.222 356.597 153.222 357.427C153.222 357.991 153.222 358.489 153.222 358.921C153.222 359.353 153.205 359.701 153.172 359.967C153.139 360.498 153.105 361.179 153.072 362.009C153.039 362.839 152.989 363.818 152.923 364.947C154.583 368.434 156.16 372.186 157.654 376.203C158.418 378.229 159.215 380.453 160.045 382.877C160.908 385.268 161.821 387.907 162.784 390.796C163.747 393.651 164.594 396.092 165.324 398.117C166.055 400.143 166.652 401.786 167.117 403.048C167.582 404.31 168.13 405.754 168.761 407.381C169.425 409.008 170.205 410.851 171.102 412.909C171.434 413.673 172.679 415.516 174.837 418.438C176.962 421.359 178.024 423.451 178.024 424.713ZM155.961 395.278C155.363 393.452 154.716 391.493 154.019 389.401C153.321 387.276 152.591 385.168 151.827 383.076C151.097 380.951 150.333 378.909 149.536 376.95C148.772 374.991 148.009 373.248 147.245 371.721C145.386 374.244 143.626 376.668 141.966 378.992C140.306 381.316 138.695 383.657 137.135 386.015C135.607 388.339 134.08 390.729 132.553 393.187C131.059 395.644 129.531 398.267 127.971 401.056C128.336 401.188 128.668 401.255 128.967 401.255C129.465 401.255 130.096 401.222 130.859 401.155C131.656 401.056 132.453 400.956 133.25 400.856C134.08 400.724 134.86 400.591 135.591 400.458C136.354 400.325 136.969 400.209 137.434 400.109C138.23 399.91 138.911 399.744 139.476 399.611C140.073 399.479 140.638 399.346 141.169 399.213C141.7 399.08 142.265 398.947 142.862 398.814C143.493 398.648 144.24 398.466 145.104 398.267C147.029 397.769 148.938 397.271 150.831 396.772C152.724 396.241 154.434 395.743 155.961 395.278Z" fill="#26282F"/>
<path d="M208.517 531.59C363.544 501.525 501.769 424.463 568.339 312.331" stroke="#47B5FF" stroke-width="13" stroke-linecap="round"/>
<path d="M483.562 323.264C530.404 323.13 569.697 310.043 584.932 284.382" stroke="#47B5FF" stroke-width="13" stroke-linecap="round"/>
<path d="M599.332 391.993C577.022 350.806 569.697 310.043 584.932 284.382" stroke="#47B5FF" stroke-width="13" stroke-linecap="round"/>
<path d="M125.862 496.234C135.215 491.181 149.418 492.77 149.553 499.652C149.71 507.597 138.042 512.667 127.867 512.667C115.808 512.667 107.892 502.827 114.659 492.916C121.802 482.454 137.249 478.285 148.368 479.547C160.959 480.976 169.792 494.589 156.128 509.708" stroke="#FBCB33" stroke-width="12.5019" stroke-linecap="round"/>
</g>
<defs>
<clipPath id="clip0_1014_17760">
<rect width="728.016" height="714.054" fill="white"/>
</clipPath>
</defs>
</svg>
