<svg width="92" height="92" viewBox="0 0 92 92" fill="none" xmlns="http://www.w3.org/2000/svg">
<path fill-rule="evenodd" clip-rule="evenodd" d="M46 86.25C66.6416 86.25 83.375 68.2295 83.375 46C83.375 23.7705 66.6416 5.75 46 5.75C25.3584 5.75 8.625 23.7705 8.625 46C8.625 68.2295 25.3584 86.25 46 86.25ZM43.125 77.625C59.0032 77.625 71.875 63.466 71.875 46C71.875 28.534 59.0032 14.375 43.125 14.375C27.2468 14.375 14.375 28.534 14.375 46C14.375 63.466 27.2468 77.625 43.125 77.625Z" fill="#00B8B8"/>
<path fill-rule="evenodd" clip-rule="evenodd" d="M43.125 74.75C57.4154 74.75 69 61.8782 69 46C69 30.1218 57.4154 17.25 43.125 17.25C28.8346 17.25 17.25 30.1218 17.25 46C17.25 61.8782 28.8346 74.75 43.125 74.75ZM40.25 63.25C48.1891 63.25 54.625 55.5269 54.625 46C54.625 36.4731 48.1891 28.75 40.25 28.75C32.3109 28.75 25.875 36.4731 25.875 46C25.875 55.5269 32.3109 63.25 40.25 63.25Z" fill="#FBCB33"/>
<path d="M51.75 46C51.75 53.9391 46.6013 60.375 40.25 60.375C33.8987 60.375 28.75 53.9391 28.75 46C28.75 38.0609 33.8987 31.625 40.25 31.625C46.6013 31.625 51.75 38.0609 51.75 46Z" fill="#D4417C"/>
</svg>
