<svg width="1200" height="349" viewBox="0 0 1200 349" fill="none" xmlns="http://www.w3.org/2000/svg">
<g clip-path="url(#clip0_563_1544)">
<rect width="1200" height="349" rx="20" fill="#4CB7FB"/>
<rect x="175.588" y="342.821" width="174.411" height="174.411" transform="rotate(180 175.588 342.821)" fill="white" fill-opacity="0.08"/>
<path d="M99.9225 200.097C65.1667 200.097 36.9916 225.078 36.9916 255.894C36.9916 286.71 65.1667 311.691 99.9225 311.691C134.678 311.691 162.854 286.71 162.854 255.894C162.854 225.078 134.678 200.097 99.9225 200.097Z" fill="white" fill-opacity="0.04"/>
<path d="M198.592 430.027V342.822H395.852V517.232H198.592V430.027Z" fill="white" fill-opacity="0.08"/>
<g clip-path="url(#clip1_563_1544)">
<rect x="176.078" y="520.768" width="176.767" height="179.124" transform="rotate(180 176.078 520.768)" fill="white" fill-opacity="0.04"/>
<rect x="232.275" y="535.131" width="52.9032" height="353.813" transform="rotate(135 232.275 535.131)" fill="white" fill-opacity="0.08"/>
<rect width="52.9032" height="353.813" transform="matrix(0.707107 0.707107 0.707107 -0.707107 -55.3164 535.131)" fill="white" fill-opacity="0.08"/>
</g>
<g clip-path="url(#clip2_563_1544)">
<rect x="174.895" y="171.946" width="176.767" height="179.124" transform="rotate(180 174.895 171.946)" fill="white" fill-opacity="0.04"/>
<rect x="231.098" y="186.31" width="52.9032" height="353.813" transform="rotate(135 231.098 186.31)" fill="white" fill-opacity="0.08"/>
<rect width="52.9032" height="353.813" transform="matrix(0.707107 0.707107 0.707107 -0.707107 -56.4941 186.31)" fill="white" fill-opacity="0.08"/>
</g>
<path d="M289.689 80.92V86.4H282.249V109H275.409V86.4H267.969V80.92H289.689ZM306.441 86.44C309.001 86.44 311.055 87.2933 312.601 89C314.148 90.68 314.921 93 314.921 95.96V109H308.121V96.88C308.121 95.3867 307.735 94.2267 306.961 93.4C306.188 92.5733 305.148 92.16 303.841 92.16C302.535 92.16 301.495 92.5733 300.721 93.4C299.948 94.2267 299.561 95.3867 299.561 96.88V109H292.721V79.4H299.561V89.68C300.255 88.6933 301.201 87.9067 302.401 87.32C303.601 86.7333 304.948 86.44 306.441 86.44ZM340.315 97.48C340.315 98.12 340.275 98.7867 340.195 99.48H324.715C324.821 100.867 325.261 101.933 326.035 102.68C326.835 103.4 327.808 103.76 328.955 103.76C330.661 103.76 331.848 103.04 332.515 101.6H339.795C339.421 103.067 338.741 104.387 337.755 105.56C336.795 106.733 335.581 107.653 334.115 108.32C332.648 108.987 331.008 109.32 329.195 109.32C327.008 109.32 325.061 108.853 323.355 107.92C321.648 106.987 320.315 105.653 319.355 103.92C318.395 102.187 317.915 100.16 317.915 97.84C317.915 95.52 318.381 93.4933 319.315 91.76C320.275 90.0267 321.608 88.6933 323.315 87.76C325.021 86.8267 326.981 86.36 329.195 86.36C331.355 86.36 333.275 86.8133 334.955 87.72C336.635 88.6267 337.941 89.92 338.875 91.6C339.835 93.28 340.315 95.24 340.315 97.48ZM333.315 95.68C333.315 94.5067 332.915 93.5733 332.115 92.88C331.315 92.1867 330.315 91.84 329.115 91.84C327.968 91.84 326.995 92.1733 326.195 92.84C325.421 93.5067 324.941 94.4533 324.755 95.68H333.315ZM358.44 89.84C359.08 88.8 360 87.96 361.2 87.32C362.4 86.68 363.773 86.36 365.32 86.36C367.16 86.36 368.826 86.8267 370.32 87.76C371.813 88.6933 372.986 90.0267 373.84 91.76C374.72 93.4933 375.16 95.5067 375.16 97.8C375.16 100.093 374.72 102.12 373.84 103.88C372.986 105.613 371.813 106.96 370.32 107.92C368.826 108.853 367.16 109.32 365.32 109.32C363.746 109.32 362.373 109.013 361.2 108.4C360.026 107.76 359.106 106.92 358.44 105.88V109H351.6V79.4H358.44V89.84ZM368.2 97.8C368.2 96.0933 367.72 94.76 366.76 93.8C365.826 92.8133 364.666 92.32 363.28 92.32C361.92 92.32 360.76 92.8133 359.8 93.8C358.866 94.7867 358.4 96.1333 358.4 97.84C358.4 99.5467 358.866 100.893 359.8 101.88C360.76 102.867 361.92 103.36 363.28 103.36C364.64 103.36 365.8 102.867 366.76 101.88C367.72 100.867 368.2 99.5067 368.2 97.8ZM399.388 97.48C399.388 98.12 399.348 98.7867 399.268 99.48H383.788C383.895 100.867 384.335 101.933 385.108 102.68C385.908 103.4 386.881 103.76 388.028 103.76C389.735 103.76 390.921 103.04 391.588 101.6H398.868C398.495 103.067 397.815 104.387 396.828 105.56C395.868 106.733 394.655 107.653 393.188 108.32C391.721 108.987 390.081 109.32 388.268 109.32C386.081 109.32 384.135 108.853 382.428 107.92C380.721 106.987 379.388 105.653 378.428 103.92C377.468 102.187 376.988 100.16 376.988 97.84C376.988 95.52 377.455 93.4933 378.388 91.76C379.348 90.0267 380.681 88.6933 382.388 87.76C384.095 86.8267 386.055 86.36 388.268 86.36C390.428 86.36 392.348 86.8133 394.028 87.72C395.708 88.6267 397.015 89.92 397.948 91.6C398.908 93.28 399.388 95.24 399.388 97.48ZM392.388 95.68C392.388 94.5067 391.988 93.5733 391.188 92.88C390.388 92.1867 389.388 91.84 388.188 91.84C387.041 91.84 386.068 92.1733 385.268 92.84C384.495 93.5067 384.015 94.4533 383.828 95.68H392.388ZM411.676 109.32C409.73 109.32 407.996 108.987 406.476 108.32C404.956 107.653 403.756 106.747 402.876 105.6C401.996 104.427 401.503 103.12 401.396 101.68H408.156C408.236 102.453 408.596 103.08 409.236 103.56C409.876 104.04 410.663 104.28 411.596 104.28C412.45 104.28 413.103 104.12 413.556 103.8C414.036 103.453 414.276 103.013 414.276 102.48C414.276 101.84 413.943 101.373 413.276 101.08C412.61 100.76 411.53 100.413 410.036 100.04C408.436 99.6667 407.103 99.28 406.036 98.88C404.97 98.4533 404.05 97.8 403.276 96.92C402.503 96.0133 402.116 94.8 402.116 93.28C402.116 92 402.463 90.84 403.156 89.8C403.876 88.7333 404.916 87.8933 406.276 87.28C407.663 86.6667 409.303 86.36 411.196 86.36C413.996 86.36 416.196 87.0533 417.796 88.44C419.423 89.8267 420.356 91.6667 420.596 93.96H414.276C414.17 93.1867 413.823 92.5733 413.236 92.12C412.676 91.6667 411.93 91.44 410.996 91.44C410.196 91.44 409.583 91.6 409.156 91.92C408.73 92.2133 408.516 92.6267 408.516 93.16C408.516 93.8 408.85 94.28 409.516 94.6C410.21 94.92 411.276 95.24 412.716 95.56C414.37 95.9867 415.716 96.4133 416.756 96.84C417.796 97.24 418.703 97.9067 419.476 98.84C420.276 99.7467 420.69 100.973 420.716 102.52C420.716 103.827 420.343 105 419.596 106.04C418.876 107.053 417.823 107.853 416.436 108.44C415.076 109.027 413.49 109.32 411.676 109.32ZM436.941 103.2V109H433.461C430.981 109 429.048 108.4 427.661 107.2C426.274 105.973 425.581 103.987 425.581 101.24V92.36H422.861V86.68H425.581V81.24H432.421V86.68H436.901V92.36H432.421V101.32C432.421 101.987 432.581 102.467 432.901 102.76C433.221 103.053 433.754 103.2 434.501 103.2H436.941ZM455.268 89.84C455.934 88.8 456.854 87.96 458.028 87.32C459.201 86.68 460.574 86.36 462.148 86.36C463.988 86.36 465.654 86.8267 467.148 87.76C468.641 88.6933 469.814 90.0267 470.668 91.76C471.548 93.4933 471.988 95.5067 471.988 97.8C471.988 100.093 471.548 102.12 470.668 103.88C469.814 105.613 468.641 106.96 467.148 107.92C465.654 108.853 463.988 109.32 462.148 109.32C460.601 109.32 459.228 109 458.028 108.36C456.854 107.72 455.934 106.893 455.268 105.88V119.64H448.428V86.68H455.268V89.84ZM465.028 97.8C465.028 96.0933 464.548 94.76 463.588 93.8C462.654 92.8133 461.494 92.32 460.108 92.32C458.748 92.32 457.588 92.8133 456.628 93.8C455.694 94.7867 455.228 96.1333 455.228 97.84C455.228 99.5467 455.694 100.893 456.628 101.88C457.588 102.867 458.748 103.36 460.108 103.36C461.468 103.36 462.628 102.867 463.588 101.88C464.548 100.867 465.028 99.5067 465.028 97.8ZM482.016 79.4V109H475.176V79.4H482.016ZM485.213 97.8C485.213 95.5067 485.64 93.4933 486.493 91.76C487.373 90.0267 488.56 88.6933 490.053 87.76C491.546 86.8267 493.213 86.36 495.053 86.36C496.626 86.36 498 86.68 499.173 87.32C500.373 87.96 501.293 88.8 501.933 89.84V86.68H508.773V109H501.933V105.84C501.266 106.88 500.333 107.72 499.133 108.36C497.96 109 496.586 109.32 495.013 109.32C493.2 109.32 491.546 108.853 490.053 107.92C488.56 106.96 487.373 105.613 486.493 103.88C485.64 102.12 485.213 100.093 485.213 97.8ZM501.933 97.84C501.933 96.1333 501.453 94.7867 500.493 93.8C499.56 92.8133 498.413 92.32 497.053 92.32C495.693 92.32 494.533 92.8133 493.573 93.8C492.64 94.76 492.173 96.0933 492.173 97.8C492.173 99.5067 492.64 100.867 493.573 101.88C494.533 102.867 495.693 103.36 497.053 103.36C498.413 103.36 499.56 102.867 500.493 101.88C501.453 100.893 501.933 99.5467 501.933 97.84ZM536.121 86.68L522.121 119.6H514.761L519.881 108.24L510.801 86.68H518.441L523.601 100.64L528.721 86.68H536.121ZM545.035 89.84C545.675 88.8 546.595 87.96 547.795 87.32C548.995 86.68 550.368 86.36 551.915 86.36C553.755 86.36 555.422 86.8267 556.915 87.76C558.408 88.6933 559.582 90.0267 560.435 91.76C561.315 93.4933 561.755 95.5067 561.755 97.8C561.755 100.093 561.315 102.12 560.435 103.88C559.582 105.613 558.408 106.96 556.915 107.92C555.422 108.853 553.755 109.32 551.915 109.32C550.342 109.32 548.968 109.013 547.795 108.4C546.622 107.76 545.702 106.92 545.035 105.88V109H538.195V79.4H545.035V89.84ZM554.795 97.8C554.795 96.0933 554.315 94.76 553.355 93.8C552.422 92.8133 551.262 92.32 549.875 92.32C548.515 92.32 547.355 92.8133 546.395 93.8C545.462 94.7867 544.995 96.1333 544.995 97.84C544.995 99.5467 545.462 100.893 546.395 101.88C547.355 102.867 548.515 103.36 549.875 103.36C551.235 103.36 552.395 102.867 553.355 101.88C554.315 100.867 554.795 99.5067 554.795 97.8ZM575.103 109.32C572.917 109.32 570.943 108.853 569.183 107.92C567.45 106.987 566.077 105.653 565.063 103.92C564.077 102.187 563.583 100.16 563.583 97.84C563.583 95.5467 564.09 93.5333 565.103 91.8C566.117 90.04 567.503 88.6933 569.263 87.76C571.023 86.8267 572.997 86.36 575.183 86.36C577.37 86.36 579.343 86.8267 581.103 87.76C582.863 88.6933 584.25 90.04 585.263 91.8C586.277 93.5333 586.783 95.5467 586.783 97.84C586.783 100.133 586.263 102.16 585.223 103.92C584.21 105.653 582.81 106.987 581.023 107.92C579.263 108.853 577.29 109.32 575.103 109.32ZM575.103 103.4C576.41 103.4 577.517 102.92 578.423 101.96C579.357 101 579.823 99.6267 579.823 97.84C579.823 96.0533 579.37 94.68 578.463 93.72C577.583 92.76 576.49 92.28 575.183 92.28C573.85 92.28 572.743 92.76 571.863 93.72C570.983 94.6533 570.543 96.0267 570.543 97.84C570.543 99.6267 570.97 101 571.823 101.96C572.703 102.92 573.797 103.4 575.103 103.4ZM600.172 109.32C597.985 109.32 596.012 108.853 594.252 107.92C592.519 106.987 591.145 105.653 590.132 103.92C589.145 102.187 588.652 100.16 588.652 97.84C588.652 95.5467 589.159 93.5333 590.172 91.8C591.185 90.04 592.572 88.6933 594.332 87.76C596.092 86.8267 598.065 86.36 600.252 86.36C602.439 86.36 604.412 86.8267 606.172 87.76C607.932 88.6933 609.319 90.04 610.332 91.8C611.345 93.5333 611.852 95.5467 611.852 97.84C611.852 100.133 611.332 102.16 610.292 103.92C609.279 105.653 607.879 106.987 606.092 107.92C604.332 108.853 602.359 109.32 600.172 109.32ZM600.172 103.4C601.479 103.4 602.585 102.92 603.492 101.96C604.425 101 604.892 99.6267 604.892 97.84C604.892 96.0533 604.439 94.68 603.532 93.72C602.652 92.76 601.559 92.28 600.252 92.28C598.919 92.28 597.812 92.76 596.932 93.72C596.052 94.6533 595.612 96.0267 595.612 97.84C595.612 99.6267 596.039 101 596.892 101.96C597.772 102.92 598.865 103.4 600.172 103.4ZM628.721 109L621.921 99.64V109H615.081V79.4H621.921V95.76L628.681 86.68H637.121L627.841 97.88L637.201 109H628.721ZM648.487 109.32C646.541 109.32 644.807 108.987 643.287 108.32C641.767 107.653 640.567 106.747 639.687 105.6C638.807 104.427 638.314 103.12 638.207 101.68H644.967C645.047 102.453 645.407 103.08 646.047 103.56C646.687 104.04 647.474 104.28 648.407 104.28C649.261 104.28 649.914 104.12 650.367 103.8C650.847 103.453 651.087 103.013 651.087 102.48C651.087 101.84 650.754 101.373 650.087 101.08C649.421 100.76 648.341 100.413 646.847 100.04C645.247 99.6667 643.914 99.28 642.847 98.88C641.781 98.4533 640.861 97.8 640.087 96.92C639.314 96.0133 638.927 94.8 638.927 93.28C638.927 92 639.274 90.84 639.967 89.8C640.687 88.7333 641.727 87.8933 643.087 87.28C644.474 86.6667 646.114 86.36 648.007 86.36C650.807 86.36 653.007 87.0533 654.607 88.44C656.234 89.8267 657.167 91.6667 657.407 93.96H651.087C650.981 93.1867 650.634 92.5733 650.047 92.12C649.487 91.6667 648.741 91.44 647.807 91.44C647.007 91.44 646.394 91.6 645.967 91.92C645.541 92.2133 645.327 92.6267 645.327 93.16C645.327 93.8 645.661 94.28 646.327 94.6C647.021 94.92 648.087 95.24 649.527 95.56C651.181 95.9867 652.527 96.4133 653.567 96.84C654.607 97.24 655.514 97.9067 656.287 98.84C657.087 99.7467 657.501 100.973 657.527 102.52C657.527 103.827 657.154 105 656.407 106.04C655.687 107.053 654.634 107.853 653.247 108.44C651.887 109.027 650.301 109.32 648.487 109.32ZM683.109 86.44C685.669 86.44 687.722 87.2933 689.269 89C690.815 90.68 691.589 93 691.589 95.96V109H684.789V96.88C684.789 95.3867 684.402 94.2267 683.629 93.4C682.855 92.5733 681.815 92.16 680.509 92.16C679.202 92.16 678.162 92.5733 677.389 93.4C676.615 94.2267 676.229 95.3867 676.229 96.88V109H669.389V79.4H676.229V89.68C676.922 88.6933 677.869 87.9067 679.069 87.32C680.269 86.7333 681.615 86.44 683.109 86.44ZM716.982 97.48C716.982 98.12 716.942 98.7867 716.862 99.48H701.382C701.488 100.867 701.928 101.933 702.702 102.68C703.502 103.4 704.475 103.76 705.622 103.76C707.328 103.76 708.515 103.04 709.182 101.6H716.462C716.088 103.067 715.408 104.387 714.422 105.56C713.462 106.733 712.248 107.653 710.782 108.32C709.315 108.987 707.675 109.32 705.862 109.32C703.675 109.32 701.728 108.853 700.022 107.92C698.315 106.987 696.982 105.653 696.022 103.92C695.062 102.187 694.582 100.16 694.582 97.84C694.582 95.52 695.048 93.4933 695.982 91.76C696.942 90.0267 698.275 88.6933 699.982 87.76C701.688 86.8267 703.648 86.36 705.862 86.36C708.022 86.36 709.942 86.8133 711.622 87.72C713.302 88.6267 714.608 89.92 715.542 91.6C716.502 93.28 716.982 95.24 716.982 97.48ZM709.982 95.68C709.982 94.5067 709.582 93.5733 708.782 92.88C707.982 92.1867 706.982 91.84 705.782 91.84C704.635 91.84 703.662 92.1733 702.862 92.84C702.088 93.5067 701.608 94.4533 701.422 95.68H709.982ZM727.03 79.4V109H720.19V79.4H727.03ZM738.427 89.84C739.094 88.8 740.014 87.96 741.187 87.32C742.36 86.68 743.734 86.36 745.307 86.36C747.147 86.36 748.814 86.8267 750.307 87.76C751.8 88.6933 752.974 90.0267 753.827 91.76C754.707 93.4933 755.147 95.5067 755.147 97.8C755.147 100.093 754.707 102.12 753.827 103.88C752.974 105.613 751.8 106.96 750.307 107.92C748.814 108.853 747.147 109.32 745.307 109.32C743.76 109.32 742.387 109 741.187 108.36C740.014 107.72 739.094 106.893 738.427 105.88V119.64H731.587V86.68H738.427V89.84ZM748.187 97.8C748.187 96.0933 747.707 94.76 746.747 93.8C745.814 92.8133 744.654 92.32 743.267 92.32C741.907 92.32 740.747 92.8133 739.787 93.8C738.854 94.7867 738.387 96.1333 738.387 97.84C738.387 99.5467 738.854 100.893 739.787 101.88C740.747 102.867 741.907 103.36 743.267 103.36C744.627 103.36 745.787 102.867 746.747 101.88C747.707 100.867 748.187 99.5067 748.187 97.8ZM789.212 86.68L775.212 119.6H767.852L772.972 108.24L763.892 86.68H771.532L776.692 100.64L781.812 86.68H789.212ZM801.445 109.32C799.259 109.32 797.285 108.853 795.525 107.92C793.792 106.987 792.419 105.653 791.405 103.92C790.419 102.187 789.925 100.16 789.925 97.84C789.925 95.5467 790.432 93.5333 791.445 91.8C792.459 90.04 793.845 88.6933 795.605 87.76C797.365 86.8267 799.339 86.36 801.525 86.36C803.712 86.36 805.685 86.8267 807.445 87.76C809.205 88.6933 810.592 90.04 811.605 91.8C812.619 93.5333 813.125 95.5467 813.125 97.84C813.125 100.133 812.605 102.16 811.565 103.92C810.552 105.653 809.152 106.987 807.365 107.92C805.605 108.853 803.632 109.32 801.445 109.32ZM801.445 103.4C802.752 103.4 803.859 102.92 804.765 101.96C805.699 101 806.165 99.6267 806.165 97.84C806.165 96.0533 805.712 94.68 804.805 93.72C803.925 92.76 802.832 92.28 801.525 92.28C800.192 92.28 799.085 92.76 798.205 93.72C797.325 94.6533 796.885 96.0267 796.885 97.84C796.885 99.6267 797.312 101 798.165 101.96C799.045 102.92 800.139 103.4 801.445 103.4ZM838.394 86.68V109H831.554V105.96C830.861 106.947 829.914 107.747 828.714 108.36C827.541 108.947 826.234 109.24 824.794 109.24C823.088 109.24 821.581 108.867 820.274 108.12C818.968 107.347 817.954 106.24 817.234 104.8C816.514 103.36 816.154 101.667 816.154 99.72V86.68H822.954V98.8C822.954 100.293 823.341 101.453 824.114 102.28C824.888 103.107 825.928 103.52 827.234 103.52C828.568 103.52 829.621 103.107 830.394 102.28C831.168 101.453 831.554 100.293 831.554 98.8V86.68H838.394ZM883.024 86.68L876.984 109H869.424L865.904 94.52L862.264 109H854.744L848.664 86.68H855.504L858.664 102.64L862.424 86.68H869.664L873.464 102.56L876.584 86.68H883.024ZM888.672 84.36C887.472 84.36 886.486 84.0133 885.712 83.32C884.966 82.6 884.592 81.72 884.592 80.68C884.592 79.6133 884.966 78.7333 885.712 78.04C886.486 77.32 887.472 76.96 888.672 76.96C889.846 76.96 890.806 77.32 891.552 78.04C892.326 78.7333 892.712 79.6133 892.712 80.68C892.712 81.72 892.326 82.6 891.552 83.32C890.806 84.0133 889.846 84.36 888.672 84.36ZM892.072 86.68V109H885.232V86.68H892.072ZM910.229 86.44C912.843 86.44 914.923 87.2933 916.469 89C918.043 90.68 918.829 93 918.829 95.96V109H912.029V96.88C912.029 95.3867 911.643 94.2267 910.869 93.4C910.096 92.5733 909.056 92.16 907.749 92.16C906.443 92.16 905.403 92.5733 904.629 93.4C903.856 94.2267 903.469 95.3867 903.469 96.88V109H896.629V86.68H903.469V89.64C904.163 88.6533 905.096 87.88 906.269 87.32C907.443 86.7333 908.763 86.44 910.229 86.44ZM926.382 109.32C925.182 109.32 924.196 108.973 923.422 108.28C922.676 107.56 922.302 106.68 922.302 105.64C922.302 104.573 922.676 103.68 923.422 102.96C924.196 102.24 925.182 101.88 926.382 101.88C927.556 101.88 928.516 102.24 929.262 102.96C930.036 103.68 930.422 104.573 930.422 105.64C930.422 106.68 930.036 107.56 929.262 108.28C928.516 108.973 927.556 109.32 926.382 109.32Z" fill="white"/>
<path d="M256.583 152.06V153.54H252.783V166H250.963V153.54H247.143V152.06H256.583ZM268.823 160.1C268.823 160.447 268.803 160.813 268.763 161.2H260.003C260.07 162.28 260.437 163.127 261.103 163.74C261.783 164.34 262.603 164.64 263.563 164.64C264.35 164.64 265.003 164.46 265.523 164.1C266.057 163.727 266.43 163.233 266.643 162.62H268.603C268.31 163.673 267.723 164.533 266.843 165.2C265.963 165.853 264.87 166.18 263.563 166.18C262.523 166.18 261.59 165.947 260.763 165.48C259.95 165.013 259.31 164.353 258.843 163.5C258.377 162.633 258.143 161.633 258.143 160.5C258.143 159.367 258.37 158.373 258.823 157.52C259.277 156.667 259.91 156.013 260.723 155.56C261.55 155.093 262.497 154.86 263.563 154.86C264.603 154.86 265.523 155.087 266.323 155.54C267.123 155.993 267.737 156.62 268.163 157.42C268.603 158.207 268.823 159.1 268.823 160.1ZM266.943 159.72C266.943 159.027 266.79 158.433 266.483 157.94C266.177 157.433 265.757 157.053 265.223 156.8C264.703 156.533 264.123 156.4 263.483 156.4C262.563 156.4 261.777 156.693 261.123 157.28C260.483 157.867 260.117 158.68 260.023 159.72H266.943ZM273.046 151.2V166H271.226V151.2H273.046ZM277.967 151.2V166H276.147V151.2H277.967ZM296.121 155.04V166H294.301V164.38C293.955 164.94 293.468 165.38 292.841 165.7C292.228 166.007 291.548 166.16 290.801 166.16C289.948 166.16 289.181 165.987 288.501 165.64C287.821 165.28 287.281 164.747 286.881 164.04C286.495 163.333 286.301 162.473 286.301 161.46V155.04H288.101V161.22C288.101 162.3 288.375 163.133 288.921 163.72C289.468 164.293 290.215 164.58 291.161 164.58C292.135 164.58 292.901 164.28 293.461 163.68C294.021 163.08 294.301 162.207 294.301 161.06V155.04H296.121ZM303.074 166.18C302.234 166.18 301.481 166.04 300.814 165.76C300.148 165.467 299.621 165.067 299.234 164.56C298.848 164.04 298.634 163.447 298.594 162.78H300.474C300.528 163.327 300.781 163.773 301.234 164.12C301.701 164.467 302.308 164.64 303.054 164.64C303.748 164.64 304.294 164.487 304.694 164.18C305.094 163.873 305.294 163.487 305.294 163.02C305.294 162.54 305.081 162.187 304.654 161.96C304.228 161.72 303.568 161.487 302.674 161.26C301.861 161.047 301.194 160.833 300.674 160.62C300.168 160.393 299.728 160.067 299.354 159.64C298.994 159.2 298.814 158.627 298.814 157.92C298.814 157.36 298.981 156.847 299.314 156.38C299.648 155.913 300.121 155.547 300.734 155.28C301.348 155 302.048 154.86 302.834 154.86C304.048 154.86 305.028 155.167 305.774 155.78C306.521 156.393 306.921 157.233 306.974 158.3H305.154C305.114 157.727 304.881 157.267 304.454 156.92C304.041 156.573 303.481 156.4 302.774 156.4C302.121 156.4 301.601 156.54 301.214 156.82C300.828 157.1 300.634 157.467 300.634 157.92C300.634 158.28 300.748 158.58 300.974 158.82C301.214 159.047 301.508 159.233 301.854 159.38C302.214 159.513 302.708 159.667 303.334 159.84C304.121 160.053 304.761 160.267 305.254 160.48C305.748 160.68 306.168 160.987 306.514 161.4C306.874 161.813 307.061 162.353 307.074 163.02C307.074 163.62 306.908 164.16 306.574 164.64C306.241 165.12 305.768 165.5 305.154 165.78C304.554 166.047 303.861 166.18 303.074 166.18ZM314.296 160.48C314.296 159.36 314.522 158.38 314.976 157.54C315.429 156.687 316.049 156.027 316.836 155.56C317.636 155.093 318.522 154.86 319.496 154.86C320.456 154.86 321.289 155.067 321.996 155.48C322.702 155.893 323.229 156.413 323.576 157.04V155.04H325.416V166H323.576V163.96C323.216 164.6 322.676 165.133 321.956 165.56C321.249 165.973 320.422 166.18 319.476 166.18C318.502 166.18 317.622 165.94 316.836 165.46C316.049 164.98 315.429 164.307 314.976 163.44C314.522 162.573 314.296 161.587 314.296 160.48ZM323.576 160.5C323.576 159.673 323.409 158.953 323.076 158.34C322.742 157.727 322.289 157.26 321.716 156.94C321.156 156.607 320.536 156.44 319.856 156.44C319.176 156.44 318.556 156.6 317.996 156.92C317.436 157.24 316.989 157.707 316.656 158.32C316.322 158.933 316.156 159.653 316.156 160.48C316.156 161.32 316.322 162.053 316.656 162.68C316.989 163.293 317.436 163.767 317.996 164.1C318.556 164.42 319.176 164.58 319.856 164.58C320.536 164.58 321.156 164.42 321.716 164.1C322.289 163.767 322.742 163.293 323.076 162.68C323.409 162.053 323.576 161.327 323.576 160.5ZM330.311 157.08C330.685 156.427 331.231 155.893 331.951 155.48C332.671 155.067 333.491 154.86 334.411 154.86C335.398 154.86 336.285 155.093 337.071 155.56C337.858 156.027 338.478 156.687 338.931 157.54C339.385 158.38 339.611 159.36 339.611 160.48C339.611 161.587 339.385 162.573 338.931 163.44C338.478 164.307 337.851 164.98 337.051 165.46C336.265 165.94 335.385 166.18 334.411 166.18C333.465 166.18 332.631 165.973 331.911 165.56C331.205 165.147 330.671 164.62 330.311 163.98V166H328.491V151.2H330.311V157.08ZM337.751 160.48C337.751 159.653 337.585 158.933 337.251 158.32C336.918 157.707 336.465 157.24 335.891 156.92C335.331 156.6 334.711 156.44 334.031 156.44C333.365 156.44 332.745 156.607 332.171 156.94C331.611 157.26 331.158 157.733 330.811 158.36C330.478 158.973 330.311 159.687 330.311 160.5C330.311 161.327 330.478 162.053 330.811 162.68C331.158 163.293 331.611 163.767 332.171 164.1C332.745 164.42 333.365 164.58 334.031 164.58C334.711 164.58 335.331 164.42 335.891 164.1C336.465 163.767 336.918 163.293 337.251 162.68C337.585 162.053 337.751 161.32 337.751 160.48ZM346.787 166.18C345.76 166.18 344.827 165.947 343.987 165.48C343.16 165.013 342.507 164.353 342.027 163.5C341.56 162.633 341.327 161.633 341.327 160.5C341.327 159.38 341.567 158.393 342.047 157.54C342.54 156.673 343.207 156.013 344.047 155.56C344.887 155.093 345.827 154.86 346.867 154.86C347.907 154.86 348.847 155.093 349.687 155.56C350.527 156.013 351.187 156.667 351.667 157.52C352.16 158.373 352.407 159.367 352.407 160.5C352.407 161.633 352.153 162.633 351.647 163.5C351.153 164.353 350.48 165.013 349.627 165.48C348.773 165.947 347.827 166.18 346.787 166.18ZM346.787 164.58C347.44 164.58 348.053 164.427 348.627 164.12C349.2 163.813 349.66 163.353 350.007 162.74C350.367 162.127 350.547 161.38 350.547 160.5C350.547 159.62 350.373 158.873 350.027 158.26C349.68 157.647 349.227 157.193 348.667 156.9C348.107 156.593 347.5 156.44 346.847 156.44C346.18 156.44 345.567 156.593 345.007 156.9C344.46 157.193 344.02 157.647 343.687 158.26C343.353 158.873 343.187 159.62 343.187 160.5C343.187 161.393 343.347 162.147 343.667 162.76C344 163.373 344.44 163.833 344.987 164.14C345.533 164.433 346.133 164.58 346.787 164.58ZM364.52 155.04V166H362.7V164.38C362.353 164.94 361.866 165.38 361.24 165.7C360.626 166.007 359.946 166.16 359.2 166.16C358.346 166.16 357.58 165.987 356.9 165.64C356.22 165.28 355.68 164.747 355.28 164.04C354.893 163.333 354.7 162.473 354.7 161.46V155.04H356.5V161.22C356.5 162.3 356.773 163.133 357.32 163.72C357.866 164.293 358.613 164.58 359.56 164.58C360.533 164.58 361.3 164.28 361.86 163.68C362.42 163.08 362.7 162.207 362.7 161.06V155.04H364.52ZM369.813 156.54V163C369.813 163.533 369.926 163.913 370.153 164.14C370.379 164.353 370.773 164.46 371.333 164.46H372.673V166H371.033C370.019 166 369.259 165.767 368.753 165.3C368.246 164.833 367.993 164.067 367.993 163V156.54H366.573V155.04H367.993V152.28H369.813V155.04H372.673V156.54H369.813ZM389.65 155.04L383.05 171.16H381.17L383.33 165.88L378.91 155.04H380.93L384.37 163.92L387.77 155.04H389.65ZM396.259 166.18C395.233 166.18 394.299 165.947 393.459 165.48C392.633 165.013 391.979 164.353 391.499 163.5C391.033 162.633 390.799 161.633 390.799 160.5C390.799 159.38 391.039 158.393 391.519 157.54C392.013 156.673 392.679 156.013 393.519 155.56C394.359 155.093 395.299 154.86 396.339 154.86C397.379 154.86 398.319 155.093 399.159 155.56C399.999 156.013 400.659 156.667 401.139 157.52C401.633 158.373 401.879 159.367 401.879 160.5C401.879 161.633 401.626 162.633 401.119 163.5C400.626 164.353 399.953 165.013 399.099 165.48C398.246 165.947 397.299 166.18 396.259 166.18ZM396.259 164.58C396.913 164.58 397.526 164.427 398.099 164.12C398.673 163.813 399.133 163.353 399.479 162.74C399.839 162.127 400.019 161.38 400.019 160.5C400.019 159.62 399.846 158.873 399.499 158.26C399.153 157.647 398.699 157.193 398.139 156.9C397.579 156.593 396.973 156.44 396.319 156.44C395.653 156.44 395.039 156.593 394.479 156.9C393.933 157.193 393.493 157.647 393.159 158.26C392.826 158.873 392.659 159.62 392.659 160.5C392.659 161.393 392.819 162.147 393.139 162.76C393.473 163.373 393.913 163.833 394.459 164.14C395.006 164.433 395.606 164.58 396.259 164.58ZM413.992 155.04V166H412.172V164.38C411.826 164.94 411.339 165.38 410.712 165.7C410.099 166.007 409.419 166.16 408.672 166.16C407.819 166.16 407.052 165.987 406.372 165.64C405.692 165.28 405.152 164.747 404.752 164.04C404.366 163.333 404.172 162.473 404.172 161.46V155.04H405.972V161.22C405.972 162.3 406.246 163.133 406.792 163.72C407.339 164.293 408.086 164.58 409.032 164.58C410.006 164.58 410.772 164.28 411.332 163.68C411.892 163.08 412.172 162.207 412.172 161.06V155.04H413.992ZM418.885 156.82C419.205 156.193 419.659 155.707 420.245 155.36C420.845 155.013 421.572 154.84 422.425 154.84V156.72H421.945C419.905 156.72 418.885 157.827 418.885 160.04V166H417.065V155.04H418.885V156.82ZM431.678 157.06C432.038 156.433 432.572 155.913 433.278 155.5C433.998 155.073 434.832 154.86 435.778 154.86C436.752 154.86 437.632 155.093 438.418 155.56C439.218 156.027 439.845 156.687 440.298 157.54C440.752 158.38 440.978 159.36 440.978 160.48C440.978 161.587 440.752 162.573 440.298 163.44C439.845 164.307 439.218 164.98 438.418 165.46C437.632 165.94 436.752 166.18 435.778 166.18C434.845 166.18 434.018 165.973 433.298 165.56C432.592 165.133 432.052 164.607 431.678 163.98V171.2H429.858V155.04H431.678V157.06ZM439.118 160.48C439.118 159.653 438.952 158.933 438.618 158.32C438.285 157.707 437.832 157.24 437.258 156.92C436.698 156.6 436.078 156.44 435.398 156.44C434.732 156.44 434.112 156.607 433.538 156.94C432.978 157.26 432.525 157.733 432.178 158.36C431.845 158.973 431.678 159.687 431.678 160.5C431.678 161.327 431.845 162.053 432.178 162.68C432.525 163.293 432.978 163.767 433.538 164.1C434.112 164.42 434.732 164.58 435.398 164.58C436.078 164.58 436.698 164.42 437.258 164.1C437.832 163.767 438.285 163.293 438.618 162.68C438.952 162.053 439.118 161.32 439.118 160.48ZM445.194 156.82C445.514 156.193 445.967 155.707 446.554 155.36C447.154 155.013 447.881 154.84 448.734 154.84V156.72H448.254C446.214 156.72 445.194 157.827 445.194 160.04V166H443.374V155.04H445.194V156.82ZM455.615 166.18C454.588 166.18 453.655 165.947 452.815 165.48C451.988 165.013 451.335 164.353 450.855 163.5C450.388 162.633 450.155 161.633 450.155 160.5C450.155 159.38 450.395 158.393 450.875 157.54C451.368 156.673 452.035 156.013 452.875 155.56C453.715 155.093 454.655 154.86 455.695 154.86C456.735 154.86 457.675 155.093 458.515 155.56C459.355 156.013 460.015 156.667 460.495 157.52C460.988 158.373 461.235 159.367 461.235 160.5C461.235 161.633 460.982 162.633 460.475 163.5C459.982 164.353 459.308 165.013 458.455 165.48C457.602 165.947 456.655 166.18 455.615 166.18ZM455.615 164.58C456.268 164.58 456.882 164.427 457.455 164.12C458.028 163.813 458.488 163.353 458.835 162.74C459.195 162.127 459.375 161.38 459.375 160.5C459.375 159.62 459.202 158.873 458.855 158.26C458.508 157.647 458.055 157.193 457.495 156.9C456.935 156.593 456.328 156.44 455.675 156.44C455.008 156.44 454.395 156.593 453.835 156.9C453.288 157.193 452.848 157.647 452.515 158.26C452.182 158.873 452.015 159.62 452.015 160.5C452.015 161.393 452.175 162.147 452.495 162.76C452.828 163.373 453.268 163.833 453.815 164.14C454.362 164.433 454.962 164.58 455.615 164.58ZM465.448 157.08C465.821 156.427 466.368 155.893 467.088 155.48C467.808 155.067 468.628 154.86 469.548 154.86C470.535 154.86 471.421 155.093 472.208 155.56C472.995 156.027 473.615 156.687 474.068 157.54C474.521 158.38 474.748 159.36 474.748 160.48C474.748 161.587 474.521 162.573 474.068 163.44C473.615 164.307 472.988 164.98 472.188 165.46C471.401 165.94 470.521 166.18 469.548 166.18C468.601 166.18 467.768 165.973 467.048 165.56C466.341 165.147 465.808 164.62 465.448 163.98V166H463.628V151.2H465.448V157.08ZM472.888 160.48C472.888 159.653 472.721 158.933 472.388 158.32C472.055 157.707 471.601 157.24 471.028 156.92C470.468 156.6 469.848 156.44 469.168 156.44C468.501 156.44 467.881 156.607 467.308 156.94C466.748 157.26 466.295 157.733 465.948 158.36C465.615 158.973 465.448 159.687 465.448 160.5C465.448 161.327 465.615 162.053 465.948 162.68C466.295 163.293 466.748 163.767 467.308 164.1C467.881 164.42 468.501 164.58 469.168 164.58C469.848 164.58 470.468 164.42 471.028 164.1C471.601 163.767 472.055 163.293 472.388 162.68C472.721 162.053 472.888 161.32 472.888 160.48ZM478.964 151.2V166H477.144V151.2H478.964ZM492.065 160.1C492.065 160.447 492.045 160.813 492.005 161.2H483.245C483.312 162.28 483.679 163.127 484.345 163.74C485.025 164.34 485.845 164.64 486.805 164.64C487.592 164.64 488.245 164.46 488.765 164.1C489.299 163.727 489.672 163.233 489.885 162.62H491.845C491.552 163.673 490.965 164.533 490.085 165.2C489.205 165.853 488.112 166.18 486.805 166.18C485.765 166.18 484.832 165.947 484.005 165.48C483.192 165.013 482.552 164.353 482.085 163.5C481.619 162.633 481.385 161.633 481.385 160.5C481.385 159.367 481.612 158.373 482.065 157.52C482.519 156.667 483.152 156.013 483.965 155.56C484.792 155.093 485.739 154.86 486.805 154.86C487.845 154.86 488.765 155.087 489.565 155.54C490.365 155.993 490.979 156.62 491.405 157.42C491.845 158.207 492.065 159.1 492.065 160.1ZM490.185 159.72C490.185 159.027 490.032 158.433 489.725 157.94C489.419 157.433 488.999 157.053 488.465 156.8C487.945 156.533 487.365 156.4 486.725 156.4C485.805 156.4 485.019 156.693 484.365 157.28C483.725 157.867 483.359 158.68 483.265 159.72H490.185ZM507.648 154.84C508.501 154.84 509.261 155.02 509.928 155.38C510.594 155.727 511.121 156.253 511.508 156.96C511.894 157.667 512.088 158.527 512.088 159.54V166H510.288V159.8C510.288 158.707 510.014 157.873 509.468 157.3C508.934 156.713 508.208 156.42 507.288 156.42C506.341 156.42 505.588 156.727 505.028 157.34C504.468 157.94 504.188 158.813 504.188 159.96V166H502.388V159.8C502.388 158.707 502.114 157.873 501.568 157.3C501.034 156.713 500.308 156.42 499.388 156.42C498.441 156.42 497.688 156.727 497.128 157.34C496.568 157.94 496.288 158.813 496.288 159.96V166H494.468V155.04H496.288V156.62C496.648 156.047 497.128 155.607 497.728 155.3C498.341 154.993 499.014 154.84 499.748 154.84C500.668 154.84 501.481 155.047 502.188 155.46C502.894 155.873 503.421 156.48 503.768 157.28C504.074 156.507 504.581 155.907 505.288 155.48C505.994 155.053 506.781 154.84 507.648 154.84ZM519.725 160.48C519.725 159.36 519.952 158.38 520.405 157.54C520.859 156.687 521.479 156.027 522.265 155.56C523.065 155.093 523.952 154.86 524.925 154.86C525.885 154.86 526.719 155.067 527.425 155.48C528.132 155.893 528.659 156.413 529.005 157.04V155.04H530.845V166H529.005V163.96C528.645 164.6 528.105 165.133 527.385 165.56C526.679 165.973 525.852 166.18 524.905 166.18C523.932 166.18 523.052 165.94 522.265 165.46C521.479 164.98 520.859 164.307 520.405 163.44C519.952 162.573 519.725 161.587 519.725 160.48ZM529.005 160.5C529.005 159.673 528.839 158.953 528.505 158.34C528.172 157.727 527.719 157.26 527.145 156.94C526.585 156.607 525.965 156.44 525.285 156.44C524.605 156.44 523.985 156.6 523.425 156.92C522.865 157.24 522.419 157.707 522.085 158.32C521.752 158.933 521.585 159.653 521.585 160.48C521.585 161.32 521.752 162.053 522.085 162.68C522.419 163.293 522.865 163.767 523.425 164.1C523.985 164.42 524.605 164.58 525.285 164.58C525.965 164.58 526.585 164.42 527.145 164.1C527.719 163.767 528.172 163.293 528.505 162.68C528.839 162.053 529.005 161.327 529.005 160.5ZM539.261 154.84C540.594 154.84 541.674 155.247 542.501 156.06C543.328 156.86 543.741 158.02 543.741 159.54V166H541.941V159.8C541.941 158.707 541.668 157.873 541.121 157.3C540.574 156.713 539.828 156.42 538.881 156.42C537.921 156.42 537.154 156.72 536.581 157.32C536.021 157.92 535.741 158.793 535.741 159.94V166H533.921V155.04H535.741V156.6C536.101 156.04 536.588 155.607 537.201 155.3C537.828 154.993 538.514 154.84 539.261 154.84ZM546.034 160.48C546.034 159.36 546.26 158.38 546.714 157.54C547.167 156.687 547.787 156.027 548.574 155.56C549.374 155.093 550.267 154.86 551.254 154.86C552.107 154.86 552.9 155.06 553.634 155.46C554.367 155.847 554.927 156.36 555.314 157V151.2H557.154V166H555.314V163.94C554.954 164.593 554.42 165.133 553.714 165.56C553.007 165.973 552.18 166.18 551.234 166.18C550.26 166.18 549.374 165.94 548.574 165.46C547.787 164.98 547.167 164.307 546.714 163.44C546.26 162.573 546.034 161.587 546.034 160.48ZM555.314 160.5C555.314 159.673 555.147 158.953 554.814 158.34C554.48 157.727 554.027 157.26 553.454 156.94C552.894 156.607 552.274 156.44 551.594 156.44C550.914 156.44 550.294 156.6 549.734 156.92C549.174 157.24 548.727 157.707 548.394 158.32C548.06 158.933 547.894 159.653 547.894 160.48C547.894 161.32 548.06 162.053 548.394 162.68C548.727 163.293 549.174 163.767 549.734 164.1C550.294 164.42 550.914 164.58 551.594 164.58C552.274 164.58 552.894 164.42 553.454 164.1C554.027 163.767 554.48 163.293 554.814 162.68C555.147 162.053 555.314 161.327 555.314 160.5ZM580.161 155.04L576.741 166H574.861L572.221 157.3L569.581 166H567.701L564.261 155.04H566.121L568.641 164.24L571.361 155.04H573.221L575.881 164.26L578.361 155.04H580.161ZM591.968 160.1C591.968 160.447 591.948 160.813 591.908 161.2H583.148C583.214 162.28 583.581 163.127 584.248 163.74C584.928 164.34 585.748 164.64 586.708 164.64C587.494 164.64 588.148 164.46 588.668 164.1C589.201 163.727 589.574 163.233 589.788 162.62H591.748C591.454 163.673 590.868 164.533 589.988 165.2C589.108 165.853 588.014 166.18 586.708 166.18C585.668 166.18 584.734 165.947 583.908 165.48C583.094 165.013 582.454 164.353 581.988 163.5C581.521 162.633 581.288 161.633 581.288 160.5C581.288 159.367 581.514 158.373 581.968 157.52C582.421 156.667 583.054 156.013 583.868 155.56C584.694 155.093 585.641 154.86 586.708 154.86C587.748 154.86 588.668 155.087 589.468 155.54C590.268 155.993 590.881 156.62 591.308 157.42C591.748 158.207 591.968 159.1 591.968 160.1ZM590.088 159.72C590.088 159.027 589.934 158.433 589.628 157.94C589.321 157.433 588.901 157.053 588.368 156.8C587.848 156.533 587.268 156.4 586.628 156.4C585.708 156.4 584.921 156.693 584.268 157.28C583.628 157.867 583.261 158.68 583.168 159.72H590.088ZM604.222 154.86C605.169 154.86 605.995 155.067 606.702 155.48C607.422 155.893 607.955 156.413 608.302 157.04V155.04H610.142V166.24C610.142 167.24 609.929 168.127 609.502 168.9C609.075 169.687 608.462 170.3 607.662 170.74C606.875 171.18 605.955 171.4 604.902 171.4C603.462 171.4 602.262 171.06 601.302 170.38C600.342 169.7 599.775 168.773 599.602 167.6H601.402C601.602 168.267 602.015 168.8 602.642 169.2C603.269 169.613 604.022 169.82 604.902 169.82C605.902 169.82 606.715 169.507 607.342 168.88C607.982 168.253 608.302 167.373 608.302 166.24V163.94C607.942 164.58 607.409 165.113 606.702 165.54C605.995 165.967 605.169 166.18 604.222 166.18C603.249 166.18 602.362 165.94 601.562 165.46C600.775 164.98 600.155 164.307 599.702 163.44C599.249 162.573 599.022 161.587 599.022 160.48C599.022 159.36 599.249 158.38 599.702 157.54C600.155 156.687 600.775 156.027 601.562 155.56C602.362 155.093 603.249 154.86 604.222 154.86ZM608.302 160.5C608.302 159.673 608.135 158.953 607.802 158.34C607.469 157.727 607.015 157.26 606.442 156.94C605.882 156.607 605.262 156.44 604.582 156.44C603.902 156.44 603.282 156.6 602.722 156.92C602.162 157.24 601.715 157.707 601.382 158.32C601.049 158.933 600.882 159.653 600.882 160.48C600.882 161.32 601.049 162.053 601.382 162.68C601.715 163.293 602.162 163.767 602.722 164.1C603.282 164.42 603.902 164.58 604.582 164.58C605.262 164.58 605.882 164.42 606.442 164.1C607.015 163.767 607.469 163.293 607.802 162.68C608.135 162.053 608.302 161.327 608.302 160.5ZM623.218 160.1C623.218 160.447 623.198 160.813 623.158 161.2H614.398C614.464 162.28 614.831 163.127 615.498 163.74C616.178 164.34 616.998 164.64 617.958 164.64C618.744 164.64 619.398 164.46 619.918 164.1C620.451 163.727 620.824 163.233 621.038 162.62H622.998C622.704 163.673 622.118 164.533 621.238 165.2C620.358 165.853 619.264 166.18 617.958 166.18C616.918 166.18 615.984 165.947 615.158 165.48C614.344 165.013 613.704 164.353 613.238 163.5C612.771 162.633 612.538 161.633 612.538 160.5C612.538 159.367 612.764 158.373 613.218 157.52C613.671 156.667 614.304 156.013 615.118 155.56C615.944 155.093 616.891 154.86 617.958 154.86C618.998 154.86 619.918 155.087 620.718 155.54C621.518 155.993 622.131 156.62 622.558 157.42C622.998 158.207 623.218 159.1 623.218 160.1ZM621.338 159.72C621.338 159.027 621.184 158.433 620.878 157.94C620.571 157.433 620.151 157.053 619.618 156.8C619.098 156.533 618.518 156.4 617.878 156.4C616.958 156.4 616.171 156.693 615.518 157.28C614.878 157.867 614.511 158.68 614.418 159.72H621.338ZM627.84 156.54V163C627.84 163.533 627.953 163.913 628.18 164.14C628.407 164.353 628.8 164.46 629.36 164.46H630.7V166H629.06C628.047 166 627.287 165.767 626.78 165.3C626.273 164.833 626.02 164.067 626.02 163V156.54H624.6V155.04H626.02V152.28H627.84V155.04H630.7V156.54H627.84ZM640.457 156.54V163C640.457 163.533 640.571 163.913 640.797 164.14C641.024 164.353 641.417 164.46 641.977 164.46H643.317V166H641.677C640.664 166 639.904 165.767 639.397 165.3C638.891 164.833 638.637 164.067 638.637 163V156.54H637.217V155.04H638.637V152.28H640.457V155.04H643.317V156.54H640.457ZM650.962 154.84C651.789 154.84 652.536 155.02 653.202 155.38C653.869 155.727 654.389 156.253 654.762 156.96C655.149 157.667 655.342 158.527 655.342 159.54V166H653.542V159.8C653.542 158.707 653.269 157.873 652.722 157.3C652.176 156.713 651.429 156.42 650.482 156.42C649.522 156.42 648.756 156.72 648.182 157.32C647.622 157.92 647.342 158.793 647.342 159.94V166H645.522V151.2H647.342V156.6C647.702 156.04 648.196 155.607 648.822 155.3C649.462 154.993 650.176 154.84 650.962 154.84ZM668.315 160.1C668.315 160.447 668.295 160.813 668.255 161.2H659.495C659.562 162.28 659.929 163.127 660.595 163.74C661.275 164.34 662.095 164.64 663.055 164.64C663.842 164.64 664.495 164.46 665.015 164.1C665.549 163.727 665.922 163.233 666.135 162.62H668.095C667.802 163.673 667.215 164.533 666.335 165.2C665.455 165.853 664.362 166.18 663.055 166.18C662.015 166.18 661.082 165.947 660.255 165.48C659.442 165.013 658.802 164.353 658.335 163.5C657.869 162.633 657.635 161.633 657.635 160.5C657.635 159.367 657.862 158.373 658.315 157.52C658.769 156.667 659.402 156.013 660.215 155.56C661.042 155.093 661.989 154.86 663.055 154.86C664.095 154.86 665.015 155.087 665.815 155.54C666.615 155.993 667.229 156.62 667.655 157.42C668.095 158.207 668.315 159.1 668.315 160.1ZM666.435 159.72C666.435 159.027 666.282 158.433 665.975 157.94C665.669 157.433 665.249 157.053 664.715 156.8C664.195 156.533 663.615 156.4 662.975 156.4C662.055 156.4 661.269 156.693 660.615 157.28C659.975 157.867 659.609 158.68 659.515 159.72H666.435ZM677.87 157.08C678.243 156.427 678.79 155.893 679.51 155.48C680.23 155.067 681.05 154.86 681.97 154.86C682.956 154.86 683.843 155.093 684.63 155.56C685.416 156.027 686.036 156.687 686.49 157.54C686.943 158.38 687.17 159.36 687.17 160.48C687.17 161.587 686.943 162.573 686.49 163.44C686.036 164.307 685.41 164.98 684.61 165.46C683.823 165.94 682.943 166.18 681.97 166.18C681.023 166.18 680.19 165.973 679.47 165.56C678.763 165.147 678.23 164.62 677.87 163.98V166H676.05V151.2H677.87V157.08ZM685.31 160.48C685.31 159.653 685.143 158.933 684.81 158.32C684.476 157.707 684.023 157.24 683.45 156.92C682.89 156.6 682.27 156.44 681.59 156.44C680.923 156.44 680.303 156.607 679.73 156.94C679.17 157.26 678.716 157.733 678.37 158.36C678.036 158.973 677.87 159.687 677.87 160.5C677.87 161.327 678.036 162.053 678.37 162.68C678.716 163.293 679.17 163.767 679.73 164.1C680.303 164.42 680.923 164.58 681.59 164.58C682.27 164.58 682.89 164.42 683.45 164.1C684.023 163.767 684.476 163.293 684.81 162.68C685.143 162.053 685.31 161.32 685.31 160.48ZM699.565 160.1C699.565 160.447 699.545 160.813 699.505 161.2H690.745C690.812 162.28 691.179 163.127 691.845 163.74C692.525 164.34 693.345 164.64 694.305 164.64C695.092 164.64 695.745 164.46 696.265 164.1C696.799 163.727 697.172 163.233 697.385 162.62H699.345C699.052 163.673 698.465 164.533 697.585 165.2C696.705 165.853 695.612 166.18 694.305 166.18C693.265 166.18 692.332 165.947 691.505 165.48C690.692 165.013 690.052 164.353 689.585 163.5C689.119 162.633 688.885 161.633 688.885 160.5C688.885 159.367 689.112 158.373 689.565 157.52C690.019 156.667 690.652 156.013 691.465 155.56C692.292 155.093 693.239 154.86 694.305 154.86C695.345 154.86 696.265 155.087 697.065 155.54C697.865 155.993 698.479 156.62 698.905 157.42C699.345 158.207 699.565 159.1 699.565 160.1ZM697.685 159.72C697.685 159.027 697.532 158.433 697.225 157.94C696.919 157.433 696.499 157.053 695.965 156.8C695.445 156.533 694.865 156.4 694.225 156.4C693.305 156.4 692.519 156.693 691.865 157.28C691.225 157.867 690.859 158.68 690.765 159.72H697.685ZM705.848 166.18C705.008 166.18 704.254 166.04 703.588 165.76C702.921 165.467 702.394 165.067 702.008 164.56C701.621 164.04 701.408 163.447 701.368 162.78H703.248C703.301 163.327 703.554 163.773 704.008 164.12C704.474 164.467 705.081 164.64 705.828 164.64C706.521 164.64 707.068 164.487 707.468 164.18C707.868 163.873 708.068 163.487 708.068 163.02C708.068 162.54 707.854 162.187 707.428 161.96C707.001 161.72 706.341 161.487 705.448 161.26C704.634 161.047 703.968 160.833 703.448 160.62C702.941 160.393 702.501 160.067 702.128 159.64C701.768 159.2 701.588 158.627 701.588 157.92C701.588 157.36 701.754 156.847 702.088 156.38C702.421 155.913 702.894 155.547 703.508 155.28C704.121 155 704.821 154.86 705.608 154.86C706.821 154.86 707.801 155.167 708.548 155.78C709.294 156.393 709.694 157.233 709.748 158.3H707.928C707.888 157.727 707.654 157.267 707.228 156.92C706.814 156.573 706.254 156.4 705.548 156.4C704.894 156.4 704.374 156.54 703.988 156.82C703.601 157.1 703.408 157.467 703.408 157.92C703.408 158.28 703.521 158.58 703.748 158.82C703.988 159.047 704.281 159.233 704.628 159.38C704.988 159.513 705.481 159.667 706.108 159.84C706.894 160.053 707.534 160.267 708.028 160.48C708.521 160.68 708.941 160.987 709.288 161.4C709.648 161.813 709.834 162.353 709.848 163.02C709.848 163.62 709.681 164.16 709.348 164.64C709.014 165.12 708.541 165.5 707.928 165.78C707.328 166.047 706.634 166.18 705.848 166.18ZM714.637 156.54V163C714.637 163.533 714.75 163.913 714.977 164.14C715.204 164.353 715.597 164.46 716.157 164.46H717.497V166H715.857C714.844 166 714.084 165.767 713.577 165.3C713.07 164.833 712.817 164.067 712.817 163V156.54H711.397V155.04H712.817V152.28H714.637V155.04H717.497V156.54H714.637ZM728.914 166.18C728.074 166.18 727.321 166.04 726.654 165.76C725.987 165.467 725.461 165.067 725.074 164.56C724.687 164.04 724.474 163.447 724.434 162.78H726.314C726.367 163.327 726.621 163.773 727.074 164.12C727.541 164.467 728.147 164.64 728.894 164.64C729.587 164.64 730.134 164.487 730.534 164.18C730.934 163.873 731.134 163.487 731.134 163.02C731.134 162.54 730.921 162.187 730.494 161.96C730.067 161.72 729.407 161.487 728.514 161.26C727.701 161.047 727.034 160.833 726.514 160.62C726.007 160.393 725.567 160.067 725.194 159.64C724.834 159.2 724.654 158.627 724.654 157.92C724.654 157.36 724.821 156.847 725.154 156.38C725.487 155.913 725.961 155.547 726.574 155.28C727.187 155 727.887 154.86 728.674 154.86C729.887 154.86 730.867 155.167 731.614 155.78C732.361 156.393 732.761 157.233 732.814 158.3H730.994C730.954 157.727 730.721 157.267 730.294 156.92C729.881 156.573 729.321 156.4 728.614 156.4C727.961 156.4 727.441 156.54 727.054 156.82C726.667 157.1 726.474 157.467 726.474 157.92C726.474 158.28 726.587 158.58 726.814 158.82C727.054 159.047 727.347 159.233 727.694 159.38C728.054 159.513 728.547 159.667 729.174 159.84C729.961 160.053 730.601 160.267 731.094 160.48C731.587 160.68 732.007 160.987 732.354 161.4C732.714 161.813 732.901 162.353 732.914 163.02C732.914 163.62 732.747 164.16 732.414 164.64C732.081 165.12 731.607 165.5 730.994 165.78C730.394 166.047 729.701 166.18 728.914 166.18ZM740.263 166.18C739.237 166.18 738.303 165.947 737.463 165.48C736.637 165.013 735.983 164.353 735.503 163.5C735.037 162.633 734.803 161.633 734.803 160.5C734.803 159.38 735.043 158.393 735.523 157.54C736.017 156.673 736.683 156.013 737.523 155.56C738.363 155.093 739.303 154.86 740.343 154.86C741.383 154.86 742.323 155.093 743.163 155.56C744.003 156.013 744.663 156.667 745.143 157.52C745.637 158.373 745.883 159.367 745.883 160.5C745.883 161.633 745.63 162.633 745.123 163.5C744.63 164.353 743.957 165.013 743.103 165.48C742.25 165.947 741.303 166.18 740.263 166.18ZM740.263 164.58C740.917 164.58 741.53 164.427 742.103 164.12C742.677 163.813 743.137 163.353 743.483 162.74C743.843 162.127 744.023 161.38 744.023 160.5C744.023 159.62 743.85 158.873 743.503 158.26C743.157 157.647 742.703 157.193 742.143 156.9C741.583 156.593 740.977 156.44 740.323 156.44C739.657 156.44 739.043 156.593 738.483 156.9C737.937 157.193 737.497 157.647 737.163 158.26C736.83 158.873 736.663 159.62 736.663 160.5C736.663 161.393 736.823 162.147 737.143 162.76C737.477 163.373 737.917 163.833 738.463 164.14C739.01 164.433 739.61 164.58 740.263 164.58ZM750.096 151.2V166H748.276V151.2H750.096ZM762.918 155.04V166H761.098V164.38C760.752 164.94 760.265 165.38 759.638 165.7C759.025 166.007 758.345 166.16 757.598 166.16C756.745 166.16 755.978 165.987 755.298 165.64C754.618 165.28 754.078 164.747 753.678 164.04C753.292 163.333 753.098 162.473 753.098 161.46V155.04H754.898V161.22C754.898 162.3 755.172 163.133 755.718 163.72C756.265 164.293 757.012 164.58 757.958 164.58C758.932 164.58 759.698 164.28 760.258 163.68C760.818 163.08 761.098 162.207 761.098 161.06V155.04H762.918ZM768.211 156.54V163C768.211 163.533 768.325 163.913 768.551 164.14C768.778 164.353 769.171 164.46 769.731 164.46H771.071V166H769.431C768.418 166 767.658 165.767 767.151 165.3C766.645 164.833 766.391 164.067 766.391 163V156.54H764.971V155.04H766.391V152.28H768.211V155.04H771.071V156.54H768.211ZM774.216 153.26C773.87 153.26 773.576 153.14 773.336 152.9C773.096 152.66 772.976 152.367 772.976 152.02C772.976 151.673 773.096 151.38 773.336 151.14C773.576 150.9 773.87 150.78 774.216 150.78C774.55 150.78 774.83 150.9 775.056 151.14C775.296 151.38 775.416 151.673 775.416 152.02C775.416 152.367 775.296 152.66 775.056 152.9C774.83 153.14 774.55 153.26 774.216 153.26ZM775.096 155.04V166H773.276V155.04H775.096ZM782.978 166.18C781.952 166.18 781.018 165.947 780.178 165.48C779.352 165.013 778.698 164.353 778.218 163.5C777.752 162.633 777.518 161.633 777.518 160.5C777.518 159.38 777.758 158.393 778.238 157.54C778.732 156.673 779.398 156.013 780.238 155.56C781.078 155.093 782.018 154.86 783.058 154.86C784.098 154.86 785.038 155.093 785.878 155.56C786.718 156.013 787.378 156.667 787.858 157.52C788.352 158.373 788.598 159.367 788.598 160.5C788.598 161.633 788.345 162.633 787.838 163.5C787.345 164.353 786.672 165.013 785.818 165.48C784.965 165.947 784.018 166.18 782.978 166.18ZM782.978 164.58C783.632 164.58 784.245 164.427 784.818 164.12C785.392 163.813 785.852 163.353 786.198 162.74C786.558 162.127 786.738 161.38 786.738 160.5C786.738 159.62 786.565 158.873 786.218 158.26C785.872 157.647 785.418 157.193 784.858 156.9C784.298 156.593 783.692 156.44 783.038 156.44C782.372 156.44 781.758 156.593 781.198 156.9C780.652 157.193 780.212 157.647 779.878 158.26C779.545 158.873 779.378 159.62 779.378 160.5C779.378 161.393 779.538 162.147 779.858 162.76C780.192 163.373 780.632 163.833 781.178 164.14C781.725 164.433 782.325 164.58 782.978 164.58ZM796.331 154.84C797.665 154.84 798.745 155.247 799.571 156.06C800.398 156.86 800.811 158.02 800.811 159.54V166H799.011V159.8C799.011 158.707 798.738 157.873 798.191 157.3C797.645 156.713 796.898 156.42 795.951 156.42C794.991 156.42 794.225 156.72 793.651 157.32C793.091 157.92 792.811 158.793 792.811 159.94V166H790.991V155.04H792.811V156.6C793.171 156.04 793.658 155.607 794.271 155.3C794.898 154.993 795.585 154.84 796.331 154.84ZM813.576 156.54H811.276V166H809.456V156.54H808.036V155.04H809.456V154.26C809.456 153.033 809.77 152.14 810.396 151.58C811.036 151.007 812.056 150.72 813.456 150.72V152.24C812.656 152.24 812.09 152.4 811.756 152.72C811.436 153.027 811.276 153.54 811.276 154.26V155.04H813.576V156.54ZM817.518 156.82C817.838 156.193 818.292 155.707 818.878 155.36C819.478 155.013 820.205 154.84 821.058 154.84V156.72H820.578C818.538 156.72 817.518 157.827 817.518 160.04V166H815.698V155.04H817.518V156.82ZM827.939 166.18C826.912 166.18 825.979 165.947 825.139 165.48C824.312 165.013 823.659 164.353 823.179 163.5C822.712 162.633 822.479 161.633 822.479 160.5C822.479 159.38 822.719 158.393 823.199 157.54C823.692 156.673 824.359 156.013 825.199 155.56C826.039 155.093 826.979 154.86 828.019 154.86C829.059 154.86 829.999 155.093 830.839 155.56C831.679 156.013 832.339 156.667 832.819 157.52C833.312 158.373 833.559 159.367 833.559 160.5C833.559 161.633 833.306 162.633 832.799 163.5C832.306 164.353 831.632 165.013 830.779 165.48C829.926 165.947 828.979 166.18 827.939 166.18ZM827.939 164.58C828.592 164.58 829.206 164.427 829.779 164.12C830.352 163.813 830.812 163.353 831.159 162.74C831.519 162.127 831.699 161.38 831.699 160.5C831.699 159.62 831.526 158.873 831.179 158.26C830.832 157.647 830.379 157.193 829.819 156.9C829.259 156.593 828.652 156.44 827.999 156.44C827.332 156.44 826.719 156.593 826.159 156.9C825.612 157.193 825.172 157.647 824.839 158.26C824.506 158.873 824.339 159.62 824.339 160.5C824.339 161.393 824.499 162.147 824.819 162.76C825.152 163.373 825.592 163.833 826.139 164.14C826.686 164.433 827.286 164.58 827.939 164.58ZM849.132 154.84C849.985 154.84 850.745 155.02 851.412 155.38C852.079 155.727 852.605 156.253 852.992 156.96C853.379 157.667 853.572 158.527 853.572 159.54V166H851.772V159.8C851.772 158.707 851.499 157.873 850.952 157.3C850.419 156.713 849.692 156.42 848.772 156.42C847.825 156.42 847.072 156.727 846.512 157.34C845.952 157.94 845.672 158.813 845.672 159.96V166H843.872V159.8C843.872 158.707 843.599 157.873 843.052 157.3C842.519 156.713 841.792 156.42 840.872 156.42C839.925 156.42 839.172 156.727 838.612 157.34C838.052 157.94 837.772 158.813 837.772 159.96V166H835.952V155.04H837.772V156.62C838.132 156.047 838.612 155.607 839.212 155.3C839.825 154.993 840.499 154.84 841.232 154.84C842.152 154.84 842.965 155.047 843.672 155.46C844.379 155.873 844.905 156.48 845.252 157.28C845.559 156.507 846.065 155.907 846.772 155.48C847.479 155.053 848.265 154.84 849.132 154.84ZM866.67 166.18C865.643 166.18 864.71 165.947 863.87 165.48C863.043 165.013 862.39 164.353 861.91 163.5C861.443 162.633 861.21 161.633 861.21 160.5C861.21 159.38 861.45 158.393 861.93 157.54C862.423 156.673 863.09 156.013 863.93 155.56C864.77 155.093 865.71 154.86 866.75 154.86C867.79 154.86 868.73 155.093 869.57 155.56C870.41 156.013 871.07 156.667 871.55 157.52C872.043 158.373 872.29 159.367 872.29 160.5C872.29 161.633 872.036 162.633 871.53 163.5C871.036 164.353 870.363 165.013 869.51 165.48C868.656 165.947 867.71 166.18 866.67 166.18ZM866.67 164.58C867.323 164.58 867.936 164.427 868.51 164.12C869.083 163.813 869.543 163.353 869.89 162.74C870.25 162.127 870.43 161.38 870.43 160.5C870.43 159.62 870.256 158.873 869.91 158.26C869.563 157.647 869.11 157.193 868.55 156.9C867.99 156.593 867.383 156.44 866.73 156.44C866.063 156.44 865.45 156.593 864.89 156.9C864.343 157.193 863.903 157.647 863.57 158.26C863.236 158.873 863.07 159.62 863.07 160.5C863.07 161.393 863.23 162.147 863.55 162.76C863.883 163.373 864.323 163.833 864.87 164.14C865.416 164.433 866.016 164.58 866.67 164.58ZM884.403 155.04V166H882.583V164.38C882.236 164.94 881.749 165.38 881.123 165.7C880.509 166.007 879.829 166.16 879.083 166.16C878.229 166.16 877.463 165.987 876.783 165.64C876.103 165.28 875.563 164.747 875.163 164.04C874.776 163.333 874.583 162.473 874.583 161.46V155.04H876.383V161.22C876.383 162.3 876.656 163.133 877.203 163.72C877.749 164.293 878.496 164.58 879.443 164.58C880.416 164.58 881.183 164.28 881.743 163.68C882.303 163.08 882.583 162.207 882.583 161.06V155.04H884.403ZM889.296 156.82C889.616 156.193 890.069 155.707 890.656 155.36C891.256 155.013 891.982 154.84 892.836 154.84V156.72H892.356C890.316 156.72 889.296 157.827 889.296 160.04V166H887.476V155.04H889.296V156.82ZM902.489 156.54V163C902.489 163.533 902.602 163.913 902.829 164.14C903.055 164.353 903.449 164.46 904.009 164.46H905.349V166H903.709C902.695 166 901.935 165.767 901.429 165.3C900.922 164.833 900.669 164.067 900.669 163V156.54H899.249V155.04H900.669V152.28H902.489V155.04H905.349V156.54H902.489ZM917.554 160.1C917.554 160.447 917.534 160.813 917.494 161.2H908.734C908.8 162.28 909.167 163.127 909.834 163.74C910.514 164.34 911.334 164.64 912.294 164.64C913.08 164.64 913.734 164.46 914.254 164.1C914.787 163.727 915.16 163.233 915.374 162.62H917.334C917.04 163.673 916.454 164.533 915.574 165.2C914.694 165.853 913.6 166.18 912.294 166.18C911.254 166.18 910.32 165.947 909.494 165.48C908.68 165.013 908.04 164.353 907.574 163.5C907.107 162.633 906.874 161.633 906.874 160.5C906.874 159.367 907.1 158.373 907.554 157.52C908.007 156.667 908.64 156.013 909.454 155.56C910.28 155.093 911.227 154.86 912.294 154.86C913.334 154.86 914.254 155.087 915.054 155.54C915.854 155.993 916.467 156.62 916.894 157.42C917.334 158.207 917.554 159.1 917.554 160.1ZM915.674 159.72C915.674 159.027 915.52 158.433 915.214 157.94C914.907 157.433 914.487 157.053 913.954 156.8C913.434 156.533 912.854 156.4 912.214 156.4C911.294 156.4 910.507 156.693 909.854 157.28C909.214 157.867 908.847 158.68 908.754 159.72H915.674ZM919.276 160.48C919.276 159.36 919.503 158.38 919.956 157.54C920.409 156.687 921.029 156.027 921.816 155.56C922.616 155.093 923.503 154.86 924.476 154.86C925.436 154.86 926.269 155.067 926.976 155.48C927.683 155.893 928.209 156.413 928.556 157.04V155.04H930.396V166H928.556V163.96C928.196 164.6 927.656 165.133 926.936 165.56C926.229 165.973 925.403 166.18 924.456 166.18C923.483 166.18 922.603 165.94 921.816 165.46C921.029 164.98 920.409 164.307 919.956 163.44C919.503 162.573 919.276 161.587 919.276 160.48ZM928.556 160.5C928.556 159.673 928.389 158.953 928.056 158.34C927.723 157.727 927.269 157.26 926.696 156.94C926.136 156.607 925.516 156.44 924.836 156.44C924.156 156.44 923.536 156.6 922.976 156.92C922.416 157.24 921.969 157.707 921.636 158.32C921.303 158.933 921.136 159.653 921.136 160.48C921.136 161.32 921.303 162.053 921.636 162.68C921.969 163.293 922.416 163.767 922.976 164.1C923.536 164.42 924.156 164.58 924.836 164.58C925.516 164.58 926.136 164.42 926.696 164.1C927.269 163.767 927.723 163.293 928.056 162.68C928.389 162.053 928.556 161.327 928.556 160.5ZM946.652 154.84C947.505 154.84 948.265 155.02 948.932 155.38C949.598 155.727 950.125 156.253 950.512 156.96C950.898 157.667 951.092 158.527 951.092 159.54V166H949.292V159.8C949.292 158.707 949.018 157.873 948.472 157.3C947.938 156.713 947.212 156.42 946.292 156.42C945.345 156.42 944.592 156.727 944.032 157.34C943.472 157.94 943.192 158.813 943.192 159.96V166H941.392V159.8C941.392 158.707 941.118 157.873 940.572 157.3C940.038 156.713 939.312 156.42 938.392 156.42C937.445 156.42 936.692 156.727 936.132 157.34C935.572 157.94 935.292 158.813 935.292 159.96V166H933.472V155.04H935.292V156.62C935.652 156.047 936.132 155.607 936.732 155.3C937.345 154.993 938.018 154.84 938.752 154.84C939.672 154.84 940.485 155.047 941.192 155.46C941.898 155.873 942.425 156.48 942.772 157.28C943.078 156.507 943.585 155.907 944.292 155.48C944.998 155.053 945.785 154.84 946.652 154.84Z" fill="white"/>
<g filter="url(#filter0_d_563_1544)">
<rect x="519" y="224" width="166" height="56" rx="8" fill="#1B163A"/>
<path d="M559.88 250.192C559.624 249.723 559.272 249.365 558.824 249.12C558.376 248.875 557.853 248.752 557.256 248.752C556.595 248.752 556.008 248.901 555.496 249.2C554.984 249.499 554.584 249.925 554.296 250.48C554.008 251.035 553.864 251.675 553.864 252.4C553.864 253.147 554.008 253.797 554.296 254.352C554.595 254.907 555.005 255.333 555.528 255.632C556.051 255.931 556.659 256.08 557.352 256.08C558.205 256.08 558.904 255.856 559.448 255.408C559.992 254.949 560.349 254.315 560.52 253.504H556.68V251.792H562.728V253.744C562.579 254.523 562.259 255.243 561.768 255.904C561.277 256.565 560.643 257.099 559.864 257.504C559.096 257.899 558.232 258.096 557.272 258.096C556.195 258.096 555.219 257.856 554.344 257.376C553.48 256.885 552.797 256.208 552.296 255.344C551.805 254.48 551.56 253.499 551.56 252.4C551.56 251.301 551.805 250.32 552.296 249.456C552.797 248.581 553.48 247.904 554.344 247.424C555.219 246.933 556.189 246.688 557.256 246.688C558.515 246.688 559.608 246.997 560.536 247.616C561.464 248.224 562.104 249.083 562.456 250.192H559.88ZM572.625 253.376C572.625 253.696 572.604 253.984 572.561 254.24H566.081C566.135 254.88 566.359 255.381 566.753 255.744C567.148 256.107 567.633 256.288 568.209 256.288C569.041 256.288 569.633 255.931 569.985 255.216H572.401C572.145 256.069 571.655 256.773 570.929 257.328C570.204 257.872 569.313 258.144 568.257 258.144C567.404 258.144 566.636 257.957 565.953 257.584C565.281 257.2 564.753 256.661 564.369 255.968C563.996 255.275 563.809 254.475 563.809 253.568C563.809 252.651 563.996 251.845 564.369 251.152C564.743 250.459 565.265 249.925 565.937 249.552C566.609 249.179 567.383 248.992 568.257 248.992C569.1 248.992 569.852 249.173 570.513 249.536C571.185 249.899 571.703 250.416 572.065 251.088C572.439 251.749 572.625 252.512 572.625 253.376ZM570.305 252.736C570.295 252.16 570.087 251.701 569.681 251.36C569.276 251.008 568.78 250.832 568.193 250.832C567.639 250.832 567.169 251.003 566.785 251.344C566.412 251.675 566.183 252.139 566.097 252.736H570.305ZM576.868 250.976V255.264C576.868 255.563 576.938 255.781 577.076 255.92C577.226 256.048 577.471 256.112 577.812 256.112H578.852V258H577.444C575.556 258 574.612 257.083 574.612 255.248V250.976H573.556V249.136H574.612V246.944H576.868V249.136H578.852V250.976H576.868ZM586.516 246.832V258H584.276V246.832H586.516ZM593.641 249.008C594.697 249.008 595.55 249.344 596.201 250.016C596.852 250.677 597.177 251.605 597.177 252.8V258H594.937V253.104C594.937 252.4 594.761 251.861 594.409 251.488C594.057 251.104 593.577 250.912 592.969 250.912C592.35 250.912 591.86 251.104 591.497 251.488C591.145 251.861 590.969 252.4 590.969 253.104V258H588.729V249.136H590.969V250.24C591.268 249.856 591.646 249.557 592.105 249.344C592.574 249.12 593.086 249.008 593.641 249.008ZM610.72 246.832V248.64H607.744V258H605.504V248.64H602.528V246.832H610.72ZM616.29 258.144C615.437 258.144 614.669 257.957 613.986 257.584C613.303 257.2 612.765 256.661 612.37 255.968C611.986 255.275 611.794 254.475 611.794 253.568C611.794 252.661 611.991 251.861 612.386 251.168C612.791 250.475 613.341 249.941 614.034 249.568C614.727 249.184 615.501 248.992 616.354 248.992C617.207 248.992 617.981 249.184 618.674 249.568C619.367 249.941 619.911 250.475 620.306 251.168C620.711 251.861 620.914 252.661 620.914 253.568C620.914 254.475 620.706 255.275 620.29 255.968C619.885 256.661 619.33 257.2 618.626 257.584C617.933 257.957 617.154 258.144 616.29 258.144ZM616.29 256.192C616.695 256.192 617.074 256.096 617.426 255.904C617.789 255.701 618.077 255.403 618.29 255.008C618.503 254.613 618.61 254.133 618.61 253.568C618.61 252.725 618.386 252.08 617.938 251.632C617.501 251.173 616.962 250.944 616.322 250.944C615.682 250.944 615.143 251.173 614.706 251.632C614.279 252.08 614.066 252.725 614.066 253.568C614.066 254.411 614.274 255.061 614.69 255.52C615.117 255.968 615.65 256.192 616.29 256.192ZM630.925 249.136V258H628.669V256.88C628.381 257.264 628.002 257.568 627.533 257.792C627.074 258.005 626.573 258.112 626.029 258.112C625.336 258.112 624.722 257.968 624.189 257.68C623.656 257.381 623.234 256.949 622.925 256.384C622.626 255.808 622.477 255.125 622.477 254.336V249.136H624.717V254.016C624.717 254.72 624.893 255.264 625.245 255.648C625.597 256.021 626.077 256.208 626.685 256.208C627.304 256.208 627.789 256.021 628.141 255.648C628.493 255.264 628.669 254.72 628.669 254.016V249.136H630.925ZM632.559 253.568C632.559 252.651 632.746 251.851 633.119 251.168C633.493 250.475 634.01 249.941 634.671 249.568C635.333 249.184 636.09 248.992 636.943 248.992C638.042 248.992 638.949 249.269 639.663 249.824C640.389 250.368 640.874 251.136 641.119 252.128H638.703C638.575 251.744 638.357 251.445 638.047 251.232C637.749 251.008 637.375 250.896 636.927 250.896C636.287 250.896 635.781 251.131 635.407 251.6C635.034 252.059 634.847 252.715 634.847 253.568C634.847 254.411 635.034 255.067 635.407 255.536C635.781 255.995 636.287 256.224 636.927 256.224C637.834 256.224 638.426 255.819 638.703 255.008H641.119C640.874 255.968 640.389 256.731 639.663 257.296C638.938 257.861 638.031 258.144 636.943 258.144C636.09 258.144 635.333 257.957 634.671 257.584C634.01 257.2 633.493 256.667 633.119 255.984C632.746 255.291 632.559 254.485 632.559 253.568ZM647.752 249.008C648.424 249.008 649.022 249.157 649.544 249.456C650.067 249.744 650.472 250.176 650.76 250.752C651.059 251.317 651.208 252 651.208 252.8V258H648.968V253.104C648.968 252.4 648.792 251.861 648.44 251.488C648.088 251.104 647.608 250.912 647 250.912C646.382 250.912 645.891 251.104 645.528 251.488C645.176 251.861 645 252.4 645 253.104V258H642.76V246.16H645V250.24C645.288 249.856 645.672 249.557 646.152 249.344C646.632 249.12 647.166 249.008 647.752 249.008Z" fill="white"/>
</g>
<rect x="1020.12" y="-5.87842" width="179.121" height="179.121" fill="white" fill-opacity="0.08"/>
<path d="M1109.72 140.7C1141.28 140.7 1166.86 115.044 1166.86 83.3961C1166.86 51.7479 1141.28 26.0919 1109.72 26.0919C1078.16 26.0919 1052.57 51.7479 1052.57 83.3961C1052.57 115.044 1078.16 140.7 1109.72 140.7Z" fill="white" fill-opacity="0.04"/>
<g clip-path="url(#clip3_563_1544)">
<rect x="1020.83" y="169.612" width="181.542" height="183.962" fill="white" fill-opacity="0.04"/>
<rect x="963.112" y="154.861" width="54.3321" height="363.369" transform="rotate(-45 963.112 154.861)" fill="white" fill-opacity="0.08"/>
<rect width="54.3321" height="363.369" transform="matrix(-0.707107 -0.707107 -0.707107 0.707107 1258.47 154.861)" fill="white" fill-opacity="0.08"/>
</g>
<path d="M930.088 351.582C880.918 351.582 841.069 311.877 841.069 262.882H930.088V351.582Z" fill="white" fill-opacity="0.08"/>
<path d="M930.091 351.369V262.598H1019.11C1019.11 311.632 979.262 351.369 930.091 351.369Z" fill="white" fill-opacity="0.04"/>
<path d="M1019.11 262.527H930.091V173.756C979.262 173.756 1019.11 213.51 1019.11 262.527Z" fill="white" fill-opacity="0.08"/>
</g>
<defs>
<filter id="filter0_d_563_1544" x="517" y="223" width="170" height="60" filterUnits="userSpaceOnUse" color-interpolation-filters="sRGB">
<feFlood flood-opacity="0" result="BackgroundImageFix"/>
<feColorMatrix in="SourceAlpha" type="matrix" values="0 0 0 0 0 0 0 0 0 0 0 0 0 0 0 0 0 0 127 0" result="hardAlpha"/>
<feOffset dy="1"/>
<feGaussianBlur stdDeviation="1"/>
<feComposite in2="hardAlpha" operator="out"/>
<feColorMatrix type="matrix" values="0 0 0 0 0.0627451 0 0 0 0 0.0941176 0 0 0 0 0.156863 0 0 0 0.04 0"/>
<feBlend mode="normal" in2="BackgroundImageFix" result="effect1_dropShadow_563_1544"/>
<feBlend mode="normal" in="SourceGraphic" in2="effect1_dropShadow_563_1544" result="shape"/>
</filter>
<clipPath id="clip0_563_1544">
<rect width="1200" height="349" rx="20" fill="white"/>
</clipPath>
<clipPath id="clip1_563_1544">
<rect width="174.411" height="174.411" fill="white" transform="matrix(-1 0 0 -1 175.588 517.232)"/>
</clipPath>
<clipPath id="clip2_563_1544">
<rect width="174.411" height="174.411" fill="white" transform="matrix(-1 0 0 -1 174.41 168.411)"/>
</clipPath>
<clipPath id="clip3_563_1544">
<rect width="179.121" height="179.121" fill="white" transform="translate(1021.33 173.243)"/>
</clipPath>
</defs>
</svg>
