<svg width="92" height="92" viewBox="0 0 92 92" fill="none" xmlns="http://www.w3.org/2000/svg">
<path d="M73.5625 53.1875L60.0625 27.3125H80.5C82.0879 27.3125 83.375 28.5997 83.375 30.1875V50.3125C83.375 51.9003 82.0879 53.1875 80.5 53.1875H73.5625Z" fill="#3666E4"/>
<path d="M31.4785 39.2145L47.4383 8.625L81.9383 74.75H43.3852C46.7995 70.9352 48.8757 65.8975 48.8757 60.375C48.8757 49.8913 41.3939 41.1551 31.4785 39.2145Z" fill="#00B8B8"/>
<path d="M46 60.375C46 70.6958 37.6333 79.0625 27.3125 79.0625C16.9917 79.0625 8.625 70.6958 8.625 60.375C8.625 50.0542 16.9917 41.6875 27.3125 41.6875C37.6333 41.6875 46 50.0542 46 60.375Z" fill="#FBCB33"/>
</svg>
