<svg width="18" height="15" viewBox="0 0 18 15" fill="none" xmlns="http://www.w3.org/2000/svg">
<path d="M17.2044 14.9351L10.5573 14.7323C9.97328 12.5691 9.71633 10.3379 9.78647 8.03859C9.8578 5.70035 10.5064 3.86731 11.7323 2.53947C12.9975 1.17382 14.8144 0.52712 17.1829 0.599373L17.083 3.8729C15.173 3.81464 14.1816 4.97411 14.1091 7.35131L14.0753 8.46197L17.3988 8.56336L17.2044 14.9351ZM7.52029 14.6396L0.873192 14.4369C0.289148 12.2737 0.0321954 10.0424 0.102335 7.74317C0.173664 5.40494 0.82226 3.57189 2.04812 2.24405C3.31337 0.8784 5.13025 0.231702 7.49876 0.303954L7.3989 3.57748C5.48881 3.51922 4.49751 4.67869 4.42499 7.05589L4.39111 8.16655L7.71466 8.26794L7.52029 14.6396Z" fill="white"/>
</svg>
