<svg width="92" height="92" viewBox="0 0 92 92" fill="none" xmlns="http://www.w3.org/2000/svg">
<path d="M11.5 57.5C11.5 54.3244 14.0744 51.75 17.25 51.75H34.5C37.6756 51.75 40.25 54.3244 40.25 57.5V74.75C40.25 77.9256 37.6756 80.5 34.5 80.5H17.25C14.0744 80.5 11.5 77.9256 11.5 74.75V57.5Z" fill="#FBCB33"/>
<path d="M8.625 23C8.625 19.8244 11.1994 17.25 14.375 17.25H34.5C37.6756 17.25 40.25 19.8244 40.25 23V43.125C40.25 46.3006 37.6756 48.875 34.5 48.875H14.375C11.1994 48.875 8.625 46.3006 8.625 43.125V23Z" fill="#00B8B8"/>
<path d="M43.125 57.5C43.125 54.3244 45.6994 51.75 48.875 51.75H69C72.1756 51.75 74.75 54.3244 74.75 57.5V77.625C74.75 80.8006 72.1756 83.375 69 83.375H48.875C45.6994 83.375 43.125 80.8006 43.125 77.625V57.5Z" fill="#D4417C"/>
<path d="M43.125 14.375C43.125 11.1994 45.6994 8.625 48.875 8.625H77.625C80.8006 8.625 83.375 11.1994 83.375 14.375V43.125C83.375 46.3006 80.8006 48.875 77.625 48.875H48.875C45.6994 48.875 43.125 46.3006 43.125 43.125V14.375Z" fill="#3666E4"/>
</svg>
