<svg width="40" height="300" viewBox="0 0 40 300" fill="none" xmlns="http://www.w3.org/2000/svg">
<rect width="40" height="40" rx="20" fill="#4DB6FB"/>
<path d="M17 29H23M14 17C14 13.6863 16.6863 11 20 11C23.3137 11 26 13.6863 26 17C26 17.8896 25.8064 18.734 25.459 19.4934C24.503 21.5831 23 23.6125 23 25.9106C23 25.96 22.96 26 22.9106 26H17.0894C17.04 26 17 25.96 17 25.9106C17 23.6125 15.497 21.5831 14.541 19.4934C14.1936 18.734 14 17.8896 14 17Z" stroke="white" stroke-width="2" stroke-linecap="round"/>
<circle cx="20" cy="47.5" r="1.5" fill="#4DB6FB"/>
<circle cx="20" cy="62.5" r="1.5" fill="#4DB6FB"/>
<circle cx="20" cy="77.5" r="1.5" fill="#4DB6FB"/>
<circle cx="20" cy="92.5" r="1.5" fill="#4DB6FB"/>
<circle cx="20" cy="107.5" r="1.5" fill="#4DB6FB"/>
<rect y="115" width="40" height="40" rx="20" fill="#4DB6FB"/>
<path fill-rule="evenodd" clip-rule="evenodd" d="M21.1043 127.177L22.9317 130.828C23.1108 131.186 23.4565 131.435 23.8573 131.492L27.9453 132.081C28.9554 132.226 29.3573 133.451 28.6263 134.152L25.6702 136.992C25.3797 137.272 25.2474 137.673 25.3162 138.068L26.0138 142.078C26.1856 143.07 25.1298 143.827 24.227 143.357L20.5732 141.463C20.215 141.277 19.786 141.277 19.4268 141.463L15.773 143.357C14.8702 143.827 13.8144 143.07 13.9872 142.078L14.6838 138.068C14.7526 137.673 14.6203 137.272 14.3298 136.992L11.3737 134.152C10.6427 133.451 11.0446 132.226 12.0547 132.081L16.1427 131.492C16.5435 131.435 16.8903 131.186 17.0694 130.828L18.8957 127.177C19.3477 126.274 20.6523 126.274 21.1043 127.177Z" stroke="white" stroke-width="1.5" stroke-linecap="round" stroke-linejoin="round"/>
<circle cx="20" cy="162.5" r="1.5" fill="#4DB6FB"/>
<circle cx="20" cy="177.5" r="1.5" fill="#4DB6FB"/>
<circle cx="20" cy="192.5" r="1.5" fill="#4DB6FB"/>
<circle cx="20" cy="207.5" r="1.5" fill="#4DB6FB"/>
<circle cx="20" cy="222.5" r="1.5" fill="#4DB6FB"/>
<circle cx="20" cy="237.5" r="1.5" fill="#4DB6FB"/>
<circle cx="20" cy="252.5" r="1.5" fill="#4DB6FB"/>
<rect y="260" width="40" height="40" rx="20" fill="#4DB6FB"/>
<path d="M17.5 281.748C17.5 282.718 18.25 283.498 19.17 283.498H21.05C21.85 283.498 22.5 282.818 22.5 281.968C22.5 281.058 22.1 280.728 21.51 280.518L18.5 279.468C17.91 279.258 17.51 278.938 17.51 278.018C17.51 277.178 18.16 276.488 18.96 276.488H20.84C21.76 276.488 22.51 277.268 22.51 278.238" stroke="white" stroke-width="1.5" stroke-linecap="round" stroke-linejoin="round"/>
<path d="M20 275.5V284.5" stroke="white" stroke-width="1.5" stroke-linecap="round" stroke-linejoin="round"/>
<path d="M30 280C30 285.52 25.52 290 20 290C14.48 290 10 285.52 10 280C10 274.48 14.48 270 20 270" stroke="white" stroke-width="1.5" stroke-linecap="round" stroke-linejoin="round"/>
<path d="M25 271V275H29" stroke="white" stroke-width="1.5" stroke-linecap="round" stroke-linejoin="round"/>
<path d="M30 270L25 275" stroke="white" stroke-width="1.5" stroke-linecap="round" stroke-linejoin="round"/>
</svg>
