<svg width="15" height="12" viewBox="0 0 15 12" fill="none" xmlns="http://www.w3.org/2000/svg">
<path d="M13.3516 2.90625C13.8984 2.49609 14.3906 2.00391 14.7734 1.42969C14.2812 1.64844 13.707 1.8125 13.1328 1.86719C13.7344 1.51172 14.1719 0.964844 14.3906 0.28125C13.8438 0.609375 13.2148 0.855469 12.5859 0.992188C12.0391 0.417969 11.3008 0.0898438 10.4805 0.0898438C8.89453 0.0898438 7.60938 1.375 7.60938 2.96094C7.60938 3.17969 7.63672 3.39844 7.69141 3.61719C5.3125 3.48047 3.17969 2.33203 1.75781 0.609375C1.51172 1.01953 1.375 1.51172 1.375 2.05859C1.375 3.04297 1.86719 3.91797 2.66016 4.4375C2.19531 4.41016 1.73047 4.30078 1.34766 4.08203V4.10938C1.34766 5.50391 2.33203 6.65234 3.64453 6.92578C3.42578 6.98047 3.15234 7.03516 2.90625 7.03516C2.71484 7.03516 2.55078 7.00781 2.35938 6.98047C2.71484 8.12891 3.78125 8.94922 5.03906 8.97656C4.05469 9.74219 2.82422 10.207 1.48438 10.207C1.23828 10.207 1.01953 10.1797 0.800781 10.1523C2.05859 10.9727 3.5625 11.4375 5.20312 11.4375C10.4805 11.4375 13.3516 7.08984 13.3516 3.28906C13.3516 3.15234 13.3516 3.04297 13.3516 2.90625Z" fill="#1DA1F2"/>
</svg>
