<svg width="384" height="513" viewBox="0 0 384 513" fill="none" xmlns="http://www.w3.org/2000/svg">
<mask id="mask0_2373_80354" style="mask-type:alpha" maskUnits="userSpaceOnUse" x="0" y="0" width="384" height="513">
<rect width="384" height="513" fill="#D9D9D9"/>
</mask>
<g mask="url(#mask0_2373_80354)">
<path d="M-823 382.5C-756.5 327.167 -591.5 234.7 -463.5 307.5C-335.5 380.3 -202.167 302.5 -151.5 254.5C-87.1667 205.333 69.4 132 181 232C292.6 332 438.833 186.333 498 101L571.5 134.5" stroke="#47B5FF" stroke-width="2" stroke-linecap="round" stroke-dasharray="9.9 9.9"/>
<rect width="41" height="34.5686" transform="translate(17 165)" fill="#F8F8F8"/>
<path d="M31.75 182.415C36.3347 179.613 43.2965 180.494 43.3628 184.312C43.4395 188.718 37.7202 191.53 32.7324 191.53C26.8216 191.53 22.9412 186.072 26.2583 180.575C29.7598 174.773 37.3313 172.461 42.7818 173.161C48.9535 173.953 53.2837 181.503 46.5857 189.889" stroke="#FBCB33" stroke-width="4.01961" stroke-linecap="round"/>
<rect width="41" height="34.5686" transform="translate(304 232.216)" fill="#F8F8F8"/>
<path d="M318.75 249.631C323.335 246.829 330.296 247.71 330.363 251.527C330.439 255.933 324.72 258.745 319.732 258.745C313.822 258.745 309.941 253.288 313.258 247.791C316.76 241.988 324.331 239.676 329.782 240.376C335.954 241.168 340.284 248.719 333.586 257.104" stroke="#47B5FF" stroke-width="4.01961" stroke-linecap="round"/>
<path d="M142.123 242.172L123.25 217.84L121.486 227.219L101.048 217.392C101.048 217.392 101.804 222.134 100.757 226.933C99.7093 231.731 96.4874 236.184 96.4874 236.184L118.674 240.584L113.963 249.642L142.123 242.172Z" stroke="#FF2B80" stroke-width="1.92587"/>
<path d="M278.63 300.255L252.702 283.643L254.178 293.072L231.63 290.652C231.63 290.652 233.93 294.868 234.549 299.74C235.168 304.612 233.622 309.886 233.622 309.886L256.002 306.607L254.594 316.72L278.63 300.255Z" stroke="#FF2B80" stroke-width="1.92587"/>
<path d="M284.607 157.418C286.907 157.717 287.33 158.959 287.255 159.542L286.559 165.529C286.484 166.17 286.723 166.807 287.201 167.241L294.163 173.557C295.303 174.592 294.896 176.473 293.43 176.943L286.359 179.211C285.654 179.437 285.132 180.034 285.001 180.763L283.497 189.165C283.309 190.216 282.329 190.934 281.271 190.796L280.286 190.668L254.985 187.381L240.609 185.513C233.325 184.566 91.5667 165.97 89.7266 165.731C88.2825 165.544 87.3096 164.686 86.809 164.02C86.5829 163.719 86.5247 163.341 86.5657 162.967C87.6114 153.428 89.7401 135.097 90.3694 133.783C91.0113 132.443 92.3219 132.257 92.8969 132.332C113.598 135.022 282.307 157.12 284.607 157.418Z" fill="white"/>
<path d="M284.607 157.418C286.907 157.717 287.33 158.959 287.255 159.542L286.559 165.529C286.484 166.17 286.723 166.807 287.201 167.241L294.163 173.557C295.303 174.592 294.896 176.473 293.43 176.943L286.359 179.211C285.654 179.437 285.132 180.034 285.001 180.763L283.497 189.165C283.309 190.216 282.329 190.934 281.271 190.796L280.286 190.668L254.985 187.381L240.609 185.513C233.325 184.566 91.5667 165.97 89.7266 165.731C88.2825 165.544 87.3096 164.686 86.809 164.02C86.5829 163.719 86.5247 163.341 86.5657 162.967C87.6114 153.428 89.7401 135.097 90.3694 133.783C91.0113 132.443 92.3219 132.257 92.8969 132.332C113.598 135.022 282.307 157.12 284.607 157.418Z" fill="#47B5FF" fill-opacity="0.12"/>
<path d="M284.607 157.418C286.907 157.717 287.33 158.959 287.255 159.542L286.559 165.529C286.484 166.17 286.723 166.807 287.201 167.241L294.163 173.557C295.303 174.592 294.896 176.473 293.43 176.943L286.359 179.211C285.654 179.437 285.132 180.034 285.001 180.763L283.497 189.165C283.309 190.216 282.329 190.934 281.271 190.796L280.286 190.668L254.985 187.381L240.609 185.513C233.325 184.566 91.5667 165.97 89.7266 165.731C88.2825 165.544 87.3096 164.686 86.809 164.02C86.5829 163.719 86.5247 163.341 86.5657 162.967C87.6114 153.428 89.7401 135.097 90.3694 133.783C91.0113 132.443 92.3219 132.257 92.8969 132.332C113.598 135.022 282.307 157.12 284.607 157.418Z" stroke="#47B5FF" stroke-width="2" stroke-linecap="round"/>
<path d="M106.008 143.881C106.005 143.904 105.995 143.942 105.979 143.995C105.963 144.048 105.947 144.096 105.932 144.14C105.87 144.33 105.706 144.561 105.44 144.834C105.18 145.103 104.834 145.439 104.404 145.841C104.267 145.97 104.102 146.126 103.908 146.307C103.719 146.489 103.497 146.701 103.245 146.943C103.124 147.06 103.007 147.176 102.896 147.29C102.785 147.399 102.678 147.507 102.577 147.613C102.48 147.72 102.38 147.831 102.278 147.946C102.175 148.061 102.069 148.185 101.96 148.318C101.948 148.339 101.904 148.395 101.827 148.487C101.756 148.574 101.656 148.701 101.529 148.868C101.28 149.184 101.072 149.419 100.905 149.571C100.875 149.728 100.844 149.892 100.812 150.062C100.785 150.234 100.754 150.413 100.72 150.602C100.686 150.79 100.654 150.965 100.623 151.127C100.598 151.284 100.572 151.43 100.545 151.565C100.496 151.83 100.447 152.099 100.397 152.373C100.347 152.642 100.28 152.992 100.196 153.422C100.067 154.117 99.9881 154.507 99.9587 154.59C99.9242 154.678 99.8071 154.763 99.6076 154.847C99.4119 154.936 99.2621 154.974 99.1582 154.96C99.0272 154.943 98.9047 154.844 98.7906 154.663C98.6805 154.488 98.6341 154.335 98.6514 154.204C98.686 153.942 98.7843 153.511 98.9463 152.912C99.1121 152.318 99.2364 151.847 99.3191 151.499C99.5358 150.59 99.6647 149.98 99.7059 149.668C99.7328 149.465 99.7143 149.274 99.6506 149.095C99.4493 148.949 99.2491 148.76 99.05 148.526C98.8555 148.294 98.6718 148.049 98.499 147.792C98.4106 147.66 98.3127 147.514 98.2053 147.353C98.103 147.188 97.9873 147.002 97.8582 146.797C97.7336 146.592 97.6369 146.436 97.5681 146.331C97.5044 146.221 97.4686 146.161 97.4608 146.151C97.4155 146.076 97.354 145.985 97.2762 145.879C97.2029 145.772 97.1156 145.65 97.0142 145.513C96.9135 145.371 96.8242 145.246 96.7463 145.14C96.673 145.033 96.6089 144.945 96.5541 144.873C96.4403 144.725 96.3895 144.605 96.4014 144.515C96.4127 144.429 96.5491 144.337 96.8104 144.238C97.0768 144.135 97.2551 144.09 97.3455 144.102C97.4449 144.115 97.5463 144.165 97.6497 144.252C97.7531 144.34 97.863 144.464 97.9794 144.627C98.101 144.785 98.2336 144.982 98.3772 145.217C98.5253 145.453 98.6935 145.728 98.8818 146.042C99.0656 146.356 99.2335 146.634 99.3856 146.874C99.5382 147.111 99.6795 147.311 99.8095 147.475C99.9401 147.635 100.062 147.759 100.174 147.847C100.292 147.932 100.407 147.982 100.52 147.997C100.524 147.997 100.609 147.928 100.775 147.789C100.857 147.722 100.92 147.668 100.962 147.627C101.008 147.588 101.037 147.564 101.047 147.556C101.267 147.351 101.456 147.173 101.614 147.024C101.771 146.875 101.903 146.75 102.008 146.649C102.114 146.543 102.243 146.415 102.397 146.266C102.55 146.116 102.727 145.939 102.929 145.736C103.131 145.528 103.316 145.341 103.485 145.175C103.655 145.005 103.806 144.85 103.94 144.711C104.077 144.573 104.216 144.431 104.355 144.283C104.494 144.132 104.639 143.976 104.789 143.817C104.919 143.664 105.028 143.554 105.115 143.487C105.207 143.417 105.319 143.39 105.45 143.408C105.594 143.427 105.728 143.479 105.85 143.564C105.972 143.644 106.025 143.75 106.008 143.881ZM113.779 150.404C113.769 150.481 113.73 150.561 113.664 150.644C113.598 150.727 113.516 150.81 113.417 150.894C113.32 150.973 113.211 151.05 113.09 151.126C112.97 151.198 112.851 151.265 112.733 151.327C112.615 151.385 112.502 151.437 112.395 151.483C112.293 151.524 112.208 151.555 112.142 151.573C112.018 151.608 111.856 151.632 111.656 151.647C111.462 151.658 111.259 151.664 111.047 151.663C110.836 151.663 110.629 151.659 110.428 151.65C110.228 151.638 110.06 151.622 109.924 151.604C109.87 151.597 109.797 151.578 109.704 151.548C109.612 151.517 109.517 151.482 109.422 151.442C109.326 151.401 109.235 151.359 109.149 151.316C109.068 151.268 109.009 151.224 108.973 151.182C108.991 151.359 109.004 151.538 109.013 151.718C109.022 151.894 109.014 152.075 108.989 152.26C108.979 152.341 108.954 152.439 108.916 152.554C108.882 152.669 108.839 152.785 108.787 152.902C108.74 153.016 108.689 153.126 108.633 153.234C108.578 153.337 108.523 153.421 108.469 153.488C108.325 153.671 108.179 153.836 108.031 153.981C107.887 154.128 107.727 154.261 107.551 154.38C107.379 154.495 107.188 154.601 106.978 154.697C106.767 154.794 106.528 154.882 106.26 154.961C105.974 155.043 105.689 155.09 105.407 155.103C105.13 155.113 104.845 155.098 104.551 155.059C104.366 155.035 104.208 154.959 104.078 154.831C103.948 154.704 103.845 154.543 103.769 154.349C103.694 154.151 103.646 153.928 103.623 153.682C103.605 153.436 103.613 153.182 103.648 152.92C103.657 152.852 103.672 152.769 103.695 152.671C103.721 152.573 103.751 152.473 103.782 152.372C103.819 152.271 103.854 152.175 103.889 152.083C103.925 151.991 103.958 151.912 103.99 151.848C104.078 151.666 104.197 151.461 104.347 151.233C104.496 151.004 104.667 150.774 104.858 150.542C105.051 150.305 105.26 150.078 105.487 149.86C105.714 149.637 105.946 149.442 106.184 149.276C106.422 149.11 106.664 148.983 106.91 148.896C107.156 148.809 107.394 148.781 107.625 148.811C107.701 148.822 107.761 148.841 107.803 148.869C107.85 148.899 107.887 148.933 107.914 148.974C107.945 149.015 107.971 149.057 107.993 149.101C108.015 149.146 108.041 149.191 108.072 149.236C108.083 149.26 108.101 149.274 108.128 149.278C108.165 149.283 108.211 149.28 108.268 149.269C108.324 149.258 108.386 149.257 108.454 149.266C108.54 149.277 108.639 149.348 108.75 149.477C108.862 149.602 108.977 149.742 109.095 149.895C109.218 150.045 109.339 150.185 109.46 150.316C109.586 150.443 109.703 150.513 109.811 150.528C109.933 150.544 110.065 150.559 110.205 150.573C110.346 150.587 110.489 150.599 110.635 150.609C110.781 150.615 110.926 150.617 111.068 150.618C111.211 150.618 111.342 150.615 111.462 150.608C111.495 150.603 111.572 150.593 111.694 150.577C111.816 150.56 111.956 150.542 112.115 150.522C112.279 150.498 112.45 150.472 112.629 150.445C112.811 150.419 112.98 150.395 113.134 150.374C113.29 150.348 113.416 150.328 113.515 150.314C113.618 150.3 113.674 150.293 113.683 150.295C113.71 150.298 113.734 150.308 113.755 150.325C113.775 150.341 113.783 150.368 113.779 150.404ZM108.349 150.79C108.334 150.696 108.292 150.6 108.222 150.504C108.156 150.408 108.076 150.319 107.981 150.238C107.891 150.157 107.792 150.088 107.684 150.033C107.577 149.973 107.474 149.936 107.374 149.923C107.293 149.912 107.212 149.915 107.132 149.932C107.051 149.949 106.97 149.975 106.887 150.01C106.809 150.041 106.733 150.08 106.658 150.125C106.584 150.166 106.514 150.205 106.45 150.242C106.254 150.368 106.056 150.556 105.858 150.805C105.665 151.051 105.486 151.321 105.323 151.617C105.165 151.909 105.03 152.203 104.917 152.501C104.804 152.799 104.733 153.061 104.703 153.286C104.69 153.386 104.692 153.485 104.712 153.584C104.736 153.679 104.775 153.767 104.828 153.848C104.883 153.924 104.95 153.99 105.03 154.047C105.11 154.099 105.202 154.132 105.306 154.145C105.577 154.181 105.834 154.167 106.077 154.103C106.321 154.034 106.546 153.928 106.754 153.785C106.966 153.638 107.16 153.457 107.336 153.241C107.511 153.026 107.667 152.789 107.802 152.531C107.938 152.268 108.051 151.989 108.14 151.693C108.235 151.397 108.304 151.096 108.349 150.79ZM120.832 154.894C120.827 154.935 120.812 154.981 120.786 155.033C120.761 155.085 120.731 155.138 120.696 155.193C120.661 155.248 120.624 155.301 120.586 155.351C120.547 155.397 120.512 155.438 120.48 155.475C120.378 155.581 120.254 155.684 120.108 155.784C119.966 155.885 119.807 155.974 119.631 156.052C119.46 156.126 119.276 156.182 119.078 156.221C118.885 156.255 118.687 156.258 118.483 156.232C118.221 156.197 117.985 156.122 117.775 156.007C117.57 155.888 117.395 155.722 117.248 155.51C117.106 155.298 116.994 155.033 116.912 154.714C116.834 154.396 116.79 154.017 116.779 153.579C116.631 153.73 116.456 153.904 116.255 154.103C116.058 154.302 115.843 154.504 115.61 154.707C115.38 154.911 115.138 155.111 114.882 155.307C114.631 155.5 114.382 155.669 114.132 155.815C113.883 155.962 113.641 156.074 113.405 156.153C113.174 156.233 112.959 156.26 112.76 156.234C112.715 156.228 112.644 156.189 112.548 156.116C112.457 156.04 112.363 155.947 112.268 155.838C112.172 155.728 112.084 155.607 112.006 155.472C111.927 155.338 111.88 155.207 111.864 155.081C111.823 154.804 111.82 154.528 111.856 154.253C111.894 153.972 111.953 153.7 112.034 153.435C112.128 153.139 112.249 152.833 112.396 152.517C112.548 152.202 112.701 151.896 112.855 151.599C113.01 151.297 113.151 151.013 113.279 150.745C113.407 150.472 113.494 150.231 113.54 150.021C113.562 149.991 113.603 149.96 113.662 149.926C113.723 149.888 113.787 149.856 113.855 149.828C113.923 149.795 113.989 149.772 114.05 149.757C114.117 149.738 114.169 149.731 114.205 149.736C114.259 149.743 114.315 149.769 114.374 149.814C114.432 149.858 114.485 149.911 114.532 149.972C114.579 150.034 114.615 150.096 114.638 150.159C114.667 150.222 114.678 150.277 114.672 150.322C114.667 150.358 114.646 150.417 114.607 150.5C114.573 150.582 114.529 150.678 114.473 150.785C114.418 150.888 114.355 150.997 114.285 151.112C114.215 151.222 114.147 151.324 114.079 151.416C113.944 151.642 113.81 151.856 113.677 152.059C113.55 152.258 113.431 152.461 113.321 152.667C113.212 152.869 113.114 153.083 113.029 153.311C112.949 153.535 112.891 153.785 112.854 154.06C112.845 154.133 112.841 154.226 112.845 154.342C112.848 154.453 112.859 154.564 112.876 154.677C112.899 154.786 112.929 154.882 112.969 154.965C113.014 155.044 113.072 155.089 113.144 155.099C113.217 155.108 113.3 155.101 113.396 155.077C113.491 155.052 113.589 155.022 113.69 154.984C113.793 154.943 113.89 154.898 113.984 154.851C114.083 154.8 114.169 154.754 114.244 154.713C114.437 154.605 114.634 154.475 114.833 154.322C115.037 154.17 115.228 154.013 115.405 153.853C115.587 153.693 115.75 153.542 115.893 153.4C116.041 153.254 116.153 153.136 116.229 153.045C116.35 152.9 116.465 152.74 116.575 152.566C116.691 152.388 116.799 152.212 116.9 152.037C117.007 151.858 117.112 151.686 117.217 151.52C117.322 151.35 117.426 151.203 117.53 151.079C117.638 150.955 117.748 150.859 117.858 150.791C117.969 150.718 118.087 150.691 118.214 150.707C118.313 150.72 118.385 150.748 118.43 150.791C118.48 150.834 118.512 150.885 118.527 150.942C118.547 151 118.555 151.06 118.552 151.124C118.548 151.188 118.542 151.247 118.535 151.301C118.53 151.337 118.492 151.415 118.422 151.535C118.351 151.649 118.273 151.791 118.186 151.959C118.1 152.122 118.016 152.304 117.935 152.505C117.854 152.701 117.8 152.898 117.774 153.097C117.735 153.391 117.731 153.666 117.761 153.923C117.792 154.18 117.851 154.408 117.939 154.608C118.028 154.808 118.142 154.971 118.282 155.095C118.426 155.22 118.591 155.294 118.776 155.319C118.98 155.346 119.204 155.336 119.449 155.29C119.694 155.245 119.938 155.155 120.181 155.022C120.196 155.01 120.227 154.989 120.272 154.958C120.323 154.923 120.376 154.889 120.431 154.855C120.49 154.821 120.545 154.792 120.594 154.766C120.643 154.74 120.679 154.729 120.702 154.732C120.738 154.737 120.77 154.753 120.799 154.779C120.828 154.806 120.839 154.844 120.832 154.894ZM124.47 148.397C124.432 148.649 124.318 149.006 124.128 149.468C123.943 149.927 123.726 150.321 123.475 150.651C123.229 150.986 122.979 151.137 122.726 151.104C122.59 151.086 122.478 151.029 122.39 150.935C122.301 150.841 122.265 150.73 122.282 150.604C122.288 150.558 122.301 150.51 122.322 150.457C122.348 150.401 122.378 150.347 122.412 150.297C122.446 150.246 122.482 150.2 122.52 150.159C122.558 150.114 122.597 150.08 122.637 150.057C122.773 149.965 122.889 149.872 122.984 149.779C123.079 149.682 123.16 149.58 123.224 149.473C123.289 149.362 123.342 149.243 123.382 149.115C123.422 148.987 123.452 148.844 123.473 148.685C123.494 148.527 123.456 148.378 123.36 148.236C123.266 148.077 123.149 147.919 123.009 147.762C122.865 147.601 122.795 147.502 122.8 147.466C122.804 147.439 122.806 147.402 122.808 147.356C122.813 147.311 122.817 147.266 122.819 147.22C122.82 147.174 122.821 147.131 122.822 147.089C122.828 147.044 122.833 147.008 122.836 146.981C122.848 146.895 122.861 146.83 122.876 146.786C122.901 146.734 123.004 146.686 123.185 146.641C123.357 146.59 123.479 146.569 123.552 146.579C123.597 146.585 123.671 146.648 123.775 146.767C123.827 146.825 123.878 146.889 123.929 146.96C123.98 147.026 124.033 147.095 124.088 147.167C124.197 147.315 124.262 147.411 124.284 147.455C124.381 147.661 124.44 147.82 124.462 147.934C124.493 148.043 124.496 148.198 124.47 148.397ZM135.204 156.186C135.195 156.25 135.161 156.319 135.101 156.393C135.045 156.464 134.972 156.535 134.879 156.606C134.787 156.676 134.682 156.745 134.563 156.812C134.449 156.875 134.331 156.928 134.21 156.972C133.93 157.073 133.649 157.133 133.366 157.15C133.088 157.169 132.814 157.153 132.545 157.104C132.347 157.069 132.15 156.996 131.953 156.888C131.757 156.774 131.582 156.632 131.43 156.46C131.283 156.284 131.168 156.081 131.084 155.849C131 155.613 130.97 155.353 130.993 155.071C130.976 155.097 130.948 155.139 130.908 155.198C130.868 155.253 130.812 155.333 130.738 155.438C130.669 155.543 130.58 155.677 130.471 155.837C130.367 155.998 130.239 156.19 130.085 156.413C129.931 156.637 129.769 156.857 129.598 157.073C129.427 157.285 129.261 157.486 129.098 157.676C128.935 157.866 128.781 158.036 128.637 158.187C128.493 158.338 128.373 158.463 128.277 158.56C128.155 158.687 128.034 158.785 127.914 158.857C127.794 158.928 127.684 158.978 127.584 159.006C127.483 159.039 127.396 159.057 127.322 159.061C127.248 159.065 127.19 159.065 127.15 159.059C127.1 159.053 127.047 159.032 126.992 158.997C126.941 158.967 126.891 158.931 126.841 158.888C126.796 158.845 126.757 158.796 126.723 158.741C126.688 158.69 126.667 158.639 126.66 158.588C126.674 158.452 126.68 158.299 126.68 158.128C126.684 157.954 126.678 157.758 126.661 157.54C126.644 157.317 126.615 157.072 126.572 156.804C126.529 156.536 126.472 156.239 126.4 155.913C126.24 155.243 126.147 154.647 126.119 154.124C126.092 153.601 126.101 153.165 126.147 152.818C126.181 152.565 126.28 152.371 126.445 152.236C126.61 152.102 126.816 152.051 127.065 152.084C127.245 152.108 127.364 152.183 127.421 152.31C127.478 152.437 127.495 152.582 127.474 152.745C127.456 152.88 127.418 153.011 127.36 153.136C127.302 153.262 127.264 153.393 127.246 153.528C127.237 153.6 127.231 153.715 127.228 153.871C127.227 154.022 127.23 154.19 127.238 154.375C127.245 154.56 127.257 154.75 127.273 154.945C127.293 155.136 127.319 155.305 127.35 155.452C127.407 155.721 127.454 155.987 127.493 156.25C127.533 156.508 127.563 156.747 127.585 156.965C127.612 157.18 127.633 157.365 127.65 157.519C127.667 157.668 127.681 157.771 127.692 157.828C127.727 157.837 127.786 157.808 127.869 157.741C127.951 157.674 128.043 157.585 128.145 157.474C128.252 157.364 128.365 157.239 128.484 157.098C128.609 156.954 128.727 156.811 128.838 156.669C128.953 156.523 129.059 156.386 129.154 156.256C129.255 156.122 129.336 156.009 129.399 155.916C129.484 155.794 129.58 155.645 129.686 155.471C129.791 155.296 129.896 155.115 129.999 154.926C130.107 154.734 130.205 154.547 130.294 154.365C130.387 154.18 130.461 154.017 130.517 153.878C130.598 153.677 130.7 153.534 130.822 153.449C130.944 153.359 131.117 153.334 131.342 153.373C131.41 153.382 131.478 153.405 131.547 153.441C131.616 153.474 131.676 153.521 131.728 153.583C131.779 153.645 131.818 153.721 131.842 153.812C131.872 153.898 131.88 154 131.864 154.118C131.824 154.457 131.82 154.76 131.854 155.027C131.889 155.289 131.953 155.513 132.048 155.7C132.143 155.888 132.263 156.037 132.409 156.148C132.556 156.259 132.723 156.332 132.911 156.366C133.1 156.4 133.31 156.41 133.542 156.394C133.778 156.38 133.993 156.339 134.186 156.273C134.378 156.206 134.549 156.146 134.699 156.092C134.849 156.038 134.968 156.02 135.058 156.036C135.166 156.055 135.215 156.105 135.204 156.186ZM138.363 153.363C138.369 153.313 138.362 153.266 138.34 153.222C138.318 153.178 138.289 153.14 138.252 153.107C138.219 153.075 138.181 153.049 138.138 153.03C138.099 153.007 138.065 152.993 138.033 152.989C137.834 152.962 137.621 153.008 137.394 153.125C137.168 153.237 136.948 153.408 136.734 153.637C136.519 153.866 136.322 154.146 136.14 154.476C135.959 154.806 135.816 155.171 135.713 155.571C135.781 155.539 135.873 155.491 135.987 155.428C136.101 155.365 136.222 155.296 136.352 155.221C136.486 155.142 136.619 155.063 136.749 154.984C136.883 154.905 137.003 154.831 137.109 154.763C137.34 154.614 137.532 154.481 137.686 154.363C137.84 154.241 137.963 154.128 138.054 154.026C138.151 153.919 138.223 153.813 138.269 153.709C138.315 153.6 138.347 153.485 138.363 153.363ZM141.125 156.672C141.104 156.831 141.022 156.994 140.88 157.164C140.739 157.334 140.544 157.52 140.297 157.721C140.013 157.951 139.708 158.158 139.38 158.345C139.052 158.527 138.719 158.681 138.381 158.806C138.043 158.927 137.706 159.013 137.368 159.065C137.03 159.117 136.71 159.123 136.407 159.083C135.698 158.989 135.179 158.688 134.851 158.181C134.522 157.673 134.416 156.979 134.533 156.098C134.57 155.818 134.632 155.536 134.72 155.254C134.809 154.967 134.919 154.687 135.052 154.415C135.189 154.143 135.347 153.884 135.527 153.637C135.711 153.39 135.916 153.164 136.141 152.959C136.281 152.835 136.435 152.711 136.604 152.586C136.772 152.461 136.954 152.354 137.149 152.265C137.346 152.171 137.555 152.102 137.777 152.058C138.003 152.015 138.243 152.01 138.496 152.043C138.676 152.067 138.834 152.124 138.969 152.216C139.105 152.303 139.215 152.407 139.3 152.529C139.385 152.65 139.444 152.782 139.476 152.924C139.512 153.067 139.521 153.204 139.504 153.335C139.468 153.61 139.356 153.881 139.169 154.145C138.983 154.406 138.736 154.663 138.426 154.916C138.118 155.165 137.754 155.409 137.337 155.648C136.92 155.882 136.46 156.111 135.957 156.334C135.889 156.362 135.82 156.394 135.751 156.431C135.682 156.463 135.644 156.511 135.635 156.574C135.617 156.71 135.617 156.855 135.633 157.009C135.649 157.162 135.697 157.309 135.775 157.448C135.854 157.582 135.967 157.701 136.114 157.803C136.266 157.906 136.466 157.974 136.715 158.007C137.031 158.048 137.358 158.041 137.697 157.985C138.04 157.924 138.38 157.824 138.715 157.685C139.056 157.546 139.389 157.372 139.715 157.162C140.046 156.953 140.36 156.721 140.656 156.466C140.821 156.327 140.947 156.263 141.033 156.274C141.082 156.281 141.115 156.315 141.129 156.377C141.144 156.438 141.143 156.537 141.125 156.672ZM153.667 156.413C153.658 156.481 153.619 156.535 153.549 156.577C153.484 156.614 153.4 156.647 153.295 156.674C153.19 156.702 153.072 156.725 152.941 156.745C152.815 156.76 152.688 156.78 152.56 156.805C152.255 156.856 151.935 156.947 151.6 157.078C151.271 157.204 150.917 157.415 150.538 157.71C150.241 157.941 149.978 158.192 149.749 158.46C149.526 158.725 149.325 159.011 149.146 159.318C148.968 159.626 148.807 159.956 148.663 160.31C148.521 160.659 148.388 161.034 148.266 161.436C148.209 161.484 148.16 161.526 148.119 161.562C148.077 161.597 148.034 161.626 147.99 161.648C147.946 161.67 147.896 161.684 147.84 161.69C147.788 161.702 147.721 161.702 147.64 161.691C147.522 161.676 147.436 161.612 147.382 161.499C147.332 161.391 147.301 161.265 147.287 161.121C147.274 160.981 147.272 160.841 147.281 160.699C147.295 160.559 147.307 160.448 147.318 160.366C147.33 160.28 147.346 160.172 147.368 160.042C147.39 159.907 147.414 159.761 147.44 159.603C147.47 159.446 147.5 159.285 147.531 159.119C147.563 158.948 147.592 158.784 147.617 158.627C147.647 158.47 147.673 158.326 147.695 158.196C147.717 158.061 147.734 157.95 147.745 157.865C147.773 157.657 147.791 157.484 147.8 157.348C147.813 157.212 147.822 157.095 147.825 156.999C147.829 156.903 147.828 156.818 147.824 156.744C147.821 156.666 147.821 156.583 147.823 156.496C147.826 156.404 147.83 156.299 147.837 156.18C147.849 156.058 147.867 155.902 147.892 155.712C147.904 155.617 147.937 155.529 147.989 155.449C148.041 155.364 148.103 155.294 148.175 155.239C148.252 155.18 148.333 155.138 148.419 155.113C148.511 155.083 148.597 155.074 148.678 155.085C148.773 155.097 148.858 155.129 148.934 155.181C149.01 155.232 149.073 155.293 149.124 155.364C149.174 155.435 149.21 155.516 149.23 155.606C149.251 155.691 149.255 155.777 149.244 155.863C149.221 156.035 149.183 156.239 149.129 156.475C149.075 156.707 149.018 156.946 148.958 157.191C148.904 157.432 148.852 157.666 148.803 157.894C148.755 158.118 148.724 158.306 148.708 158.461C148.951 158.116 149.224 157.77 149.527 157.424C149.835 157.079 150.165 156.773 150.517 156.507C150.875 156.237 151.249 156.029 151.641 155.883C152.033 155.733 152.437 155.685 152.853 155.74C152.934 155.751 153.026 155.772 153.127 155.804C153.229 155.836 153.322 155.88 153.406 155.937C153.49 155.994 153.557 156.063 153.606 156.143C153.661 156.219 153.681 156.309 153.667 156.413ZM162.313 158.142C162.304 158.21 162.239 158.323 162.117 158.481C161.837 158.789 161.528 159.093 161.189 159.393C160.855 159.694 160.503 159.976 160.133 160.239C159.767 160.499 159.389 160.739 158.997 160.958C158.61 161.174 158.222 161.355 157.835 161.501C157.449 161.643 157.068 161.742 156.693 161.798C156.322 161.855 155.97 161.859 155.636 161.81C154.913 161.715 154.379 161.43 154.032 160.957C153.69 160.484 153.575 159.823 153.687 158.974C153.781 158.265 153.981 157.59 154.286 156.95C154.596 156.31 155.056 155.716 155.666 155.167C155.78 155.072 155.904 154.983 156.039 154.899C156.179 154.817 156.322 154.746 156.467 154.687C156.618 154.629 156.768 154.586 156.918 154.56C157.074 154.535 157.226 154.527 157.376 154.538C157.413 154.543 157.462 154.554 157.524 154.571C157.586 154.589 157.652 154.614 157.721 154.646C157.79 154.678 157.856 154.716 157.919 154.762C157.983 154.802 158.032 154.85 158.066 154.905C158.173 155.066 158.253 155.229 158.305 155.392C158.361 155.555 158.382 155.731 158.366 155.917C158.348 156.126 158.296 156.328 158.21 156.524C158.13 156.716 158.008 156.909 157.844 157.103C157.686 157.293 157.483 157.487 157.236 157.685C156.99 157.877 156.697 158.082 156.355 158.299C156.14 158.436 155.899 158.588 155.633 158.755C155.373 158.918 155.061 159.086 154.698 159.259C154.64 159.697 154.727 160.049 154.958 160.314C155.195 160.575 155.544 160.736 156.005 160.797C156.262 160.831 156.526 160.832 156.797 160.798C157.068 160.765 157.338 160.711 157.605 160.636C157.873 160.557 158.134 160.462 158.387 160.353C158.646 160.241 158.889 160.123 159.116 160.002C159.537 159.772 159.922 159.54 160.27 159.306C160.619 159.067 160.967 158.814 161.315 158.548L161.729 158.23C161.976 158.065 162.149 157.989 162.249 158.002C162.303 158.009 162.324 158.056 162.313 158.142ZM157.314 156.109C157.318 156.041 157.316 155.974 157.306 155.908C157.301 155.838 157.286 155.777 157.261 155.723C157.236 155.669 157.205 155.626 157.168 155.593C157.132 155.556 157.086 155.534 157.032 155.527C156.791 155.509 156.532 155.624 156.255 155.872C155.98 156.116 155.705 156.453 155.433 156.881C155.37 156.974 155.31 157.081 155.252 157.202C155.2 157.319 155.147 157.441 155.094 157.567C155.045 157.689 154.999 157.812 154.956 157.935C154.916 158.058 154.881 158.169 154.85 158.266C155.108 158.12 155.346 157.986 155.565 157.864C155.783 157.741 155.989 157.612 156.181 157.476C156.303 157.391 156.428 157.3 156.556 157.202C156.684 157.099 156.802 156.99 156.909 156.876C157.021 156.762 157.112 156.641 157.185 156.512C157.257 156.384 157.3 156.25 157.314 156.109ZM171.339 159.397C171.332 159.451 171.316 159.515 171.293 159.59C171.269 159.661 171.239 159.733 171.202 159.806C171.169 159.88 171.132 159.951 171.091 160.019C171.055 160.083 171.018 160.133 170.981 160.17C170.95 160.202 170.902 160.247 170.84 160.303C170.782 160.355 170.717 160.413 170.644 160.477C170.572 160.541 170.491 160.609 170.404 160.68C170.321 160.747 170.235 160.811 170.144 160.873C169.83 161.093 169.521 161.308 169.218 161.516C168.919 161.72 168.616 161.896 168.307 162.044C167.998 162.191 167.68 162.301 167.353 162.373C167.031 162.441 166.69 162.448 166.329 162.396C166.162 162.374 165.997 162.322 165.833 162.241C165.674 162.155 165.527 162.046 165.393 161.914C165.259 161.781 165.148 161.629 165.061 161.456C164.973 161.284 164.919 161.1 164.899 160.904C164.75 161.022 164.594 161.146 164.43 161.276C164.266 161.402 164.095 161.528 163.917 161.657C163.744 161.785 163.564 161.909 163.379 162.027C163.193 162.145 163.004 162.251 162.813 162.345C162.705 162.395 162.576 162.447 162.427 162.501C162.281 162.555 162.128 162.604 161.966 162.647C161.809 162.686 161.651 162.716 161.492 162.736C161.338 162.752 161.2 162.753 161.078 162.736C160.893 162.712 160.74 162.634 160.62 162.503C160.504 162.369 160.412 162.212 160.344 162.033C160.28 161.854 160.238 161.667 160.218 161.471C160.203 161.276 160.205 161.104 160.224 160.955C160.264 160.657 160.347 160.357 160.474 160.057C160.601 159.757 160.752 159.468 160.926 159.193C161.106 158.913 161.297 158.651 161.499 158.406C161.706 158.163 161.904 157.948 162.094 157.761C162.295 157.567 162.527 157.379 162.79 157.198C163.053 157.012 163.322 156.852 163.598 156.719C163.873 156.58 164.14 156.475 164.398 156.404C164.655 156.332 164.879 156.309 165.069 156.334C165.164 156.346 165.263 156.36 165.367 156.373C165.475 156.388 165.581 156.408 165.683 156.436C165.786 156.458 165.885 156.49 165.981 156.53C166.077 156.566 166.163 156.614 166.237 156.674C166.274 156.707 166.315 156.765 166.359 156.849C166.403 156.933 166.442 157.026 166.474 157.126C166.511 157.228 166.539 157.328 166.559 157.427C166.578 157.526 166.584 157.603 166.576 157.657C166.557 157.806 166.497 158 166.396 158.24C166.282 158.542 166.177 158.818 166.08 159.067C165.988 159.312 165.924 159.57 165.888 159.842C165.868 159.995 165.871 160.157 165.9 160.326C165.928 160.49 165.979 160.644 166.052 160.787C166.13 160.931 166.229 161.054 166.348 161.157C166.473 161.257 166.619 161.317 166.786 161.339C167.062 161.376 167.352 161.357 167.656 161.282C167.96 161.203 168.273 161.083 168.593 160.923C168.918 160.759 169.244 160.566 169.573 160.342C169.902 160.115 170.228 159.87 170.552 159.61C170.578 159.586 170.623 159.546 170.685 159.489C170.753 159.429 170.82 159.372 170.887 159.316C170.96 159.257 171.028 159.206 171.094 159.164C171.16 159.118 171.206 159.096 171.233 159.1C171.328 159.112 171.363 159.211 171.339 159.397ZM165.382 158.037C165.392 157.96 165.4 157.865 165.406 157.751C165.412 157.636 165.394 157.54 165.354 157.461C165.314 157.382 165.258 157.34 165.185 157.335C165.112 157.326 165.04 157.316 164.968 157.307C164.81 157.286 164.653 157.29 164.497 157.32C164.346 157.351 164.194 157.402 164.042 157.474C163.891 157.541 163.742 157.625 163.596 157.725C163.454 157.821 163.314 157.925 163.175 158.035C163.058 158.125 162.93 158.239 162.792 158.377C162.659 158.516 162.524 158.671 162.386 158.841C162.254 159.007 162.122 159.185 161.992 159.375C161.861 159.56 161.745 159.747 161.642 159.935C161.539 160.12 161.453 160.301 161.383 160.481C161.314 160.655 161.27 160.817 161.25 160.966C161.244 161.011 161.241 161.073 161.24 161.151C161.244 161.225 161.252 161.3 161.265 161.375C161.283 161.446 161.31 161.51 161.344 161.565C161.382 161.62 161.433 161.652 161.496 161.661C161.704 161.688 161.973 161.657 162.302 161.567C162.75 161.443 163.167 161.247 163.551 160.981C163.941 160.711 164.285 160.386 164.583 160.007C165.02 159.417 165.286 158.76 165.382 158.037ZM178.999 158.878C178.99 158.946 178.957 159.04 178.9 159.161C178.842 159.283 178.767 159.415 178.675 159.559C178.587 159.704 178.484 159.854 178.367 160.008C178.255 160.159 178.138 160.297 178.016 160.424C177.643 160.811 177.28 161.159 176.926 161.466C176.578 161.769 176.232 162.043 175.887 162.287C175.547 162.532 175.203 162.748 174.856 162.937C174.514 163.126 174.166 163.294 173.811 163.44C173.563 163.54 173.339 163.619 173.139 163.675C172.938 163.731 172.742 163.77 172.551 163.791C172.36 163.807 172.165 163.808 171.964 163.796C171.768 163.784 171.55 163.762 171.311 163.73C171.071 163.698 170.855 163.631 170.662 163.527C170.473 163.424 170.317 163.284 170.193 163.107C170.07 162.925 169.984 162.707 169.935 162.452C169.887 162.193 169.885 161.894 169.93 161.555C169.955 161.365 170.011 161.152 170.097 160.915C170.184 160.674 170.293 160.426 170.423 160.172C170.553 159.913 170.7 159.655 170.863 159.396C171.031 159.137 171.205 158.894 171.387 158.665C171.57 158.432 171.756 158.22 171.947 158.029C172.142 157.839 172.333 157.685 172.518 157.567C172.619 157.502 172.742 157.442 172.887 157.388C173.032 157.333 173.18 157.289 173.332 157.254C173.484 157.214 173.633 157.188 173.777 157.174C173.926 157.157 174.053 157.156 174.157 157.169C174.297 157.188 174.439 157.241 174.584 157.329C174.729 157.417 174.857 157.522 174.97 157.642C175.088 157.759 175.179 157.884 175.245 158.017C175.31 158.145 175.336 158.263 175.322 158.371C175.311 158.453 175.287 158.535 175.248 158.617C175.21 158.699 175.163 158.773 175.108 158.84C175.054 158.906 174.996 158.96 174.935 159.003C174.875 159.041 174.815 159.056 174.757 159.048C174.653 159.035 174.575 158.981 174.523 158.886C174.472 158.788 174.421 158.682 174.372 158.57C174.327 158.454 174.272 158.348 174.207 158.252C174.142 158.151 174.042 158.092 173.906 158.074C173.703 158.047 173.492 158.093 173.274 158.211C173.061 158.33 172.849 158.495 172.637 158.706C172.426 158.913 172.224 159.15 172.032 159.419C171.841 159.684 171.67 159.953 171.519 160.227C171.368 160.497 171.244 160.756 171.147 161.005C171.05 161.25 170.991 161.456 170.969 161.623C170.944 161.808 170.957 161.971 171.008 162.111C171.063 162.247 171.14 162.363 171.238 162.459C171.34 162.555 171.456 162.63 171.587 162.684C171.722 162.739 171.858 162.775 171.993 162.793C172.147 162.813 172.324 162.814 172.524 162.794C172.729 162.775 172.935 162.743 173.144 162.697C173.352 162.651 173.555 162.595 173.752 162.529C173.949 162.463 174.122 162.391 174.27 162.315C174.659 162.118 175.054 161.88 175.453 161.602C175.854 161.319 176.239 161.019 176.607 160.7C176.98 160.381 177.327 160.055 177.647 159.72C177.971 159.386 178.253 159.065 178.491 158.756C178.535 158.702 178.579 158.666 178.623 158.649C178.667 158.627 178.709 158.619 178.75 158.625C178.822 158.634 178.882 158.667 178.93 158.724C178.982 158.782 179.005 158.833 178.999 158.878ZM187.497 162.773C187.49 162.823 187.478 162.881 187.46 162.947C187.446 163.015 187.424 163.083 187.391 163.152C187.364 163.222 187.327 163.291 187.281 163.358C187.236 163.421 187.183 163.476 187.122 163.523C186.817 163.745 186.503 163.943 186.181 164.116C185.865 164.286 185.552 164.426 185.243 164.537C184.935 164.643 184.638 164.719 184.351 164.764C184.065 164.809 183.802 164.815 183.563 164.784C183.233 164.74 182.965 164.643 182.76 164.492C182.56 164.336 182.407 164.151 182.303 163.935C182.198 163.714 182.136 163.471 182.116 163.207C182.097 162.937 182.105 162.667 182.14 162.396C182.152 162.306 182.168 162.202 182.188 162.085C182.214 161.965 182.239 161.842 182.265 161.716C182.291 161.586 182.315 161.461 182.335 161.339C182.36 161.219 182.38 161.108 182.393 161.009C182.411 160.869 182.416 160.748 182.406 160.645C182.402 160.539 182.375 160.462 182.327 160.414C182.225 160.451 182.095 160.533 181.936 160.659C181.776 160.785 181.596 160.948 181.395 161.146C181.199 161.346 180.985 161.577 180.752 161.84C180.524 162.104 180.291 162.391 180.052 162.699C179.903 162.891 179.748 163.091 179.587 163.3C179.426 163.508 179.266 163.713 179.106 163.912C178.952 164.108 178.798 164.294 178.646 164.472C178.494 164.649 178.351 164.805 178.219 164.939C178.087 165.069 177.968 165.171 177.861 165.244C177.755 165.317 177.67 165.35 177.607 165.341C177.526 165.331 177.459 165.315 177.407 165.294C177.359 165.274 177.315 165.254 177.276 165.236C177.242 165.217 177.21 165.199 177.18 165.181C177.155 165.164 177.126 165.154 177.095 165.149C177.075 165.018 177.068 164.863 177.073 164.685C177.079 164.506 177.088 164.328 177.103 164.151C177.117 163.969 177.132 163.803 177.148 163.653C177.168 163.5 177.183 163.384 177.193 163.308C177.273 162.702 177.4 162.071 177.575 161.414C177.753 160.757 177.952 160.071 178.171 159.355C178.39 158.634 178.618 157.883 178.855 157.101C179.092 156.314 179.312 155.488 179.513 154.623C179.557 154.5 179.611 154.401 179.676 154.327C179.741 154.253 179.811 154.198 179.884 154.161C179.958 154.125 180.03 154.105 180.099 154.1C180.17 154.091 180.232 154.09 180.286 154.097C180.422 154.115 180.521 154.2 180.584 154.35C180.646 154.501 180.662 154.694 180.631 154.929C180.623 154.992 180.601 155.088 180.566 155.217C180.535 155.346 180.492 155.492 180.439 155.655C180.39 155.814 180.335 155.986 180.274 156.171C180.218 156.352 180.157 156.533 180.092 156.713C180.031 156.893 179.972 157.067 179.913 157.234C179.859 157.397 179.811 157.537 179.767 157.656C179.595 158.129 179.429 158.613 179.272 159.107C179.12 159.597 178.981 160.059 178.855 160.493C178.733 160.923 178.632 161.31 178.55 161.653C178.468 161.991 178.416 162.246 178.393 162.418C178.387 162.463 178.379 162.527 178.368 162.608C178.358 162.689 178.347 162.773 178.335 162.859C178.328 162.945 178.322 163.027 178.316 163.104C178.311 163.177 178.312 163.228 178.317 163.256C178.501 163.152 178.683 163.013 178.862 162.839C179.046 162.665 179.235 162.465 179.431 162.238C179.631 162.007 179.846 161.757 180.075 161.489C180.304 161.216 180.56 160.93 180.843 160.632C180.993 160.468 181.168 160.293 181.367 160.108C181.571 159.924 181.784 159.756 182.006 159.606C182.228 159.452 182.456 159.33 182.688 159.242C182.925 159.153 183.152 159.124 183.369 159.152C183.468 159.165 183.536 159.259 183.573 159.434C183.614 159.61 183.617 159.831 183.582 160.097C183.572 160.17 183.547 160.279 183.504 160.425C183.467 160.567 183.425 160.727 183.379 160.905C183.333 161.078 183.286 161.258 183.238 161.445C183.195 161.632 183.163 161.807 183.141 161.97C183.124 162.101 183.11 162.26 183.099 162.447C183.093 162.63 183.111 162.809 183.152 162.985C183.198 163.161 183.276 163.316 183.387 163.45C183.503 163.585 183.676 163.668 183.906 163.698C184.286 163.748 184.727 163.715 185.229 163.597C185.732 163.48 186.277 163.255 186.863 162.924C186.923 162.89 186.978 162.856 187.028 162.821C187.084 162.783 187.132 162.748 187.173 162.717C187.219 162.686 187.259 162.661 187.293 162.643C187.328 162.62 187.355 162.61 187.373 162.612C187.378 162.613 187.386 162.621 187.398 162.636C187.414 162.652 187.428 162.67 187.439 162.69C187.455 162.705 187.469 162.723 187.48 162.743C187.492 162.759 187.497 162.769 187.497 162.773ZM195.304 162.502C195.295 162.569 195.229 162.682 195.107 162.841C194.827 163.149 194.518 163.453 194.18 163.753C193.846 164.053 193.494 164.336 193.123 164.599C192.758 164.859 192.379 165.098 191.987 165.318C191.6 165.533 191.213 165.714 190.826 165.861C190.439 166.003 190.059 166.102 189.683 166.158C189.313 166.215 188.96 166.219 188.627 166.17C187.904 166.075 187.369 165.79 187.023 165.317C186.681 164.844 186.566 164.183 186.678 163.334C186.772 162.624 186.971 161.95 187.276 161.31C187.586 160.67 188.046 160.076 188.657 159.527C188.77 159.432 188.895 159.342 189.03 159.259C189.169 159.176 189.312 159.106 189.458 159.047C189.608 158.988 189.758 158.946 189.909 158.92C190.064 158.895 190.217 158.887 190.367 158.898C190.403 158.903 190.452 158.914 190.514 158.931C190.576 158.949 190.642 158.973 190.711 159.006C190.781 159.038 190.847 159.076 190.91 159.121C190.973 159.162 191.022 159.21 191.056 159.265C191.164 159.426 191.243 159.588 191.295 159.752C191.352 159.915 191.372 160.09 191.357 160.277C191.339 160.486 191.287 160.688 191.201 160.884C191.12 161.075 190.998 161.268 190.835 161.463C190.676 161.653 190.474 161.847 190.227 162.044C189.981 162.237 189.687 162.442 189.346 162.659C189.13 162.796 188.889 162.948 188.624 163.115C188.363 163.278 188.051 163.446 187.688 163.619C187.63 164.057 187.717 164.409 187.949 164.674C188.185 164.935 188.534 165.096 188.995 165.157C189.253 165.191 189.517 165.191 189.788 165.158C190.059 165.125 190.328 165.071 190.595 164.996C190.863 164.917 191.124 164.822 191.377 164.713C191.636 164.6 191.879 164.483 192.107 164.361C192.528 164.132 192.912 163.9 193.26 163.666C193.609 163.427 193.957 163.174 194.305 162.907L194.72 162.59C194.967 162.425 195.14 162.349 195.239 162.362C195.294 162.369 195.315 162.416 195.304 162.502ZM190.304 160.469C190.309 160.4 190.306 160.333 190.296 160.268C190.292 160.198 190.277 160.136 190.252 160.083C190.227 160.029 190.196 159.985 190.159 159.953C190.122 159.916 190.077 159.894 190.023 159.887C189.781 159.869 189.522 159.984 189.246 160.232C188.97 160.476 188.696 160.812 188.423 161.241C188.36 161.333 188.3 161.44 188.243 161.562C188.191 161.679 188.138 161.8 188.084 161.927C188.036 162.049 187.99 162.172 187.946 162.295C187.907 162.418 187.871 162.528 187.84 162.625C188.098 162.48 188.337 162.346 188.555 162.223C188.774 162.101 188.979 161.971 189.172 161.836C189.294 161.751 189.418 161.659 189.546 161.561C189.675 161.459 189.792 161.35 189.899 161.236C190.011 161.122 190.103 161.001 190.175 160.872C190.247 160.744 190.29 160.609 190.304 160.469ZM203.659 165.909C203.655 165.936 203.638 165.977 203.608 166.033C203.582 166.089 203.551 166.147 203.516 166.207C203.481 166.262 203.444 166.317 203.404 166.372C203.37 166.422 203.343 166.458 203.322 166.478C203.111 166.712 202.897 166.925 202.679 167.117C202.46 167.309 202.234 167.472 202 167.606C201.771 167.737 201.531 167.832 201.28 167.891C201.034 167.945 200.775 167.955 200.504 167.919C200.395 167.905 200.284 167.865 200.168 167.799C200.057 167.734 199.951 167.648 199.85 167.543C199.754 167.438 199.664 167.318 199.581 167.183C199.497 167.048 199.431 166.904 199.383 166.75C199.324 166.568 199.278 166.362 199.244 166.132C199.215 165.898 199.197 165.65 199.191 165.387C199.188 165.125 199.197 164.853 199.216 164.57C199.235 164.283 199.265 163.99 199.304 163.692C198.6 164.67 197.745 165.509 196.738 166.208C195.725 166.911 194.736 167.198 193.769 167.07C193.502 167.035 193.318 166.866 193.215 166.563C193.112 166.264 193.081 165.963 193.121 165.661C193.175 165.254 193.249 164.956 193.343 164.766C193.609 164.213 193.897 163.699 194.208 163.226C194.523 162.752 194.89 162.295 195.306 161.854C195.579 161.568 195.883 161.286 196.218 161.009C196.558 160.732 196.868 160.543 197.148 160.442C197.496 160.309 197.976 160.283 198.586 160.363C198.798 160.391 198.963 160.533 199.081 160.787C199.199 161.042 199.276 161.33 199.312 161.652C199.345 161.992 199.349 162.255 199.325 162.44C199.422 162.228 199.512 162.012 199.597 161.793C199.681 161.57 199.76 161.339 199.833 161.1C199.906 160.862 199.976 160.611 200.043 160.349C200.114 160.083 200.184 159.798 200.252 159.494C200.272 159.414 200.295 159.311 200.32 159.186C200.346 159.061 200.377 158.913 200.413 158.743C200.487 158.394 200.553 158.102 200.612 157.866C200.671 157.626 200.728 157.472 200.783 157.406C200.916 157.235 201.118 157.168 201.389 157.203C201.525 157.221 201.654 157.268 201.777 157.344C201.91 157.417 201.97 157.503 201.957 157.602C201.95 157.657 201.927 157.743 201.888 157.862C201.854 157.982 201.806 158.136 201.744 158.326C201.682 158.515 201.601 158.751 201.499 159.031C201.403 159.308 201.292 159.641 201.167 160.029C201.157 160.073 201.131 160.162 201.091 160.294C201.05 160.427 201.006 160.568 200.959 160.718C200.912 160.864 200.869 161.001 200.829 161.129C200.79 161.252 200.766 161.329 200.757 161.36C200.65 161.719 200.561 162.059 200.491 162.38C200.421 162.702 200.364 163.028 200.321 163.358C200.168 164.51 200.147 165.383 200.257 165.976C200.372 166.571 200.576 166.887 200.87 166.926C201.041 166.949 201.209 166.946 201.374 166.917C201.539 166.884 201.706 166.825 201.873 166.742C202.045 166.659 202.222 166.551 202.405 166.419C202.589 166.282 202.785 166.122 202.993 165.938C203.112 165.834 203.221 165.743 203.319 165.664C203.417 165.585 203.504 165.55 203.581 165.561C203.63 165.567 203.657 165.61 203.66 165.688C203.669 165.763 203.668 165.836 203.659 165.909ZM198.636 163.376C198.522 163.334 198.439 163.263 198.388 163.164C198.341 163.066 198.325 162.961 198.34 162.848C198.352 162.757 198.383 162.626 198.434 162.453C198.484 162.281 198.515 162.147 198.528 162.052C198.539 161.971 198.528 161.877 198.496 161.772C198.469 161.663 198.427 161.561 198.371 161.466C198.315 161.366 198.248 161.282 198.17 161.212C198.097 161.138 198.02 161.095 197.939 161.085C197.699 161.053 197.341 161.261 196.863 161.708C196.622 161.938 196.397 162.159 196.19 162.37C195.987 162.583 195.798 162.794 195.623 163.006C195.432 163.233 195.266 163.444 195.126 163.637C194.99 163.83 194.873 164.003 194.775 164.156C194.432 164.694 194.239 165.128 194.196 165.458C194.14 165.878 194.255 166.107 194.539 166.145C194.792 166.178 195.16 166.077 195.641 165.842C196.139 165.591 196.528 165.357 196.81 165.142C197.103 164.904 197.348 164.705 197.544 164.542C197.74 164.38 197.895 164.248 198.01 164.149C198.124 164.049 198.231 163.934 198.331 163.805C198.435 163.676 198.537 163.533 198.636 163.376ZM216.616 163.918C216.606 163.995 216.592 164.085 216.574 164.189C216.556 164.287 216.534 164.402 216.508 164.531C216.482 164.657 216.453 164.786 216.422 164.92C216.395 165.054 216.365 165.193 216.332 165.336C216.3 165.479 216.271 165.606 216.247 165.718C216.224 165.825 216.205 165.917 216.19 165.993C216.077 166.607 215.927 167.236 215.741 167.878C215.556 168.515 215.35 169.12 215.122 169.692C214.753 170.641 214.295 171.433 213.746 172.069C213.192 172.713 212.509 172.981 211.695 172.873C211.162 172.803 210.639 172.626 210.125 172.342C209.614 172.063 209.199 171.711 208.878 171.287C208.691 170.996 208.604 170.801 208.618 170.701C208.632 170.588 208.683 170.464 208.77 170.328C208.861 170.198 208.952 170.139 209.042 170.151C209.092 170.157 209.131 170.19 209.16 170.249C209.285 170.486 209.409 170.677 209.532 170.822C210.063 171.435 210.809 171.805 211.772 171.932C212.151 171.982 212.507 171.845 212.839 171.521C213.007 171.364 213.159 171.191 213.294 171.002C213.434 170.814 213.561 170.615 213.677 170.405C213.792 170.194 213.898 169.979 213.997 169.757C214.095 169.536 214.187 169.309 214.273 169.077C214.347 168.861 214.404 168.69 214.444 168.561C214.489 168.434 214.516 168.348 214.527 168.303C214.574 168.117 214.614 167.936 214.647 167.761C214.679 167.586 214.72 167.414 214.77 167.246C214.635 167.288 214.356 167.403 213.931 167.59C213.682 167.7 213.456 167.799 213.251 167.887C213.046 167.974 212.864 168.051 212.703 168.118C212.382 168.254 212.023 168.377 211.627 168.486C211.227 168.594 210.905 168.632 210.661 168.599C210.236 168.543 209.931 168.33 209.745 167.961C209.559 167.592 209.496 167.186 209.554 166.743C209.596 166.427 209.677 166.079 209.796 165.699C209.858 165.51 209.918 165.334 209.976 165.171C210.039 165.005 210.103 164.85 210.168 164.707C210.233 164.564 210.309 164.393 210.395 164.193C210.485 163.993 210.592 163.763 210.713 163.504C210.778 163.361 210.845 163.238 210.913 163.137C210.983 163.031 211.056 162.947 211.133 162.883C211.216 162.816 211.307 162.771 211.406 162.747C211.506 162.724 211.624 162.721 211.759 162.739C211.89 162.756 211.984 162.844 212.041 163.003C212.095 163.153 212.112 163.302 212.092 163.452C212.08 163.542 212.049 163.621 211.999 163.687C211.972 163.721 211.933 163.768 211.884 163.831C211.834 163.893 211.771 163.97 211.695 164.061C211.618 164.152 211.558 164.229 211.512 164.292C211.468 164.35 211.439 164.397 211.425 164.432C211.375 164.536 211.33 164.626 211.293 164.704C211.255 164.782 211.221 164.846 211.191 164.898C211.166 164.949 211.137 165.012 211.104 165.086C211.072 165.155 211.034 165.238 210.989 165.333C210.904 165.519 210.838 165.692 210.789 165.851C210.746 166.006 210.712 166.174 210.688 166.355C210.664 166.536 210.672 166.76 210.71 167.027C210.751 167.303 210.838 167.45 210.969 167.468C211.366 167.52 211.863 167.469 212.458 167.313C213.054 167.153 213.604 166.915 214.11 166.6C214.616 166.286 214.942 165.945 215.087 165.578C215.112 165.526 215.136 165.447 215.16 165.339C215.183 165.232 215.206 165.113 215.227 164.983C215.254 164.849 215.28 164.709 215.303 164.565C215.327 164.421 215.35 164.284 215.371 164.154C215.398 164.019 215.423 163.901 215.446 163.798C215.469 163.691 215.494 163.611 215.519 163.56C215.691 163.159 215.909 162.977 216.171 163.011C216.419 163.044 216.564 163.128 216.606 163.262C216.652 163.406 216.655 163.625 216.616 163.918ZM227.89 165.484C227.88 165.561 227.842 165.641 227.776 165.724C227.709 165.807 227.627 165.891 227.529 165.974C227.431 166.053 227.322 166.131 227.202 166.207C227.082 166.278 226.963 166.345 226.844 166.408C226.726 166.466 226.613 166.517 226.506 166.563C226.404 166.605 226.32 166.635 226.253 166.654C226.129 166.688 225.967 166.712 225.767 166.727C225.573 166.738 225.37 166.744 225.159 166.743C224.947 166.743 224.741 166.739 224.54 166.731C224.339 166.718 224.171 166.703 224.035 166.685C223.981 166.678 223.908 166.659 223.815 166.628C223.723 166.597 223.629 166.562 223.533 166.522C223.437 166.482 223.346 166.44 223.26 166.396C223.179 166.349 223.12 166.304 223.085 166.263C223.102 166.44 223.116 166.618 223.124 166.799C223.133 166.975 223.125 167.155 223.101 167.34C223.09 167.422 223.065 167.52 223.027 167.634C222.994 167.749 222.951 167.865 222.899 167.982C222.851 168.096 222.8 168.206 222.744 168.314C222.689 168.417 222.635 168.502 222.58 168.568C222.436 168.751 222.29 168.916 222.142 169.062C221.999 169.208 221.839 169.341 221.662 169.46C221.491 169.575 221.3 169.681 221.089 169.778C220.879 169.874 220.64 169.962 220.372 170.041C220.085 170.123 219.801 170.17 219.519 170.184C219.242 170.193 218.956 170.178 218.662 170.139C218.477 170.115 218.32 170.039 218.189 169.911C218.059 169.784 217.956 169.623 217.881 169.429C217.806 169.231 217.757 169.008 217.734 168.762C217.716 168.516 217.725 168.262 217.759 168C217.768 167.932 217.784 167.849 217.806 167.751C217.833 167.653 217.862 167.554 217.894 167.452C217.93 167.351 217.966 167.255 218.001 167.163C218.036 167.071 218.069 166.993 218.101 166.928C218.189 166.746 218.308 166.542 218.458 166.313C218.608 166.085 218.778 165.854 218.97 165.622C219.162 165.386 219.371 165.158 219.598 164.94C219.825 164.717 220.058 164.523 220.296 164.356C220.534 164.19 220.776 164.063 221.022 163.976C221.267 163.889 221.506 163.861 221.736 163.892C221.813 163.902 221.872 163.921 221.915 163.95C221.961 163.979 221.998 164.014 222.025 164.054C222.056 164.095 222.083 164.137 222.105 164.182C222.126 164.226 222.153 164.271 222.183 164.316C222.194 164.341 222.213 164.355 222.24 164.358C222.276 164.363 222.322 164.36 222.379 164.349C222.436 164.338 222.498 164.337 222.566 164.346C222.651 164.357 222.75 164.428 222.862 164.558C222.974 164.683 223.089 164.822 223.206 164.975C223.329 165.125 223.451 165.265 223.571 165.396C223.697 165.523 223.814 165.594 223.923 165.608C224.045 165.624 224.176 165.639 224.317 165.653C224.457 165.667 224.6 165.679 224.746 165.689C224.893 165.695 225.037 165.698 225.179 165.698C225.322 165.699 225.453 165.695 225.574 165.688C225.607 165.683 225.684 165.673 225.805 165.657C225.927 165.641 226.067 165.622 226.226 165.602C226.391 165.578 226.562 165.552 226.74 165.525C226.923 165.499 227.091 165.475 227.246 165.454C227.401 165.429 227.528 165.409 227.626 165.394C227.729 165.38 227.785 165.374 227.794 165.375C227.821 165.378 227.845 165.388 227.866 165.405C227.887 165.422 227.895 165.448 227.89 165.484ZM222.461 165.87C222.446 165.776 222.403 165.681 222.333 165.584C222.267 165.488 222.187 165.399 222.092 165.318C222.002 165.237 221.903 165.169 221.795 165.113C221.688 165.053 221.585 165.016 221.486 165.003C221.404 164.992 221.324 164.996 221.243 165.012C221.163 165.029 221.081 165.055 220.998 165.09C220.921 165.122 220.844 165.16 220.77 165.205C220.695 165.246 220.626 165.285 220.561 165.322C220.365 165.448 220.168 165.636 219.969 165.885C219.776 166.131 219.598 166.402 219.435 166.697C219.277 166.989 219.141 167.284 219.028 167.581C218.915 167.879 218.844 168.141 218.814 168.367C218.801 168.466 218.804 168.565 218.823 168.664C218.847 168.759 218.886 168.847 218.94 168.928C218.994 169.004 219.061 169.07 219.141 169.127C219.222 169.179 219.314 169.212 219.418 169.226C219.689 169.261 219.946 169.247 220.189 169.183C220.432 169.114 220.658 169.008 220.865 168.865C221.077 168.719 221.271 168.537 221.447 168.322C221.623 168.106 221.778 167.869 221.913 167.611C222.049 167.348 222.162 167.069 222.252 166.773C222.346 166.478 222.416 166.176 222.461 165.87ZM238.642 166.822C238.636 166.867 238.616 166.918 238.581 166.973C238.37 167.28 238.131 167.596 237.863 167.919C237.595 168.242 237.31 168.556 237.008 168.861C236.705 169.166 236.392 169.451 236.067 169.716C235.748 169.977 235.43 170.204 235.115 170.397C234.805 170.586 234.504 170.73 234.21 170.829C233.922 170.924 233.658 170.956 233.418 170.924C232.894 170.855 232.509 170.602 232.264 170.165C232.023 169.728 231.944 169.12 232.029 168.341L231.945 168.295C231.894 168.335 231.807 168.417 231.685 168.544C231.567 168.671 231.424 168.817 231.255 168.983C231.091 169.146 230.907 169.314 230.705 169.49C230.507 169.666 230.305 169.823 230.098 169.961C229.972 170.041 229.819 170.138 229.639 170.252C229.463 170.362 229.266 170.467 229.046 170.567C228.831 170.663 228.597 170.742 228.345 170.805C228.094 170.864 227.834 170.883 227.566 170.861C227.245 170.819 227 170.724 226.831 170.578C226.662 170.431 226.542 170.257 226.472 170.055C226.403 169.852 226.369 169.634 226.373 169.4C226.381 169.167 226.399 168.942 226.427 168.725C226.431 168.698 226.445 168.63 226.468 168.523C226.491 168.416 226.523 168.282 226.562 168.122C226.602 167.957 226.65 167.775 226.704 167.575C226.762 167.376 226.825 167.175 226.893 166.973C226.967 166.766 227.044 166.565 227.125 166.369C227.211 166.169 227.304 165.988 227.403 165.827C227.457 165.737 227.504 165.654 227.547 165.577C227.594 165.5 227.639 165.437 227.682 165.388C227.731 165.334 227.782 165.295 227.836 165.27C227.89 165.24 227.954 165.228 228.027 165.233C228.117 165.245 228.189 165.273 228.243 165.317C228.302 165.361 228.345 165.415 228.373 165.479C228.402 165.538 228.419 165.602 228.424 165.672C228.433 165.742 228.433 165.811 228.424 165.879C228.415 165.946 228.366 166.076 228.276 166.266C228.191 166.457 228.094 166.69 227.984 166.965C227.874 167.24 227.764 167.55 227.654 167.894C227.55 168.234 227.472 168.592 227.423 168.967C227.413 169.039 227.409 169.126 227.409 169.227C227.41 169.323 227.425 169.42 227.454 169.515C227.483 169.607 227.528 169.688 227.587 169.76C227.651 169.829 227.74 169.87 227.853 169.885C228.008 169.897 228.17 169.886 228.34 169.853C228.51 169.816 228.68 169.765 228.85 169.7C229.024 169.631 229.193 169.552 229.357 169.463C229.521 169.37 229.672 169.273 229.809 169.172C229.956 169.067 230.113 168.945 230.278 168.806C230.449 168.663 230.615 168.515 230.778 168.362C230.941 168.204 231.095 168.048 231.24 167.892C231.385 167.736 231.507 167.592 231.608 167.458C231.659 167.386 231.73 167.281 231.822 167.141C231.919 167.002 232.014 166.854 232.108 166.697C232.207 166.54 232.296 166.39 232.374 166.249C232.457 166.108 232.513 166.001 232.541 165.926C232.568 165.861 232.59 165.799 232.607 165.742C232.628 165.685 232.649 165.63 232.67 165.578C232.691 165.521 232.715 165.462 232.742 165.401C232.768 165.34 232.8 165.271 232.838 165.193C232.856 165.163 232.885 165.133 232.926 165.101C232.972 165.066 233.024 165.036 233.083 165.012C233.141 164.987 233.201 164.97 233.262 164.96C233.324 164.945 233.382 164.941 233.436 164.948C233.562 164.965 233.652 165.016 233.705 165.101C233.763 165.187 233.789 165.287 233.783 165.401C233.782 165.405 233.764 165.456 233.728 165.552C233.697 165.649 233.655 165.777 233.602 165.935C233.549 166.094 233.49 166.275 233.427 166.478C233.368 166.681 233.308 166.892 233.247 167.109C233.186 167.322 233.131 167.533 233.08 167.742C233.035 167.948 233.001 168.134 232.979 168.301C232.916 168.78 232.946 169.161 233.069 169.444C233.198 169.723 233.393 169.88 233.655 169.914C233.881 169.944 234.125 169.91 234.386 169.811C234.652 169.708 234.924 169.565 235.201 169.381C235.483 169.197 235.761 168.988 236.036 168.753C236.316 168.514 236.584 168.276 236.84 168.039C237.098 167.797 237.337 167.567 237.559 167.348C237.781 167.129 237.973 166.945 238.135 166.797C238.295 166.666 238.416 166.606 238.497 166.617C238.547 166.623 238.585 166.647 238.612 166.687C238.639 166.728 238.649 166.773 238.642 166.822ZM243.424 167.84C243.407 167.971 243.356 168.077 243.272 168.158C243.188 168.234 243.094 168.266 242.991 168.252C242.828 168.23 242.705 168.187 242.622 168.12C242.543 168.055 242.474 167.986 242.415 167.914C242.355 167.842 242.293 167.774 242.228 167.71C242.167 167.647 242.074 167.607 241.947 167.59C241.834 167.575 241.707 167.595 241.567 167.65C241.426 167.705 241.281 167.782 241.129 167.882C240.979 167.977 240.826 168.088 240.672 168.214C240.522 168.342 240.376 168.472 240.234 168.605C240.134 168.697 240.023 168.809 239.9 168.94C239.782 169.067 239.663 169.203 239.543 169.348C239.423 169.488 239.31 169.632 239.203 169.779C239.097 169.921 239.008 170.056 238.936 170.185C238.881 170.283 238.821 170.39 238.755 170.506C238.69 170.616 238.624 170.734 238.557 170.859C238.495 170.979 238.435 171.104 238.376 171.235C238.322 171.365 238.275 171.495 238.235 171.623C238.183 171.809 238.133 171.982 238.084 172.141C238.04 172.3 237.992 172.439 237.94 172.556C237.892 172.674 237.837 172.763 237.773 172.824C237.71 172.884 237.636 172.909 237.55 172.898C237.392 172.877 237.264 172.834 237.167 172.771C237.074 172.708 237.003 172.632 236.955 172.543C236.908 172.45 236.878 172.347 236.865 172.235C236.857 172.123 236.856 172.008 236.863 171.89C236.874 171.698 236.882 171.515 236.887 171.341C236.896 171.168 236.903 170.992 236.908 170.813C236.918 170.635 236.931 170.446 236.949 170.246C236.966 170.046 236.991 169.82 237.025 169.567C237.056 169.327 237.1 169.064 237.157 168.777C237.213 168.491 237.27 168.215 237.328 167.952C237.39 167.689 237.448 167.457 237.502 167.258C237.561 167.054 237.607 166.92 237.638 166.855C237.694 166.747 237.76 166.646 237.837 166.55C237.915 166.45 237.995 166.364 238.078 166.293C238.166 166.217 238.254 166.16 238.342 166.121C238.43 166.082 238.508 166.067 238.576 166.076C238.634 166.083 238.692 166.1 238.748 166.126C238.81 166.148 238.86 166.182 238.9 166.229C238.944 166.276 238.976 166.335 238.994 166.407C239.016 166.479 239.021 166.564 239.008 166.664C239.003 166.7 238.969 166.787 238.904 166.926C238.845 167.061 238.776 167.217 238.698 167.395C238.619 167.573 238.539 167.76 238.458 167.956C238.381 168.153 238.324 168.327 238.286 168.478C238.281 168.51 238.271 168.571 238.255 168.66C238.238 168.75 238.22 168.856 238.199 168.977C238.179 169.094 238.158 169.22 238.135 169.355C238.113 169.49 238.094 169.618 238.077 169.74C238.066 169.826 238.056 169.903 238.047 169.971C238.043 170.039 238.04 170.096 238.038 170.142C238.089 170.07 238.15 169.973 238.222 169.849C238.298 169.721 238.383 169.583 238.476 169.434C238.575 169.282 238.675 169.13 238.778 168.978C238.886 168.822 238.997 168.678 239.111 168.546C239.231 168.406 239.363 168.253 239.509 168.088C239.66 167.924 239.819 167.762 239.988 167.6C240.156 167.438 240.333 167.282 240.518 167.132C240.708 166.983 240.9 166.854 241.093 166.746C241.291 166.639 241.493 166.56 241.697 166.509C241.902 166.453 242.106 166.439 242.31 166.466C242.526 166.494 242.709 166.555 242.858 166.648C243.011 166.738 243.132 166.848 243.221 166.979C243.314 167.106 243.376 167.246 243.407 167.397C243.438 167.548 243.443 167.696 243.424 167.84ZM254.984 169.851C254.907 170.158 254.832 170.499 254.759 170.876C254.686 171.252 254.601 171.671 254.503 172.132C254.467 172.301 254.423 172.493 254.372 172.707C254.321 172.921 254.266 173.141 254.209 173.368C254.151 173.595 254.094 173.82 254.037 174.042C253.981 174.26 253.927 174.457 253.876 174.634C253.801 174.891 253.713 175.155 253.613 175.427C253.512 175.703 253.396 175.973 253.265 176.236C253.133 176.499 252.981 176.746 252.808 176.976C252.64 177.206 252.449 177.402 252.234 177.562C252.019 177.726 251.778 177.846 251.511 177.921C251.248 178.001 250.956 178.02 250.635 177.978C250.431 177.951 250.229 177.899 250.028 177.822C249.827 177.745 249.63 177.65 249.438 177.537C249.25 177.429 249.069 177.304 248.895 177.162C248.724 177.024 248.569 176.88 248.428 176.728C248.271 176.56 248.135 176.39 248.019 176.219C247.904 176.052 247.811 175.883 247.742 175.713C247.671 175.548 247.646 175.39 247.666 175.241C247.684 175.101 247.739 175.037 247.829 175.049C247.861 175.053 247.893 175.073 247.925 175.11C247.941 175.126 247.961 175.149 247.984 175.18C248.003 175.21 248.023 175.238 248.042 175.263C248.061 175.293 248.079 175.319 248.094 175.339C248.109 175.364 248.119 175.379 248.123 175.384C248.889 176.304 249.766 176.829 250.756 176.96C251.085 177.003 251.364 176.962 251.592 176.836C251.825 176.715 252.018 176.54 252.172 176.312C252.33 176.09 252.46 175.833 252.563 175.544C252.67 175.259 252.765 174.975 252.848 174.692C252.899 174.515 252.946 174.337 252.987 174.158C253.034 173.981 253.079 173.796 253.123 173.604C253.167 173.408 253.213 173.202 253.259 172.988C253.306 172.773 253.358 172.541 253.414 172.291C253.202 172.465 252.939 172.647 252.625 172.835C252.315 173.019 251.985 173.185 251.635 173.332C251.289 173.479 250.943 173.594 250.596 173.677C250.255 173.756 249.946 173.777 249.671 173.741C249.553 173.725 249.449 173.684 249.356 173.617C249.264 173.549 249.188 173.461 249.129 173.352C249.071 173.239 249.028 173.107 249.002 172.956C248.981 172.802 248.983 172.634 249.007 172.453C249.041 172.191 249.123 171.917 249.253 171.631C249.383 171.345 249.537 171.064 249.716 170.789C249.896 170.509 250.089 170.243 250.298 169.99C250.506 169.732 250.707 169.504 250.898 169.304C251.09 169.108 251.316 168.909 251.578 168.704C251.84 168.495 252.115 168.311 252.402 168.151C252.695 167.988 252.992 167.861 253.294 167.772C253.595 167.684 253.881 167.657 254.152 167.693C254.392 167.724 254.608 167.808 254.802 167.944C254.996 168.076 255.135 168.255 255.22 168.482C255.241 168.535 255.247 168.612 255.238 168.712C255.23 168.808 255.213 168.918 255.187 169.043C255.162 169.164 255.131 169.295 255.094 169.438C255.057 169.575 255.021 169.713 254.984 169.851ZM253.71 170.937C253.746 170.804 253.785 170.644 253.828 170.456C253.872 170.265 253.926 170.028 253.991 169.747C254.024 169.6 254.058 169.452 254.091 169.305C254.129 169.158 254.14 169.036 254.126 168.937C254.107 168.802 254.048 168.709 253.949 168.659C253.85 168.609 253.683 168.569 253.448 168.537C253.213 168.644 252.974 168.783 252.731 168.953C252.492 169.124 252.258 169.311 252.029 169.515C251.804 169.72 251.592 169.936 251.392 170.162C251.192 170.384 251.014 170.604 250.856 170.822C250.682 171.061 250.538 171.304 250.422 171.551C250.307 171.793 250.238 172.002 250.215 172.179C250.205 172.255 250.21 172.32 250.231 172.374C250.256 172.428 250.289 172.473 250.33 172.511C250.376 172.545 250.427 172.572 250.484 172.593C250.546 172.611 250.609 172.624 250.672 172.632C250.831 172.653 251.004 172.641 251.194 172.598C251.388 172.554 251.582 172.495 251.776 172.419C251.97 172.344 252.155 172.263 252.332 172.176C252.51 172.084 252.663 172.001 252.793 171.926C252.847 171.897 252.92 171.849 253.012 171.783C253.103 171.717 253.196 171.639 253.291 171.551C253.386 171.458 253.472 171.359 253.551 171.254C253.629 171.149 253.682 171.044 253.71 170.937ZM266.31 170.865C266.3 170.942 266.272 171.018 266.225 171.095C266.183 171.167 266.13 171.239 266.065 171.308C266.002 171.373 265.931 171.435 265.855 171.494C265.783 171.549 265.711 171.592 265.638 171.624C265.466 171.707 265.228 171.77 264.923 171.812C264.624 171.851 264.26 171.842 263.83 171.785C263.487 171.74 263.147 171.651 262.81 171.519C262.475 171.383 262.16 171.192 261.866 170.946C261.949 171.118 261.994 171.278 262.002 171.426C262.015 171.575 262.008 171.749 261.982 171.948C261.934 172.305 261.794 172.672 261.56 173.05C261.33 173.434 261.052 173.781 260.726 174.092C260.4 174.403 260.066 174.653 259.724 174.842C259.53 174.95 259.321 175.039 259.095 175.11C258.875 175.178 258.645 175.228 258.406 175.261C258.168 175.289 257.923 175.303 257.67 175.301C257.418 175.296 257.165 175.276 256.912 175.243C256.736 175.219 256.572 175.14 256.42 175.005C256.268 174.87 256.137 174.713 256.027 174.533C255.918 174.353 255.834 174.165 255.778 173.969C255.725 173.773 255.709 173.601 255.729 173.452C255.777 173.086 255.871 172.742 256.01 172.42C256.154 172.095 256.328 171.787 256.532 171.496C256.741 171.202 256.973 170.92 257.23 170.651C257.487 170.377 257.757 170.107 258.04 169.841C258.198 169.692 258.373 169.549 258.565 169.414C258.763 169.274 258.965 169.154 259.172 169.053C259.378 168.951 259.584 168.875 259.788 168.824C259.993 168.768 260.184 168.752 260.36 168.775C260.504 168.794 260.626 168.831 260.724 168.885C260.823 168.94 260.912 169.011 260.993 169.1C261.078 169.185 261.161 169.29 261.241 169.416C261.325 169.542 261.421 169.683 261.529 169.84C261.565 169.886 261.667 169.962 261.837 170.067C262.012 170.168 262.219 170.274 262.457 170.383C262.701 170.489 262.956 170.589 263.224 170.685C263.493 170.775 263.74 170.835 263.966 170.865C264.192 170.895 264.4 170.916 264.592 170.927C264.784 170.934 264.971 170.931 265.152 170.919C265.337 170.906 265.522 170.88 265.707 170.84C265.891 170.8 266.091 170.749 266.306 170.685C266.315 170.755 266.317 170.815 266.31 170.865ZM261.033 171.822C261.054 171.696 261.064 171.553 261.062 171.392C261.061 171.226 261.04 171.069 261 170.922C260.965 170.77 260.906 170.642 260.823 170.54C260.745 170.437 260.636 170.386 260.499 170.386C260.301 170.278 260.141 170.169 260.018 170.061C259.894 169.953 259.796 169.894 259.724 169.884C259.669 169.877 259.608 169.887 259.54 169.915C259.473 169.938 259.401 169.975 259.326 170.025C259.25 170.074 259.171 170.135 259.088 170.207C259.01 170.275 258.932 170.347 258.852 170.424C258.694 170.582 258.546 170.726 258.409 170.855C258.277 170.985 258.15 171.115 258.027 171.246C257.909 171.373 257.792 171.509 257.676 171.655C257.561 171.796 257.443 171.957 257.323 172.139C257.271 172.215 257.222 172.307 257.176 172.416C257.129 172.525 257.087 172.638 257.048 172.757C257.01 172.872 256.976 172.989 256.946 173.109C256.922 173.226 256.903 173.331 256.89 173.426C256.883 173.485 256.894 173.56 256.923 173.651C256.953 173.738 256.994 173.826 257.046 173.916C257.104 174.001 257.17 174.077 257.244 174.142C257.323 174.207 257.403 174.246 257.484 174.256C257.715 174.287 257.912 174.304 258.077 174.307C258.243 174.306 258.397 174.29 258.539 174.258C258.686 174.222 258.836 174.168 258.988 174.096C259.14 174.025 259.318 173.929 259.522 173.808C259.622 173.753 259.72 173.685 259.818 173.606C259.92 173.528 260.021 173.445 260.12 173.357C260.219 173.264 260.314 173.171 260.405 173.077C260.496 172.979 260.582 172.882 260.664 172.787C260.718 172.725 260.768 172.647 260.812 172.552C260.857 172.456 260.895 172.36 260.926 172.263C260.957 172.166 260.981 172.077 260.996 171.997C261.016 171.917 261.028 171.858 261.033 171.822ZM268.467 171.502C268.473 171.456 268.462 171.404 268.433 171.345C268.409 171.282 268.373 171.222 268.325 171.166C268.283 171.105 268.232 171.052 268.174 171.008C268.115 170.963 268.059 170.937 268.005 170.93C267.865 170.912 267.731 170.917 267.603 170.946C267.479 170.976 267.361 171.02 267.247 171.078C267.134 171.132 267.027 171.199 266.925 171.277C266.827 171.356 266.738 171.436 266.658 171.518C266.468 171.704 266.267 171.937 266.056 172.217C265.849 172.493 265.654 172.787 265.47 173.098C265.291 173.41 265.135 173.721 265.002 174.029C264.874 174.339 264.794 174.618 264.761 174.866C264.744 174.993 264.786 175.109 264.887 175.214C264.988 175.319 265.134 175.384 265.323 175.409C265.432 175.424 265.567 175.393 265.729 175.318C265.895 175.239 266.07 175.131 266.254 174.995C266.443 174.854 266.629 174.693 266.814 174.51C267.004 174.328 267.174 174.137 267.325 173.936C267.609 173.56 267.855 173.177 268.063 172.786C268.271 172.39 268.406 171.962 268.467 171.502ZM274.018 171.918C274.013 171.959 273.964 172.067 273.872 172.243C273.784 172.42 273.659 172.634 273.497 172.883C273.341 173.129 273.151 173.398 272.929 173.691C272.711 173.984 272.471 174.265 272.21 174.534C271.89 174.868 271.579 175.156 271.276 175.396C270.973 175.637 270.687 175.833 270.419 175.986C270.155 176.135 269.916 176.244 269.7 176.312C269.485 176.375 269.303 176.397 269.153 176.378C268.905 176.345 268.708 176.284 268.564 176.196C268.42 176.104 268.307 175.981 268.226 175.828C268.146 175.67 268.089 175.478 268.054 175.253C268.025 175.024 268 174.756 267.981 174.451L267.886 174.438C267.658 174.702 267.412 174.961 267.149 175.216C266.89 175.467 266.624 175.689 266.35 175.883C266.082 176.073 265.809 176.221 265.533 176.327C265.262 176.433 265.002 176.47 264.753 176.437C264.622 176.42 264.487 176.379 264.349 176.315C264.211 176.246 264.088 176.152 263.979 176.032C263.871 175.912 263.787 175.767 263.726 175.598C263.667 175.425 263.652 175.225 263.681 174.999C263.708 174.801 263.762 174.578 263.845 174.332C263.929 174.081 264.032 173.823 264.154 173.559C264.277 173.29 264.412 173.023 264.557 172.757C264.708 172.487 264.861 172.234 265.016 171.997C265.176 171.761 265.333 171.549 265.486 171.363C265.64 171.172 265.784 171.023 265.917 170.916C266.072 170.79 266.249 170.664 266.45 170.538C266.655 170.414 266.876 170.305 267.114 170.212C267.351 170.12 267.601 170.052 267.865 170.008C268.128 169.96 268.4 169.955 268.68 169.992C268.906 170.022 269.066 170.119 269.159 170.283C269.253 170.442 269.303 170.674 269.308 170.978C269.309 171.006 269.321 171.04 269.343 171.079C269.37 171.12 269.396 171.165 269.422 171.214C269.452 171.264 269.478 171.316 269.498 171.369C269.519 171.418 269.527 171.467 269.52 171.517C269.51 171.589 269.483 171.677 269.437 171.781C269.391 171.881 269.339 171.996 269.281 172.126C269.227 172.252 269.174 172.393 269.122 172.547C269.07 172.696 269.033 172.856 269.01 173.028C268.979 173.263 268.948 173.514 268.917 173.781C268.887 174.048 268.879 174.298 268.894 174.53C268.915 174.758 268.969 174.954 269.058 175.117C269.151 175.281 269.304 175.377 269.516 175.405C269.625 175.419 269.76 175.391 269.921 175.321C270.086 175.251 270.27 175.146 270.472 175.007C270.679 174.869 270.897 174.7 271.125 174.501C271.359 174.302 271.599 174.081 271.847 173.838C272.133 173.558 272.385 173.279 272.606 173C272.828 172.717 273.021 172.467 273.188 172.25C273.355 172.028 273.496 171.851 273.61 171.719C273.724 171.583 273.816 171.519 273.883 171.528L273.89 171.529C273.966 171.543 274.013 171.572 274.03 171.616C274.047 171.66 274.052 171.713 274.044 171.776C274.041 171.799 274.038 171.822 274.035 171.844C274.032 171.867 274.026 171.891 274.018 171.918ZM278.302 175.449C278.295 175.503 278.262 175.579 278.203 175.677C278.149 175.771 278.081 175.87 277.998 175.974C277.921 176.074 277.839 176.174 277.752 176.273C277.67 176.372 277.597 176.455 277.533 176.52C277.321 176.731 277.081 176.931 276.813 177.121C276.549 177.307 276.277 177.468 275.997 177.606C275.717 177.744 275.436 177.847 275.156 177.916C274.88 177.985 274.623 178.004 274.383 177.972C274.017 177.924 273.711 177.81 273.463 177.63C273.22 177.451 273.031 177.212 272.896 176.914C272.766 176.611 272.687 176.252 272.659 175.834C272.632 175.412 272.653 174.939 272.723 174.415C272.766 174.09 272.826 173.737 272.904 173.357C272.982 172.972 273.074 172.577 273.178 172.172C273.282 171.763 273.396 171.353 273.519 170.942C273.643 170.531 273.771 170.136 273.903 169.758C274.036 169.38 274.17 169.03 274.304 168.708C274.439 168.381 274.571 168.1 274.699 167.864C274.831 167.624 274.955 167.438 275.069 167.306C275.187 167.174 275.292 167.115 275.382 167.127C275.49 167.141 275.577 167.201 275.641 167.306C275.71 167.407 275.763 167.513 275.799 167.623C275.692 168.05 275.527 168.569 275.304 169.178C275.085 169.788 274.825 170.508 274.522 171.336C274.436 171.569 274.356 171.811 274.281 172.063C274.212 172.311 274.147 172.562 274.085 172.816C274.029 173.071 273.977 173.324 273.93 173.575C273.884 173.822 273.846 174.056 273.817 174.277C273.712 175.068 273.733 175.689 273.881 176.14C274.033 176.588 274.353 176.844 274.841 176.909C275.071 176.939 275.305 176.926 275.542 176.87C275.78 176.81 276.01 176.725 276.231 176.616C276.457 176.504 276.674 176.379 276.881 176.24C277.088 176.098 277.281 175.958 277.46 175.82C277.516 175.777 277.584 175.722 277.661 175.654C277.744 175.587 277.821 175.523 277.893 175.464C277.971 175.401 278.04 175.348 278.101 175.305C278.162 175.258 278.202 175.236 278.22 175.238C278.292 175.248 278.32 175.318 278.302 175.449Z" fill="#4DB6FB"/>
<path d="M313.866 168.468L313.866 168.468L313.597 168.231L320.876 167.654C324.363 167.377 326.351 167.221 327.512 167.137C328.682 167.052 328.997 167.042 329.157 167.051C331.457 167.188 333.547 168.453 334.737 170.429C334.868 170.647 335.024 170.929 335.082 171.053C335.134 171.162 335.217 171.361 335.289 171.542C335.295 171.558 335.301 171.573 335.307 171.588C335.217 171.596 335.11 171.605 334.987 171.616C334.561 171.653 333.945 171.704 333.184 171.767C331.661 171.893 329.561 172.062 327.251 172.244L318.959 172.9L316.824 171.045C315.603 169.985 314.272 168.825 313.866 168.468ZM340.721 178.968L340.949 178.833L340.721 178.968C340.885 179.247 341.112 179.722 341.246 180.058L330.571 180.904L319.662 181.769L317.193 179.627L317.019 179.828L317.193 179.627C315.876 178.484 314.625 177.393 314.291 177.098L324.159 176.315C324.729 176.27 325.27 176.227 325.782 176.186C330.428 175.818 332.747 175.633 333.994 175.557C334.687 175.515 335.038 175.507 335.269 175.518C335.447 175.526 335.552 175.544 335.706 175.572C335.746 175.579 335.79 175.587 335.839 175.595C336.656 175.735 337.369 175.989 338.104 176.402L338.234 176.171L338.104 176.402C339.203 177.019 340.078 177.878 340.721 178.968ZM326.25 190.17L326.139 190.179L326.067 190.265L324.398 192.262L322.801 194.173L318.988 194.475L315.696 194.737L315.74 194.683L315.74 194.683L319.942 189.669L323.621 185.28L332.7 184.56C335.228 184.359 337.525 184.178 339.191 184.049C340.024 183.984 340.699 183.932 341.165 183.896C341.313 183.885 341.439 183.876 341.544 183.868C341.531 183.918 341.518 183.972 341.504 184.028C341.439 184.278 341.361 184.556 341.304 184.724L341.304 184.724C340.491 187.115 338.455 188.883 335.956 189.364C335.921 189.371 335.779 189.387 335.519 189.413C335.266 189.437 334.917 189.469 334.483 189.506C333.614 189.582 332.408 189.681 330.955 189.796L326.25 190.17Z" fill="#47B5FF" stroke="#47B5FF" stroke-width="0.530914"/>
<path d="M313.145 221.167L309.073 169.828" stroke="#47B5FF" stroke-width="3" stroke-linecap="round"/>
</g>
</svg>
