<svg width="384" height="513" viewBox="0 0 384 513" fill="none" xmlns="http://www.w3.org/2000/svg">
<mask id="mask0_2373_80309" style="mask-type:alpha" maskUnits="userSpaceOnUse" x="0" y="0" width="384" height="513">
<rect width="384" height="513" fill="#D9D9D9"/>
</mask>
<g mask="url(#mask0_2373_80309)">
<path d="M18 383.5C84.5 328.167 249.5 235.7 377.5 308.5C505.5 381.3 638.833 303.5 689.5 255.5C753.833 206.333 910.4 133 1022 233C1133.6 333 1279.83 187.333 1339 102L1412.5 135.5" stroke="#47B5FF" stroke-width="2" stroke-linecap="round" stroke-dasharray="9.9 9.9"/>
<rect width="41" height="34.5686" transform="translate(49 327)" fill="#F8F8F8"/>
<path d="M63.75 344.415C68.3347 341.613 75.2965 342.494 75.3628 346.312C75.4395 350.718 69.7202 353.53 64.7324 353.53C58.8216 353.53 54.9412 348.072 58.2583 342.575C61.7598 336.773 69.3313 334.461 74.7818 335.161C80.9535 335.953 85.2837 343.503 78.5857 351.889" stroke="#FBCB33" stroke-width="4.01961" stroke-linecap="round"/>
<rect width="41" height="34.5686" transform="translate(199 265)" fill="#F8F8F8"/>
<path d="M213.75 282.415C218.335 279.613 225.296 280.494 225.363 284.312C225.439 288.718 219.72 291.53 214.732 291.53C208.822 291.53 204.941 286.072 208.258 280.575C211.76 274.773 219.331 272.461 224.782 273.161C230.954 273.953 235.284 281.503 228.586 289.889" stroke="#FBCB33" stroke-width="4.01961" stroke-linecap="round"/>
<rect width="41" height="34.5686" transform="translate(344 283)" fill="#F8F8F8"/>
<path d="M358.75 300.415C363.335 297.613 370.296 298.494 370.363 302.312C370.439 306.718 364.72 309.53 359.732 309.53C353.822 309.53 349.941 304.072 353.258 298.575C356.76 292.773 364.331 290.461 369.782 291.161C375.954 291.953 380.284 299.503 373.586 307.889" stroke="#FBCB33" stroke-width="4.01961" stroke-linecap="round"/>
<path d="M163.52 263.713L133.509 256.816L138.077 265.195L116.034 270.518C116.034 270.518 119.62 273.712 121.845 278.09C124.07 282.468 124.393 287.955 124.393 287.955L144.358 277.323L146.442 287.318L163.52 263.713Z" stroke="#FF2B80" stroke-width="1.92587"/>
<path d="M319.491 247.825L294.544 229.771L295.485 239.269L273.11 235.576C273.11 235.576 275.167 239.915 275.509 244.814C275.851 249.714 274.009 254.892 274.009 254.892L296.539 252.886L294.561 262.902L319.491 247.825Z" stroke="#FF2B80" stroke-width="1.92587"/>
<path d="M399 202.765V232.529C399 233.634 398.105 234.529 397 234.529H396.101H371.373C370.867 234.529 370.381 234.721 370.011 235.065L364.937 239.783C364.191 240.476 363.044 240.499 362.272 239.836L356.652 235.012C356.289 234.701 355.828 234.529 355.35 234.529H331.735C330.279 234.529 329.204 233.805 328.622 233.209C328.359 232.939 328.252 232.571 328.245 232.195C328.052 222.601 327.801 204.149 328.256 202.765C328.72 201.353 329.996 201 330.576 201H396.101C398.42 201 399 202.176 399 202.765Z" fill="white"/>
<path d="M399 202.765V232.529C399 233.634 398.105 234.529 397 234.529H396.101H371.373C370.867 234.529 370.381 234.721 370.011 235.065L364.937 239.783C364.191 240.476 363.044 240.499 362.272 239.836L356.652 235.012C356.289 234.701 355.828 234.529 355.35 234.529H331.735C330.279 234.529 329.204 233.805 328.622 233.209C328.359 232.939 328.252 232.571 328.245 232.195C328.052 222.601 327.801 204.149 328.256 202.765C328.72 201.353 329.996 201 330.576 201H396.101C398.42 201 399 202.176 399 202.765Z" fill="#47B5FF" fill-opacity="0.12"/>
<path d="M399 202.765V232.529C399 233.634 398.105 234.529 397 234.529H396.101H371.373C370.867 234.529 370.381 234.721 370.011 235.065L364.937 239.783C364.191 240.476 363.044 240.499 362.272 239.836L356.652 235.012C356.289 234.701 355.828 234.529 355.35 234.529H331.735C330.279 234.529 329.204 233.805 328.622 233.209C328.359 232.939 328.252 232.571 328.245 232.195C328.052 222.601 327.801 204.149 328.256 202.765C328.72 201.353 329.996 201 330.576 201H396.101C398.42 201 399 202.176 399 202.765Z" stroke="#47B5FF" stroke-width="2" stroke-linecap="round"/>
<path d="M343.985 211.862C343.985 211.938 343.976 212.032 343.958 212.143C343.94 212.254 343.913 212.368 343.878 212.486C343.848 212.597 343.81 212.705 343.763 212.81C343.722 212.91 343.675 212.989 343.622 213.047C343.481 213.217 343.229 213.301 342.865 213.301C342.866 212.902 342.811 212.571 342.701 212.307C342.648 212.184 342.552 212.081 342.411 211.999C342.277 211.911 342.125 211.837 341.955 211.778C341.785 211.719 341.612 211.678 341.436 211.654C341.267 211.624 341.12 211.609 340.997 211.609C340.716 211.609 340.443 211.614 340.18 211.625C339.922 211.636 339.667 211.662 339.415 211.702C339.169 211.737 338.917 211.789 338.659 211.859C338.407 211.923 338.143 212.01 337.867 212.121C337.656 212.208 337.436 212.313 337.207 212.436C336.978 212.553 336.767 212.687 336.574 212.839C336.38 212.991 336.212 213.157 336.071 213.339C335.93 213.52 335.842 213.719 335.806 213.936C335.794 214.1 335.844 214.287 335.955 214.499C336.066 214.71 336.214 214.915 336.402 215.115C336.594 215.314 336.814 215.496 337.06 215.661C337.311 215.826 337.572 215.946 337.841 216.023C337.888 216.041 337.996 216.079 338.166 216.138C338.336 216.197 338.517 216.259 338.71 216.324C338.91 216.389 339.091 216.451 339.255 216.51C339.425 216.563 339.533 216.595 339.58 216.607C340.903 216.95 341.884 217.356 342.522 217.826C343.165 218.291 343.486 218.86 343.485 219.534C343.484 219.75 343.434 219.967 343.334 220.184C343.24 220.394 343.119 220.599 342.972 220.798C342.825 220.991 342.667 221.169 342.496 221.333C342.326 221.497 342.168 221.634 342.021 221.745C341.851 221.88 341.657 222.02 341.44 222.166C341.223 222.306 340.991 222.443 340.745 222.577C340.498 222.712 340.243 222.837 339.979 222.954C339.715 223.07 339.448 223.172 339.179 223.259C338.915 223.347 338.636 223.425 338.343 223.495C338.056 223.571 337.769 223.634 337.482 223.686C337.2 223.739 336.928 223.779 336.664 223.808C336.406 223.842 336.174 223.859 335.969 223.859C335.817 223.859 335.618 223.835 335.372 223.787C335.132 223.746 334.895 223.684 334.66 223.601C334.426 223.525 334.224 223.43 334.055 223.319C333.891 223.213 333.809 223.098 333.809 222.975C333.809 222.899 333.818 222.805 333.836 222.694C333.86 222.583 333.889 222.475 333.925 222.369C333.966 222.264 334.01 222.176 334.057 222.106C334.11 222.03 334.169 221.992 334.233 221.992C334.35 221.992 334.47 222.013 334.593 222.054C334.722 222.09 334.872 222.131 335.041 222.178C335.217 222.225 335.422 222.27 335.656 222.311C335.897 222.347 336.187 222.365 336.526 222.366C336.878 222.367 337.241 222.332 337.616 222.263C337.997 222.188 338.37 222.089 338.733 221.967C339.097 221.844 339.443 221.704 339.771 221.547C340.106 221.389 340.405 221.226 340.669 221.057C340.792 220.975 340.927 220.881 341.074 220.776C341.226 220.665 341.367 220.545 341.496 220.417C341.626 220.288 341.734 220.151 341.823 220.004C341.911 219.858 341.955 219.706 341.955 219.548C341.956 219.325 341.792 219.111 341.465 218.905C341.143 218.705 340.812 218.549 340.472 218.437C340.139 218.325 339.84 218.236 339.577 218.171C339.254 218.089 338.891 217.98 338.487 217.844C338.089 217.708 337.65 217.546 337.17 217.358C336.374 217.051 335.701 216.604 335.152 216.017C334.602 215.43 334.328 214.723 334.33 213.897C334.319 213.511 334.437 213.139 334.684 212.782C334.937 212.425 335.274 212.095 335.697 211.791C336.119 211.487 336.6 211.219 337.14 210.985C337.685 210.746 338.245 210.56 338.82 210.427C338.937 210.403 339.078 210.377 339.242 210.348C339.412 210.32 339.585 210.296 339.761 210.279C339.942 210.256 340.115 210.239 340.279 210.228C340.449 210.21 340.593 210.202 340.71 210.202C340.851 210.203 341.027 210.215 341.237 210.239C341.454 210.257 341.674 210.283 341.896 210.319C342.125 210.355 342.339 210.399 342.538 210.452C342.743 210.506 342.907 210.567 343.029 210.638C343.328 210.797 343.562 210.988 343.731 211.211C343.901 211.434 343.985 211.651 343.985 211.862ZM347.684 220.545C347.685 220.052 347.727 219.569 347.81 219.095C347.899 218.62 347.994 218.169 348.094 217.742C348.201 217.308 348.295 216.91 348.378 216.547C348.467 216.184 348.511 215.868 348.512 215.598C348.512 215.51 348.486 215.457 348.433 215.44C348.38 215.416 348.31 215.404 348.222 215.404C348.152 215.404 348.073 215.413 347.985 215.43C347.903 215.447 347.815 215.465 347.721 215.482C347.633 215.5 347.545 215.517 347.457 215.534C347.375 215.552 347.302 215.56 347.238 215.56C347.038 215.56 346.863 215.559 346.71 215.559C346.558 215.553 346.429 215.529 346.324 215.488C346.218 215.447 346.139 215.376 346.087 215.276C346.034 215.177 346.008 215.03 346.009 214.837C346.009 214.755 346.035 214.687 346.088 214.635C346.147 214.576 346.217 214.53 346.299 214.495C346.387 214.46 346.481 214.437 346.581 214.425C346.686 214.408 346.786 214.399 346.88 214.399C346.95 214.399 347.055 214.394 347.196 214.382C347.343 214.365 347.495 214.348 347.653 214.331C347.817 214.308 347.973 214.287 348.119 214.27C348.266 214.253 348.374 214.241 348.445 214.236C348.538 214.23 348.629 214.183 348.717 214.096C348.805 214.002 348.882 213.894 348.947 213.771C349.011 213.648 349.064 213.522 349.106 213.393C349.153 213.265 349.185 213.156 349.203 213.068C349.233 212.91 349.268 212.714 349.31 212.48C349.357 212.24 349.407 212 349.461 211.759C349.514 211.513 349.57 211.282 349.629 211.065C349.694 210.843 349.759 210.667 349.824 210.539C349.894 210.398 349.977 210.293 350.07 210.223C350.164 210.147 350.282 210.109 350.422 210.109C350.838 210.11 351.046 210.336 351.045 210.787C351.044 211.057 350.982 211.376 350.858 211.745C350.823 211.862 350.781 212.003 350.734 212.166C350.687 212.33 350.643 212.5 350.601 212.676C350.56 212.846 350.524 213.007 350.495 213.159C350.465 213.311 350.45 213.434 350.45 213.528C350.45 213.733 350.555 213.836 350.766 213.836C351.018 213.837 351.237 213.835 351.425 213.829C351.612 213.824 351.797 213.812 351.979 213.795C352.16 213.778 352.357 213.752 352.568 213.717C352.785 213.683 353.048 213.633 353.359 213.57C353.611 213.517 353.802 213.477 353.931 213.448C354.065 213.413 354.183 213.381 354.282 213.352C354.382 213.323 354.485 213.294 354.59 213.265C354.702 213.23 354.854 213.186 355.048 213.134C355.047 213.146 355.065 213.166 355.1 213.196C355.141 213.219 355.182 213.248 355.223 213.284C355.27 213.319 355.311 213.354 355.346 213.389C355.381 213.419 355.398 213.442 355.398 213.46C355.398 213.559 355.377 213.65 355.336 213.732C355.295 213.808 355.242 213.878 355.178 213.943C355.119 214.007 355.051 214.066 354.975 214.118C354.899 214.165 354.823 214.209 354.746 214.249C354.371 214.413 353.955 214.541 353.497 214.633C353.046 214.726 352.601 214.807 352.161 214.877C351.868 214.923 351.604 214.963 351.37 214.998C351.135 215.033 350.93 215.07 350.754 215.111C350.584 215.152 350.44 215.198 350.323 215.251C350.206 215.297 350.121 215.361 350.068 215.443C350.038 215.531 349.994 215.683 349.935 215.9C349.882 216.117 349.82 216.36 349.749 216.629C349.684 216.893 349.619 217.165 349.554 217.446C349.489 217.727 349.435 217.979 349.394 218.202C349.37 218.307 349.344 218.456 349.314 218.65C349.29 218.837 349.263 219.033 349.233 219.238C349.21 219.443 349.189 219.637 349.171 219.818C349.159 220 349.152 220.135 349.152 220.223C349.163 220.738 349.259 221.108 349.44 221.331C349.621 221.554 349.931 221.666 350.371 221.667C350.675 221.65 350.963 221.618 351.232 221.572C351.502 221.52 351.777 221.435 352.059 221.319C352.346 221.202 352.654 221.048 352.983 220.855C353.311 220.656 353.69 220.405 354.118 220.102C354.247 220.008 354.371 219.912 354.488 219.812C354.611 219.707 354.726 219.614 354.831 219.532C354.937 219.45 355.037 219.383 355.131 219.33C355.225 219.272 355.313 219.243 355.395 219.243C355.5 219.243 355.564 219.264 355.588 219.305C355.617 219.34 355.632 219.408 355.631 219.507C355.631 219.583 355.602 219.677 355.543 219.788C355.49 219.9 355.413 220.019 355.313 220.148C355.219 220.277 355.102 220.411 354.961 220.552C354.826 220.686 354.679 220.815 354.521 220.937C354.174 221.212 353.814 221.472 353.438 221.717C353.068 221.963 352.69 222.179 352.303 222.365C351.922 222.546 351.54 222.692 351.159 222.802C350.778 222.907 350.403 222.959 350.034 222.958C349.612 222.957 349.252 222.889 348.953 222.753C348.655 222.618 348.412 222.439 348.225 222.216C348.038 221.987 347.901 221.729 347.814 221.441C347.726 221.154 347.683 220.855 347.684 220.545ZM365.772 216.444C365.772 216.538 365.707 216.693 365.577 216.91C365.342 217.284 365.048 217.688 364.696 218.121C364.349 218.554 363.962 218.989 363.533 219.428C363.11 219.86 362.658 220.278 362.177 220.682C361.701 221.085 361.217 221.441 360.724 221.751C360.231 222.054 359.744 222.299 359.263 222.486C358.783 222.672 358.325 222.765 357.892 222.764L357.83 222.764C356.828 222.762 356.079 222.473 355.582 221.898C355.085 221.322 354.838 220.522 354.84 219.497C354.841 219.087 354.874 218.653 354.94 218.196C355.005 217.739 355.118 217.277 355.277 216.808C355.442 216.334 355.663 215.863 355.939 215.395C356.221 214.921 356.577 214.464 357.006 214.026C357.329 213.704 357.669 213.459 358.027 213.29C358.384 213.115 358.722 213.028 359.038 213.028C359.085 213.028 359.146 213.04 359.222 213.064C359.299 213.088 359.375 213.12 359.451 213.161C359.533 213.196 359.609 213.243 359.679 213.302C359.755 213.355 359.819 213.414 359.872 213.478C360.036 213.69 360.155 213.892 360.231 214.086C360.307 214.279 360.344 214.505 360.344 214.763C360.343 215.102 360.295 215.413 360.201 215.694C360.107 215.969 359.971 216.238 359.795 216.502C359.619 216.765 359.401 217.031 359.143 217.3C358.885 217.563 358.588 217.85 358.253 218.159C358.142 218.265 358.01 218.382 357.857 218.51C357.704 218.639 357.54 218.773 357.364 218.913C357.188 219.054 357.006 219.2 356.818 219.352C356.63 219.504 356.445 219.653 356.263 219.799C356.308 220.848 356.89 221.373 358.009 221.376C358.63 221.377 359.293 221.214 359.996 220.888C360.343 220.725 360.665 220.538 360.964 220.327C361.264 220.111 361.557 219.892 361.845 219.67C361.986 219.559 362.141 219.428 362.311 219.276C362.482 219.124 362.655 218.963 362.831 218.793C363.013 218.624 363.192 218.454 363.368 218.285C363.55 218.115 363.721 217.955 363.879 217.803C363.979 217.703 364.085 217.598 364.196 217.487C364.314 217.376 364.437 217.256 364.566 217.127L365.042 216.654C365.329 216.402 365.538 216.277 365.667 216.277C365.737 216.277 365.772 216.333 365.772 216.444ZM359.007 215.111C359.007 214.936 358.961 214.783 358.867 214.654C358.774 214.519 358.66 214.451 358.525 214.451C358.426 214.451 358.297 214.492 358.138 214.573C357.986 214.655 357.821 214.801 357.645 215.012C357.287 215.444 356.981 215.968 356.728 216.583C356.474 217.192 356.297 217.871 356.196 218.621C356.566 218.323 356.877 218.057 357.129 217.823C357.387 217.589 357.619 217.37 357.825 217.165C357.966 217.025 358.104 216.876 358.239 216.718C358.38 216.56 358.506 216.393 358.618 216.218C358.736 216.042 358.83 215.861 358.9 215.674C358.971 215.486 359.007 215.299 359.007 215.111ZM373.895 215.697C373.893 216.33 373.819 216.919 373.671 217.464C373.523 218.008 373.311 218.523 373.035 219.009C372.758 219.489 372.417 219.948 372.012 220.387C371.607 220.819 371.149 221.249 370.638 221.676C370.445 221.834 370.225 221.988 369.978 222.14C369.738 222.292 369.485 222.426 369.221 222.543C368.957 222.659 368.691 222.755 368.421 222.831C368.157 222.901 367.908 222.935 367.674 222.935C367.504 222.935 367.366 222.917 367.261 222.881C367.155 222.84 367.062 222.784 366.98 222.714C366.904 222.643 366.831 222.561 366.761 222.467C366.691 222.367 366.609 222.259 366.515 222.141C366.38 222.539 366.27 222.873 366.188 223.143C366.105 223.412 366.037 223.652 365.984 223.863C365.931 224.074 365.889 224.273 365.86 224.46C365.83 224.654 365.8 224.87 365.77 225.11C365.741 225.351 365.702 225.635 365.654 225.963C365.613 226.297 365.553 226.707 365.476 227.193C365.464 227.287 365.431 227.395 365.378 227.518C365.325 227.641 365.261 227.758 365.184 227.869C365.114 227.98 365.035 228.074 364.946 228.15C364.864 228.226 364.785 228.264 364.709 228.263C364.627 228.263 364.527 228.237 364.41 228.184C364.293 228.137 364.182 228.075 364.077 227.998C363.971 227.928 363.881 227.854 363.805 227.778C363.729 227.702 363.691 227.637 363.691 227.584C363.691 227.379 363.715 227.174 363.762 226.969C363.816 226.764 363.86 226.568 363.896 226.381C364.079 225.455 364.269 224.589 364.464 223.78C364.665 222.972 364.845 222.17 365.005 221.373C365.165 220.577 365.296 219.757 365.397 218.913C365.505 218.064 365.559 217.138 365.562 216.136C365.562 216.113 365.559 216.06 365.553 215.978C365.553 215.89 365.553 215.799 365.554 215.706C365.554 215.606 365.551 215.515 365.545 215.433C365.546 215.351 365.546 215.295 365.546 215.266C365.546 215.073 365.57 214.882 365.617 214.695C365.671 214.508 365.744 214.341 365.838 214.195C365.932 214.042 366.041 213.92 366.164 213.826C366.293 213.733 366.434 213.686 366.586 213.686C366.651 213.687 366.715 213.722 366.78 213.792C366.844 213.857 366.902 213.948 366.955 214.065C367.007 214.177 367.048 214.311 367.077 214.47C367.112 214.628 367.129 214.798 367.128 214.98C367.128 215.284 367.109 215.633 367.073 216.025C367.037 216.418 366.993 216.816 366.939 217.22C366.891 217.619 366.841 217.999 366.787 218.363C366.734 218.726 366.692 219.03 366.662 219.276C366.892 218.761 367.156 218.27 367.456 217.802C367.762 217.334 368.079 216.901 368.408 216.503C368.737 216.105 369.072 215.748 369.413 215.433C369.759 215.111 370.091 214.837 370.408 214.609C370.725 214.381 371.021 214.209 371.296 214.092C371.572 213.97 371.807 213.909 372 213.909C372.264 213.91 372.51 213.963 372.738 214.069C372.972 214.169 373.174 214.304 373.343 214.475C373.519 214.639 373.653 214.83 373.747 215.047C373.846 215.258 373.895 215.475 373.895 215.697ZM372.451 216.512C372.452 216.254 372.423 216.046 372.365 215.887C372.307 215.729 372.237 215.609 372.155 215.527C372.073 215.439 371.985 215.38 371.891 215.35C371.804 215.321 371.73 215.306 371.672 215.306C371.437 215.305 371.168 215.41 370.862 215.621C370.557 215.825 370.24 216.097 369.911 216.436C369.583 216.769 369.254 217.149 368.925 217.576C368.596 218.003 368.29 218.433 368.008 218.866C367.937 218.977 367.843 219.127 367.725 219.314C367.614 219.501 367.505 219.697 367.399 219.902C367.293 220.101 367.202 220.291 367.125 220.473C367.049 220.654 367.01 220.792 367.01 220.886C367.01 220.938 367.033 221.006 367.08 221.088C367.127 221.17 367.194 221.252 367.282 221.334C367.375 221.411 367.489 221.478 367.624 221.537C367.764 221.596 367.926 221.626 368.107 221.626C368.353 221.627 368.632 221.554 368.943 221.408C369.253 221.257 369.567 221.055 369.884 220.804C370.207 220.547 370.521 220.249 370.827 219.91C371.138 219.57 371.411 219.214 371.646 218.839C371.888 218.459 372.082 218.069 372.229 217.671C372.376 217.273 372.451 216.887 372.451 216.512ZM393.198 218.455C393.198 218.678 393.086 219.012 392.862 219.457C392.75 219.679 392.647 219.872 392.553 220.036C392.459 220.2 392.371 220.337 392.288 220.449C392.106 220.688 391.848 220.957 391.513 221.255C391.185 221.548 390.897 221.764 390.651 221.904C390.316 222.091 389.947 222.263 389.542 222.42C389.143 222.572 388.703 222.711 388.223 222.839C387.261 223.083 386.388 223.204 385.603 223.202C385.445 223.202 385.266 223.193 385.067 223.175C384.873 223.163 384.66 223.142 384.425 223.112C383.957 223.058 383.552 222.978 383.213 222.872C383.107 222.843 383.014 222.793 382.932 222.722C382.85 222.652 382.78 222.569 382.722 222.476C382.669 222.382 382.625 222.279 382.59 222.168C382.561 222.056 382.547 221.945 382.547 221.834C382.548 221.552 382.624 221.33 382.777 221.166C382.936 220.996 383.15 220.912 383.419 220.913C383.443 220.913 383.487 220.927 383.551 220.957C383.615 220.986 383.718 221.03 383.858 221.089C383.999 221.148 384.098 221.192 384.157 221.222C384.215 221.245 384.274 221.269 384.333 221.292C384.965 221.546 385.515 221.673 385.984 221.674C386.582 221.675 387.388 221.563 388.402 221.337C389.17 221.18 389.824 220.877 390.364 220.427C391.233 219.702 391.667 219.12 391.668 218.681C391.67 218.042 391.34 217.619 390.678 217.413C390.016 217.2 389.267 217.093 388.429 217.091C387.286 217.089 386.33 217.304 385.562 217.736C385.134 217.735 384.921 217.608 384.921 217.356C384.921 217.263 384.954 217.128 385.019 216.952C385.078 216.794 385.151 216.671 385.239 216.584C385.316 216.508 385.421 216.411 385.556 216.294C385.691 216.177 385.859 216.034 386.058 215.865C386.592 215.385 387.138 214.921 387.696 214.471C388.26 214.015 388.844 213.574 389.448 213.147C389.407 213.141 389.36 213.138 389.307 213.138C389.26 213.132 389.205 213.129 389.14 213.129C388.824 213.128 388.467 213.148 388.068 213.188C387.675 213.228 387.274 213.274 386.864 213.326C386.453 213.372 386.049 213.415 385.65 213.456C385.258 213.496 384.903 213.515 384.587 213.515C384.112 213.514 383.74 213.399 383.471 213.169C383.208 212.935 383.077 212.589 383.078 212.132C383.078 211.95 383.137 211.792 383.255 211.657C383.378 211.517 383.528 211.447 383.704 211.447C383.833 211.448 383.991 211.515 384.178 211.651C384.271 211.715 384.359 211.774 384.441 211.827C384.523 211.874 384.596 211.912 384.661 211.942C384.807 212.006 385.024 212.039 385.311 212.04C385.727 212.041 386.489 211.99 387.596 211.886C387.848 211.858 388.13 211.832 388.44 211.809C388.757 211.781 389.105 211.752 389.486 211.724C389.867 211.695 390.189 211.675 390.453 211.664C390.723 211.647 390.934 211.639 391.086 211.639C391.807 211.641 392.167 211.876 392.166 212.345C392.165 212.667 392.05 212.925 391.821 213.117C391.657 213.246 391.46 213.389 391.231 213.547C391.002 213.699 390.735 213.865 390.43 214.046C390.125 214.227 389.852 214.393 389.612 214.545C389.371 214.691 389.16 214.828 388.978 214.957C388.796 215.085 388.623 215.229 388.459 215.386C388.294 215.544 388.136 215.717 387.983 215.904C388.305 215.881 388.587 215.864 388.827 215.853C389.073 215.842 389.278 215.836 389.442 215.837C390.028 215.838 390.532 215.898 390.953 216.016C391.457 216.169 391.849 216.352 392.13 216.563C392.399 216.763 392.694 217.092 393.016 217.55C393.138 217.708 393.199 218.01 393.198 218.455Z" fill="#47B5FF"/>
<path d="M96 276.765V306.529C96 307.634 95.1046 308.529 94 308.529H93.1007H68.3727C67.8674 308.529 67.3808 308.721 67.0107 309.065L61.9367 313.783C61.1914 314.476 60.0444 314.499 59.2721 313.836L53.6518 309.012C53.2892 308.701 52.8278 308.529 52.3499 308.529H28.7353C27.2791 308.529 26.2038 307.805 25.6216 307.209C25.3586 306.939 25.2521 306.571 25.2446 306.195C25.0524 296.601 24.8014 278.149 25.2561 276.765C25.72 275.353 26.9957 275 27.5756 275H93.1007C95.4201 275 96 276.176 96 276.765Z" fill="white"/>
<path d="M96 276.765V306.529C96 307.634 95.1046 308.529 94 308.529H93.1007H68.3727C67.8674 308.529 67.3808 308.721 67.0107 309.065L61.9367 313.783C61.1914 314.476 60.0444 314.499 59.2721 313.836L53.6518 309.012C53.2892 308.701 52.8278 308.529 52.3499 308.529H28.7353C27.2791 308.529 26.2038 307.805 25.6216 307.209C25.3586 306.939 25.2521 306.571 25.2446 306.195C25.0524 296.601 24.8014 278.149 25.2561 276.765C25.72 275.353 26.9957 275 27.5756 275H93.1007C95.4201 275 96 276.176 96 276.765Z" fill="#47B5FF" fill-opacity="0.12"/>
<path d="M96 276.765V306.529C96 307.634 95.1046 308.529 94 308.529H93.1007H68.3727C67.8674 308.529 67.3808 308.721 67.0107 309.065L61.9367 313.783C61.1914 314.476 60.0444 314.499 59.2721 313.836L53.6518 309.012C53.2892 308.701 52.8278 308.529 52.3499 308.529H28.7353C27.2791 308.529 26.2038 307.805 25.6216 307.209C25.3586 306.939 25.2521 306.571 25.2446 306.195C25.0524 296.601 24.8014 278.149 25.2561 276.765C25.72 275.353 26.9957 275 27.5756 275H93.1007C95.4201 275 96 276.176 96 276.765Z" stroke="#47B5FF" stroke-width="2" stroke-linecap="round"/>
<path d="M40.9848 285.862C40.9847 285.938 40.9757 286.032 40.9579 286.143C40.94 286.254 40.9134 286.368 40.878 286.486C40.8485 286.597 40.8101 286.705 40.763 286.81C40.7218 286.91 40.6748 286.989 40.6219 287.047C40.4809 287.217 40.2288 287.301 39.8655 287.301C39.8664 286.902 39.8114 286.571 39.7007 286.307C39.6482 286.184 39.5517 286.081 39.4113 285.999C39.2767 285.911 39.1245 285.837 38.9547 285.778C38.7849 285.719 38.6122 285.678 38.4365 285.654C38.2666 285.624 38.1201 285.609 37.9971 285.609C37.7159 285.609 37.4434 285.614 37.1797 285.625C36.9218 285.636 36.6669 285.662 36.4149 285.702C36.1687 285.737 35.9166 285.789 35.6587 285.859C35.4066 285.923 35.1427 286.01 34.8671 286.121C34.6559 286.208 34.436 286.313 34.2072 286.436C33.9784 286.553 33.7672 286.687 33.5735 286.839C33.3798 286.991 33.2125 287.157 33.0714 287.339C32.9304 287.52 32.8421 287.719 32.8065 287.936C32.7944 288.1 32.8438 288.287 32.9547 288.499C33.0655 288.71 33.2145 288.915 33.4016 289.115C33.5945 289.314 33.8138 289.496 34.0595 289.661C34.3111 289.826 34.5716 289.946 34.841 290.023C34.8878 290.041 34.9961 290.079 35.1659 290.138C35.3357 290.197 35.5172 290.259 35.7105 290.324C35.9095 290.389 36.091 290.451 36.255 290.51C36.4248 290.563 36.5331 290.595 36.58 290.607C37.9034 290.95 38.884 291.356 39.5216 291.826C40.1652 292.291 40.4862 292.86 40.4847 293.534C40.4842 293.75 40.434 293.967 40.3339 294.184C40.2397 294.394 40.1191 294.599 39.9722 294.798C39.8253 294.991 39.6667 295.169 39.4964 295.333C39.3261 295.497 39.1676 295.634 39.0209 295.745C38.8507 295.88 38.657 296.02 38.4399 296.166C38.2228 296.306 37.9911 296.443 37.7447 296.577C37.4983 296.712 37.2431 296.837 36.9792 296.954C36.7153 297.07 36.4485 297.172 36.1787 297.259C35.9149 297.347 35.6364 297.425 35.3433 297.495C35.056 297.571 34.7687 297.634 34.4815 297.686C34.2001 297.739 33.9276 297.779 33.6639 297.808C33.406 297.842 33.1745 297.859 32.9694 297.859C32.8171 297.859 32.6179 297.835 32.3719 297.787C32.1318 297.746 31.8946 297.684 31.6604 297.601C31.4262 297.525 31.2242 297.43 31.0546 297.319C30.8907 297.213 30.809 297.098 30.8092 296.975C30.8094 296.899 30.8184 296.805 30.8362 296.694C30.8599 296.583 30.8894 296.475 30.9248 296.369C30.966 296.264 31.0102 296.176 31.0572 296.106C31.1101 296.03 31.1688 295.992 31.2332 295.992C31.3504 295.992 31.4705 296.013 31.5935 296.054C31.7223 296.09 31.8716 296.131 32.0414 296.178C32.2171 296.225 32.4221 296.27 32.6564 296.311C32.8965 296.347 33.1865 296.365 33.5264 296.366C33.8779 296.367 34.2413 296.332 34.6164 296.263C34.9975 296.188 35.3698 296.089 35.7333 295.967C36.0969 295.844 36.4429 295.704 36.7713 295.547C37.1057 295.389 37.4048 295.226 37.6689 295.057C37.7921 294.975 37.9271 294.881 38.0738 294.776C38.2264 294.665 38.3673 294.545 38.4965 294.417C38.6256 294.288 38.7343 294.151 38.8226 294.004C38.9108 293.858 38.955 293.706 38.9554 293.548C38.9559 293.325 38.7923 293.111 38.4646 292.905C38.1428 292.705 37.812 292.549 37.4724 292.437C37.1387 292.325 36.8401 292.236 36.5765 292.171C36.2545 292.089 35.8914 291.98 35.4874 291.844C35.0893 291.708 34.6502 291.546 34.1701 291.358C33.3739 291.051 32.701 290.604 32.1515 290.017C31.602 289.43 31.3282 288.723 31.33 287.897C31.3191 287.511 31.4371 287.139 31.684 286.782C31.9367 286.425 32.2743 286.095 32.6969 285.791C33.1194 285.487 33.6005 285.219 34.1401 284.985C34.6855 284.746 35.2455 284.56 35.82 284.427C35.9372 284.403 36.0779 284.377 36.242 284.348C36.412 284.32 36.5849 284.296 36.7607 284.279C36.9424 284.256 37.1153 284.239 37.2794 284.228C37.4494 284.21 37.5929 284.202 37.7101 284.202C37.8508 284.203 38.0265 284.215 38.2374 284.239C38.4542 284.257 38.6738 284.283 38.8964 284.319C39.1248 284.355 39.3386 284.399 39.5377 284.452C39.7427 284.506 39.9066 284.567 40.0295 284.638C40.328 284.797 40.5619 284.988 40.7314 285.211C40.9008 285.434 40.9853 285.651 40.9848 285.862ZM44.6837 294.545C44.6848 294.052 44.7268 293.569 44.8099 293.095C44.8988 292.62 44.9936 292.169 45.0941 291.742C45.2005 291.308 45.2951 290.91 45.378 290.547C45.4666 290.184 45.5113 289.868 45.5119 289.598C45.5121 289.51 45.4858 289.457 45.4331 289.44C45.3804 289.416 45.3101 289.404 45.2222 289.404C45.1519 289.404 45.0728 289.413 44.9849 289.43C44.9028 289.447 44.8149 289.465 44.7211 289.482C44.6332 289.5 44.5452 289.517 44.4573 289.534C44.3752 289.552 44.302 289.56 44.2375 289.56C44.0383 289.56 43.8625 289.559 43.7102 289.559C43.5579 289.553 43.429 289.529 43.3236 289.488C43.2182 289.447 43.1393 289.376 43.0868 289.276C43.0343 289.177 43.0082 289.03 43.0086 288.837C43.0088 288.755 43.0353 288.687 43.0882 288.635C43.1469 288.576 43.2173 288.53 43.2994 288.495C43.3874 288.46 43.4812 288.437 43.5808 288.425C43.6863 288.408 43.786 288.399 43.8797 288.399C43.95 288.399 44.0555 288.394 44.1961 288.382C44.3427 288.365 44.4951 288.348 44.6533 288.331C44.8174 288.308 44.9727 288.287 45.1192 288.27C45.2658 288.253 45.3742 288.241 45.4445 288.236C45.5383 288.23 45.6292 288.183 45.7173 288.096C45.8054 288.002 45.8818 287.894 45.9465 287.771C46.0112 287.648 46.0642 287.522 46.1055 287.393C46.1527 287.265 46.1852 287.156 46.2029 287.068C46.2326 286.91 46.2681 286.714 46.3097 286.48C46.3571 286.24 46.4074 286 46.4607 285.759C46.5139 285.513 46.5701 285.282 46.6292 285.065C46.6941 284.843 46.7589 284.667 46.8237 284.539C46.8943 284.398 46.9766 284.293 47.0705 284.223C47.1644 284.147 47.2816 284.109 47.4223 284.109C47.8383 284.11 48.0458 284.336 48.0448 284.787C48.0442 285.057 47.982 285.376 47.8582 285.745C47.8227 285.862 47.7814 286.003 47.7342 286.166C47.687 286.33 47.6426 286.5 47.6012 286.676C47.5599 286.846 47.5244 287.007 47.4947 287.159C47.4651 287.311 47.4502 287.434 47.45 287.528C47.4495 287.733 47.5548 287.836 47.7657 287.836C48.0177 287.837 48.2374 287.835 48.4249 287.829C48.6124 287.824 48.797 287.812 48.9787 287.795C49.1604 287.778 49.3567 287.752 49.5677 287.717C49.7846 287.683 50.0484 287.633 50.3591 287.57C50.6111 287.517 50.8017 287.477 50.9306 287.448C51.0655 287.413 51.1827 287.381 51.2824 287.352C51.3821 287.323 51.4847 287.294 51.5902 287.265C51.7016 287.23 51.854 287.186 52.0475 287.134C52.0475 287.146 52.065 287.166 52.1001 287.196C52.1411 287.219 52.182 287.248 52.223 287.284C52.2698 287.319 52.3107 287.354 52.3458 287.389C52.3809 287.419 52.3984 287.442 52.3984 287.46C52.3982 287.559 52.3775 287.65 52.3363 287.732C52.2951 287.808 52.2422 287.878 52.1776 287.943C52.1189 288.007 52.0513 288.066 51.9751 288.118C51.8988 288.165 51.8225 288.209 51.7463 288.249C51.3709 288.413 50.9546 288.541 50.4974 288.633C50.046 288.726 49.6005 288.807 49.1609 288.877C48.8678 288.923 48.6041 288.963 48.3696 288.998C48.1352 289.033 47.93 289.07 47.7541 289.111C47.5841 289.152 47.4405 289.198 47.3232 289.251C47.2059 289.297 47.1208 289.361 47.0679 289.443C47.0384 289.531 46.9941 289.683 46.935 289.9C46.8818 290.117 46.8198 290.36 46.7489 290.629C46.6838 290.893 46.6188 291.165 46.5537 291.446C46.4887 291.727 46.4354 291.979 46.3939 292.202C46.3702 292.307 46.3435 292.456 46.3138 292.65C46.29 292.837 46.2632 293.033 46.2334 293.238C46.2095 293.443 46.1886 293.637 46.1706 293.818C46.1585 294 46.1524 294.135 46.1522 294.223C46.1628 294.738 46.2586 295.108 46.4398 295.331C46.6209 295.554 46.9313 295.666 47.3707 295.667C47.6754 295.65 47.9626 295.618 48.2322 295.572C48.5019 295.52 48.7775 295.435 49.059 295.319C49.3463 295.202 49.6543 295.048 49.9828 294.855C50.3114 294.656 50.6899 294.405 51.1183 294.102C51.2474 294.008 51.3706 293.912 51.488 293.812C51.6113 293.707 51.7258 293.614 51.8314 293.532C51.9371 293.45 52.0368 293.383 52.1307 293.33C52.2246 293.272 52.3125 293.243 52.3946 293.243C52.5 293.243 52.5644 293.264 52.5878 293.305C52.617 293.34 52.6315 293.408 52.6313 293.507C52.6311 293.583 52.6016 293.677 52.5428 293.788C52.4898 293.9 52.4134 294.019 52.3135 294.148C52.2194 294.277 52.102 294.411 51.961 294.552C51.826 294.686 51.6792 294.815 51.5207 294.937C51.1744 295.212 50.8135 295.472 50.438 295.717C50.0683 295.963 49.6899 296.179 49.3028 296.365C48.9215 296.546 48.5403 296.692 48.1592 296.802C47.7782 296.907 47.403 296.959 47.0339 296.958C46.612 296.957 46.2518 296.889 45.9533 296.753C45.6548 296.618 45.412 296.439 45.225 296.216C45.038 295.987 44.9008 295.729 44.8136 295.441C44.7263 295.154 44.683 294.855 44.6837 294.545ZM62.7718 290.444C62.7716 290.538 62.7068 290.693 62.5774 290.91C62.3422 291.284 62.0484 291.688 61.6959 292.121C61.3492 292.554 60.9615 292.989 60.5328 293.428C60.11 293.86 59.6579 294.278 59.1766 294.682C58.7011 295.085 58.2169 295.441 57.7241 295.751C57.2312 296.054 56.7443 296.299 56.2635 296.486C55.7826 296.672 55.3254 296.765 54.8918 296.764L54.8302 296.764C53.8283 296.762 53.0789 296.473 52.5821 295.898C52.0853 295.322 51.8381 294.522 51.8403 293.497C51.8412 293.087 51.8744 292.653 51.9398 292.196C52.0053 291.739 52.1176 291.277 52.2768 290.808C52.4419 290.334 52.6627 289.863 52.9391 289.395C53.2214 288.921 53.5769 288.464 54.0055 288.026C54.3285 287.704 54.6689 287.459 55.0267 287.29C55.3845 287.115 55.7216 287.028 56.038 287.028C56.0849 287.028 56.1464 287.04 56.2225 287.064C56.2986 287.088 56.3747 287.12 56.4508 287.161C56.5327 287.196 56.6088 287.243 56.679 287.302C56.7551 287.355 56.8194 287.414 56.872 287.478C57.0356 287.69 57.1553 287.892 57.231 288.086C57.3068 288.279 57.3444 288.505 57.3438 288.763C57.343 289.102 57.2955 289.413 57.2011 289.694C57.1068 289.969 56.9714 290.238 56.7951 290.502C56.6187 290.765 56.4013 291.031 56.1429 291.3C55.8846 291.563 55.588 291.85 55.2534 292.159C55.1418 292.265 55.0097 292.382 54.8571 292.51C54.7045 292.639 54.5401 292.773 54.364 292.913C54.1879 293.054 54.006 293.2 53.8181 293.352C53.6303 293.504 53.4454 293.653 53.2635 293.799C53.3081 294.848 53.8899 295.373 55.0091 295.376C55.6301 295.377 56.2926 295.214 56.9964 294.888C57.3425 294.725 57.6652 294.538 57.9645 294.327C58.2638 294.111 58.5572 293.892 58.8448 293.67C58.9857 293.559 59.1412 293.428 59.3115 293.276C59.4817 293.124 59.6549 292.963 59.8311 292.793C60.0131 292.624 60.1922 292.454 60.3683 292.285C60.5504 292.115 60.7206 291.955 60.8792 291.803C60.979 291.703 61.0847 291.598 61.1963 291.487C61.3137 291.376 61.437 291.256 61.5662 291.127L62.0418 290.654C62.3295 290.402 62.5378 290.277 62.6667 290.277C62.737 290.277 62.772 290.333 62.7718 290.444ZM56.0071 289.111C56.0075 288.936 55.9609 288.783 55.8675 288.654C55.774 288.519 55.6599 288.451 55.5251 288.451C55.4255 288.451 55.2965 288.492 55.1381 288.573C54.9856 288.655 54.8212 288.801 54.645 289.012C54.2866 289.444 53.9808 289.968 53.7275 290.583C53.4742 291.192 53.297 291.871 53.1957 292.621C53.5655 292.323 53.8766 292.057 54.1291 291.823C54.3874 291.589 54.6193 291.37 54.8249 291.165C54.9658 291.025 55.1038 290.876 55.2389 290.718C55.3799 290.56 55.5062 290.393 55.618 290.218C55.7355 290.042 55.8297 289.861 55.9004 289.674C55.9711 289.486 56.0067 289.299 56.0071 289.111ZM70.8945 289.697C70.8931 290.33 70.8186 290.919 70.6709 291.464C70.5233 292.008 70.3112 292.523 70.0348 293.009C69.7583 293.489 69.4175 293.948 69.0122 294.387C68.607 294.819 68.149 295.249 67.6383 295.676C67.4446 295.834 67.2245 295.988 66.9781 296.14C66.7376 296.292 66.4853 296.426 66.2214 296.543C65.9575 296.659 65.6906 296.755 65.4209 296.831C65.1571 296.901 64.908 296.935 64.6736 296.935C64.5037 296.935 64.3661 296.917 64.2607 296.881C64.1553 296.84 64.0617 296.784 63.9798 296.714C63.9038 296.643 63.8307 296.561 63.7606 296.467C63.6905 296.367 63.6087 296.259 63.5152 296.141C63.3796 296.539 63.2705 296.873 63.1878 297.143C63.1052 297.412 63.0373 297.652 62.9841 297.863C62.9309 298.074 62.8895 298.273 62.8598 298.46C62.83 298.654 62.8003 298.87 62.7705 299.11C62.7406 299.351 62.7019 299.635 62.6543 299.963C62.6126 300.297 62.5531 300.707 62.4759 301.193C62.464 301.287 62.4315 301.395 62.3785 301.518C62.3255 301.641 62.2608 301.758 62.1844 301.869C62.1138 301.98 62.0345 302.074 61.9464 302.15C61.8643 302.226 61.7851 302.264 61.7089 302.263C61.6269 302.263 61.5273 302.237 61.4102 302.184C61.2932 302.137 61.182 302.075 61.0767 301.998C60.9713 301.928 60.8807 301.854 60.8047 301.778C60.7287 301.702 60.6907 301.637 60.6908 301.584C60.6913 301.379 60.7152 301.174 60.7625 300.969C60.8157 300.764 60.8601 300.568 60.8956 300.381C61.0793 299.455 61.2687 298.589 61.4638 297.78C61.6648 296.972 61.8452 296.17 62.0052 295.373C62.1651 294.577 62.2958 293.757 62.3973 292.913C62.5046 292.064 62.5593 291.138 62.5615 290.136C62.5616 290.113 62.5587 290.06 62.5531 289.978C62.5533 289.89 62.5535 289.799 62.5537 289.706C62.5539 289.606 62.5511 289.515 62.5455 289.433C62.5456 289.351 62.5458 289.295 62.5458 289.266C62.5462 289.073 62.5701 288.882 62.6174 288.695C62.6705 288.508 62.7441 288.341 62.8382 288.195C62.9323 288.042 63.041 287.92 63.1642 287.826C63.2933 287.733 63.434 287.686 63.5864 287.686C63.6508 287.687 63.7152 287.722 63.7795 287.792C63.8438 287.857 63.9022 287.948 63.9547 288.065C64.0072 288.177 64.0479 288.311 64.0769 288.47C64.1117 288.628 64.1289 288.798 64.1285 288.98C64.1278 289.284 64.1095 289.633 64.0735 290.025C64.0375 290.418 63.9926 290.816 63.939 291.22C63.8913 291.619 63.8407 291.999 63.7871 292.363C63.7336 292.726 63.6919 293.03 63.6621 293.276C63.8917 292.761 64.1565 292.27 64.4563 291.802C64.762 291.334 65.0794 290.901 65.4084 290.503C65.7374 290.105 66.0721 289.748 66.4127 289.433C66.7591 289.111 67.0907 288.837 67.4076 288.609C67.7245 288.381 68.0208 288.209 68.2964 288.092C68.5721 287.97 68.8066 287.909 69 287.909C69.2636 287.91 69.5096 287.963 69.7379 288.069C69.9721 288.169 70.1739 288.304 70.3435 288.475C70.5189 288.639 70.6532 288.83 70.7465 289.047C70.8457 289.258 70.895 289.475 70.8945 289.697ZM69.4513 290.512C69.4519 290.254 69.4231 290.046 69.3648 289.887C69.3066 289.729 69.2365 289.609 69.1547 289.527C69.0728 289.439 68.985 289.38 68.8914 289.35C68.8035 289.321 68.7303 289.306 68.6717 289.306C68.4374 289.305 68.1676 289.41 67.8625 289.621C67.5573 289.825 67.2403 290.097 66.9115 290.436C66.5826 290.769 66.2536 291.149 65.9246 291.576C65.5955 292.003 65.2899 292.433 65.0077 292.866C64.9372 292.977 64.8431 293.127 64.7255 293.314C64.6137 293.501 64.5049 293.697 64.399 293.902C64.2931 294.101 64.2019 294.291 64.1253 294.473C64.0487 294.654 64.0103 294.792 64.0101 294.886C64.01 294.938 64.0333 295.006 64.08 295.088C64.1267 295.17 64.1939 295.252 64.2816 295.334C64.3752 295.411 64.4893 295.478 64.624 295.537C64.7645 295.596 64.9255 295.626 65.1072 295.626C65.3533 295.627 65.6317 295.554 65.9426 295.408C66.2535 295.257 66.5674 295.055 66.8844 294.804C67.2072 294.547 67.5213 294.249 67.8267 293.91C68.138 293.57 68.4113 293.214 68.6465 292.839C68.8875 292.459 69.0817 292.069 69.2291 291.671C69.3764 291.273 69.4505 290.887 69.4513 290.512ZM90.5012 294.521C90.5007 294.75 90.4594 294.888 90.3773 294.934C90.0605 295.098 89.7087 295.217 89.3218 295.292C88.9349 295.368 88.5363 295.434 88.1261 295.492C87.7217 295.544 87.3172 295.604 86.9128 295.674C86.5142 295.743 86.1389 295.854 85.787 296.005C85.7869 296.064 85.7926 296.149 85.8041 296.26C85.8155 296.372 85.8212 296.46 85.8211 296.524C85.8204 296.829 85.4363 296.98 84.6687 296.978C84.5984 296.972 84.534 296.94 84.4756 296.881C84.423 296.817 84.3704 296.749 84.3178 296.679C84.2652 296.608 84.2126 296.547 84.16 296.494C84.1132 296.441 84.0606 296.421 84.0019 296.432C83.914 296.432 83.5945 296.51 83.0434 296.667C82.762 296.743 82.5363 296.807 82.3662 296.859C82.1962 296.906 82.076 296.944 82.0056 296.973C81.2903 297.2 80.792 297.313 80.5108 297.312C80.2705 297.312 80.0773 297.244 79.9311 297.109C79.7265 296.903 79.6244 296.704 79.6248 296.51C79.6254 296.223 79.8427 296.013 80.2766 295.879C80.7046 295.739 81.2146 295.617 81.8067 295.513C82.1818 295.438 82.5658 295.36 82.9585 295.278C83.3513 295.197 83.706 295.084 84.0228 294.938C84.047 294.581 84.0711 294.253 84.0952 293.954C84.1193 293.655 84.1463 293.38 84.1761 293.128C84.206 292.876 84.2388 292.58 84.2747 292.24C84.3165 291.901 84.3671 291.517 84.4267 291.089C84.5399 290.24 84.6381 289.528 84.7214 288.954C84.763 288.667 84.8017 288.395 84.8374 288.137C84.8731 287.873 84.9059 287.622 84.9357 287.381C84.5959 287.381 84.1238 287.585 83.5194 287.994C83.314 288.128 83.1292 288.242 82.9649 288.335C82.8006 288.423 82.6599 288.496 82.5425 288.554C82.3138 288.665 81.9825 288.781 81.5486 288.903C81.2086 288.996 80.9214 289.043 80.687 289.042C80.5288 289.042 80.4234 288.992 80.3709 288.892C80.3184 288.792 80.2923 288.657 80.2927 288.487C80.2933 288.206 80.3787 288.022 80.5488 287.934C80.7658 287.823 81.0708 287.686 81.4637 287.523C81.669 287.436 81.8332 287.366 81.9564 287.313C82.0795 287.261 82.1617 287.223 82.2027 287.2C82.4549 287.077 82.6925 286.958 82.9154 286.841C83.1442 286.718 83.3613 286.599 83.5666 286.482C83.7719 286.365 84.0242 286.219 84.3234 286.044C84.6226 285.863 84.9688 285.656 85.3619 285.422C85.8254 285.148 86.1069 285.011 86.2065 285.011C86.394 285.012 86.552 285.138 86.6803 285.39C86.8204 285.648 86.8902 285.877 86.8898 286.076C86.8894 286.24 86.8041 286.407 86.6338 286.576C86.4918 287.18 86.3587 287.789 86.2343 288.404C86.1099 289.019 85.9913 289.651 85.8786 290.301C85.6648 291.596 85.5571 292.633 85.5554 293.412C85.5553 293.447 85.5523 293.494 85.5463 293.553C85.5462 293.611 85.5431 293.679 85.5371 293.755C85.5369 293.825 85.5338 293.901 85.5278 293.983C85.5276 294.059 85.5275 294.133 85.5273 294.203C85.5271 294.303 85.5298 294.391 85.5355 294.467C85.5471 294.543 85.5586 294.61 85.5702 294.669C85.998 294.652 86.6399 294.528 87.4959 294.295C87.8887 294.191 88.217 294.109 88.4808 294.051C88.7504 293.987 88.9585 293.944 89.1051 293.921C89.3161 293.892 89.5183 293.872 89.7117 293.861C89.9109 293.843 90.1043 293.835 90.2918 293.835C90.4318 294.111 90.5016 294.34 90.5012 294.521Z" fill="#47B5FF"/>
<path d="M251 217.765V247.529C251 248.634 250.105 249.529 249 249.529H248.101H223.373C222.867 249.529 222.381 249.721 222.011 250.065L216.937 254.783C216.191 255.476 215.044 255.499 214.272 254.836L208.652 250.012C208.289 249.701 207.828 249.529 207.35 249.529H183.735C182.279 249.529 181.204 248.805 180.622 248.209C180.359 247.939 180.252 247.571 180.245 247.195C180.052 237.601 179.801 219.149 180.256 217.765C180.72 216.353 181.996 216 182.576 216H248.101C250.42 216 251 217.176 251 217.765Z" fill="white"/>
<path d="M251 217.765V247.529C251 248.634 250.105 249.529 249 249.529H248.101H223.373C222.867 249.529 222.381 249.721 222.011 250.065L216.937 254.783C216.191 255.476 215.044 255.499 214.272 254.836L208.652 250.012C208.289 249.701 207.828 249.529 207.35 249.529H183.735C182.279 249.529 181.204 248.805 180.622 248.209C180.359 247.939 180.252 247.571 180.245 247.195C180.052 237.601 179.801 219.149 180.256 217.765C180.72 216.353 181.996 216 182.576 216H248.101C250.42 216 251 217.176 251 217.765Z" fill="#47B5FF" fill-opacity="0.12"/>
<path d="M251 217.765V247.529C251 248.634 250.105 249.529 249 249.529H248.101H223.373C222.867 249.529 222.381 249.721 222.011 250.065L216.937 254.783C216.191 255.476 215.044 255.499 214.272 254.836L208.652 250.012C208.289 249.701 207.828 249.529 207.35 249.529H183.735C182.279 249.529 181.204 248.805 180.622 248.209C180.359 247.939 180.252 247.571 180.245 247.195C180.052 237.601 179.801 219.149 180.256 217.765C180.72 216.353 181.996 216 182.576 216H248.101C250.42 216 251 217.176 251 217.765Z" stroke="#47B5FF" stroke-width="2" stroke-linecap="round"/>
<path d="M195.985 226.862C195.985 226.938 195.976 227.032 195.958 227.143C195.94 227.254 195.913 227.368 195.878 227.486C195.848 227.597 195.81 227.705 195.763 227.81C195.722 227.91 195.675 227.989 195.622 228.047C195.481 228.217 195.229 228.301 194.865 228.301C194.866 227.902 194.811 227.571 194.701 227.307C194.648 227.184 194.552 227.081 194.411 226.999C194.277 226.911 194.125 226.837 193.955 226.778C193.785 226.719 193.612 226.678 193.436 226.654C193.267 226.624 193.12 226.609 192.997 226.609C192.716 226.609 192.443 226.614 192.18 226.625C191.922 226.636 191.667 226.662 191.415 226.702C191.169 226.737 190.917 226.789 190.659 226.859C190.407 226.923 190.143 227.01 189.867 227.121C189.656 227.208 189.436 227.313 189.207 227.436C188.978 227.553 188.767 227.687 188.574 227.839C188.38 227.991 188.212 228.157 188.071 228.339C187.93 228.52 187.842 228.719 187.806 228.936C187.794 229.1 187.844 229.287 187.955 229.499C188.066 229.71 188.214 229.915 188.402 230.115C188.594 230.314 188.814 230.496 189.06 230.661C189.311 230.826 189.572 230.946 189.841 231.023C189.888 231.041 189.996 231.079 190.166 231.138C190.336 231.197 190.517 231.259 190.71 231.324C190.91 231.389 191.091 231.451 191.255 231.51C191.425 231.563 191.533 231.595 191.58 231.607C192.903 231.95 193.884 232.356 194.522 232.826C195.165 233.291 195.486 233.86 195.485 234.534C195.484 234.75 195.434 234.967 195.334 235.184C195.24 235.394 195.119 235.599 194.972 235.798C194.825 235.991 194.667 236.169 194.496 236.333C194.326 236.497 194.168 236.634 194.021 236.745C193.851 236.88 193.657 237.02 193.44 237.166C193.223 237.306 192.991 237.443 192.745 237.577C192.498 237.712 192.243 237.837 191.979 237.954C191.715 238.07 191.448 238.172 191.179 238.259C190.915 238.347 190.636 238.425 190.343 238.495C190.056 238.571 189.769 238.634 189.482 238.686C189.2 238.739 188.928 238.779 188.664 238.808C188.406 238.842 188.174 238.859 187.969 238.859C187.817 238.859 187.618 238.835 187.372 238.787C187.132 238.746 186.895 238.684 186.66 238.601C186.426 238.525 186.224 238.43 186.055 238.319C185.891 238.213 185.809 238.098 185.809 237.975C185.809 237.899 185.818 237.805 185.836 237.694C185.86 237.583 185.889 237.475 185.925 237.369C185.966 237.264 186.01 237.176 186.057 237.106C186.11 237.03 186.169 236.992 186.233 236.992C186.35 236.992 186.47 237.013 186.593 237.054C186.722 237.09 186.872 237.131 187.041 237.178C187.217 237.225 187.422 237.27 187.656 237.311C187.897 237.347 188.187 237.365 188.526 237.366C188.878 237.367 189.241 237.332 189.616 237.263C189.997 237.188 190.37 237.089 190.733 236.967C191.097 236.844 191.443 236.704 191.771 236.547C192.106 236.389 192.405 236.226 192.669 236.057C192.792 235.975 192.927 235.881 193.074 235.776C193.226 235.665 193.367 235.545 193.496 235.417C193.626 235.288 193.734 235.151 193.823 235.004C193.911 234.858 193.955 234.706 193.955 234.548C193.956 234.325 193.792 234.111 193.465 233.905C193.143 233.705 192.812 233.549 192.472 233.437C192.139 233.325 191.84 233.236 191.577 233.171C191.254 233.089 190.891 232.98 190.487 232.844C190.089 232.708 189.65 232.546 189.17 232.358C188.374 232.051 187.701 231.604 187.152 231.017C186.602 230.43 186.328 229.723 186.33 228.897C186.319 228.511 186.437 228.139 186.684 227.782C186.937 227.425 187.274 227.095 187.697 226.791C188.119 226.487 188.6 226.219 189.14 225.985C189.685 225.746 190.245 225.56 190.82 225.427C190.937 225.403 191.078 225.377 191.242 225.348C191.412 225.32 191.585 225.296 191.761 225.279C191.942 225.256 192.115 225.239 192.279 225.228C192.449 225.21 192.593 225.202 192.71 225.202C192.851 225.203 193.027 225.215 193.237 225.239C193.454 225.257 193.674 225.283 193.896 225.319C194.125 225.355 194.339 225.399 194.538 225.452C194.743 225.506 194.907 225.567 195.029 225.638C195.328 225.797 195.562 225.988 195.731 226.211C195.901 226.434 195.985 226.651 195.985 226.862ZM199.684 235.545C199.685 235.052 199.727 234.569 199.81 234.095C199.899 233.62 199.994 233.169 200.094 232.742C200.201 232.308 200.295 231.91 200.378 231.547C200.467 231.184 200.511 230.868 200.512 230.598C200.512 230.51 200.486 230.457 200.433 230.44C200.38 230.416 200.31 230.404 200.222 230.404C200.152 230.404 200.073 230.413 199.985 230.43C199.903 230.447 199.815 230.465 199.721 230.482C199.633 230.5 199.545 230.517 199.457 230.534C199.375 230.552 199.302 230.56 199.238 230.56C199.038 230.56 198.863 230.559 198.71 230.559C198.558 230.553 198.429 230.529 198.324 230.488C198.218 230.447 198.139 230.376 198.087 230.276C198.034 230.177 198.008 230.03 198.009 229.837C198.009 229.755 198.035 229.687 198.088 229.635C198.147 229.576 198.217 229.53 198.299 229.495C198.387 229.46 198.481 229.437 198.581 229.425C198.686 229.408 198.786 229.399 198.88 229.399C198.95 229.399 199.055 229.394 199.196 229.382C199.343 229.365 199.495 229.348 199.653 229.331C199.817 229.308 199.973 229.287 200.119 229.27C200.266 229.253 200.374 229.241 200.445 229.236C200.538 229.23 200.629 229.183 200.717 229.096C200.805 229.002 200.882 228.894 200.947 228.771C201.011 228.648 201.064 228.522 201.106 228.393C201.153 228.265 201.185 228.156 201.203 228.068C201.233 227.91 201.268 227.714 201.31 227.48C201.357 227.24 201.407 227 201.461 226.759C201.514 226.513 201.57 226.282 201.629 226.065C201.694 225.843 201.759 225.667 201.824 225.539C201.894 225.398 201.977 225.293 202.07 225.223C202.164 225.147 202.282 225.109 202.422 225.109C202.838 225.11 203.046 225.336 203.045 225.787C203.044 226.057 202.982 226.376 202.858 226.745C202.823 226.862 202.781 227.003 202.734 227.166C202.687 227.33 202.643 227.5 202.601 227.676C202.56 227.846 202.524 228.007 202.495 228.159C202.465 228.311 202.45 228.434 202.45 228.528C202.45 228.733 202.555 228.836 202.766 228.836C203.018 228.837 203.237 228.835 203.425 228.829C203.612 228.824 203.797 228.812 203.979 228.795C204.16 228.778 204.357 228.752 204.568 228.717C204.785 228.683 205.048 228.633 205.359 228.57C205.611 228.517 205.802 228.477 205.931 228.448C206.065 228.413 206.183 228.381 206.282 228.352C206.382 228.323 206.485 228.294 206.59 228.265C206.702 228.23 206.854 228.186 207.048 228.134C207.047 228.146 207.065 228.166 207.1 228.196C207.141 228.219 207.182 228.248 207.223 228.284C207.27 228.319 207.311 228.354 207.346 228.389C207.381 228.419 207.398 228.442 207.398 228.46C207.398 228.559 207.377 228.65 207.336 228.732C207.295 228.808 207.242 228.878 207.178 228.943C207.119 229.007 207.051 229.066 206.975 229.118C206.899 229.165 206.823 229.209 206.746 229.249C206.371 229.413 205.955 229.541 205.497 229.633C205.046 229.726 204.601 229.807 204.161 229.877C203.868 229.923 203.604 229.963 203.37 229.998C203.135 230.033 202.93 230.07 202.754 230.111C202.584 230.152 202.44 230.198 202.323 230.251C202.206 230.297 202.121 230.361 202.068 230.443C202.038 230.531 201.994 230.683 201.935 230.9C201.882 231.117 201.82 231.36 201.749 231.629C201.684 231.893 201.619 232.165 201.554 232.446C201.489 232.727 201.435 232.979 201.394 233.202C201.37 233.307 201.344 233.456 201.314 233.65C201.29 233.837 201.263 234.033 201.233 234.238C201.21 234.443 201.189 234.637 201.171 234.818C201.159 235 201.152 235.135 201.152 235.223C201.163 235.738 201.259 236.108 201.44 236.331C201.621 236.554 201.931 236.666 202.371 236.667C202.675 236.65 202.963 236.618 203.232 236.572C203.502 236.52 203.777 236.435 204.059 236.319C204.346 236.202 204.654 236.048 204.983 235.855C205.311 235.656 205.69 235.405 206.118 235.102C206.247 235.008 206.371 234.912 206.488 234.812C206.611 234.707 206.726 234.614 206.831 234.532C206.937 234.45 207.037 234.383 207.131 234.33C207.225 234.272 207.313 234.243 207.395 234.243C207.5 234.243 207.564 234.264 207.588 234.305C207.617 234.34 207.632 234.408 207.631 234.507C207.631 234.583 207.602 234.677 207.543 234.788C207.49 234.9 207.413 235.019 207.313 235.148C207.219 235.277 207.102 235.411 206.961 235.552C206.826 235.686 206.679 235.815 206.521 235.937C206.174 236.212 205.814 236.472 205.438 236.717C205.068 236.963 204.69 237.179 204.303 237.365C203.922 237.546 203.54 237.692 203.159 237.802C202.778 237.907 202.403 237.959 202.034 237.958C201.612 237.957 201.252 237.889 200.953 237.753C200.655 237.618 200.412 237.439 200.225 237.216C200.038 236.987 199.901 236.729 199.814 236.441C199.726 236.154 199.683 235.855 199.684 235.545ZM217.772 231.444C217.772 231.538 217.707 231.693 217.577 231.91C217.342 232.284 217.048 232.688 216.696 233.121C216.349 233.554 215.962 233.989 215.533 234.428C215.11 234.86 214.658 235.278 214.177 235.682C213.701 236.085 213.217 236.441 212.724 236.751C212.231 237.054 211.744 237.299 211.263 237.486C210.783 237.672 210.325 237.765 209.892 237.764L209.83 237.764C208.828 237.762 208.079 237.473 207.582 236.898C207.085 236.322 206.838 235.522 206.84 234.497C206.841 234.087 206.874 233.653 206.94 233.196C207.005 232.739 207.118 232.277 207.277 231.808C207.442 231.334 207.663 230.863 207.939 230.395C208.221 229.921 208.577 229.464 209.006 229.026C209.329 228.704 209.669 228.459 210.027 228.29C210.384 228.115 210.722 228.028 211.038 228.028C211.085 228.028 211.146 228.04 211.222 228.064C211.299 228.088 211.375 228.12 211.451 228.161C211.533 228.196 211.609 228.243 211.679 228.302C211.755 228.355 211.819 228.414 211.872 228.478C212.036 228.69 212.155 228.892 212.231 229.086C212.307 229.279 212.344 229.505 212.344 229.763C212.343 230.102 212.295 230.413 212.201 230.694C212.107 230.969 211.971 231.238 211.795 231.502C211.619 231.765 211.401 232.031 211.143 232.3C210.885 232.563 210.588 232.85 210.253 233.159C210.142 233.265 210.01 233.382 209.857 233.51C209.704 233.639 209.54 233.773 209.364 233.913C209.188 234.054 209.006 234.2 208.818 234.352C208.63 234.504 208.445 234.653 208.263 234.799C208.308 235.848 208.89 236.373 210.009 236.376C210.63 236.377 211.293 236.214 211.996 235.888C212.343 235.725 212.665 235.538 212.964 235.327C213.264 235.111 213.557 234.892 213.845 234.67C213.986 234.559 214.141 234.428 214.311 234.276C214.482 234.124 214.655 233.963 214.831 233.793C215.013 233.624 215.192 233.454 215.368 233.285C215.55 233.115 215.721 232.955 215.879 232.803C215.979 232.703 216.085 232.598 216.196 232.487C216.314 232.376 216.437 232.256 216.566 232.127L217.042 231.654C217.329 231.402 217.538 231.277 217.667 231.277C217.737 231.277 217.772 231.333 217.772 231.444ZM211.007 230.111C211.007 229.936 210.961 229.783 210.867 229.654C210.774 229.519 210.66 229.451 210.525 229.451C210.426 229.451 210.297 229.492 210.138 229.573C209.986 229.655 209.821 229.801 209.645 230.012C209.287 230.444 208.981 230.968 208.728 231.583C208.474 232.192 208.297 232.871 208.196 233.621C208.566 233.323 208.877 233.057 209.129 232.823C209.387 232.589 209.619 232.37 209.825 232.165C209.966 232.025 210.104 231.876 210.239 231.718C210.38 231.56 210.506 231.393 210.618 231.218C210.736 231.042 210.83 230.861 210.9 230.674C210.971 230.486 211.007 230.299 211.007 230.111ZM225.895 230.697C225.893 231.33 225.819 231.919 225.671 232.464C225.523 233.008 225.311 233.523 225.035 234.009C224.758 234.489 224.417 234.948 224.012 235.387C223.607 235.819 223.149 236.249 222.638 236.676C222.445 236.834 222.225 236.988 221.978 237.14C221.738 237.292 221.485 237.426 221.221 237.543C220.957 237.659 220.691 237.755 220.421 237.831C220.157 237.901 219.908 237.935 219.674 237.935C219.504 237.935 219.366 237.917 219.261 237.881C219.155 237.84 219.062 237.784 218.98 237.714C218.904 237.643 218.831 237.561 218.761 237.467C218.691 237.367 218.609 237.259 218.515 237.141C218.38 237.539 218.27 237.873 218.188 238.143C218.105 238.412 218.037 238.652 217.984 238.863C217.931 239.074 217.889 239.273 217.86 239.46C217.83 239.654 217.8 239.87 217.77 240.11C217.741 240.351 217.702 240.635 217.654 240.963C217.613 241.297 217.553 241.707 217.476 242.193C217.464 242.287 217.431 242.395 217.378 242.518C217.325 242.641 217.261 242.758 217.184 242.869C217.114 242.98 217.035 243.074 216.946 243.15C216.864 243.226 216.785 243.264 216.709 243.263C216.627 243.263 216.527 243.237 216.41 243.184C216.293 243.137 216.182 243.075 216.077 242.998C215.971 242.928 215.881 242.854 215.805 242.778C215.729 242.702 215.691 242.637 215.691 242.584C215.691 242.379 215.715 242.174 215.762 241.969C215.816 241.764 215.86 241.568 215.896 241.381C216.079 240.455 216.269 239.589 216.464 238.78C216.665 237.972 216.845 237.17 217.005 236.373C217.165 235.577 217.296 234.757 217.397 233.913C217.505 233.064 217.559 232.138 217.562 231.136C217.562 231.113 217.559 231.06 217.553 230.978C217.553 230.89 217.553 230.799 217.554 230.706C217.554 230.606 217.551 230.515 217.545 230.433C217.546 230.351 217.546 230.295 217.546 230.266C217.546 230.073 217.57 229.882 217.617 229.695C217.671 229.508 217.744 229.341 217.838 229.195C217.932 229.042 218.041 228.92 218.164 228.826C218.293 228.733 218.434 228.686 218.586 228.686C218.651 228.687 218.715 228.722 218.78 228.792C218.844 228.857 218.902 228.948 218.955 229.065C219.007 229.177 219.048 229.311 219.077 229.47C219.112 229.628 219.129 229.798 219.128 229.98C219.128 230.284 219.109 230.633 219.073 231.025C219.037 231.418 218.993 231.816 218.939 232.22C218.891 232.619 218.841 232.999 218.787 233.363C218.734 233.726 218.692 234.03 218.662 234.276C218.892 233.761 219.156 233.27 219.456 232.802C219.762 232.334 220.079 231.901 220.408 231.503C220.737 231.105 221.072 230.748 221.413 230.433C221.759 230.111 222.091 229.837 222.408 229.609C222.725 229.381 223.021 229.209 223.296 229.092C223.572 228.97 223.807 228.909 224 228.909C224.264 228.91 224.51 228.963 224.738 229.069C224.972 229.169 225.174 229.304 225.343 229.475C225.519 229.639 225.653 229.83 225.747 230.047C225.846 230.258 225.895 230.475 225.895 230.697ZM224.451 231.512C224.452 231.254 224.423 231.046 224.365 230.887C224.307 230.729 224.237 230.609 224.155 230.527C224.073 230.439 223.985 230.38 223.891 230.35C223.804 230.321 223.73 230.306 223.672 230.306C223.437 230.305 223.168 230.41 222.862 230.621C222.557 230.825 222.24 231.097 221.911 231.436C221.583 231.769 221.254 232.149 220.925 232.576C220.596 233.003 220.29 233.433 220.008 233.866C219.937 233.977 219.843 234.127 219.725 234.314C219.614 234.501 219.505 234.697 219.399 234.902C219.293 235.101 219.202 235.291 219.125 235.473C219.049 235.654 219.01 235.792 219.01 235.886C219.01 235.938 219.033 236.006 219.08 236.088C219.127 236.17 219.194 236.252 219.282 236.334C219.375 236.411 219.489 236.478 219.624 236.537C219.764 236.596 219.926 236.626 220.107 236.626C220.353 236.627 220.632 236.554 220.943 236.408C221.253 236.257 221.567 236.055 221.884 235.804C222.207 235.547 222.521 235.249 222.827 234.91C223.138 234.57 223.411 234.214 223.646 233.839C223.888 233.459 224.082 233.069 224.229 232.671C224.376 232.273 224.451 231.887 224.451 231.512ZM245.939 236.384C245.939 236.507 245.903 236.65 245.832 236.814C245.756 237.007 245.536 237.189 245.172 237.358C244.82 237.515 244.521 237.594 244.275 237.593L243.95 237.592C243.393 237.591 242.98 237.552 242.711 237.475C241.885 237.257 240.872 237.146 239.671 237.144C239.43 237.143 239.184 237.151 238.932 237.168C238.68 237.185 238.419 237.214 238.15 237.254C237.599 237.324 237.133 237.431 236.752 237.577C236.036 237.85 235.587 238.096 235.405 238.312C235.182 238.581 235.003 238.765 234.868 238.864C234.733 238.97 234.534 239.022 234.27 239.021C233.813 239.02 233.585 238.818 233.586 238.413C233.587 237.968 233.69 237.608 233.896 237.333C234.219 236.888 234.606 236.517 235.058 236.219C235.287 236.068 235.551 235.907 235.85 235.738C236.155 235.563 236.502 235.376 236.889 235.177C237.17 235.037 237.455 234.889 237.742 234.731C238.03 234.568 238.291 234.375 238.526 234.153C238.737 233.966 238.951 233.773 239.169 233.574C239.392 233.369 239.618 233.165 239.847 232.96C240.31 232.539 240.683 232.142 240.965 231.767C241.265 231.381 241.512 231.007 241.706 230.644C241.906 230.275 242.007 229.906 242.007 229.537C242.008 229.268 241.894 228.986 241.667 228.693C241.444 228.399 241.164 228.15 240.824 227.944C240.503 227.744 240.204 227.644 239.929 227.643C239.595 227.642 239.125 227.823 238.521 228.185C238.222 228.366 237.952 228.541 237.711 228.711C237.477 228.874 237.271 229.038 237.095 229.201C237.03 229.26 236.963 229.324 236.893 229.394C236.828 229.459 236.763 229.529 236.699 229.605C236.634 229.681 236.569 229.745 236.505 229.798C236.44 229.85 236.367 229.891 236.285 229.92C236.209 229.949 236.118 229.973 236.012 229.99C235.913 230.002 235.793 230.007 235.652 230.007C235.541 230.007 235.418 229.877 235.284 229.619C235.161 229.367 235.1 229.168 235.1 229.021C235.101 228.875 235.142 228.766 235.224 228.696C235.324 228.614 235.462 228.515 235.638 228.398C235.82 228.276 236.008 228.147 236.201 228.013C236.489 227.808 236.756 227.624 237.002 227.461C237.255 227.292 237.489 227.14 237.706 227.005C237.929 226.871 238.152 226.754 238.375 226.655C238.604 226.55 238.841 226.46 239.088 226.384C239.457 226.274 239.973 226.219 240.635 226.221C241.215 226.222 241.765 226.458 242.286 226.928C242.806 227.397 243.238 227.946 243.583 228.574C243.793 228.996 243.898 229.234 243.898 229.287C243.897 229.749 243.702 230.3 243.314 230.938C243.126 231.259 242.914 231.575 242.679 231.885C242.45 232.195 242.2 232.503 241.93 232.807C241.401 233.403 240.92 233.885 240.485 234.254C239.664 234.967 238.889 235.51 238.162 235.883C238.314 235.872 238.504 235.864 238.733 235.858C238.961 235.853 239.234 235.851 239.55 235.851C240.171 235.853 241.094 235.89 242.319 235.963C242.483 235.975 242.653 235.987 242.828 235.999C243.004 236.005 243.186 236.014 243.373 236.027C243.748 236.045 244.044 236.054 244.261 236.055C244.407 236.055 244.604 236.009 244.85 235.916C245.096 235.822 245.278 235.776 245.395 235.776C245.495 235.776 245.609 235.85 245.738 235.997C245.872 236.149 245.939 236.278 245.939 236.384Z" fill="#47B5FF"/>
<path d="M97.4516 183.591C97.4184 183.72 97.3851 183.849 97.3517 183.979C97.8246 184.156 98.3896 184.597 98.7545 184.469C101.06 183.658 103.333 182.749 105.586 181.799C105.963 181.64 106.495 181.045 106.429 180.786C106.237 180.04 105.645 180.198 105.036 180.456C102.518 181.525 99.9817 182.55 97.4516 183.591ZM112.829 214.511C112.831 214.682 112.832 214.853 112.834 215.024C113.949 215.849 115.028 216.729 116.191 217.48C117.015 218.014 119.359 216.83 119.451 215.855C119.549 214.819 119.508 213.771 119.532 212.52C117.166 213.223 114.998 213.867 112.829 214.511ZM105.438 179.057C104.409 177.436 103.635 175.917 102.582 174.627C100.803 172.447 96.514 173.214 95.4255 175.821C95.2992 176.123 95.2087 176.497 95.2635 176.808C95.5126 178.232 95.7068 179.682 96.1369 181.053C96.6054 182.548 97.2532 182.699 98.6762 182.063C100.305 181.335 101.967 180.682 103.607 179.977C104.129 179.753 104.626 179.468 105.438 179.057ZM113.632 213.223C112.4 210.624 111.249 208.081 109.999 205.588C106.768 199.15 103.503 192.729 100.211 186.322C100.027 185.965 99.3799 185.504 99.1225 185.593C98.4733 185.818 98.2284 186.399 98.6117 187.124C99.1543 188.151 99.6698 189.193 100.158 190.247C102.616 195.55 104.98 200.901 107.547 206.151C108.836 208.786 110.49 211.242 111.983 213.789C112.579 213.584 113.026 213.431 113.632 213.223ZM104.37 183.468C109.008 193.118 113.521 202.507 118.043 211.914C119.451 211.138 119.546 211.006 119.151 210C118.71 208.878 118.171 207.796 117.693 206.688C114.99 200.422 112.29 194.154 109.595 187.884C108.835 186.115 108.095 184.339 107.299 182.452C106.265 182.811 105.416 183.105 104.37 183.468ZM114.673 212.842C115.572 212.51 116.316 212.235 117.025 211.973C112.52 202.504 108.085 193.183 103.602 183.762C102.491 184.129 101.582 184.429 100.441 184.807C102.826 189.729 105.016 194.419 107.358 199.031C109.697 203.638 112.189 208.168 114.673 212.842ZM120.003 221.756C119.048 220.98 118.442 220.455 117.803 219.974C116.723 219.16 115.685 218.263 114.518 217.598C111.551 215.905 110.232 212.945 108.718 210.173C106.542 206.185 104.398 202.168 102.493 198.047C99.8572 192.342 97.4349 186.538 94.9775 180.752C94.551 179.748 94.3187 178.638 94.1449 177.554C93.7867 175.32 94.6113 174.054 97.0758 172.816C99.8838 171.405 102.007 171.982 103.811 174.553C107.002 179.098 109.267 184.103 111.315 189.234C112.785 192.916 114.4 196.54 115.968 200.183C117.38 203.465 118.852 206.72 120.211 210.023C120.511 210.751 120.52 211.63 120.533 212.44C120.567 214.713 120.568 216.988 120.505 219.26C120.485 219.982 120.225 220.697 120.003 221.756Z" fill="#47B5FF"/>
<path d="M114.672 212.842C112.188 208.168 109.696 203.639 107.357 199.032C105.015 194.419 102.825 189.729 100.44 184.807C101.582 184.429 102.491 184.129 103.601 183.762C108.084 193.183 112.519 202.504 117.025 211.974C116.316 212.235 115.571 212.51 114.672 212.842Z" fill="#47B5FF" fill-opacity="0.12"/>
<path d="M104.369 183.469C105.415 183.105 106.264 182.811 107.298 182.452C108.095 184.339 108.835 186.115 109.594 187.884C112.289 194.154 114.989 200.422 117.693 206.688C118.17 207.796 118.709 208.878 119.15 210C119.546 211.006 119.45 211.138 118.042 211.914C113.521 202.507 109.007 193.118 104.369 183.469Z" fill="#47B5FF" fill-opacity="0.12"/>
<path d="M113.632 213.223C113.025 213.431 112.579 213.584 111.983 213.789C110.49 211.243 108.836 208.786 107.547 206.151C104.979 200.901 102.616 195.55 100.158 190.247C99.6697 189.193 99.1542 188.151 98.6116 187.124C98.2283 186.399 98.4733 185.819 99.1225 185.593C99.3798 185.504 100.027 185.965 100.211 186.322C103.502 192.729 106.768 199.15 109.999 205.588C111.249 208.081 112.4 210.624 113.632 213.223Z" fill="#47B5FF" fill-opacity="0.12"/>
<path d="M105.438 179.057C104.626 179.468 104.129 179.753 103.607 179.977C101.967 180.682 100.305 181.335 98.6763 182.063C97.2533 182.699 96.6055 182.548 96.137 181.054C95.7069 179.682 95.5127 178.232 95.2635 176.809C95.2088 176.497 95.2993 176.123 95.4256 175.821C96.5141 173.214 100.803 172.448 102.582 174.627C103.635 175.917 104.409 177.436 105.438 179.057Z" fill="#47B5FF" fill-opacity="0.12"/>
<path d="M112.829 214.511C114.998 213.867 117.166 213.223 119.532 212.52C119.508 213.771 119.549 214.819 119.451 215.855C119.359 216.83 117.015 218.014 116.191 217.48C115.028 216.729 113.949 215.849 112.834 215.024C112.832 214.853 112.831 214.682 112.829 214.511Z" fill="#47B5FF" fill-opacity="0.12"/>
<path d="M97.4516 183.591C99.9817 182.55 102.518 181.526 105.036 180.456C105.644 180.198 106.237 180.041 106.429 180.786C106.495 181.045 105.963 181.64 105.586 181.799C103.333 182.749 101.06 183.658 98.7545 184.469C98.3895 184.597 97.8246 184.156 97.3516 183.979C97.3851 183.85 97.4184 183.72 97.4516 183.591Z" fill="#47B5FF" fill-opacity="0.12"/>
<path d="M153.331 224.243C153.45 224.243 153.569 224.242 153.689 224.241C153.938 223.553 154.259 222.882 154.419 222.174C154.579 221.465 154.339 220.716 153.507 220.803C153.141 220.841 152.566 221.636 152.59 222.059C152.632 222.799 153.063 223.516 153.331 224.243ZM152.542 225.427C152.138 224.25 151.684 223.295 151.498 222.29C151.282 221.12 152.126 219.923 153.082 219.728C154.035 219.533 155.341 220.181 155.413 221.136C155.483 222.035 155.143 222.975 154.916 223.88C154.83 224.227 154.558 224.527 154.193 225.155C155.499 225.585 156.659 226.173 157.874 226.334C163.941 227.141 169.968 227.346 175.604 224.311C176.314 223.929 176.947 223.394 177.673 223.057C178.081 222.868 178.609 222.941 179.083 222.896C179.122 223.061 179.162 223.227 179.2 223.392C177.566 224.28 175.964 225.236 174.289 226.041C170.412 227.903 166.246 228.128 162.062 227.849C159.311 227.665 156.47 227.742 153.941 226.282C153.762 226.179 153.402 226.291 153.172 226.4C152.832 226.561 152.462 226.75 152.229 227.03C150.718 228.855 148.485 229.384 146.44 230.178C145.338 230.605 144.041 230.766 142.855 230.689C139.84 230.493 136.773 230.381 133.846 229.715C128.775 228.563 124.203 226.283 120.788 222.186C119.971 221.206 119.445 219.984 118.785 218.873C118.94 218.749 119.095 218.625 119.249 218.502C119.582 218.79 120.026 219.015 120.229 219.376C122.933 224.188 127.49 226.329 132.402 228.095C136.289 229.493 140.332 229.736 144.31 229.518C147.46 229.346 150.425 227.909 152.542 225.427Z" fill="#47B5FF"/>
</g>
</svg>
