<svg width="384" height="513" viewBox="0 0 384 513" fill="none" xmlns="http://www.w3.org/2000/svg">
<mask id="mask0_2373_80335" style="mask-type:alpha" maskUnits="userSpaceOnUse" x="0" y="0" width="384" height="513">
<rect width="384" height="513" fill="#D9D9D9"/>
</mask>
<g mask="url(#mask0_2373_80335)">
<path d="M-403 379.5C-336.5 324.167 -171.5 231.7 -43.5 304.5C84.5 377.3 217.833 299.5 268.5 251.5C332.833 202.333 489.4 129 601 229C712.6 329 858.833 183.333 918 98L991.5 131.5" stroke="#47B5FF" stroke-width="2" stroke-linecap="round" stroke-dasharray="9.9 9.9"/>
<rect width="41" height="34.5686" transform="translate(71 313)" fill="#F8F8F8"/>
<path d="M85.75 330.415C90.3347 327.613 97.2965 328.494 97.3628 332.312C97.4395 336.718 91.7202 339.53 86.7324 339.53C80.8216 339.53 76.9412 334.072 80.2583 328.575C83.7598 322.773 91.3313 320.461 96.7818 321.161C102.954 321.953 107.284 329.503 100.586 337.889" stroke="#FBCB33" stroke-width="4.01961" stroke-linecap="round"/>
<rect width="41" height="34.5686" transform="translate(310 197)" fill="#F8F8F8"/>
<path d="M324.75 214.415C329.335 211.613 336.296 212.494 336.363 216.312C336.439 220.718 330.72 223.53 325.732 223.53C319.822 223.53 315.941 218.072 319.258 212.575C322.76 206.773 330.331 204.461 335.782 205.161C341.954 205.953 346.284 213.503 339.586 221.889" stroke="#FBCB33" stroke-width="4.01961" stroke-linecap="round"/>
<path d="M151.066 286.08C150.843 286.151 150.595 286.131 150.402 286.008L138.571 278.452L146.885 286.107C147.141 286.343 147.135 286.73 146.872 286.999C146.608 287.267 146.173 287.328 145.871 287.139L138.027 282.247L142.944 287.086C143.188 287.326 143.173 287.708 142.909 287.97C142.644 288.231 142.217 288.29 141.917 288.105L139.034 286.321L139.85 287.162C140.107 287.427 140.057 287.846 139.737 288.097C139.417 288.348 138.949 288.338 138.692 288.073L133.864 283.1C133.628 282.856 133.65 282.478 133.914 282.22C134.178 281.962 134.603 281.906 134.901 282.09L137.278 283.561L132.286 278.648C132.042 278.408 132.057 278.026 132.322 277.763C132.586 277.501 133.015 277.443 133.315 277.63L140.172 281.907L131.508 273.931C131.251 273.694 131.258 273.305 131.524 273.036C131.79 272.768 132.226 272.709 132.528 272.902L141.331 278.524L131.132 270.102C130.861 269.878 130.845 269.491 131.097 269.212C131.349 268.934 131.784 268.856 132.097 269.034L145.417 276.602L130.229 265.628C129.936 265.416 129.899 265.024 130.144 264.733C130.389 264.442 130.831 264.352 131.153 264.529L148.74 274.203L130.492 261.63C130.193 261.423 130.147 261.031 130.388 260.735C130.629 260.44 131.072 260.345 131.398 260.519L150.453 270.737L130.822 257.954C130.514 257.753 130.459 257.358 130.698 257.057C130.937 256.756 131.385 256.658 131.714 256.834L150.402 266.857L131.658 254.807C131.347 254.608 131.29 254.213 131.527 253.911C131.765 253.609 132.212 253.509 132.542 253.684L152.758 264.383L136.755 253.578C136.452 253.373 136.403 252.978 136.644 252.681C136.886 252.384 137.332 252.29 137.657 252.466L154.258 261.465L141.311 252.001C141.023 251.79 140.986 251.403 141.225 251.114C141.464 250.824 141.9 250.729 142.223 250.897L151.217 255.557L144.532 250.748C144.256 250.549 144.203 250.189 144.407 249.901C144.611 249.612 145.01 249.485 145.344 249.6L151.175 251.617L147.214 248.789C146.907 248.57 146.879 248.156 147.151 247.863C147.424 247.571 147.893 247.511 148.2 247.73L156.046 253.331C156.323 253.528 156.377 253.889 156.173 254.178C155.969 254.467 155.569 254.595 155.235 254.479L149.347 252.443L160.047 260.14C160.338 260.349 160.378 260.737 160.139 261.028C159.9 261.319 159.464 261.415 159.14 261.246L149.714 256.363L163.718 266.601C164.008 266.813 164.044 267.203 163.801 267.493C163.556 267.783 163.117 267.873 162.795 267.699L149.754 260.629L164.613 270.661C164.915 270.865 164.965 271.257 164.726 271.555C164.487 271.852 164.043 271.95 163.717 271.776L146.601 262.719L166.335 275.404C166.646 275.603 166.703 276 166.464 276.302C166.225 276.604 165.776 276.702 165.448 276.526L145.669 265.918L165.287 278.694C165.595 278.894 165.651 279.29 165.411 279.591C165.172 279.891 164.724 279.989 164.396 279.813L141.9 267.751L161.277 281.102C161.578 281.309 161.623 281.705 161.379 282C161.136 282.296 160.69 282.388 160.365 282.209L140.53 271.299L156.92 283.143C157.214 283.355 157.25 283.75 157.002 284.041C156.754 284.332 156.308 284.419 155.988 284.236L138.466 274.28L151.396 284.957C151.673 285.185 151.682 285.582 151.419 285.861C151.321 285.964 151.198 286.038 151.066 286.08Z" fill="#2B71F7"/>
<path d="M234.815 229.163L219.693 220.662L229.632 224.392C229.975 224.52 230.397 224.373 230.599 224.055C230.802 223.738 230.715 223.358 230.402 223.184L218.863 216.814L224.952 218.136C225.297 218.211 225.679 218.036 225.847 217.725C226.015 217.414 225.918 217.062 225.62 216.899L217.164 212.271C216.833 212.089 216.375 212.205 216.139 212.527C215.903 212.85 215.98 213.258 216.311 213.439L220.58 215.776L214.551 214.467C214.206 214.392 213.825 214.565 213.656 214.877C213.488 215.187 213.583 215.539 213.88 215.703L221.09 219.683L211.606 216.125C211.265 215.997 210.844 216.142 210.64 216.459C210.437 216.775 210.521 217.154 210.832 217.329L224.811 225.189L207.259 218.225C206.915 218.089 206.483 218.235 206.278 218.56C206.075 218.883 206.17 219.27 206.495 219.437L223.669 228.264L202.325 220.042C201.976 219.908 201.544 220.061 201.345 220.389C201.145 220.717 201.248 221.102 201.58 221.263L221.623 231L201.876 223.269C201.529 223.133 201.096 223.283 200.895 223.61C200.693 223.938 200.795 224.324 201.125 224.487L222.135 234.847L202.001 226.965C201.657 226.832 201.227 226.978 201.024 227.3C200.82 227.622 200.912 228.006 201.234 228.175L220.846 238.492L202.234 230.976C201.894 230.839 201.465 230.98 201.256 231.298C201.048 231.616 201.131 232.001 201.447 232.176L217.831 241.269L203.706 235.337C203.374 235.197 202.952 235.326 202.735 235.633C202.518 235.939 202.58 236.322 202.875 236.512L214.003 243.662L204.594 239.126C204.272 238.971 203.845 239.081 203.613 239.379L203.601 239.398C203.902 239.776 204.158 240.221 204.353 240.737L213.254 247.159L205.937 243.727C205.79 243.658 205.622 243.65 205.46 243.683C205.837 244.52 206.257 245.337 206.697 246.145L210.577 249.146L208.042 247.968C207.931 247.916 207.808 247.906 207.685 247.913C208.161 248.753 208.638 249.592 209.09 250.445C209.156 250.571 209.21 250.696 209.266 250.822L212.517 253.458C212.804 253.69 213.269 253.645 213.558 253.357C213.845 253.07 213.846 252.647 213.559 252.415L212.649 251.677L215.723 253.106C216.043 253.254 216.46 253.145 216.692 252.854C216.923 252.563 216.892 252.182 216.622 251.972L211.165 247.751L219.534 251.677C219.857 251.828 220.281 251.717 220.511 251.418C220.741 251.12 220.701 250.736 220.418 250.532L211.254 243.919L223.899 250.016C224.105 250.115 224.354 250.106 224.567 250.008C224.693 249.951 224.806 249.863 224.891 249.749C225.12 249.44 225.062 249.048 224.761 248.854L210.653 239.789L229.235 247.592C229.575 247.735 230.006 247.597 230.218 247.278C230.43 246.96 230.347 246.572 230.03 246.396L212.349 236.584L233.34 245.06C233.683 245.198 234.116 245.054 234.322 244.732C234.528 244.409 234.437 244.022 234.114 243.852L213.288 232.898L237.058 242.202C237.404 242.338 237.838 242.188 238.04 241.861C238.241 241.534 238.14 241.147 237.81 240.984L216.813 230.631L237.711 238.813C238.058 238.949 238.492 238.798 238.694 238.469C238.895 238.142 238.791 237.755 238.459 237.594L217.357 227.342L235.428 234.302C235.773 234.435 236.202 234.286 236.404 233.963C236.606 233.639 236.51 233.255 236.186 233.088L220.24 224.893L234.029 230.363C234.369 230.498 234.794 230.356 235.003 230.04C235.21 229.723 235.128 229.339 234.815 229.163Z" fill="#00B8B8"/>
<path d="M209.668 233.205C210.18 234.198 210.187 235.214 209.684 235.474C209.18 235.734 208.356 235.139 207.844 234.146C207.331 233.153 207.324 232.138 207.828 231.878C208.332 231.618 209.155 232.212 209.668 233.205Z" fill="white"/>
<path d="M239.205 262.342L239.163 262.292C238.929 262.413 238.694 262.534 238.459 262.655C238.633 262.696 238.766 262.653 238.884 262.585C238.999 262.518 239.099 262.424 239.205 262.342ZM227.954 268.334C227.918 268.253 227.882 268.172 227.845 268.092C227.226 268.321 226.605 268.549 225.985 268.778C226.793 269.053 227.412 268.804 227.954 268.334ZM207.816 232.478C207.889 234.112 208.31 234.768 209.236 234.786C209.252 233.701 208.686 232.746 207.816 232.478ZM194.923 230.445C194.557 230.907 194.127 231.334 193.855 231.846C193.721 232.099 193.76 232.613 193.939 232.815C194.108 233.004 194.658 233.088 194.875 232.953C195.396 232.629 195.869 232.191 196.268 231.72C196.549 231.389 196.599 230.921 196.211 230.568C195.841 230.23 195.43 230.324 194.923 230.445ZM217.304 212.322C213.444 217.762 208.295 219.946 201.874 219.242C201.544 221.757 201.75 224.155 201.938 226.661C202.261 226.545 202.462 226.496 202.641 226.404C203.342 226.047 204.039 225.682 204.73 225.308C205.642 224.815 205.805 224.861 206.303 225.798C206.404 225.987 206.496 226.181 206.591 226.374C207.424 228.076 208.244 229.784 209.102 231.474C209.249 231.763 209.519 232.127 209.794 232.192C212.751 232.879 215.721 233.161 218.694 232.255C221.785 231.313 223.802 228.95 224.07 225.731C224.169 224.537 224.058 223.3 223.865 222.112C223.426 219.419 222.04 217.094 220.79 214.725C220.742 214.634 220.667 214.545 220.582 214.488C219.516 213.779 218.446 213.075 217.304 212.322ZM218.69 252.179C219.086 252.059 219.47 251.975 219.829 251.829C222.247 250.843 224.697 249.925 227.064 248.83C230.41 247.281 233.698 245.598 236.683 243.406C237.657 242.691 238.561 241.866 239.423 241.016C240.028 240.42 240.131 239.652 239.764 238.84C239.485 238.221 239.281 237.568 239 236.95C237.49 233.618 235.74 230.42 233.633 227.423C230.797 223.39 227.502 219.785 223.664 216.685C223.434 216.499 223.171 216.356 222.783 216.102C223.28 217.276 223.727 218.25 224.108 219.25C224.944 221.451 225.41 223.723 225.08 226.084C224.602 229.51 222.717 231.837 219.469 233.049C216.875 234.016 214.215 234 211.527 233.592C211.148 233.535 210.768 233.481 210.296 233.411C210.331 233.684 210.314 233.866 210.379 234.011C212.697 239.202 215.017 244.393 217.354 249.575C217.749 250.449 218.228 251.284 218.69 252.179ZM182.615 238.152C182.653 238.398 182.649 238.548 182.701 238.675C183.445 240.495 184.178 242.319 184.952 244.126C185.331 245.008 185.774 245.864 186.22 246.715C186.414 247.085 186.33 247.352 186 247.516C185.753 247.64 185.458 247.678 185.18 247.733C181.956 248.37 179.589 251.11 179.46 254.361C179.293 258.555 182.949 261.728 187.062 260.951C188.436 260.692 189.599 260.032 190.619 259.077C191.235 258.5 191.404 258.549 191.822 259.276C192.554 260.546 193.238 261.847 194.02 263.086C194.682 264.132 195.455 265.109 196.153 266.081C197.743 265.524 218.095 255.067 218.566 254.585C215.743 248.302 212.919 242.017 210.108 235.761C208.577 236.1 207.76 235.74 207.252 234.427C206.989 233.747 206.831 232.973 206.868 232.254C206.887 231.903 207.461 231.58 207.844 231.182C207.08 229.555 206.296 227.883 205.483 226.15C202.685 227.553 199.92 228.706 197.452 230.374C197.527 232.229 196.664 233.49 195.017 233.991C194.151 234.254 193.513 234.046 192.948 233.318C192.846 233.187 192.738 233.062 192.661 232.968C189.286 234.709 185.985 236.413 182.615 238.152ZM217.775 211.51C218.859 212.206 219.903 212.894 220.965 213.552C225.747 216.518 229.608 220.471 233.029 224.878C235.538 228.111 237.644 231.605 239.376 235.315C239.966 236.578 240.483 237.878 240.97 239.184C241.254 239.95 240.94 240.687 240.489 241.289C240.022 241.913 239.486 242.522 238.868 242.989C237.472 244.044 236.009 245.011 234.568 246.006C234.249 246.227 233.91 246.419 233.518 246.663C233.933 247.467 234.282 248.241 234.715 248.965C236.476 251.913 238.26 254.847 240.044 257.781C240.545 258.606 241.081 259.41 241.587 260.233C241.882 260.713 241.841 261.645 241.382 261.996C240.508 262.667 239.594 263.309 238.62 263.818C237.877 264.207 237.311 264.035 237.065 263.624C236.789 263.162 237.021 262.422 237.72 261.986C238.443 261.534 239.244 261.206 240.012 260.825C240.139 260.762 240.272 260.71 240.528 260.598C239.238 258.318 237.71 256.219 236.42 253.978C235.14 251.757 233.93 249.495 232.721 247.308C228.671 249.149 224.709 250.95 220.619 252.809C220.763 253.213 220.897 253.724 221.119 254.192C222.641 257.403 224.463 260.436 226.63 263.255C227.413 264.275 228.267 265.241 229.091 266.23C229.205 266.367 229.343 266.486 229.451 266.628C230.234 267.659 230.181 268.061 229.132 268.804C228.251 269.428 227.345 270.015 226.21 270.037C225.891 270.043 225.557 270.045 225.254 269.962C224.438 269.74 224.213 268.929 224.885 268.428C225.475 267.988 226.195 267.712 226.88 267.415C227.298 267.235 227.758 267.155 228.311 266.997C227.398 265.845 226.514 264.786 225.695 263.68C224.866 262.559 224.069 261.413 223.318 260.239C222.586 259.094 221.92 257.906 221.246 256.725C220.575 255.552 220.243 254.202 219.541 253.043C219.452 253.076 219.364 253.108 219.275 253.14C219.316 253.35 219.307 253.587 219.406 253.764C219.953 254.749 219.762 255.36 218.671 255.91C212.884 258.826 207.112 261.774 201.333 264.707C199.896 265.436 198.452 266.151 197.009 266.867C196.694 267.022 196.368 267.154 195.945 267.341C195.065 266.153 194.177 265.036 193.381 263.858C192.584 262.679 191.877 261.44 191.079 260.141C188.624 261.974 185.993 262.676 183.089 261.563C181.188 260.834 179.865 259.476 179.054 257.619C178.402 256.127 178.278 254.578 178.609 252.993C178.94 251.408 179.7 250.055 180.84 248.905C181.98 247.756 183.39 247.1 185.02 246.668C184.382 245.217 183.768 243.853 183.181 242.477C182.676 241.293 182.173 240.106 181.725 238.9C181.381 237.973 181.639 237.547 182.494 237.101C185.825 235.364 189.146 233.605 192.457 231.83C192.751 231.672 192.979 231.361 193.194 231.087C193.963 230.109 194.876 229.446 196.199 229.526C196.466 229.542 196.768 229.47 197.01 229.349C198.29 228.712 199.557 228.046 200.815 227.397C200.799 224.562 200.785 221.855 200.769 219.006C200.483 218.918 200.083 218.797 199.684 218.674C191.384 216.125 186.385 207.436 188.471 199.155C189.273 195.969 190.922 193.3 193.46 191.197C193.515 191.151 193.568 191.102 193.622 191.055C193.928 190.788 194.295 190.477 194.634 190.888C194.985 191.313 194.559 191.577 194.261 191.837C189.667 195.846 188.119 200.864 189.525 206.74C191.187 213.688 197.788 218.602 204.921 218.346C211.611 218.106 217.142 213.297 218.324 206.693C220.245 195.96 210.25 186.539 199.69 189.156C198.658 189.412 197.683 189.898 196.687 190.291C196.298 190.445 195.84 190.821 195.557 190.298C195.269 189.767 195.814 189.567 196.19 189.381C200.714 187.143 205.306 187.082 209.875 189.148C218.237 192.928 221.928 202.83 218.027 210.904C217.937 211.092 217.866 211.289 217.775 211.51Z" fill="#242428"/>
<path d="M150.666 266.821C151.328 268.105 151.23 269.473 150.446 269.877C149.662 270.282 148.49 269.569 147.828 268.285C147.166 267.002 147.264 265.634 148.048 265.23C148.832 264.825 150.003 265.538 150.666 266.821Z" fill="white"/>
<path d="M149.324 303.816L149.346 303.691C149.156 303.662 148.967 303.632 148.778 303.602L148.757 303.752C148.946 303.773 149.135 303.795 149.324 303.816ZM169.369 296.337C168.077 296.888 167.976 296.966 167.514 297.712C168.208 297.416 168.878 297.186 169.369 296.337ZM159.773 251.212C159.985 251.011 160.24 250.815 160.437 250.572C160.687 250.265 160.901 249.906 160.617 249.514C160.347 249.141 159.961 248.991 159.496 249.092C158.866 249.231 158.393 249.613 158.137 250.176C158.009 250.46 157.999 250.873 158.102 251.169C158.248 251.586 158.677 251.495 159.025 251.428C159.266 251.381 159.498 251.293 159.773 251.212ZM150.285 267.236C149.973 266.878 149.519 266.331 149.035 265.812C148.806 265.567 148.507 265.438 148.163 265.624C147.81 265.815 147.62 266.12 147.699 266.508C147.919 267.59 148.457 268.511 149.27 269.249C149.585 269.535 150.009 269.538 150.372 269.296C150.739 269.051 150.85 268.677 150.714 268.259C150.626 267.988 150.495 267.732 150.285 267.236ZM131.622 253.519C131.366 255.213 131.117 256.834 130.882 258.456C130.863 258.586 130.928 258.733 130.973 258.864C132.174 262.312 133.898 265.468 136.289 268.238C137.768 269.952 139.401 271.5 141.418 272.585C142.307 273.064 143.24 273.422 144.269 273.447C145.469 273.476 146.376 272.968 146.821 271.852C147.443 270.291 147.498 268.72 146.628 267.203C145.505 265.248 144.388 263.289 143.268 261.333C142.325 259.688 142.358 259.619 144.008 258.62C146.915 256.86 149.812 255.08 152.707 253.301C152.991 253.126 153.238 252.891 153.56 252.639C151.367 250.618 149.566 248.373 147.091 246.73C143.302 251.982 138.236 254.294 131.622 253.519ZM130.701 261.417C130.647 261.504 130.588 261.557 130.582 261.615C130.557 261.863 130.538 262.114 130.532 262.363C130.33 271.293 132.194 279.763 136.122 287.789C136.639 288.844 137.41 289.296 138.51 289.192C139.611 289.09 140.721 288.969 141.796 288.72C146.522 287.628 151.006 285.849 155.4 283.828C155.584 283.743 155.739 283.596 156.003 283.412C153.475 279.031 150.972 274.693 148.344 270.137C148.226 270.66 148.175 270.896 148.12 271.132C147.511 273.802 145.663 274.949 143.011 274.3C141.704 273.98 140.546 273.342 139.462 272.57C137.04 270.845 135.084 268.67 133.484 266.187C132.499 264.658 131.645 263.045 130.701 261.417ZM158.872 286.339C167.295 281.669 175.602 277.063 183.993 272.41C182.245 269.629 180.577 266.973 178.845 264.217C178.503 264.564 178.237 264.842 177.963 265.112C174.946 268.076 170.155 267.97 167.417 264.88C164.028 261.056 165.217 255.022 169.803 252.763C170.175 252.58 170.541 252.384 170.982 252.156C169.61 250.015 168.287 247.949 166.887 245.763C165.086 246.871 163.365 247.929 161.652 248.982C162.026 250.39 161.426 251.316 160.385 251.987C159.286 252.697 158.166 252.692 157.103 251.77C152.63 254.526 148.196 257.259 143.692 260.034C144.767 261.894 145.776 263.64 146.796 265.405C148.337 264.199 149.189 264.273 150.351 265.699C150.82 266.276 151.249 266.915 151.554 267.59C152.163 268.938 151.666 269.943 150.258 270.433C150.13 270.478 150.013 270.557 149.816 270.659C152.813 275.847 155.797 281.013 158.872 286.339ZM162.242 285.731C163.955 289.405 165.475 293.066 166.267 297.1C166.56 296.924 166.765 296.817 166.953 296.686C167.539 296.278 168.104 295.837 168.707 295.457C168.97 295.292 169.301 295.195 169.612 295.156C170.429 295.051 170.927 295.609 170.556 296.324C170.221 296.967 169.733 297.622 169.142 298.019C168.417 298.506 167.522 298.746 166.688 299.062C166.356 299.188 166.046 299.095 165.879 298.74C165.701 298.358 165.481 297.987 165.365 297.587C164.818 295.698 164.39 293.769 163.747 291.914C163.084 289.998 162.222 288.15 161.403 286.166C160.808 286.473 160.31 286.728 159.814 286.986C158.822 287.504 158.244 287.343 157.699 286.36C157.354 285.737 157.043 285.096 156.672 284.377C153.436 285.663 150.329 286.897 147.179 288.149C147.147 290.59 147.17 293.052 147.068 295.509C146.967 297.935 146.738 300.356 146.563 302.821C147.433 302.762 148.212 302.663 148.988 302.673C149.476 302.679 150.005 302.762 150.432 302.976C150.727 303.123 151.005 303.53 151.066 303.863C151.148 304.306 150.732 304.568 150.336 304.654C149.853 304.761 149.347 304.827 148.855 304.812C148.249 304.793 147.645 304.683 147.043 304.592C145.895 304.417 145.463 303.852 145.541 302.695C145.829 298.41 146.292 294.136 146.208 289.833C146.2 289.413 146.173 288.994 146.155 288.578C144.571 289.008 143.101 289.459 141.605 289.794C140.597 290.019 139.556 290.111 138.524 290.201C138.069 290.241 137.589 290.182 137.142 290.077C136.164 289.847 135.638 289.156 135.206 288.263C131.154 279.887 129.145 271.067 129.568 261.761C129.686 259.163 130.241 256.584 130.598 253.997C130.627 253.788 130.668 253.582 130.716 253.304C130.275 253.162 129.872 253.037 129.473 252.903C123.181 250.788 118.833 244.782 118.645 237.945C118.458 231.144 122.381 225.029 128.508 222.584C128.804 222.466 129.118 222.35 129.429 222.332C129.581 222.323 129.804 222.513 129.886 222.669C129.938 222.771 129.835 223.029 129.723 223.122C129.537 223.276 129.295 223.378 129.062 223.463C123.251 225.576 118.754 232.005 119.815 239.498C120.682 245.616 124.042 249.938 129.95 251.952C137.185 254.419 144.929 250.511 147.699 243.173C150.437 235.917 147.329 227.611 140.563 224.121C137.976 222.786 135.232 222.293 132.34 222.627C132.126 222.652 131.914 222.685 131.701 222.713C131.357 222.757 131.011 222.735 130.958 222.313C130.904 221.89 131.263 221.796 131.582 221.723C131.826 221.667 132.076 221.631 132.325 221.607C137.93 221.087 142.611 222.979 146.053 227.383C150.261 232.768 150.837 238.713 148.037 244.965C147.934 245.193 147.816 245.414 147.717 245.644C147.691 245.704 147.711 245.783 147.712 245.76C150.01 247.887 152.262 249.969 154.581 252.114C155.324 251.66 156.093 251.216 156.827 250.721C157.01 250.597 157.094 250.312 157.201 250.091C157.795 248.869 158.8 248.261 160.125 248.285C160.674 248.294 161.097 248.126 161.524 247.862C162.833 247.053 164.138 246.237 165.447 245.427C165.751 245.239 166.057 245.05 166.375 244.888C167.083 244.53 167.269 244.556 167.722 245.199C168.257 245.958 168.749 246.749 169.252 247.532C170.122 248.887 170.986 250.246 171.853 251.604C171.929 251.724 172.003 251.848 172.066 251.976C172.422 252.696 172.3 252.982 171.509 253.223C170.363 253.572 169.317 254.092 168.462 254.953C166.099 257.331 165.831 261.189 167.848 263.805C170.24 266.905 174.765 267.082 177.447 264.177C177.762 263.835 178.04 263.456 178.374 263.135C178.818 262.706 179.043 262.719 179.399 263.238C179.965 264.065 180.487 264.921 181.02 265.769C182.258 267.739 183.501 269.705 184.722 271.685C185.308 272.637 185.228 272.875 184.208 273.441C179.825 275.874 175.436 278.296 171.055 280.731C168.332 282.245 165.619 283.775 162.904 285.301C162.719 285.404 162.547 285.532 162.242 285.731Z" fill="#242428"/>
<path d="M197.764 205.594C198.078 206.203 197.934 206.821 197.418 207.073C196.881 207.337 196.137 207.028 195.799 206.403C195.492 205.832 195.67 204.899 196.132 204.662C196.547 204.45 197.435 204.957 197.764 205.594Z" fill="#242428"/>
<path d="M133.784 237.646C134.107 238.279 133.944 238.965 133.409 239.229C132.921 239.469 132.341 239.244 132.071 238.707C131.76 238.092 131.898 237.33 132.366 237.075C132.862 236.805 133.483 237.055 133.784 237.646Z" fill="#242428"/>
<path d="M207.59 200.715C207.892 201.25 207.808 201.9 207.404 202.162C206.97 202.445 206.191 202.162 205.853 201.599C205.546 201.088 205.642 200.428 206.06 200.162C206.538 199.859 207.253 200.118 207.59 200.715Z" fill="#242428"/>
<path d="M142.165 233.4C141.844 232.815 141.912 232.183 142.322 231.958C142.727 231.734 143.407 232.021 143.67 232.526C143.939 233.042 143.801 233.742 143.386 233.961C142.974 234.179 142.464 233.945 142.165 233.4Z" fill="#242428"/>
<path d="M182.614 238.152C185.984 236.413 189.286 234.71 192.66 232.968C192.737 233.062 192.846 233.187 192.947 233.318C193.512 234.046 194.151 234.254 195.017 233.991C196.664 233.49 197.527 232.229 197.452 230.374C199.92 228.706 202.684 227.553 205.483 226.15C206.296 227.884 207.08 229.555 207.843 231.182C207.46 231.581 206.886 231.903 206.868 232.254C206.83 232.973 206.989 233.747 207.252 234.427C207.76 235.74 208.576 236.1 210.108 235.761C212.919 242.017 215.743 248.302 218.565 254.585C218.095 255.067 197.743 265.524 196.153 266.081C195.454 265.109 194.681 264.132 194.02 263.086C193.237 261.847 192.553 260.546 191.822 259.276C191.404 258.549 191.235 258.5 190.618 259.077C189.599 260.032 188.435 260.692 187.061 260.951C182.948 261.728 179.293 258.555 179.46 254.361C179.589 251.11 181.955 248.37 185.179 247.733C185.458 247.678 185.753 247.64 186 247.516C186.33 247.352 186.414 247.086 186.22 246.715C185.774 245.864 185.33 245.008 184.952 244.126C184.177 242.319 183.444 240.495 182.701 238.675C182.649 238.548 182.653 238.399 182.614 238.152Z" fill="white"/>
<path d="M158.873 286.339C155.797 281.013 152.813 275.847 149.817 270.659C150.013 270.557 150.13 270.478 150.259 270.433C151.667 269.943 152.163 268.938 151.554 267.59C151.249 266.915 150.821 266.276 150.351 265.699C149.189 264.273 148.338 264.199 146.796 265.405C145.777 263.64 144.768 261.894 143.692 260.034C148.196 257.259 152.631 254.526 157.104 251.77C158.166 252.692 159.287 252.697 160.386 251.987C161.426 251.316 162.026 250.39 161.652 248.982C163.366 247.929 165.087 246.871 166.887 245.763C168.288 247.949 169.611 250.015 170.983 252.156C170.541 252.384 170.175 252.58 169.804 252.763C165.217 255.022 164.029 261.056 167.417 264.88C170.156 267.97 174.946 268.076 177.963 265.112C178.237 264.842 178.503 264.564 178.845 264.217C180.577 266.973 182.245 269.629 183.993 272.41C175.603 277.063 167.295 281.669 158.873 286.339Z" fill="white"/>
<path d="M63.4915 289.475L37.2672 273.333L38.9136 282.734L16.3256 280.722C16.3256 280.722 18.701 284.895 19.4078 289.755C20.1147 294.615 18.6644 299.917 18.6644 299.917L40.9816 296.234L39.7563 306.371L63.4915 289.475Z" stroke="#FF2B80" stroke-width="1.92587"/>
<path d="M315.218 177.136L285.442 169.285L289.742 177.805L267.54 182.423C267.54 182.423 271.022 185.729 273.107 190.176C275.191 194.623 275.339 200.117 275.339 200.117L295.632 190.127L297.396 200.184L315.218 177.136Z" stroke="#FF2B80" stroke-width="1.92587"/>
</g>
</svg>
