<svg width="192" height="192" viewBox="0 0 192 192" fill="none" xmlns="http://www.w3.org/2000/svg">
<g clip-path="url(#clip0_1404_32975)">
<path fill-rule="evenodd" clip-rule="evenodd" d="M6.9823 73.5386C48.3848 125.941 115.784 124.092 173.04 99.4628C174.024 99.0416 175.169 99.4952 175.59 100.479C176.011 101.464 175.557 102.608 174.573 103.029C115.715 128.351 46.4974 129.813 3.93578 75.9423C3.27101 75.1043 3.41508 73.8843 4.25724 73.2171C5.09515 72.5523 6.31508 72.6965 6.9823 73.5386Z" fill="#EC3981"/>
<path fill-rule="evenodd" clip-rule="evenodd" d="M172.732 101.71C169.342 101.343 165.081 100.929 164.599 100.868C151.535 99.214 139.427 95.622 127.425 90.1362C126.45 89.6922 126.021 88.5372 126.465 87.5626C126.909 86.5879 128.064 86.1588 129.039 86.6028C140.675 91.9261 152.417 95.4129 165.09 97.0158C165.829 97.1097 175.406 98.0336 177.329 98.3658C178.118 98.4984 178.523 98.8187 178.612 98.9034C179.099 99.335 179.235 99.8162 179.267 100.205C179.3 100.644 179.178 101.382 178.527 102.097C177.843 102.843 176.054 104.034 175.626 104.371C169.191 109.478 161.564 114.617 155.488 120.795C149.692 126.686 145.301 133.531 145.028 142.325C144.996 143.396 144.096 144.238 143.026 144.206C141.955 144.173 141.113 143.274 141.145 142.203C141.453 132.371 146.241 124.657 152.717 118.073C158.759 111.932 166.284 106.784 172.732 101.71Z" fill="#EC3981"/>
</g>
<defs>
<clipPath id="clip0_1404_32975">
<rect width="140.544" height="140.544" fill="white" transform="matrix(-0.866025 0.5 0.5 0.866025 121.715 0)"/>
</clipPath>
</defs>
</svg>
