<svg width="16" height="11" viewBox="0 0 16 11" fill="none" xmlns="http://www.w3.org/2000/svg">
<path d="M15.4121 2.16797C15.248 1.51172 14.7285 0.992188 14.0996 0.828125C12.9238 0.5 8.27539 0.5 8.27539 0.5C8.27539 0.5 3.59961 0.5 2.42383 0.828125C1.79492 0.992188 1.27539 1.51172 1.11133 2.16797C0.783203 3.31641 0.783203 5.77734 0.783203 5.77734C0.783203 5.77734 0.783203 8.21094 1.11133 9.38672C1.27539 10.043 1.79492 10.5352 2.42383 10.6992C3.59961 11 8.27539 11 8.27539 11C8.27539 11 12.9238 11 14.0996 10.6992C14.7285 10.5352 15.248 10.043 15.4121 9.38672C15.7402 8.21094 15.7402 5.77734 15.7402 5.77734C15.7402 5.77734 15.7402 3.31641 15.4121 2.16797ZM6.74414 7.99219V3.5625L10.627 5.77734L6.74414 7.99219Z" fill="#FF0000"/>
</svg>
