<svg width="36" height="36" viewBox="0 0 36 36" fill="none" xmlns="http://www.w3.org/2000/svg">
<rect width="36" height="36" rx="18" fill="#313138"/>
<path d="M23.5508 14.9062C24.0977 14.4961 24.5898 14.0039 24.9727 13.4297C24.4805 13.6484 23.9062 13.8125 23.332 13.8672C23.9336 13.5117 24.3711 12.9648 24.5898 12.2812C24.043 12.6094 23.4141 12.8555 22.7852 12.9922C22.2383 12.418 21.5 12.0898 20.6797 12.0898C19.0937 12.0898 17.8086 13.375 17.8086 14.9609C17.8086 15.1797 17.8359 15.3984 17.8906 15.6172C15.5117 15.4805 13.3789 14.332 11.957 12.6094C11.7109 13.0195 11.5742 13.5117 11.5742 14.0586C11.5742 15.043 12.0664 15.918 12.8594 16.4375C12.3945 16.4102 11.9297 16.3008 11.5469 16.082V16.1094C11.5469 17.5039 12.5312 18.6523 13.8437 18.9258C13.625 18.9805 13.3516 19.0352 13.1055 19.0352C12.9141 19.0352 12.75 19.0078 12.5586 18.9805C12.9141 20.1289 13.9805 20.9492 15.2383 20.9766C14.2539 21.7422 13.0234 22.207 11.6836 22.207C11.4375 22.207 11.2187 22.1797 11 22.1523C12.2578 22.9727 13.7617 23.4375 15.4023 23.4375C20.6797 23.4375 23.5508 19.0898 23.5508 15.2891C23.5508 15.1523 23.5508 15.043 23.5508 14.9062Z" fill="#9A9EA6"/>
</svg>
