<svg width="15" height="12" viewBox="0 0 15 12" fill="none" xmlns="http://www.w3.org/2000/svg">
<path d="M13.4512 2.90625C13.998 2.49609 14.4902 2.00391 14.873 1.42969C14.3809 1.64844 13.8066 1.8125 13.2324 1.86719C13.834 1.51172 14.2715 0.964844 14.4902 0.28125C13.9434 0.609375 13.3145 0.855469 12.6855 0.992188C12.1387 0.417969 11.4004 0.0898438 10.5801 0.0898438C8.99414 0.0898438 7.70898 1.375 7.70898 2.96094C7.70898 3.17969 7.73633 3.39844 7.79102 3.61719C5.41211 3.48047 3.2793 2.33203 1.85742 0.609375C1.61133 1.01953 1.47461 1.51172 1.47461 2.05859C1.47461 3.04297 1.9668 3.91797 2.75977 4.4375C2.29492 4.41016 1.83008 4.30078 1.44727 4.08203V4.10938C1.44727 5.50391 2.43164 6.65234 3.74414 6.92578C3.52539 6.98047 3.25195 7.03516 3.00586 7.03516C2.81445 7.03516 2.65039 7.00781 2.45898 6.98047C2.81445 8.12891 3.88086 8.94922 5.13867 8.97656C4.1543 9.74219 2.92383 10.207 1.58398 10.207C1.33789 10.207 1.11914 10.1797 0.900391 10.1523C2.1582 10.9727 3.66211 11.4375 5.30273 11.4375C10.5801 11.4375 13.4512 7.08984 13.4512 3.28906C13.4512 3.15234 13.4512 3.04297 13.4512 2.90625Z" fill="#45454B"/>
</svg>
