<svg width="36" height="36" viewBox="0 0 36 36" fill="none" xmlns="http://www.w3.org/2000/svg">
<rect width="36" height="36" rx="18" fill="#313138"/>
<path d="M25.1367 14.668C24.9727 14.0117 24.4531 13.4922 23.8242 13.3281C22.6484 13 18 13 18 13C18 13 13.3242 13 12.1484 13.3281C11.5195 13.4922 11 14.0117 10.8359 14.668C10.5078 15.8164 10.5078 18.2773 10.5078 18.2773C10.5078 18.2773 10.5078 20.7109 10.8359 21.8867C11 22.543 11.5195 23.0352 12.1484 23.1992C13.3242 23.5 18 23.5 18 23.5C18 23.5 22.6484 23.5 23.8242 23.1992C24.4531 23.0352 24.9727 22.543 25.1367 21.8867C25.4648 20.7109 25.4648 18.2773 25.4648 18.2773C25.4648 18.2773 25.4648 15.8164 25.1367 14.668ZM16.4688 20.4922V16.0625L20.3516 18.2773L16.4688 20.4922Z" fill="#9A9EA6"/>
</svg>
