<svg width="16" height="11" viewBox="0 0 16 11" fill="none" xmlns="http://www.w3.org/2000/svg">
<path d="M14.9619 2.16797C14.7979 1.51172 14.2783 0.992188 13.6494 0.828125C12.4736 0.5 7.8252 0.5 7.8252 0.5C7.8252 0.5 3.14941 0.5 1.97363 0.828125C1.34473 0.992188 0.825195 1.51172 0.661133 2.16797C0.333008 3.31641 0.333008 5.77734 0.333008 5.77734C0.333008 5.77734 0.333008 8.21094 0.661133 9.38672C0.825195 10.043 1.34473 10.5352 1.97363 10.6992C3.14941 11 7.8252 11 7.8252 11C7.8252 11 12.4736 11 13.6494 10.6992C14.2783 10.5352 14.7979 10.043 14.9619 9.38672C15.29 8.21094 15.29 5.77734 15.29 5.77734C15.29 5.77734 15.29 3.31641 14.9619 2.16797ZM6.29395 7.99219V3.5625L10.1768 5.77734L6.29395 7.99219Z" fill="#45454B"/>
</svg>
