<svg width="324" height="423" viewBox="0 0 324 423" fill="none" xmlns="http://www.w3.org/2000/svg">
<path d="M3.61883 419.127C3.61883 419.127 -1.13762 352.291 18.4694 315.648C44.5181 266.967 126.278 288.336 151.727 315.724C177.177 343.112 155.53 372.531 137.372 387.653C119.214 402.774 85.9902 396.884 67.3596 369.205C48.7291 341.525 40.0889 259.978 95.8333 206.841C151.578 153.705 207.472 153.954 219.588 204.917C224.025 223.581 220.475 239.552 213.942 253.709C207.41 267.866 180.714 285.383 159.034 262.638C137.353 239.893 141.039 157.003 184.588 122.239C223.59 91.1039 282.336 81.6519 309.021 109.647C335.706 137.642 309.255 162.856 303.571 168.273C297.887 173.691 280.28 186.298 257.625 168.659C234.97 151.02 182.723 74.7604 279.288 3.1676" stroke="#F5F5F5" stroke-width="6" stroke-linecap="round"/>
</svg>
