<svg width="60" height="60" viewBox="0 0 60 60" fill="none" xmlns="http://www.w3.org/2000/svg">
<path d="M16.875 11.25C16.875 9.17893 18.5539 7.5 20.625 7.5H39.375C41.4461 7.5 43.125 9.17893 43.125 11.25H16.875Z" fill="#3666E4"/>
<path d="M11.25 16.875C11.25 14.8039 12.9289 13.125 15 13.125H45C47.0711 13.125 48.75 14.8039 48.75 16.875V18.75H11.25V16.875Z" fill="#D4417C"/>
<path fill-rule="evenodd" clip-rule="evenodd" d="M9.375 20.625C7.30393 20.625 5.625 22.3039 5.625 24.375V50.625C5.625 52.6961 7.30393 54.375 9.375 54.375H50.625C52.6961 54.375 54.375 52.6961 54.375 50.625V24.375C54.375 22.3039 52.6961 20.625 50.625 20.625H9.375Z" fill="#FBCB33"/>
<path d="M19.6797 37.8536C18.5233 36.7212 17.8125 35.1834 17.8125 33.4896C17.8125 30.009 20.8136 27.1875 24.5156 27.1875C26.7827 27.1875 28.7869 29.5347 30 31.1543C31.2131 29.5347 33.2173 27.1875 35.4844 27.1875C39.1864 27.1875 42.1875 30.009 42.1875 33.4896C42.1875 35.2665 41.4053 36.8717 40.1469 38.0173L30 47.8125L19.6797 37.8536Z" fill="#D4417C"/>
</svg>
