<svg width="237" height="47" viewBox="0 0 237 47" fill="none" xmlns="http://www.w3.org/2000/svg">
<path fill-rule="evenodd" clip-rule="evenodd" d="M172.282 11.7521C170.671 11.9396 169.024 12.5263 167.662 13.3977C166.839 13.9242 165.476 15.2666 164.861 16.1549C164.17 17.155 163.59 18.4126 163.264 19.6202C163.024 20.5087 162.998 20.7829 162.993 22.4766C162.988 24.0863 163.018 24.4729 163.21 25.2227C164.671 30.9523 170.06 34.2562 175.909 33.0075C178.999 32.3478 181.587 30.3312 182.986 27.4938C184.068 25.2972 184.412 23.1149 184.052 20.7243C183.509 17.1223 181.384 14.2106 178.198 12.7011C177.076 12.1696 176.095 11.899 174.748 11.7487C173.669 11.6284 173.34 11.6288 172.282 11.7521ZM199.749 11.7465C193.629 12.4387 189.475 18.2691 190.595 24.5957C190.853 26.0536 191.677 27.9682 192.542 29.1185C193.127 29.8972 194.306 31.0186 195.07 31.5241C199.227 34.2746 205.115 33.7102 208.536 30.2335C210.597 28.1401 211.675 25.4779 211.679 22.4766C211.686 17.1871 208.328 12.93 203.342 11.9084C202.345 11.704 200.757 11.6325 199.749 11.7465ZM99.62 15.7168C94.1301 28.2792 92.149 32.8263 92.149 32.8644C92.149 32.8879 92.9856 32.9073 94.008 32.9073H95.867L96.9365 30.4009L98.006 27.8944H102.95H107.893L108.948 30.4009L110.003 32.9073H111.924C113.705 32.9073 113.84 32.8944 113.792 32.73C113.764 32.6325 112.205 29.0438 110.328 24.7551C108.451 20.4664 106.413 15.8068 105.799 14.4004L104.682 11.8433H102.998H101.313L99.62 15.7168ZM51.2363 22.4766V32.9073H53.0592H54.882V29.5654V26.2235L57.2872 26.2215C60.6881 26.2186 61.832 26.0318 63.5759 25.1943C64.4529 24.7732 64.7513 24.5641 65.4042 23.913C66.7449 22.5759 67.3381 21.0789 67.3381 19.0334C67.3381 17.0198 66.7377 15.4783 65.4646 14.2231C64.6305 13.4008 63.9419 12.9667 62.8811 12.5944C61.472 12.0999 60.786 12.0467 55.8188 12.0463L51.2363 12.0458V22.4766ZM73.313 22.4766V32.9073H80.6043H87.8957V31.2363V29.5654H82.4272H76.9587V20.8056V12.0458H75.1358H73.313V22.4766ZM114.318 12.2231C114.373 12.3206 116.242 15.1801 118.473 18.5777L122.53 24.7551L122.53 28.8312L122.53 32.9073H124.353H126.175V28.7622V24.6171L129.087 20.2008C130.688 17.772 132.556 14.9435 133.238 13.9153L134.477 12.0458H132.36H130.243L130.01 12.4256C129.882 12.6345 128.559 14.7115 127.069 17.0413L124.362 21.2774L123.922 20.5858C123.68 20.2054 122.368 18.1287 121.006 15.9709L118.53 12.0477L116.374 12.0468C114.351 12.046 114.225 12.0567 114.318 12.2231ZM140.151 22.4778V32.9196L145.746 32.8814C151.137 32.8445 151.372 32.835 152.202 32.6179C154.711 31.9615 156.34 30.5154 156.808 28.5293C157.097 27.3076 156.955 25.8876 156.446 24.8895C156.329 24.6605 156.027 24.2525 155.775 23.9829C155.09 23.2509 154.446 22.8644 152.818 22.208C152.584 22.1137 152.599 22.095 153.168 21.7741C155.803 20.2866 156.613 17.0096 154.963 14.5032C154.313 13.5154 153.16 12.7824 151.543 12.3301C150.76 12.111 150.558 12.1024 145.442 12.0696L140.151 12.0358V22.4778ZM218.837 22.4766V32.9073H220.001H221.166V30.1107V27.3142L223.361 25.0979C224.569 23.8789 225.591 22.8816 225.633 22.8816C225.694 22.8816 230.058 28.3277 232.997 32.0718L233.653 32.9073H235.112C236.253 32.9073 236.554 32.8797 236.493 32.7807C236.451 32.7111 234.406 30.1249 231.951 27.0337C229.495 23.9424 227.448 21.3524 227.403 21.2779C227.315 21.1341 227.528 20.9066 232.302 16.0454C233.724 14.5969 235.183 13.1045 235.543 12.7288L236.198 12.0458H234.682H233.165L231.399 13.894C230.427 14.9104 228.556 16.8587 227.241 18.2233C225.926 19.5879 224.055 21.5361 223.084 22.5525C222.113 23.5689 221.284 24.4007 221.242 24.4007C221.2 24.4007 221.166 21.6208 221.166 18.2233V12.0458H220.001H218.837V22.4766ZM171.848 14.0222C168.836 14.6376 166.561 16.824 165.666 19.9624C165.392 20.9246 165.291 22.8913 165.462 23.9483C166.107 27.9511 169.175 30.8374 173.014 31.0549C177.142 31.2886 180.434 28.8372 181.475 24.7551C181.797 23.4892 181.803 21.5908 181.488 20.3194C180.676 17.044 178.292 14.6711 175.169 14.0291C174.241 13.8384 172.762 13.8354 171.848 14.0222ZM199.393 14.0205C195.178 14.8706 192.416 18.8821 192.916 23.4282C193.407 27.8918 196.799 31.0844 201.051 31.0844C204.763 31.0844 207.637 28.9257 208.87 25.2108C209.139 24.4011 209.156 24.2449 209.161 22.5778C209.165 21.0116 209.138 20.7087 208.927 19.9719C208.201 17.4342 206.395 15.3703 204.077 14.4282C202.765 13.8951 200.844 13.7279 199.393 14.0205ZM142.48 17.7675V21.3626L145.847 21.359C149.508 21.3552 150.348 21.2732 151.33 20.8237C152.073 20.4835 152.745 19.8423 153.086 19.1491C153.332 18.6465 153.366 18.4618 153.366 17.6156C153.366 16.8048 153.329 16.582 153.129 16.1979C152.635 15.2469 151.873 14.6923 150.616 14.371C149.915 14.1917 149.483 14.1725 146.16 14.1725H142.48V17.7675ZM54.882 19.143V22.8983L57.6922 22.8604C60.3562 22.8244 60.534 22.81 61.1101 22.5839C62.8 21.9206 63.5911 20.8255 63.5911 19.1493C63.5911 17.2324 62.6816 16.0699 60.8067 15.5904C60.1165 15.4138 59.6833 15.3877 57.4482 15.3877H54.882V19.143ZM101.172 20.3906C100.205 22.6557 99.4354 24.5307 99.4621 24.5573C99.4887 24.5841 101.087 24.5939 103.013 24.5792L106.516 24.5526L104.919 20.8563C104.041 18.8233 103.235 16.9602 103.127 16.7162L102.931 16.2723L101.172 20.3906ZM142.556 23.4453C142.514 23.488 142.48 25.1587 142.48 27.1577V30.7925L146.809 30.758C150.968 30.7248 151.165 30.7146 151.812 30.498C153.13 30.0565 154.09 29.179 154.439 28.097C154.648 27.45 154.599 26.3607 154.333 25.7461C154.05 25.0937 153.298 24.3699 152.565 24.046C151.406 23.5332 150.818 23.4715 146.581 23.4177C144.409 23.3902 142.597 23.4027 142.556 23.4453Z" fill="white"/>
<path fill-rule="evenodd" clip-rule="evenodd" d="M1.52557 3.99353C2.08247 4.56753 3.90511 6.4292 5.57586 8.1306L8.61359 11.224L21.0468 11.2269C27.8851 11.2285 33.4795 11.2116 33.4788 11.1895C33.4764 11.1027 33.2024 10.2152 33.068 9.85877C32.9899 9.65178 32.787 9.20418 32.6172 8.86412C31.0396 5.70477 28.0031 3.52137 24.5091 3.03404C23.9771 2.95984 22.5279 2.94995 12.2095 2.94995H0.513008L1.52557 3.99353ZM1.06846 16.6531C1.37406 16.9745 3.19675 18.8371 5.11885 20.7921L8.61359 24.3469L24.9189 24.3477L41.2242 24.3485L41.1892 24.2006C41.0718 23.7049 40.6926 22.6783 40.4211 22.1211C39.573 20.381 38.3401 18.9638 36.7394 17.8893C35.6693 17.1709 34.6097 16.6964 33.3802 16.3847C32.0645 16.0512 33.0201 16.0686 16.0259 16.0686H0.512792L1.06846 16.6531ZM7.98889 35.33C4.669 38.7085 1.6259 41.8054 1.22637 42.2119L0.5 42.9512H6.30551H12.111L14.7979 40.2096L17.4848 37.468L24.4474 37.4672C28.7459 37.4666 31.5952 37.4456 31.8939 37.4123C35.7633 36.9805 39.0849 34.53 40.6142 30.9791C40.8328 30.4717 41.2221 29.3368 41.2221 29.2072C41.2221 29.1963 35.1028 29.1873 27.6236 29.1873H14.0251L7.98889 35.33Z" fill="#47B5FF"/>
</svg>
