<svg width="16" height="17" viewBox="0 0 16 17" fill="none" xmlns="http://www.w3.org/2000/svg">
<path fill-rule="evenodd" clip-rule="evenodd" d="M10.8686 2.33301H5.10059C3.09259 2.33301 1.83325 3.75567 1.83325 5.76901V11.1997C1.83325 13.213 3.08725 14.6357 5.10059 14.6357H10.8653C12.8819 14.6357 14.1353 13.213 14.1353 11.1997V5.76901C14.1379 3.75567 12.8839 2.33301 10.8686 2.33301Z" stroke="#242428" stroke-width="1.5" stroke-linecap="round" stroke-linejoin="round"/>
<path fill-rule="evenodd" clip-rule="evenodd" d="M7.13541 6.35664C7.13541 7.03664 6.58474 7.58731 5.90474 7.58731C5.22541 7.58731 4.67407 7.03664 4.67407 6.35664C4.67407 5.67664 5.22541 5.12598 5.90474 5.12598C6.58407 5.12664 7.13474 5.67731 7.13541 6.35664Z" stroke="#242428" stroke-width="1.5" stroke-linecap="round" stroke-linejoin="round"/>
<path d="M14.138 10.4674C13.5227 9.83402 12.3393 8.55469 11.0527 8.55469C9.76533 8.55469 9.02333 11.3767 7.78533 11.3767C6.54733 11.3767 5.42267 10.1007 4.43067 10.9187C3.43867 11.736 2.5 13.4074 2.5 13.4074" stroke="#242428" stroke-width="1.5" stroke-linecap="round" stroke-linejoin="round"/>
</svg>
