<svg width="147" height="146" viewBox="0 0 147 146" fill="none" xmlns="http://www.w3.org/2000/svg">
<path d="M27.9601 66.236C27.9601 66.236 48.1764 65.4265 52.5452 32.1953C56.4247 2.68274 90.5146 16.1158 100.369 27.8802C113.134 43.1199 106.329 69.3355 122.842 72.6473C139.356 75.9591 128.572 112.78 103.506 109.256C72.3246 104.872 79.8687 123.093 70.5082 130.805C63.7904 136.34 36.2448 131.012 35.3267 110.919C34.5542 94.0115 27.4222 94.065 22.367 92.1479C15.0763 89.3829 10.4823 69.3582 27.9601 66.236Z" fill="#DEE9FF" fill-opacity="0.3"/>
<path fill-rule="evenodd" clip-rule="evenodd" d="M45.5798 45.6029C46.3695 46.4169 48.9542 49.0569 51.3234 51.4697L55.6312 55.8564L73.2624 55.8605C82.9596 55.8628 90.8929 55.8388 90.892 55.8074C90.8886 55.6843 90.4999 54.4258 90.3093 53.9204C90.1986 53.6268 89.911 52.9921 89.6702 52.5099C87.433 48.0296 83.127 44.9334 78.1723 44.2423C77.4179 44.1371 75.3627 44.123 60.7305 44.123H44.1439L45.5798 45.6029ZM44.9316 63.5553C45.365 64.0111 47.9497 66.6524 50.6754 69.4248L55.6312 74.4658L78.7533 74.4669L101.875 74.4681L101.826 74.2584C101.659 73.5554 101.122 72.0995 100.737 71.3095C99.534 68.8418 97.7857 66.8322 95.5157 65.3084C93.9982 64.2897 92.4957 63.6167 90.7522 63.1748C88.8864 62.7018 90.2415 62.7265 66.1423 62.7265H44.1436L44.9316 63.5553ZM54.7453 90.0408C50.0374 94.8318 45.7221 99.2235 45.1555 99.8L44.1255 100.848H52.3581H60.5908L64.401 96.9606L68.2113 93.0727L78.0848 93.0715C84.1803 93.0708 88.2208 93.0409 88.6444 92.9937C94.1315 92.3814 98.8419 88.9064 101.011 83.8708C101.32 83.1513 101.873 81.5419 101.873 81.3582C101.873 81.3426 93.1949 81.33 82.5888 81.33H63.305L54.7453 90.0408Z" fill="#4DB6FB"/>
</svg>
