<svg width="28" height="29" viewBox="0 0 28 29" fill="none" xmlns="http://www.w3.org/2000/svg">
<path d="M27.2329 14.513C26.7608 14.7196 26.2593 14.8081 25.7282 14.8081C24.0169 14.8081 22.5417 13.7165 21.9811 12.2117C21.332 12.7427 20.5058 13.0969 19.6206 13.0969C17.5847 13.0969 15.9325 11.4447 15.9325 9.40878C15.9325 8.58264 16.198 7.84502 16.6407 7.25498C15.3721 6.724 14.4869 5.45519 14.4869 4.00935C14.4869 3.24228 14.7524 2.53411 15.1655 1.94407C14.6933 1.79651 14.1918 1.70801 13.6608 1.70801C12.3922 1.70801 11.2119 2.20956 10.3563 3.03567C9.20561 2.77017 7.9368 2.91774 6.84518 3.53722C5.75355 4.15693 4.98632 5.18944 4.63232 6.34012C3.48163 6.69412 2.47853 7.43175 1.82942 8.55298C1.20972 9.61515 1.06219 10.884 1.32766 12.0346C0.501528 12.8902 0 14.0705 0 15.3391C0 16.6079 0.501554 17.788 1.32766 18.6438C1.06217 19.7945 1.20973 21.0633 1.82922 22.1549C2.47832 23.2762 3.48143 24.0138 4.63211 24.3678C4.98611 25.5185 5.72374 26.5216 6.84497 27.1707C7.9662 27.8198 9.2054 27.9674 10.3561 27.6722C11.2116 28.4984 12.392 28.9999 13.6606 28.9999C14.9292 28.9999 16.1095 28.4984 16.965 27.6722C18.1157 27.9377 19.3845 27.7902 20.4762 27.1707C21.5678 26.551 22.335 25.5185 22.689 24.3678C23.8397 24.0138 24.8428 23.2762 25.4919 22.1549C26.141 21.0337 26.2886 19.7945 25.9935 18.6438C26.8196 17.7883 27.3211 16.6079 27.3211 15.3393C27.3213 15.0442 27.2919 14.7785 27.2328 14.513L27.2329 14.513ZM6.19602 18.6438C5.28142 18.6438 4.51414 17.9062 4.51414 16.9619C4.51414 16.0473 5.25176 15.28 6.19602 15.28C7.11061 15.28 7.8779 16.0177 7.8779 16.9619C7.87769 17.9062 7.11067 18.6438 6.19602 18.6438ZM9.35292 11.3561C8.43833 11.3561 7.70071 10.6185 7.70071 9.7039C7.70071 8.7893 8.43833 8.05168 9.35292 8.05168C10.2675 8.05168 11.0051 8.7893 11.0051 9.7039C11.0051 10.6185 10.2675 11.3561 9.35292 11.3561ZM12.9525 24.1907C12.097 24.1907 11.4182 23.5121 11.4182 22.6564C11.4182 21.8008 12.0968 21.1221 12.9525 21.1221C13.808 21.1221 14.4868 21.8006 14.4868 22.6564C14.4868 23.5121 13.808 24.1907 12.9525 24.1907ZM13.6607 17.139C12.8936 17.139 12.2739 16.5193 12.2739 15.7523C12.2739 14.9853 12.8937 14.3656 13.6607 14.3656C14.4277 14.3656 15.0474 14.9853 15.0474 15.7523C15.0474 16.5195 14.4277 17.139 13.6607 17.139ZM19.9157 20.8271C19.0011 20.8271 18.2635 20.0895 18.2635 19.1749C18.2635 18.2603 19.0011 17.5227 19.9157 17.5227C20.8303 17.5227 21.5679 18.2603 21.5679 19.1749C21.5385 20.0895 20.8008 20.8271 19.9157 20.8271Z" fill="#9B691E"/>
<path d="M20.831 9.79271C21.7456 9.79271 22.4833 9.05509 22.4833 8.14049C22.4833 7.2259 21.7456 6.48828 20.831 6.48828C19.9164 6.48828 19.1788 7.2259 19.1788 8.14049C19.1494 9.05509 19.887 9.79271 20.831 9.79271Z" fill="#9B691E"/>
<path d="M21.9816 4.30479C22.8962 4.30479 23.6338 3.56717 23.6338 2.65258C23.6338 1.73777 22.8962 0.970703 21.9816 0.970703C21.067 0.970703 20.3293 1.70832 20.3293 2.62292C20.3293 3.53751 21.067 4.30479 21.9816 4.30479Z" fill="#9B691E"/>
<path d="M28.0004 8.58288C28.0004 9.49542 27.2606 10.2351 26.348 10.2351C25.4357 10.2351 24.6958 9.49542 24.6958 8.58288C24.6958 7.67034 25.4357 6.93066 26.348 6.93066C27.2606 6.93066 28.0004 7.67034 28.0004 8.58288Z" fill="#9B691E"/>
</svg>
