<svg width="20" height="21" viewBox="0 0 20 21" fill="none" xmlns="http://www.w3.org/2000/svg">
<path d="M9.99998 17.1667C9.07951 17.1667 8.33331 16.4205 8.33331 15.5C8.33331 14.5796 9.07951 13.8334 9.99998 13.8334C10.9205 13.8334 11.6666 14.5796 11.6666 15.5C11.6666 16.4205 10.9205 17.1667 9.99998 17.1667ZM9.99998 12.1667C9.07951 12.1667 8.33331 11.4205 8.33331 10.5C8.33331 9.57957 9.07951 8.83337 9.99998 8.83337C10.9205 8.83337 11.6666 9.57957 11.6666 10.5C11.6666 10.9421 11.4911 11.366 11.1785 11.6786C10.8659 11.9911 10.442 12.1667 9.99998 12.1667ZM9.99998 7.16671C9.07951 7.16671 8.33331 6.42052 8.33331 5.50004C8.33331 4.57957 9.07951 3.83337 9.99998 3.83337C10.9205 3.83337 11.6666 4.57957 11.6666 5.50004C11.6666 5.94207 11.4911 6.36599 11.1785 6.67855C10.8659 6.99111 10.442 7.16671 9.99998 7.16671Z" fill="#242428"/>
</svg>
