<svg width="146" height="146" viewBox="0 0 146 146" fill="none" xmlns="http://www.w3.org/2000/svg">
<path d="M27.46 66.2368C27.46 66.2368 47.6763 65.4273 52.0451 32.1961C55.9246 2.68353 90.0145 16.1166 99.8687 27.8809C112.634 43.1207 105.829 69.3363 122.342 72.6481C138.856 75.9599 128.072 112.781 103.006 109.257C71.8245 104.873 79.3686 123.093 70.0081 130.805C63.2903 136.34 35.7447 131.012 34.8266 110.92C34.0541 94.0122 26.9221 94.0658 21.8669 92.1487C14.5762 89.3837 9.98224 69.359 27.46 66.2368Z" fill="#DEE9FF" fill-opacity="0.5"/>
<path d="M96.1839 103.142L76.3221 83.5158L72.3891 87.496L92.251 107.122L96.1839 103.142Z" fill="#2B71F7"/>
<path d="M103.771 108.416L88.3186 93.1463C88.2326 93.0613 88.0939 93.0621 88.0089 93.1481L82.1602 99.0671C82.0752 99.1531 82.076 99.2918 82.1621 99.3768L97.6147 114.646C97.7007 114.731 97.8394 114.73 97.9244 114.644L103.773 108.725C103.858 108.639 103.857 108.501 103.771 108.416Z" fill="#FF2B80"/>
<path d="M58.7184 93.3862C72.3828 93.3862 83.4599 82.3091 83.4599 68.6447C83.4599 54.9804 72.3828 43.9032 58.7184 43.9032C45.0541 43.9032 33.9769 54.9804 33.9769 68.6447C33.9769 82.3091 45.0541 93.3862 58.7184 93.3862Z" fill="#FF2B80"/>
<path d="M58.7184 89.3494C70.1532 89.3494 79.4229 80.0797 79.4229 68.645C79.4229 57.2102 70.1532 47.9405 58.7184 47.9405C47.2837 47.9405 38.014 57.2102 38.014 68.645C38.014 80.0797 47.2837 89.3494 58.7184 89.3494Z" fill="#ECF1FD"/>
<path d="M100.547 46.2783C94.7433 44.3971 88.4715 47.5787 86.5827 53.4061C84.7017 59.2096 87.8832 65.4814 93.7106 67.3701C99.5381 69.2588 105.794 66.0461 107.675 60.2423C109.557 54.4385 106.351 48.1594 100.547 46.2783ZM98.7957 51.681C99.4453 51.8916 100.018 52.2903 100.44 52.8267C100.863 53.3631 101.117 54.0129 101.17 54.6937C101.223 55.3745 101.072 56.0557 100.737 56.6508C100.402 57.246 99.8982 57.7283 99.2889 58.0365C98.6795 58.3448 97.9924 58.4651 97.3145 58.3823C96.6367 58.2994 95.9988 58.0172 95.4816 57.5712C94.9644 57.1253 94.5913 56.5359 94.4096 55.8776C94.2279 55.2193 94.2458 54.5219 94.4611 53.8739C95.0422 52.0808 97.0024 51.0999 98.7957 51.681ZM94.4141 65.1996C92.486 64.5778 90.834 63.3051 89.7411 61.5993C91.7863 60.4372 93.9247 60.1135 95.8594 60.7406C97.794 61.3677 99.3672 62.8682 100.311 65.025C98.4249 65.7654 96.3404 65.8271 94.4141 65.1996Z" fill="#00B8B8"/>
<path d="M52.2425 99.1632C51.2345 99.6777 50.4016 100.48 49.8493 101.467C49.297 102.455 49.0501 103.585 49.1397 104.713C49.2293 105.841 49.6515 106.918 50.3528 107.806C51.0541 108.694 52.0031 109.354 53.0797 109.703C54.1563 110.052 55.3123 110.074 56.4013 109.766C57.4904 109.458 58.4637 108.834 59.198 107.973C59.9324 107.112 60.395 106.052 60.5272 104.928C60.6594 103.804 60.4553 102.666 59.9408 101.658C59.2496 100.308 58.0509 99.2865 56.6076 98.8188C55.1644 98.351 53.5945 98.4748 52.2425 99.1632ZM53.5753 101.774C53.8893 101.614 54.2438 101.551 54.5938 101.592C54.9439 101.633 55.2737 101.778 55.5415 102.007C55.8093 102.236 56.003 102.54 56.098 102.88C56.193 103.219 56.1851 103.579 56.0751 103.914C55.9652 104.249 55.7583 104.544 55.4806 104.761C55.203 104.978 54.8671 105.108 54.5155 105.134C54.164 105.16 53.8126 105.081 53.5061 104.907C53.1995 104.733 52.9515 104.472 52.7936 104.156C52.5842 103.736 52.5489 103.251 52.6953 102.805C52.8416 102.359 53.1578 101.988 53.5753 101.774V101.774ZM56.9102 108.308C55.9795 108.785 54.912 108.923 53.8905 108.699C54.2128 107.529 54.8752 106.63 55.8104 106.153C56.7456 105.675 57.8673 105.649 58.9989 106.092C58.5807 107.05 57.8423 107.834 56.9102 108.307V108.308Z" fill="#418DF9"/>
</svg>
