<svg width="147" height="146" viewBox="0 0 147 146" fill="none" xmlns="http://www.w3.org/2000/svg">
<path d="M27.96 66.237C27.96 66.237 48.1763 65.4274 52.5451 32.1962C56.4246 2.68372 90.5145 16.1167 100.369 27.8811C113.134 43.1209 106.329 69.3365 122.842 72.6483C139.356 75.9601 128.572 112.781 103.506 109.257C72.3245 104.873 79.8686 123.094 70.5081 130.806C63.7903 136.341 36.2447 131.012 35.3266 110.92C34.5541 94.0124 27.4221 94.066 22.3669 92.1489C15.0762 89.3839 10.4822 69.3592 27.96 66.237Z" fill="#DEE9FF" fill-opacity="0.5"/>
<path d="M39.6585 64.7267C38.9791 64.8283 38.4161 65.305 38.2067 65.9624L38.2047 65.9687L38.2046 65.9687C37.99 66.6129 38.1663 67.3278 38.6619 67.817C38.6622 67.8173 38.6626 67.8177 38.6629 67.818L54.4555 83.2053L54.6438 83.3888L54.5994 83.6479L50.8696 105.386L39.6585 64.7267ZM39.6585 64.7267C39.6588 64.7267 39.6591 64.7266 39.6594 64.7266L61.4901 61.5609L61.7503 61.5232L61.8667 61.2873L71.6242 41.5134L71.6251 41.5115C71.9288 40.8898 72.5573 40.5 73.2435 40.5C73.9298 40.5 74.5582 40.8898 74.862 41.5116L74.8629 41.5134L84.6204 61.286L84.7367 61.5218L84.997 61.5595L106.828 64.7258C106.828 64.7258 106.829 64.7259 106.829 64.7259C107.471 64.822 108.009 65.253 108.243 65.855L108.281 65.9687C108.495 66.613 108.319 67.3277 107.824 67.8168C107.823 67.8172 107.823 67.8176 107.822 67.818L92.0393 83.2054L91.8512 83.3888L91.8955 83.6477L95.6155 105.386L39.6585 64.7267ZM51.5814 107.148L51.5848 107.15C52.144 107.557 52.8814 107.613 53.4855 107.297L51.5814 107.148ZM51.5814 107.148C51.0308 106.754 50.7534 106.071 50.8695 105.387L51.5814 107.148ZM73.0098 97.0315L53.4861 107.297L95.6156 105.387C95.7318 106.071 95.4543 106.754 94.9038 107.148L94.9001 107.15C94.5806 107.383 94.2132 107.498 93.8377 107.498C93.5425 107.498 93.2548 107.432 93.0005 107.297L92.9996 107.297L73.4752 97.0315L73.2425 96.9092L73.0098 97.0315Z" fill="#FFD550" stroke="#FBC826"/>
</svg>
