<svg width="20" height="20" viewBox="0 0 20 20" fill="none" xmlns="http://www.w3.org/2000/svg">
<path d="M18.3333 7.09996V3.31663C18.3333 2.14163 17.8 1.66663 16.475 1.66663H13.1083C11.7833 1.66663 11.25 2.14163 11.25 3.31663V7.09163C11.25 8.27496 11.7833 8.74163 13.1083 8.74163H16.475C17.8 8.74996 18.3333 8.27496 18.3333 7.09996Z" stroke="#606266" stroke-width="1.5" stroke-linecap="round" stroke-linejoin="round"/>
<path d="M18.3333 16.475V13.1083C18.3333 11.7833 17.8 11.25 16.475 11.25H13.1083C11.7833 11.25 11.25 11.7833 11.25 13.1083V16.475C11.25 17.8 11.7833 18.3333 13.1083 18.3333H16.475C17.8 18.3333 18.3333 17.8 18.3333 16.475Z" stroke="#606266" stroke-width="1.5" stroke-linecap="round" stroke-linejoin="round"/>
<path d="M8.75002 7.09996V3.31663C8.75002 2.14163 8.21669 1.66663 6.89169 1.66663H3.52502C2.20002 1.66663 1.66669 2.14163 1.66669 3.31663V7.09163C1.66669 8.27496 2.20002 8.74163 3.52502 8.74163H6.89169C8.21669 8.74996 8.75002 8.27496 8.75002 7.09996Z" stroke="#606266" stroke-width="1.5" stroke-linecap="round" stroke-linejoin="round"/>
<path d="M8.75002 16.475V13.1083C8.75002 11.7833 8.21669 11.25 6.89169 11.25H3.52502C2.20002 11.25 1.66669 11.7833 1.66669 13.1083V16.475C1.66669 17.8 2.20002 18.3333 3.52502 18.3333H6.89169C8.21669 18.3333 8.75002 17.8 8.75002 16.475Z" stroke="#606266" stroke-width="1.5" stroke-linecap="round" stroke-linejoin="round"/>
</svg>
