<svg width="32" height="32" viewBox="0 0 32 32" fill="none" xmlns="http://www.w3.org/2000/svg">
<path fill-rule="evenodd" clip-rule="evenodd" d="M27.0495 6.9907C27.5682 6.9907 28 7.42137 28 7.96936V8.47602C28 9.01068 27.5682 9.45468 27.0495 9.45468H4.9518C4.43181 9.45468 4 9.01068 4 8.47602V7.96936C4 7.42137 4.43181 6.9907 4.9518 6.9907H8.83942C9.62913 6.9907 10.3164 6.42938 10.4941 5.63738L10.6976 4.72806C11.014 3.48941 12.0553 2.66675 13.247 2.66675H18.753C19.9317 2.66675 20.9847 3.48941 21.2894 4.66273L21.5072 5.63605C21.6836 6.42938 22.3709 6.9907 23.1619 6.9907H27.0495ZM25.0744 25.5121C25.4803 21.7295 26.1909 12.7429 26.1909 12.6522C26.2169 12.3776 26.1274 12.1176 25.9497 11.9083C25.7591 11.7123 25.5179 11.5963 25.2521 11.5963H6.75803C6.4909 11.5963 6.23674 11.7123 6.06038 11.9083C5.88143 12.1176 5.79326 12.3776 5.80622 12.6522C5.80861 12.6689 5.83411 12.9855 5.87674 13.5147C6.06611 15.8657 6.59356 22.4136 6.93439 25.5121C7.17558 27.7948 8.67331 29.2294 10.8427 29.2814C12.5168 29.3201 14.2415 29.3334 16.0051 29.3334C17.6662 29.3334 19.3532 29.3201 21.0792 29.2814C23.3238 29.2427 24.8203 27.8334 25.0744 25.5121Z" fill="#FF3B30"/>
</svg>
