<svg width="18" height="18" viewBox="0 0 18 18" fill="none" xmlns="http://www.w3.org/2000/svg">
<path fill-rule="evenodd" clip-rule="evenodd" d="M1.74932 2.39133C1.95815 2.60657 2.64161 3.30468 3.26812 3.94268L4.40722 5.10268L9.06948 5.10375C11.6337 5.10436 13.7316 5.09802 13.7313 5.08972C13.7304 5.05718 13.6276 4.72438 13.5772 4.59073C13.548 4.5131 13.4719 4.34526 13.4082 4.21774C12.8166 3.03302 11.678 2.21427 10.3678 2.03153C10.1683 2.00371 9.62487 2 5.75563 2H1.36962L1.74932 2.39133ZM1.57791 7.13851C1.69251 7.25903 2.37599 7.95748 3.09675 8.6906L4.40722 10.0236L10.5215 10.0239L16.6357 10.0242L16.6226 9.96875C16.5785 9.78286 16.4363 9.39788 16.3345 9.18897C16.0165 8.53643 15.5542 8.00502 14.954 7.6021C14.5527 7.3327 14.1554 7.15476 13.6943 7.03788C13.201 6.91282 13.5593 6.91935 7.18671 6.91935H1.36954L1.57791 7.13851ZM4.17297 14.1421C2.92806 15.409 1.78694 16.5703 1.63712 16.7228L1.36475 17H3.54172H5.7187L6.72625 15.9719L7.7338 14.9439L10.3447 14.9435C11.9565 14.9433 13.025 14.9355 13.137 14.923C14.5879 14.761 15.8335 13.8422 16.407 12.5106C16.4889 12.3203 16.6349 11.8947 16.6349 11.8462C16.6349 11.8421 14.3403 11.8387 11.5357 11.8387H6.43643L4.17297 14.1421Z" fill="#737373"/>
</svg>
