<svg width="20" height="20" viewBox="0 0 20 20" fill="none" xmlns="http://www.w3.org/2000/svg">
<path d="M16.5834 11.25H3.41669C2.16669 11.25 1.66669 11.7833 1.66669 13.1083V16.475C1.66669 17.8 2.16669 18.3333 3.41669 18.3333H16.5834C17.8334 18.3333 18.3334 17.8 18.3334 16.475V13.1083C18.3334 11.7833 17.8334 11.25 16.5834 11.25Z" stroke="#2B71F7" stroke-width="1.5" stroke-linecap="round" stroke-linejoin="round"/>
<path d="M16.5834 1.66663H3.41669C2.16669 1.66663 1.66669 2.19996 1.66669 3.52496V6.89163C1.66669 8.21663 2.16669 8.74996 3.41669 8.74996H16.5834C17.8334 8.74996 18.3334 8.21663 18.3334 6.89163V3.52496C18.3334 2.19996 17.8334 1.66663 16.5834 1.66663Z" stroke="#2B71F7" stroke-width="1.5" stroke-linecap="round" stroke-linejoin="round"/>
</svg>
