<svg width="24" height="25" viewBox="0 0 24 25" fill="none" xmlns="http://www.w3.org/2000/svg">
<path d="M17.9185 14.8201C17.6595 15.0711 17.5405 15.4341 17.5995 15.7901L18.4885 20.7101C18.5635 21.1271 18.3875 21.5491 18.0385 21.7901C17.6965 22.0401 17.2415 22.0701 16.8685 21.8701L12.4395 19.5601C12.2855 19.4781 12.1145 19.4341 11.9395 19.4291H11.6685C11.5745 19.4431 11.4825 19.4731 11.3985 19.5191L6.96849 21.8401C6.74949 21.9501 6.50149 21.9891 6.25849 21.9501C5.66649 21.8381 5.27149 21.2741 5.36849 20.6791L6.25849 15.7591C6.31749 15.4001 6.19849 15.0351 5.93949 14.7801L2.32849 11.2801C2.02649 10.9871 1.92149 10.5471 2.05949 10.1501C2.19349 9.75412 2.53549 9.46512 2.94849 9.40012L7.91849 8.67912C8.29649 8.64012 8.62849 8.41012 8.79849 8.07012L10.9885 3.58012C11.0405 3.48012 11.1075 3.38812 11.1885 3.31012L11.2785 3.24012C11.3255 3.18812 11.3795 3.14512 11.4395 3.11012L11.5485 3.07012L11.7185 3.00012H12.1395C12.5155 3.03912 12.8465 3.26412 13.0195 3.60012L15.2385 8.07012C15.3985 8.39712 15.7095 8.62412 16.0685 8.67912L21.0385 9.40012C21.4585 9.46012 21.8095 9.75012 21.9485 10.1501C22.0795 10.5511 21.9665 10.9911 21.6585 11.2801L17.9185 14.8201Z" fill="#FBCB33"/>
</svg>
