<svg width="18" height="18" viewBox="0 0 18 18" fill="none" xmlns="http://www.w3.org/2000/svg">
<path fill-rule="evenodd" clip-rule="evenodd" d="M7.40726 11.4047C4.52426 11.4047 2.06201 11.8404 2.06201 13.5864C2.06201 15.3324 4.50926 15.7839 7.40726 15.7839C10.291 15.7839 12.7525 15.3474 12.7525 13.6022C12.7525 11.8569 10.306 11.4047 7.40726 11.4047Z" stroke="#737373" stroke-width="1.5" stroke-linecap="round" stroke-linejoin="round"/>
<path fill-rule="evenodd" clip-rule="evenodd" d="M7.40721 8.91444C9.29946 8.91444 10.8332 7.38069 10.8332 5.48844C10.8332 3.59619 9.29946 2.06244 7.40721 2.06244C5.51571 2.06244 3.98196 3.59619 3.98196 5.48844C3.97521 7.37394 5.49771 8.90769 7.38396 8.91444H7.40721Z" stroke="#737373" stroke-width="1.5" stroke-linecap="round" stroke-linejoin="round"/>
<path d="M14.4023 6.50183V9.50933" stroke="#737373" stroke-width="1.5" stroke-linecap="round" stroke-linejoin="round"/>
<path d="M15.9371 8.00549H12.8696" stroke="#737373" stroke-width="1.5" stroke-linecap="round" stroke-linejoin="round"/>
</svg>
