<svg width="16" height="16" viewBox="0 0 16 16" fill="none" xmlns="http://www.w3.org/2000/svg">
<path d="M6.09566 13.8547V11.8101C6.09565 11.292 6.51695 10.8711 7.03879 10.8679H8.95491C9.47909 10.8679 9.90402 11.2897 9.90402 11.8101V13.8488C9.904 14.2982 10.2692 14.6634 10.7218 14.6666H12.0291C12.6396 14.6682 13.2257 14.4285 13.6579 14.0005C14.0902 13.5724 14.3332 12.9911 14.3332 12.385V6.57721C14.3332 6.08757 14.1145 5.62312 13.7362 5.30898L9.29516 1.78283C8.51885 1.16606 7.41009 1.18599 6.65676 1.83024L2.31118 5.30898C1.915 5.61386 1.67821 6.07969 1.6665 6.57721V12.3791C1.6665 13.6425 2.69809 14.6666 3.97062 14.6666H5.24803C5.46595 14.6682 5.6755 14.5834 5.83015 14.4309C5.98481 14.2785 6.07179 14.0711 6.07178 13.8547H6.09566Z" fill="#2B71F7"/>
</svg>
