<svg width="18" height="18" viewBox="0 0 18 18" fill="none" xmlns="http://www.w3.org/2000/svg">
<path d="M4.5 4.39334C4.5 3.75517 4.5 3.43608 4.62836 3.26019C4.74019 3.10696 4.91112 3.01213 5.09614 3.00068C5.30853 2.98754 5.56466 3.16453 6.07691 3.51853L12.743 8.12519C13.1663 8.41769 13.3779 8.56394 13.4516 8.74828C13.5161 8.90944 13.5161 9.09056 13.4516 9.25172C13.3779 9.43606 13.1663 9.58231 12.743 9.87481L6.0769 14.4815C5.56466 14.8355 5.30853 15.0125 5.09614 14.9993C4.91112 14.9879 4.74019 14.893 4.62836 14.7398C4.5 14.5639 4.5 14.2448 4.5 13.6067V4.39334Z" stroke="#737373" stroke-width="1.5" stroke-linecap="round" stroke-linejoin="round"/>
</svg>
