<svg width="16" height="16" viewBox="0 0 16 16" fill="none" xmlns="http://www.w3.org/2000/svg">
<path opacity="0.4" d="M10.794 1.33331H5.20667C3.18 1.33331 2 2.51998 2 4.55331V11.44C2 13.5066 3.18 14.6666 5.20667 14.6666H10.794C12.8533 14.6666 14 13.5066 14 11.44V4.55331C14 2.51998 12.8533 1.33331 10.794 1.33331Z" fill="#FF3B30"/>
<path fill-rule="evenodd" clip-rule="evenodd" d="M5.38664 4.43329V4.43996C5.09931 4.43996 4.86664 4.67329 4.86664 4.95996C4.86664 5.24662 5.09931 5.47996 5.38664 5.47996H7.37931C7.66664 5.47996 7.89997 5.24662 7.89997 4.95262C7.89997 4.66662 7.66664 4.43329 7.37931 4.43329H5.38664ZM10.6133 8.49329H5.38664C5.09931 8.49329 4.86664 8.25995 4.86664 7.97329C4.86664 7.68662 5.09931 7.45262 5.38664 7.45262H10.6133C10.9 7.45262 11.1333 7.68662 11.1333 7.97329C11.1333 8.25995 10.9 8.49329 10.6133 8.49329ZM10.6133 11.54H5.38664C5.18664 11.5666 4.99331 11.4666 4.88664 11.3C4.77997 11.1266 4.77997 10.9066 4.88664 10.74C4.99331 10.5666 5.18664 10.4733 5.38664 10.4933H10.6133C10.8793 10.52 11.08 10.7466 11.08 11.02C11.08 11.286 10.8793 11.5133 10.6133 11.54Z" fill="#FF3B30"/>
</svg>
