<svg width="160" height="32" viewBox="0 0 160 32" fill="none" xmlns="http://www.w3.org/2000/svg">
<path fill-rule="evenodd" clip-rule="evenodd" d="M116.462 8.19831C115.37 8.32546 114.253 8.72319 113.33 9.31398C112.772 9.67093 111.847 10.5811 111.431 11.1833C110.962 11.8613 110.569 12.7139 110.348 13.5326C110.185 14.135 110.168 14.3209 110.164 15.4692C110.161 16.5605 110.182 16.8226 110.311 17.3309C111.302 21.2154 114.956 23.4553 118.921 22.6088C121.016 22.1615 122.771 20.7943 123.719 18.8707C124.453 17.3814 124.686 15.9019 124.441 14.2812C124.073 11.8391 122.633 9.86509 120.473 8.84169C119.712 8.48138 119.047 8.29793 118.134 8.19605C117.402 8.11448 117.179 8.11475 116.462 8.19831ZM135.083 8.19453C130.934 8.6638 128.118 12.6167 128.877 16.9059C129.052 17.8943 129.611 19.1923 130.197 19.9722C130.594 20.5001 131.393 21.2604 131.911 21.6031C134.729 23.4678 138.721 23.0852 141.041 20.7281C142.438 19.3089 143.169 17.5039 143.172 15.4692C143.176 11.8831 140.9 8.99692 137.52 8.30431C136.843 8.16569 135.767 8.11722 135.083 8.19453ZM67.1996 10.8863C63.4776 19.4031 62.1345 22.4859 62.1345 22.5118C62.1345 22.5277 62.7017 22.5408 63.3948 22.5408H64.6552L65.3803 20.8416L66.1054 19.1423H69.4569H72.8084L73.5237 20.8416L74.2389 22.5408H75.541C76.7488 22.5408 76.8406 22.5321 76.8079 22.4207C76.7885 22.3546 75.7315 19.9216 74.459 17.0139C73.1864 14.1063 71.8047 10.9473 71.3885 9.99376L70.6318 8.26017H69.4895H68.3473L67.1996 10.8863ZM34.3971 15.4692V22.5408H35.6329H36.8687V20.2751V18.0095L38.4993 18.0081C40.8051 18.0062 41.5806 17.8795 42.7629 17.3117C43.3575 17.0262 43.5598 16.8844 44.0024 16.443C44.9114 15.5365 45.3136 14.5216 45.3136 13.1348C45.3136 11.7696 44.9065 10.7245 44.0434 9.87361C43.4779 9.31611 43.0111 9.02178 42.2918 8.7694C41.3365 8.43415 40.8714 8.39803 37.5038 8.39776L34.3971 8.39748V15.4692ZM49.3643 15.4692V22.5408H54.3076H59.2509V21.408V20.2751H55.5434H51.836V14.3363V8.39748H50.6001H49.3643V15.4692ZM77.1642 8.51763C77.2013 8.58375 78.469 10.5224 79.9815 12.8259L82.7315 17.0139L82.7315 19.7774L82.7316 22.5408H83.9674H85.2032V19.7306V16.9204L87.1771 13.9263C88.2628 12.2796 89.529 10.362 89.9911 9.66489L90.8313 8.39748H89.396H87.9607L87.8029 8.65495C87.7162 8.79659 86.8191 10.2047 85.8094 11.7843L83.9735 14.6562L83.6754 14.1873C83.5115 13.9294 82.6219 12.5214 81.6985 11.0586L80.0196 8.39871L78.5583 8.3981C77.1865 8.39755 77.101 8.40483 77.1642 8.51763ZM94.6779 15.47V22.5492L98.4712 22.5233C102.126 22.4983 102.286 22.4918 102.848 22.3447C104.549 21.8996 105.654 20.9192 105.971 19.5727C106.167 18.7444 106.071 17.7817 105.726 17.105C105.646 16.9498 105.442 16.6732 105.271 16.4904C104.806 15.9941 104.37 15.7321 103.266 15.2871C103.107 15.2232 103.118 15.2104 103.503 14.9929C105.29 13.9844 105.839 11.7628 104.721 10.0635C104.28 9.39376 103.498 8.89683 102.402 8.5902C101.871 8.44163 101.734 8.43579 98.2652 8.41362L94.6779 8.39069V15.47ZM148.024 15.4692V22.5408H148.814H149.603V20.6449V18.7489L151.092 17.2463C151.911 16.4199 152.604 15.7438 152.632 15.7438C152.673 15.7438 155.632 19.436 157.624 21.9744L158.069 22.5408H159.058C159.832 22.5408 160.036 22.5221 159.995 22.455C159.966 22.4078 158.58 20.6545 156.915 18.5587C155.25 16.463 153.863 14.707 153.832 14.6565C153.773 14.559 153.917 14.4048 157.153 11.109C158.118 10.127 159.106 9.11522 159.351 8.86051L159.795 8.39748H158.767H157.739L156.541 9.65047C155.882 10.3396 154.614 11.6604 153.722 12.5856C152.83 13.5107 151.562 14.8315 150.904 15.5206C150.246 16.2098 149.684 16.7736 149.655 16.7736C149.627 16.7736 149.603 14.889 149.603 12.5856V8.39748H148.814H148.024V15.4692ZM116.168 9.73739C114.126 10.1546 112.583 11.6369 111.977 13.7647C111.791 14.417 111.722 15.7504 111.838 16.4669C112.276 19.1807 114.355 21.1375 116.958 21.2849C119.757 21.4434 121.989 19.7814 122.694 17.0139C122.913 16.1557 122.917 14.8686 122.703 14.0067C122.153 11.786 120.537 10.1773 118.419 9.74206C117.79 9.61278 116.788 9.61072 116.168 9.73739ZM134.842 9.73623C131.984 10.3126 130.112 13.0322 130.451 16.1143C130.784 19.1405 133.084 21.305 135.966 21.305C138.483 21.305 140.431 19.8414 141.268 17.3229C141.45 16.7739 141.462 16.668 141.465 15.5378C141.467 14.476 141.449 14.2706 141.306 13.7711C140.814 12.0506 139.59 10.6514 138.018 10.0126C137.129 9.65123 135.826 9.53788 134.842 9.73623ZM96.257 12.2766V14.7139L98.5399 14.7115C101.022 14.7089 101.591 14.6533 102.257 14.3486C102.761 14.1179 103.217 13.6832 103.447 13.2132C103.615 12.8725 103.638 12.7473 103.638 12.1736C103.638 11.6239 103.612 11.4728 103.477 11.2124C103.142 10.5677 102.625 10.1917 101.773 9.97384C101.298 9.85232 101.005 9.83928 98.752 9.83928H96.257V12.2766ZM36.8687 13.2091V15.7551L38.774 15.7294C40.5801 15.705 40.7006 15.6952 41.0911 15.5419C42.2369 15.0922 42.7732 14.3498 42.7732 13.2134C42.7732 11.9138 42.1566 11.1256 40.8855 10.8005C40.4176 10.6809 40.1238 10.6632 38.6085 10.6632H36.8687V13.2091ZM68.2521 14.055C67.5962 15.5906 67.0744 16.8618 67.0925 16.8798C67.1106 16.898 68.194 16.9046 69.5 16.8947L71.8747 16.8766L70.7922 14.3706C70.1969 12.9924 69.6501 11.7293 69.5771 11.5638L69.4446 11.2629L68.2521 14.055ZM96.3085 16.1259C96.2802 16.1549 96.257 17.2875 96.257 18.6428V21.1071L99.1921 21.0837C102.012 21.0612 102.145 21.0543 102.584 20.9074C103.477 20.6081 104.128 20.0132 104.365 19.2796C104.507 18.841 104.473 18.1025 104.293 17.6858C104.101 17.2435 103.591 16.7528 103.095 16.5332C102.308 16.1855 101.91 16.1437 99.0376 16.1072C97.5649 16.0886 96.3368 16.097 96.3085 16.1259Z" fill="#0F053A"/>
<path fill-rule="evenodd" clip-rule="evenodd" d="M0.6953 2.93823C1.07286 3.32738 2.30855 4.58953 3.44126 5.74302L5.50074 7.84026L13.93 7.84219C18.5661 7.84328 22.359 7.83184 22.3585 7.81682C22.3569 7.75799 22.1711 7.15629 22.08 6.91466C22.0271 6.77432 21.8895 6.47087 21.7744 6.24032C20.7048 4.09839 18.6462 2.61811 16.2774 2.28772C15.9167 2.23742 14.9342 2.23071 7.93865 2.23071H0.00881906L0.6953 2.93823ZM0.385396 11.521C0.592583 11.7389 1.8283 13.0016 3.13143 14.3271L5.50074 16.7371L16.5552 16.7376L27.6096 16.7382L27.5859 16.6379C27.5063 16.3019 27.2492 15.6058 27.0651 15.2281C26.4902 14.0484 25.6543 13.0876 24.5691 12.3591C23.8436 11.8721 23.1252 11.5503 22.2917 11.339C21.3997 11.1129 22.0475 11.1247 10.526 11.1247H0.00867223L0.385396 11.521ZM5.07721 24.1833C2.82644 26.4738 0.76332 28.5734 0.492453 28.849L0 29.3502H3.93594H7.87187L9.69351 27.4915L11.5151 25.6328L16.2355 25.6322C19.1498 25.6319 21.0815 25.6176 21.284 25.595C23.9073 25.3023 26.1593 23.6409 27.1961 21.2335C27.3443 20.8895 27.6082 20.1201 27.6082 20.0323C27.6082 20.0248 23.4595 20.0188 18.3889 20.0188H9.16953L5.07721 24.1833Z" fill="#47B5FF"/>
</svg>
