<svg width="192" height="192" viewBox="0 0 192 192" fill="none" xmlns="http://www.w3.org/2000/svg">
<g clip-path="url(#clip0_563_1735)">
<path fill-rule="evenodd" clip-rule="evenodd" d="M185.003 73.5386C143.601 125.941 76.2014 124.092 18.9454 99.4628C17.9612 99.0416 16.8168 99.4952 16.3956 100.479C15.9745 101.464 16.4281 102.608 17.4123 103.029C76.2703 128.351 145.488 129.813 188.05 75.9423C188.714 75.1043 188.57 73.8843 187.728 73.2171C186.89 72.5523 185.67 72.6965 185.003 73.5386Z" fill="#EC3981"/>
<path fill-rule="evenodd" clip-rule="evenodd" d="M19.2541 101.71C22.6447 101.343 26.905 100.929 27.3871 100.868C40.4516 99.214 52.5594 95.622 64.5613 90.1362C65.536 89.6922 65.9652 88.5373 65.5211 87.5626C65.0771 86.5879 63.9222 86.1588 62.9475 86.6028C51.3109 91.9261 39.5694 95.4129 26.8964 97.0158C26.1577 97.1097 16.5802 98.0336 14.6576 98.3658C13.8683 98.4984 13.463 98.8187 13.3745 98.9034C12.8878 99.335 12.7513 99.8162 12.7192 100.205C12.6863 100.644 12.8086 101.382 13.4592 102.097C14.143 102.843 15.9325 104.034 16.36 104.371C22.795 109.478 30.4221 114.617 36.4988 120.795C42.2942 126.686 46.6849 133.531 46.958 142.325C46.9903 143.396 47.89 144.238 48.9607 144.206C50.0313 144.173 50.8733 143.274 50.841 142.203C50.5336 132.371 45.745 124.657 39.2691 118.073C33.2275 111.932 25.7021 106.784 19.2541 101.71Z" fill="#EC3981"/>
</g>
<defs>
<clipPath id="clip0_563_1735">
<rect width="140.544" height="140.544" fill="white" transform="translate(70.2715) rotate(30)"/>
</clipPath>
</defs>
</svg>
