<svg width="22" height="22" viewBox="0 0 22 22" fill="none" xmlns="http://www.w3.org/2000/svg">
<path fill-rule="evenodd" clip-rule="evenodd" d="M12.0122 3.82896L13.6874 7.17548C13.8515 7.50402 14.1684 7.73182 14.5359 7.78454L18.2832 8.32394C19.2091 8.45761 19.5775 9.57971 18.9075 10.2227L16.1977 12.8264C15.9314 13.0825 15.8101 13.4506 15.8731 13.812L16.5126 17.488C16.6701 18.3974 15.7023 19.0912 14.8747 18.661L11.5254 16.9242C11.1971 16.7538 10.8039 16.7538 10.4746 16.9242L7.12525 18.661C6.29771 19.0912 5.32986 18.3974 5.48831 17.488L6.12686 13.812C6.18986 13.4506 6.06864 13.0825 5.80233 12.8264L3.09254 10.2227C2.42249 9.57971 2.79092 8.45761 3.71678 8.32394L7.4641 7.78454C7.83158 7.73182 8.14942 7.50402 8.31359 7.17548L9.98776 3.82896C10.402 3.00151 11.598 3.00151 12.0122 3.82896Z" stroke="#737373" stroke-width="1.5" stroke-linecap="round" stroke-linejoin="round"/>
</svg>
